<svg xmlns="http://www.w3.org/2000/svg" xmlns:xlink="http://www.w3.org/1999/xlink" width="1200" zoomAndPan="magnify" viewBox="0 0 900 225" height="300" preserveAspectRatio="xMidYMid meet" version="1.0"><defs><g/><clipPath id="461b0a0924"><path d="M 69.621094 92.382812 L 220.285156 92.382812 L 220.285156 147.214844 L 69.621094 147.214844 Z M 69.621094 92.382812 " clip-rule="nonzero"/></clipPath><clipPath id="b8ae4e0e91"><path d="M 222.144531 92.382812 L 372.808594 92.382812 L 372.808594 147.214844 L 222.144531 147.214844 Z M 222.144531 92.382812 " clip-rule="nonzero"/></clipPath><clipPath id="6b43ab2777"><path d="M 374.667969 92.382812 L 525.332031 92.382812 L 525.332031 147.214844 L 374.667969 147.214844 Z M 374.667969 92.382812 " clip-rule="nonzero"/></clipPath><clipPath id="6eb3dda2c4"><path d="M 527.191406 92.382812 L 677.855469 92.382812 L 677.855469 147.214844 L 527.191406 147.214844 Z M 527.191406 92.382812 " clip-rule="nonzero"/></clipPath><clipPath id="760400bc2d"><path d="M 679.714844 92.382812 L 830.378906 92.382812 L 830.378906 147.214844 L 679.714844 147.214844 Z M 679.714844 92.382812 " clip-rule="nonzero"/></clipPath><clipPath id="20239924e6"><path d="M 136.046875 72.246094 L 153.851562 72.246094 L 153.851562 87.824219 L 136.046875 87.824219 Z M 136.046875 72.246094 " clip-rule="nonzero"/></clipPath><clipPath id="8fb4d16c0f"><path d="M 144.949219 87.824219 L 136.046875 72.246094 L 153.851562 72.246094 L 144.949219 87.824219 " clip-rule="nonzero"/></clipPath><clipPath id="e874ed0acd"><path d="M 136.050781 151.867188 L 153.855469 151.867188 L 153.855469 167.445312 L 136.050781 167.445312 Z M 136.050781 151.867188 " clip-rule="nonzero"/></clipPath><clipPath id="407e4a9f36"><path d="M 144.953125 151.867188 L 153.855469 167.445312 L 136.050781 167.445312 L 144.953125 151.867188 " clip-rule="nonzero"/></clipPath></defs><g clip-path="url(#461b0a0924)"><path fill="#0000cc" d="M 69.621094 92.382812 L 220.285156 92.382812 L 220.285156 147.214844 L 69.621094 147.214844 Z M 69.621094 92.382812 " fill-opacity="1" fill-rule="nonzero"/></g><g clip-path="url(#b8ae4e0e91)"><path fill="#578257" d="M 222.144531 92.382812 L 372.808594 92.382812 L 372.808594 147.214844 L 222.144531 147.214844 Z M 222.144531 92.382812 " fill-opacity="1" fill-rule="nonzero"/></g><g clip-path="url(#6b43ab2777)"><path fill="#ebdc8e" d="M 374.667969 92.382812 L 525.332031 92.382812 L 525.332031 147.214844 L 374.667969 147.214844 Z M 374.667969 92.382812 " fill-opacity="1" fill-rule="nonzero"/></g><g clip-path="url(#6eb3dda2c4)"><path fill="#f4cc82" d="M 527.191406 92.382812 L 677.855469 92.382812 L 677.855469 147.214844 L 527.191406 147.214844 Z M 527.191406 92.382812 " fill-opacity="1" fill-rule="nonzero"/></g><g clip-path="url(#760400bc2d)"><path fill="#fd9a9a" d="M 679.714844 92.382812 L 830.378906 92.382812 L 830.378906 147.214844 L 679.714844 147.214844 Z M 679.714844 92.382812 " fill-opacity="1" fill-rule="nonzero"/></g><path stroke-linecap="butt" transform="matrix(-0.00000153046, -0.749118, 0.75, -0.00000153226, 882.571067, 194.389896)" fill="none" stroke-linejoin="miter" d="M -0.000978923 2.498994 L 199.233406 2.4994 " stroke="#a6a6a6" stroke-width="5" stroke-opacity="1" stroke-miterlimit="4"/><path stroke-linecap="butt" transform="matrix(0.750302, 0.000000000000000037, -0.000000000000000037, 0.75, 13.671339, 192.515481)" fill="none" stroke-linejoin="miter" d="M 0.000714978 2.500192 L 1163.542375 2.500192 " stroke="#a6a6a6" stroke-width="5" stroke-opacity="1" stroke-miterlimit="4"/><path stroke-linecap="butt" transform="matrix(0.000000000000000046, -0.749118, 0.75, 0.000000000000000046, 13.677738, 194.389836)" fill="none" stroke-linejoin="miter" d="M -0.00105391 2.502599 L 199.238545 2.502599 " stroke="#a6a6a6" stroke-width="5" stroke-opacity="1" stroke-miterlimit="4"/><g clip-path="url(#20239924e6)"><g clip-path="url(#8fb4d16c0f)"><path fill="#a6a6a6" d="M 153.851562 87.824219 L 136.046875 87.824219 L 136.046875 72.246094 L 153.851562 72.246094 Z M 153.851562 87.824219 " fill-opacity="1" fill-rule="nonzero"/></g></g><g fill="#ffffff" fill-opacity="1"><g transform="translate(136.277751, 128.386878)"><g><path d="M 0.03125 -0.8125 L 0.8125 -0.984375 C 0.976562 -1.035156 1.128906 -1.09375 1.265625 -1.15625 C 1.410156 -1.21875 1.546875 -1.328125 1.671875 -1.484375 C 1.804688 -1.640625 1.9375 -1.859375 2.0625 -2.140625 C 2.195312 -2.429688 2.359375 -2.828125 2.546875 -3.328125 L 7.828125 -18.046875 L 9.390625 -18.046875 L 14.9375 -3.046875 C 15.113281 -2.609375 15.265625 -2.265625 15.390625 -2.015625 C 15.523438 -1.765625 15.65625 -1.566406 15.78125 -1.421875 C 15.914062 -1.285156 16.046875 -1.191406 16.171875 -1.140625 C 16.304688 -1.085938 16.453125 -1.035156 16.609375 -0.984375 L 17.34375 -0.8125 L 17.34375 0 L 10.796875 0 L 10.796875 -0.8125 L 11.53125 -0.984375 C 11.875 -1.078125 12.109375 -1.175781 12.234375 -1.28125 C 12.367188 -1.382812 12.4375 -1.539062 12.4375 -1.75 C 12.4375 -1.9375 12.394531 -2.148438 12.3125 -2.390625 C 12.238281 -2.640625 12.144531 -2.9375 12.03125 -3.28125 L 11.015625 -6.0625 L 4.96875 -6.0625 L 4.03125 -3.28125 C 3.914062 -2.9375 3.832031 -2.660156 3.78125 -2.453125 C 3.726562 -2.253906 3.703125 -2.0625 3.703125 -1.875 C 3.703125 -1.59375 3.78125 -1.390625 3.9375 -1.265625 C 4.09375 -1.148438 4.328125 -1.054688 4.640625 -0.984375 L 5.515625 -0.8125 L 5.515625 0 L 0.03125 0 Z M 5.359375 -7.234375 L 10.59375 -7.234375 L 7.984375 -14.578125 L 7.859375 -14.578125 Z M 5.359375 -7.234375 "/></g></g></g><g fill="#326032" fill-opacity="1"><g transform="translate(289.353321, 128.386878)"><g><path d="M 0.8125 -0.8125 L 1.984375 -1.046875 C 2.140625 -1.054688 2.269531 -1.085938 2.375 -1.140625 C 2.476562 -1.191406 2.5625 -1.269531 2.625 -1.375 C 2.695312 -1.476562 2.742188 -1.625 2.765625 -1.8125 C 2.796875 -2.007812 2.8125 -2.273438 2.8125 -2.609375 L 2.8125 -15.46875 C 2.8125 -15.789062 2.796875 -16.046875 2.765625 -16.234375 C 2.742188 -16.429688 2.695312 -16.582031 2.625 -16.6875 C 2.5625 -16.789062 2.476562 -16.863281 2.375 -16.90625 C 2.269531 -16.945312 2.140625 -16.988281 1.984375 -17.03125 L 0.8125 -17.265625 L 0.8125 -18.046875 L 7.96875 -18.046875 C 8.9375 -18.046875 9.816406 -17.96875 10.609375 -17.8125 C 11.398438 -17.65625 12.070312 -17.40625 12.625 -17.0625 C 13.175781 -16.726562 13.601562 -16.289062 13.90625 -15.75 C 14.21875 -15.207031 14.375 -14.554688 14.375 -13.796875 C 14.375 -12.566406 13.988281 -11.613281 13.21875 -10.9375 C 12.457031 -10.269531 11.363281 -9.816406 9.9375 -9.578125 L 9.9375 -9.46875 C 11.726562 -9.332031 13.070312 -8.90625 13.96875 -8.1875 C 14.875 -7.46875 15.328125 -6.429688 15.328125 -5.078125 C 15.328125 -4.242188 15.164062 -3.515625 14.84375 -2.890625 C 14.53125 -2.265625 14.078125 -1.734375 13.484375 -1.296875 C 12.890625 -0.867188 12.179688 -0.546875 11.359375 -0.328125 C 10.535156 -0.109375 9.617188 0 8.609375 0 L 0.8125 0 Z M 7.890625 -9.9375 C 9.035156 -9.9375 9.921875 -10.226562 10.546875 -10.8125 C 11.179688 -11.394531 11.5 -12.21875 11.5 -13.28125 C 11.5 -13.988281 11.425781 -14.578125 11.28125 -15.046875 C 11.132812 -15.515625 10.90625 -15.882812 10.59375 -16.15625 C 10.28125 -16.425781 9.882812 -16.613281 9.40625 -16.71875 C 8.925781 -16.832031 8.367188 -16.890625 7.734375 -16.890625 C 7.328125 -16.890625 6.9375 -16.875 6.5625 -16.84375 C 6.195312 -16.820312 5.894531 -16.785156 5.65625 -16.734375 L 5.65625 -9.9375 Z M 8.359375 -1.140625 C 9.566406 -1.140625 10.523438 -1.410156 11.234375 -1.953125 C 11.953125 -2.503906 12.3125 -3.425781 12.3125 -4.71875 C 12.3125 -6.132812 12 -7.160156 11.375 -7.796875 C 10.75 -8.441406 9.707031 -8.765625 8.25 -8.765625 L 5.65625 -8.765625 L 5.65625 -3.171875 C 5.65625 -2.722656 5.679688 -2.363281 5.734375 -2.09375 C 5.785156 -1.820312 5.90625 -1.617188 6.09375 -1.484375 C 6.28125 -1.347656 6.550781 -1.253906 6.90625 -1.203125 C 7.257812 -1.160156 7.742188 -1.140625 8.359375 -1.140625 Z M 8.359375 -1.140625 "/></g></g></g><g fill="#a69850" fill-opacity="1"><g transform="translate(441.804026, 126.774849)"><g><path d="M 9.5 0.3125 C 8.269531 0.3125 7.140625 0.140625 6.109375 -0.203125 C 5.078125 -0.554688 4.179688 -1.097656 3.421875 -1.828125 C 2.671875 -2.566406 2.082031 -3.519531 1.65625 -4.6875 C 1.226562 -5.851562 1.015625 -7.25 1.015625 -8.875 C 1.015625 -10.613281 1.253906 -12.082031 1.734375 -13.28125 C 2.222656 -14.488281 2.878906 -15.46875 3.703125 -16.21875 C 4.535156 -16.96875 5.5 -17.507812 6.59375 -17.84375 C 7.695312 -18.1875 8.863281 -18.359375 10.09375 -18.359375 C 11.101562 -18.359375 12.03125 -18.296875 12.875 -18.171875 C 13.726562 -18.046875 14.441406 -17.898438 15.015625 -17.734375 L 15.25 -12.578125 L 14.34375 -12.578125 C 14.101562 -13.234375 13.832031 -13.882812 13.53125 -14.53125 C 13.238281 -15.1875 12.945312 -15.738281 12.65625 -16.1875 C 12.507812 -16.394531 12.363281 -16.5625 12.21875 -16.6875 C 12.070312 -16.8125 11.894531 -16.90625 11.6875 -16.96875 C 11.476562 -17.039062 11.222656 -17.085938 10.921875 -17.109375 C 10.617188 -17.140625 10.238281 -17.15625 9.78125 -17.15625 C 8.84375 -17.15625 8.015625 -17.03125 7.296875 -16.78125 C 6.578125 -16.53125 5.976562 -16.097656 5.5 -15.484375 C 5.03125 -14.878906 4.664062 -14.078125 4.40625 -13.078125 C 4.15625 -12.078125 4.03125 -10.84375 4.03125 -9.375 C 4.03125 -7.769531 4.144531 -6.429688 4.375 -5.359375 C 4.601562 -4.285156 4.941406 -3.414062 5.390625 -2.75 C 5.835938 -2.082031 6.398438 -1.601562 7.078125 -1.3125 C 7.753906 -1.03125 8.535156 -0.890625 9.421875 -0.890625 C 10.015625 -0.890625 10.503906 -0.921875 10.890625 -0.984375 C 11.285156 -1.054688 11.613281 -1.15625 11.875 -1.28125 C 12.132812 -1.414062 12.34375 -1.570312 12.5 -1.75 C 12.664062 -1.9375 12.828125 -2.144531 12.984375 -2.375 C 13.160156 -2.644531 13.316406 -2.894531 13.453125 -3.125 C 13.597656 -3.363281 13.722656 -3.597656 13.828125 -3.828125 C 13.941406 -4.066406 14.050781 -4.320312 14.15625 -4.59375 C 14.257812 -4.863281 14.375 -5.171875 14.5 -5.515625 L 15.328125 -5.515625 L 15.078125 -0.828125 C 14.460938 -0.535156 13.660156 -0.269531 12.671875 -0.03125 C 11.679688 0.195312 10.625 0.3125 9.5 0.3125 Z M 9.5 0.3125 "/></g></g></g><g fill="#bb934b" fill-opacity="1"><g transform="translate(593.353733, 128.386878)"><g><path d="M 0.8125 -0.8125 L 1.984375 -1.046875 C 2.140625 -1.054688 2.269531 -1.085938 2.375 -1.140625 C 2.476562 -1.191406 2.5625 -1.269531 2.625 -1.375 C 2.695312 -1.476562 2.742188 -1.625 2.765625 -1.8125 C 2.796875 -2.007812 2.8125 -2.273438 2.8125 -2.609375 L 2.8125 -15.46875 C 2.8125 -15.789062 2.796875 -16.046875 2.765625 -16.234375 C 2.742188 -16.429688 2.695312 -16.582031 2.625 -16.6875 C 2.5625 -16.789062 2.476562 -16.863281 2.375 -16.90625 C 2.269531 -16.945312 2.140625 -16.988281 1.984375 -17.03125 L 0.8125 -17.265625 L 0.8125 -18.046875 L 8.53125 -18.046875 C 9.78125 -18.046875 10.941406 -17.890625 12.015625 -17.578125 C 13.097656 -17.273438 14.035156 -16.78125 14.828125 -16.09375 C 15.628906 -15.414062 16.257812 -14.507812 16.71875 -13.375 C 17.1875 -12.25 17.421875 -10.851562 17.421875 -9.1875 C 17.421875 -7.65625 17.195312 -6.316406 16.75 -5.171875 C 16.3125 -4.035156 15.691406 -3.078125 14.890625 -2.296875 C 14.085938 -1.523438 13.128906 -0.945312 12.015625 -0.5625 C 10.910156 -0.1875 9.695312 0 8.375 0 L 0.8125 0 Z M 8.203125 -1.09375 C 9.410156 -1.09375 10.414062 -1.28125 11.21875 -1.65625 C 12.03125 -2.03125 12.675781 -2.550781 13.15625 -3.21875 C 13.632812 -3.882812 13.96875 -4.679688 14.15625 -5.609375 C 14.351562 -6.535156 14.453125 -7.5625 14.453125 -8.6875 C 14.453125 -10.132812 14.335938 -11.378906 14.109375 -12.421875 C 13.878906 -13.460938 13.515625 -14.316406 13.015625 -14.984375 C 12.515625 -15.648438 11.863281 -16.144531 11.0625 -16.46875 C 10.257812 -16.789062 9.285156 -16.953125 8.140625 -16.953125 C 7.503906 -16.953125 6.988281 -16.925781 6.59375 -16.875 C 6.207031 -16.832031 5.894531 -16.78125 5.65625 -16.71875 L 5.65625 -3.625 C 5.65625 -3.101562 5.675781 -2.675781 5.71875 -2.34375 C 5.757812 -2.007812 5.863281 -1.75 6.03125 -1.5625 C 6.195312 -1.382812 6.445312 -1.257812 6.78125 -1.1875 C 7.113281 -1.125 7.585938 -1.09375 8.203125 -1.09375 Z M 8.203125 -1.09375 "/></g></g></g><g fill="#b65959" fill-opacity="1"><g transform="translate(747.40295, 128.386878)"><g><path d="M 0.8125 -0.8125 L 1.984375 -1.046875 C 2.140625 -1.054688 2.269531 -1.085938 2.375 -1.140625 C 2.476562 -1.191406 2.5625 -1.269531 2.625 -1.375 C 2.695312 -1.476562 2.742188 -1.625 2.765625 -1.8125 C 2.796875 -2.007812 2.8125 -2.273438 2.8125 -2.609375 L 2.8125 -15.46875 C 2.8125 -15.789062 2.796875 -16.046875 2.765625 -16.234375 C 2.742188 -16.429688 2.695312 -16.582031 2.625 -16.6875 C 2.5625 -16.789062 2.476562 -16.863281 2.375 -16.90625 C 2.269531 -16.945312 2.140625 -16.988281 1.984375 -17.03125 L 0.8125 -17.265625 L 0.8125 -18.046875 L 14.078125 -18.046875 L 14.34375 -13.171875 L 13.375 -13.171875 C 13.082031 -13.953125 12.835938 -14.546875 12.640625 -14.953125 C 12.453125 -15.359375 12.265625 -15.6875 12.078125 -15.9375 C 11.890625 -16.195312 11.707031 -16.390625 11.53125 -16.515625 C 11.351562 -16.648438 11.140625 -16.742188 10.890625 -16.796875 C 10.640625 -16.847656 10.328125 -16.875 9.953125 -16.875 C 9.578125 -16.882812 9.101562 -16.890625 8.53125 -16.890625 C 7.800781 -16.890625 7.210938 -16.875 6.765625 -16.84375 C 6.316406 -16.8125 5.945312 -16.769531 5.65625 -16.71875 L 5.65625 -9.65625 L 6.21875 -9.65625 C 6.820312 -9.65625 7.316406 -9.664062 7.703125 -9.6875 C 8.097656 -9.71875 8.414062 -9.765625 8.65625 -9.828125 C 8.90625 -9.890625 9.09375 -9.96875 9.21875 -10.0625 C 9.351562 -10.15625 9.460938 -10.269531 9.546875 -10.40625 C 9.722656 -10.6875 9.867188 -10.96875 9.984375 -11.25 C 10.097656 -11.539062 10.207031 -11.90625 10.3125 -12.34375 L 11.1875 -12.34375 L 11.1875 -5.625 L 10.3125 -5.625 C 10.1875 -6.070312 10.066406 -6.453125 9.953125 -6.765625 C 9.835938 -7.078125 9.6875 -7.414062 9.5 -7.78125 C 9.414062 -7.9375 9.320312 -8.054688 9.21875 -8.140625 C 9.113281 -8.234375 8.945312 -8.304688 8.71875 -8.359375 C 8.488281 -8.410156 8.175781 -8.4375 7.78125 -8.4375 C 7.382812 -8.445312 6.863281 -8.453125 6.21875 -8.453125 L 5.65625 -8.453125 L 5.65625 -2.609375 C 5.65625 -2.273438 5.660156 -2.015625 5.671875 -1.828125 C 5.691406 -1.648438 5.734375 -1.507812 5.796875 -1.40625 C 5.859375 -1.300781 5.941406 -1.226562 6.046875 -1.1875 C 6.148438 -1.144531 6.296875 -1.101562 6.484375 -1.0625 L 8.015625 -0.8125 L 8.015625 0 L 0.8125 0 Z M 0.8125 -0.8125 "/></g></g></g><g clip-path="url(#e874ed0acd)"><g clip-path="url(#407e4a9f36)"><path fill="#a6a6a6" d="M 136.050781 151.867188 L 153.855469 151.867188 L 153.855469 167.445312 L 136.050781 167.445312 Z M 136.050781 151.867188 " fill-opacity="1" fill-rule="nonzero"/></g></g><g fill="#000000" fill-opacity="1"><g transform="translate(355.679869, 52.636179)"><g><path d="M 0.8125 -0.8125 L 1.984375 -1.046875 C 2.140625 -1.054688 2.269531 -1.085938 2.375 -1.140625 C 2.476562 -1.191406 2.5625 -1.269531 2.625 -1.375 C 2.695312 -1.476562 2.742188 -1.625 2.765625 -1.8125 C 2.796875 -2.007812 2.8125 -2.273438 2.8125 -2.609375 L 2.8125 -15.46875 C 2.8125 -15.789062 2.796875 -16.046875 2.765625 -16.234375 C 2.742188 -16.429688 2.695312 -16.582031 2.625 -16.6875 C 2.5625 -16.789062 2.476562 -16.863281 2.375 -16.90625 C 2.269531 -16.945312 2.140625 -16.988281 1.984375 -17.03125 L 0.8125 -17.265625 L 0.8125 -18.046875 L 8.375 -18.046875 C 10.476562 -18.046875 12.019531 -17.660156 13 -16.890625 C 13.976562 -16.128906 14.46875 -14.984375 14.46875 -13.453125 C 14.46875 -12.484375 14.113281 -11.585938 13.40625 -10.765625 C 12.707031 -9.953125 11.679688 -9.347656 10.328125 -8.953125 L 10.328125 -8.875 C 10.679688 -8.269531 11.054688 -7.640625 11.453125 -6.984375 C 11.847656 -6.335938 12.25 -5.703125 12.65625 -5.078125 C 13.070312 -4.453125 13.484375 -3.847656 13.890625 -3.265625 C 14.296875 -2.679688 14.679688 -2.15625 15.046875 -1.6875 C 15.179688 -1.5 15.335938 -1.359375 15.515625 -1.265625 C 15.703125 -1.171875 16 -1.070312 16.40625 -0.96875 L 16.96875 -0.8125 L 16.96875 0 L 13.015625 0 C 12.023438 -1.25 11.09375 -2.566406 10.21875 -3.953125 C 9.351562 -5.347656 8.566406 -6.742188 7.859375 -8.140625 L 5.59375 -8.140625 L 5.59375 -2.609375 C 5.59375 -2.273438 5.601562 -2.007812 5.625 -1.8125 C 5.65625 -1.625 5.703125 -1.476562 5.765625 -1.375 C 5.828125 -1.269531 5.914062 -1.195312 6.03125 -1.15625 C 6.144531 -1.113281 6.296875 -1.078125 6.484375 -1.046875 L 7.734375 -0.8125 L 7.734375 0 L 0.8125 0 Z M 7.15625 -9.34375 C 8.71875 -9.34375 9.835938 -9.644531 10.515625 -10.25 C 11.191406 -10.863281 11.53125 -11.847656 11.53125 -13.203125 C 11.53125 -13.992188 11.457031 -14.632812 11.3125 -15.125 C 11.175781 -15.613281 10.960938 -15.988281 10.671875 -16.25 C 10.390625 -16.507812 10.023438 -16.679688 9.578125 -16.765625 C 9.140625 -16.847656 8.628906 -16.890625 8.046875 -16.890625 C 7.472656 -16.890625 6.984375 -16.875 6.578125 -16.84375 C 6.171875 -16.8125 5.84375 -16.769531 5.59375 -16.71875 L 5.59375 -9.453125 C 5.738281 -9.429688 5.90625 -9.410156 6.09375 -9.390625 C 6.226562 -9.378906 6.390625 -9.367188 6.578125 -9.359375 C 6.773438 -9.347656 6.96875 -9.34375 7.15625 -9.34375 Z M 7.15625 -9.34375 "/></g></g></g><g fill="#000000" fill-opacity="1"><g transform="translate(372.648856, 52.636179)"><g><path d="M 3.625 -15.984375 C 3.113281 -15.984375 2.6875 -16.15625 2.34375 -16.5 C 2.007812 -16.851562 1.84375 -17.242188 1.84375 -17.671875 C 1.84375 -18.140625 2.007812 -18.539062 2.34375 -18.875 C 2.6875 -19.207031 3.113281 -19.375 3.625 -19.375 C 4.101562 -19.375 4.507812 -19.207031 4.84375 -18.875 C 5.1875 -18.539062 5.359375 -18.140625 5.359375 -17.671875 C 5.359375 -17.242188 5.1875 -16.851562 4.84375 -16.5 C 4.507812 -16.15625 4.101562 -15.984375 3.625 -15.984375 Z M 0.65625 -0.78125 L 1.71875 -1.0625 C 1.976562 -1.132812 2.160156 -1.253906 2.265625 -1.421875 C 2.367188 -1.585938 2.421875 -1.921875 2.421875 -2.421875 L 2.421875 -10.484375 C 2.421875 -10.742188 2.410156 -10.945312 2.390625 -11.09375 C 2.378906 -11.25 2.34375 -11.375 2.28125 -11.46875 C 2.21875 -11.5625 2.132812 -11.632812 2.03125 -11.6875 C 1.925781 -11.738281 1.796875 -11.804688 1.640625 -11.890625 L 0.65625 -12.390625 L 0.65625 -13.0625 L 4.953125 -13.609375 L 5.203125 -13.453125 C 5.171875 -13.242188 5.140625 -12.992188 5.109375 -12.703125 C 5.054688 -12.203125 5.03125 -11.484375 5.03125 -10.546875 L 5.03125 -2.421875 C 5.03125 -2.140625 5.035156 -1.914062 5.046875 -1.75 C 5.066406 -1.59375 5.101562 -1.46875 5.15625 -1.375 C 5.207031 -1.289062 5.273438 -1.226562 5.359375 -1.1875 C 5.453125 -1.144531 5.566406 -1.101562 5.703125 -1.0625 L 6.765625 -0.78125 L 6.765625 0 L 0.65625 0 Z M 0.65625 -0.78125 "/></g></g></g><g fill="#000000" fill-opacity="1"><g transform="translate(379.910129, 52.636179)"><g><path d="M 4.953125 0.3125 C 4.203125 0.3125 3.484375 0.265625 2.796875 0.171875 C 2.109375 0.078125 1.503906 -0.0664062 0.984375 -0.265625 L 0.859375 -4.140625 L 1.6875 -4.140625 C 1.914062 -3.640625 2.101562 -3.21875 2.25 -2.875 C 2.394531 -2.539062 2.625 -2.179688 2.9375 -1.796875 C 3.1875 -1.503906 3.46875 -1.265625 3.78125 -1.078125 C 4.101562 -0.898438 4.578125 -0.8125 5.203125 -0.8125 C 6.003906 -0.8125 6.65625 -0.992188 7.15625 -1.359375 C 7.65625 -1.734375 7.90625 -2.257812 7.90625 -2.9375 C 7.90625 -3.289062 7.84375 -3.597656 7.71875 -3.859375 C 7.601562 -4.117188 7.421875 -4.351562 7.171875 -4.5625 C 6.921875 -4.769531 6.601562 -4.96875 6.21875 -5.15625 C 5.84375 -5.34375 5.382812 -5.539062 4.84375 -5.75 C 4.269531 -5.976562 3.75 -6.21875 3.28125 -6.46875 C 2.8125 -6.71875 2.40625 -7.003906 2.0625 -7.328125 C 1.726562 -7.648438 1.460938 -8.007812 1.265625 -8.40625 C 1.078125 -8.800781 0.984375 -9.253906 0.984375 -9.765625 C 0.984375 -10.367188 1.109375 -10.910156 1.359375 -11.390625 C 1.617188 -11.867188 1.96875 -12.273438 2.40625 -12.609375 C 2.851562 -12.953125 3.375 -13.210938 3.96875 -13.390625 C 4.570312 -13.578125 5.210938 -13.671875 5.890625 -13.671875 C 6.609375 -13.671875 7.238281 -13.632812 7.78125 -13.5625 C 8.332031 -13.488281 8.835938 -13.367188 9.296875 -13.203125 L 9.390625 -9.703125 L 8.609375 -9.703125 C 8.390625 -10.160156 8.175781 -10.550781 7.96875 -10.875 C 7.757812 -11.207031 7.53125 -11.539062 7.28125 -11.875 C 7.09375 -12.113281 6.878906 -12.289062 6.640625 -12.40625 C 6.398438 -12.519531 6.046875 -12.578125 5.578125 -12.578125 C 4.703125 -12.578125 4.066406 -12.394531 3.671875 -12.03125 C 3.285156 -11.664062 3.09375 -11.148438 3.09375 -10.484375 C 3.09375 -9.984375 3.328125 -9.539062 3.796875 -9.15625 C 4.265625 -8.78125 5.046875 -8.382812 6.140625 -7.96875 C 6.742188 -7.71875 7.296875 -7.46875 7.796875 -7.21875 C 8.304688 -6.96875 8.738281 -6.6875 9.09375 -6.375 C 9.445312 -6.0625 9.71875 -5.710938 9.90625 -5.328125 C 10.101562 -4.953125 10.203125 -4.515625 10.203125 -4.015625 C 10.203125 -3.398438 10.078125 -2.828125 9.828125 -2.296875 C 9.585938 -1.773438 9.242188 -1.316406 8.796875 -0.921875 C 8.347656 -0.535156 7.796875 -0.234375 7.140625 -0.015625 C 6.492188 0.203125 5.765625 0.3125 4.953125 0.3125 Z M 4.953125 0.3125 "/></g></g></g><g fill="#000000" fill-opacity="1"><g transform="translate(390.971194, 52.636179)"><g><path d="M 0.65625 -0.78125 L 1.71875 -1.0625 C 1.976562 -1.132812 2.160156 -1.253906 2.265625 -1.421875 C 2.367188 -1.585938 2.421875 -1.921875 2.421875 -2.421875 L 2.421875 -16.875 C 2.421875 -17.132812 2.40625 -17.335938 2.375 -17.484375 C 2.351562 -17.628906 2.3125 -17.75 2.25 -17.84375 C 2.1875 -17.9375 2.109375 -18.007812 2.015625 -18.0625 C 1.921875 -18.113281 1.796875 -18.175781 1.640625 -18.25 L 0.515625 -18.765625 L 0.515625 -19.5 L 4.953125 -19.90625 L 5.203125 -19.703125 C 5.171875 -19.441406 5.140625 -19.15625 5.109375 -18.84375 C 5.054688 -18.289062 5.03125 -17.5625 5.03125 -16.65625 L 5.03125 -2.421875 C 5.03125 -2.140625 5.035156 -1.914062 5.046875 -1.75 C 5.066406 -1.59375 5.101562 -1.46875 5.15625 -1.375 C 5.207031 -1.289062 5.273438 -1.226562 5.359375 -1.1875 C 5.453125 -1.144531 5.566406 -1.101562 5.703125 -1.0625 L 6.765625 -0.78125 L 6.765625 0 L 0.65625 0 Z M 10.625 0 C 10.113281 -0.539062 9.632812 -1.070312 9.1875 -1.59375 C 8.75 -2.113281 8.320312 -2.632812 7.90625 -3.15625 C 7.488281 -3.6875 7.082031 -4.226562 6.6875 -4.78125 C 6.289062 -5.34375 5.882812 -5.9375 5.46875 -6.5625 L 5.46875 -6.953125 L 8.140625 -9.859375 C 8.679688 -10.472656 9.054688 -10.910156 9.265625 -11.171875 C 9.472656 -11.441406 9.578125 -11.65625 9.578125 -11.8125 C 9.578125 -12.070312 9.367188 -12.265625 8.953125 -12.390625 L 8.5625 -12.515625 L 8.5625 -13.25 L 13.4375 -13.25 L 13.4375 -12.5 L 12.625 -12.234375 C 12.257812 -12.109375 11.898438 -11.9375 11.546875 -11.71875 C 11.203125 -11.507812 10.769531 -11.144531 10.25 -10.625 L 7.59375 -7.75 C 8.363281 -6.625 9.148438 -5.539062 9.953125 -4.5 C 10.765625 -3.457031 11.617188 -2.460938 12.515625 -1.515625 C 12.640625 -1.367188 12.753906 -1.265625 12.859375 -1.203125 C 12.960938 -1.148438 13.082031 -1.101562 13.21875 -1.0625 L 14.109375 -0.78125 L 14.109375 0 Z M 10.625 0 "/></g></g></g><g fill="#000000" fill-opacity="1"><g transform="translate(405.07732, 52.636179)"><g/></g></g><g fill="#000000" fill-opacity="1"><g transform="translate(411.609857, 52.636179)"><g><path d="M 0.8125 -0.8125 L 1.984375 -1.046875 C 2.140625 -1.054688 2.269531 -1.085938 2.375 -1.140625 C 2.476562 -1.191406 2.5625 -1.269531 2.625 -1.375 C 2.695312 -1.476562 2.742188 -1.625 2.765625 -1.8125 C 2.796875 -2.007812 2.8125 -2.273438 2.8125 -2.609375 L 2.8125 -15.46875 C 2.8125 -15.789062 2.796875 -16.046875 2.765625 -16.234375 C 2.742188 -16.429688 2.695312 -16.582031 2.625 -16.6875 C 2.5625 -16.789062 2.476562 -16.863281 2.375 -16.90625 C 2.269531 -16.945312 2.140625 -16.988281 1.984375 -17.03125 L 0.8125 -17.265625 L 0.8125 -18.046875 L 8.375 -18.046875 C 10.476562 -18.046875 12.019531 -17.660156 13 -16.890625 C 13.976562 -16.128906 14.46875 -14.984375 14.46875 -13.453125 C 14.46875 -12.484375 14.113281 -11.585938 13.40625 -10.765625 C 12.707031 -9.953125 11.679688 -9.347656 10.328125 -8.953125 L 10.328125 -8.875 C 10.679688 -8.269531 11.054688 -7.640625 11.453125 -6.984375 C 11.847656 -6.335938 12.25 -5.703125 12.65625 -5.078125 C 13.070312 -4.453125 13.484375 -3.847656 13.890625 -3.265625 C 14.296875 -2.679688 14.679688 -2.15625 15.046875 -1.6875 C 15.179688 -1.5 15.335938 -1.359375 15.515625 -1.265625 C 15.703125 -1.171875 16 -1.070312 16.40625 -0.96875 L 16.96875 -0.8125 L 16.96875 0 L 13.015625 0 C 12.023438 -1.25 11.09375 -2.566406 10.21875 -3.953125 C 9.351562 -5.347656 8.566406 -6.742188 7.859375 -8.140625 L 5.59375 -8.140625 L 5.59375 -2.609375 C 5.59375 -2.273438 5.601562 -2.007812 5.625 -1.8125 C 5.65625 -1.625 5.703125 -1.476562 5.765625 -1.375 C 5.828125 -1.269531 5.914062 -1.195312 6.03125 -1.15625 C 6.144531 -1.113281 6.296875 -1.078125 6.484375 -1.046875 L 7.734375 -0.8125 L 7.734375 0 L 0.8125 0 Z M 7.15625 -9.34375 C 8.71875 -9.34375 9.835938 -9.644531 10.515625 -10.25 C 11.191406 -10.863281 11.53125 -11.847656 11.53125 -13.203125 C 11.53125 -13.992188 11.457031 -14.632812 11.3125 -15.125 C 11.175781 -15.613281 10.960938 -15.988281 10.671875 -16.25 C 10.390625 -16.507812 10.023438 -16.679688 9.578125 -16.765625 C 9.140625 -16.847656 8.628906 -16.890625 8.046875 -16.890625 C 7.472656 -16.890625 6.984375 -16.875 6.578125 -16.84375 C 6.171875 -16.8125 5.84375 -16.769531 5.59375 -16.71875 L 5.59375 -9.453125 C 5.738281 -9.429688 5.90625 -9.410156 6.09375 -9.390625 C 6.226562 -9.378906 6.390625 -9.367188 6.578125 -9.359375 C 6.773438 -9.347656 6.96875 -9.34375 7.15625 -9.34375 Z M 7.15625 -9.34375 "/></g></g></g><g fill="#000000" fill-opacity="1"><g transform="translate(428.578844, 52.636179)"><g><path d="M 4.65625 0.34375 C 3.445312 0.34375 2.484375 0.046875 1.765625 -0.546875 C 1.054688 -1.140625 0.703125 -2 0.703125 -3.125 C 0.703125 -4.195312 1.078125 -5.03125 1.828125 -5.625 C 2.585938 -6.21875 3.734375 -6.6875 5.265625 -7.03125 L 8.296875 -7.703125 L 8.296875 -10.125 C 8.296875 -10.5625 8.269531 -10.9375 8.21875 -11.25 C 8.164062 -11.570312 8.054688 -11.835938 7.890625 -12.046875 C 7.734375 -12.253906 7.488281 -12.40625 7.15625 -12.5 C 6.820312 -12.601562 6.378906 -12.65625 5.828125 -12.65625 C 5.253906 -12.65625 4.882812 -12.578125 4.71875 -12.421875 C 4.5625 -12.273438 4.457031 -12.003906 4.40625 -11.609375 C 4.332031 -11.109375 4.195312 -10.691406 4 -10.359375 C 3.8125 -10.023438 3.425781 -9.859375 2.84375 -9.859375 C 2.320312 -9.859375 1.957031 -9.988281 1.75 -10.25 C 1.550781 -10.507812 1.453125 -10.816406 1.453125 -11.171875 C 1.453125 -11.597656 1.601562 -11.96875 1.90625 -12.28125 C 2.21875 -12.59375 2.613281 -12.851562 3.09375 -13.0625 C 3.582031 -13.269531 4.113281 -13.421875 4.6875 -13.515625 C 5.257812 -13.617188 5.820312 -13.671875 6.375 -13.671875 C 7.957031 -13.671875 9.109375 -13.382812 9.828125 -12.8125 C 10.546875 -12.25 10.90625 -11.40625 10.90625 -10.28125 L 10.90625 -2.609375 C 10.90625 -2.253906 10.957031 -1.972656 11.0625 -1.765625 C 11.164062 -1.554688 11.347656 -1.382812 11.609375 -1.25 C 11.742188 -1.164062 11.914062 -1.109375 12.125 -1.078125 C 12.332031 -1.054688 12.585938 -1.035156 12.890625 -1.015625 L 12.890625 -0.28125 C 12.679688 -0.144531 12.359375 -0.015625 11.921875 0.109375 C 11.484375 0.242188 11.039062 0.3125 10.59375 0.3125 C 9.9375 0.3125 9.425781 0.171875 9.0625 -0.109375 C 8.707031 -0.398438 8.488281 -0.765625 8.40625 -1.203125 L 8.28125 -1.203125 C 7.96875 -0.765625 7.476562 -0.394531 6.8125 -0.09375 C 6.15625 0.195312 5.4375 0.34375 4.65625 0.34375 Z M 5.78125 -1.140625 C 6.40625 -1.140625 6.929688 -1.257812 7.359375 -1.5 C 7.796875 -1.75 8.109375 -2.039062 8.296875 -2.375 L 8.296875 -6.375 L 6.296875 -6.171875 C 5.359375 -6.085938 4.632812 -5.835938 4.125 -5.421875 C 3.613281 -5.003906 3.359375 -4.304688 3.359375 -3.328125 C 3.359375 -2.566406 3.570312 -2.007812 4 -1.65625 C 4.425781 -1.3125 5.019531 -1.140625 5.78125 -1.140625 Z M 5.78125 -1.140625 "/></g></g></g><g fill="#000000" fill-opacity="1"><g transform="translate(441.852128, 52.636179)"><g><path d="M 5.109375 0.3125 C 4.691406 0.3125 4.300781 0.265625 3.9375 0.171875 C 3.570312 0.078125 3.253906 -0.0820312 2.984375 -0.3125 C 2.710938 -0.539062 2.492188 -0.820312 2.328125 -1.15625 C 2.160156 -1.5 2.078125 -1.921875 2.078125 -2.421875 L 2.078125 -11.875 L 0.265625 -11.875 L 0.265625 -12.625 C 1.160156 -12.863281 1.863281 -13.296875 2.375 -13.921875 C 2.894531 -14.546875 3.328125 -15.390625 3.671875 -16.453125 L 4.6875 -16.453125 L 4.6875 -13.25 L 8.4375 -13.25 L 8.09375 -11.875 L 4.6875 -11.875 L 4.6875 -2.8125 C 4.6875 -1.738281 5.273438 -1.203125 6.453125 -1.203125 C 6.835938 -1.203125 7.210938 -1.238281 7.578125 -1.3125 C 7.941406 -1.394531 8.253906 -1.476562 8.515625 -1.5625 L 8.515625 -0.734375 C 8.265625 -0.503906 7.851562 -0.269531 7.28125 -0.03125 C 6.71875 0.195312 5.992188 0.3125 5.109375 0.3125 Z M 5.109375 0.3125 "/></g></g></g><g fill="#000000" fill-opacity="1"><g transform="translate(450.674963, 52.636179)"><g><path d="M 3.625 -15.984375 C 3.113281 -15.984375 2.6875 -16.15625 2.34375 -16.5 C 2.007812 -16.851562 1.84375 -17.242188 1.84375 -17.671875 C 1.84375 -18.140625 2.007812 -18.539062 2.34375 -18.875 C 2.6875 -19.207031 3.113281 -19.375 3.625 -19.375 C 4.101562 -19.375 4.507812 -19.207031 4.84375 -18.875 C 5.1875 -18.539062 5.359375 -18.140625 5.359375 -17.671875 C 5.359375 -17.242188 5.1875 -16.851562 4.84375 -16.5 C 4.507812 -16.15625 4.101562 -15.984375 3.625 -15.984375 Z M 0.65625 -0.78125 L 1.71875 -1.0625 C 1.976562 -1.132812 2.160156 -1.253906 2.265625 -1.421875 C 2.367188 -1.585938 2.421875 -1.921875 2.421875 -2.421875 L 2.421875 -10.484375 C 2.421875 -10.742188 2.410156 -10.945312 2.390625 -11.09375 C 2.378906 -11.25 2.34375 -11.375 2.28125 -11.46875 C 2.21875 -11.5625 2.132812 -11.632812 2.03125 -11.6875 C 1.925781 -11.738281 1.796875 -11.804688 1.640625 -11.890625 L 0.65625 -12.390625 L 0.65625 -13.0625 L 4.953125 -13.609375 L 5.203125 -13.453125 C 5.171875 -13.242188 5.140625 -12.992188 5.109375 -12.703125 C 5.054688 -12.203125 5.03125 -11.484375 5.03125 -10.546875 L 5.03125 -2.421875 C 5.03125 -2.140625 5.035156 -1.914062 5.046875 -1.75 C 5.066406 -1.59375 5.101562 -1.46875 5.15625 -1.375 C 5.207031 -1.289062 5.273438 -1.226562 5.359375 -1.1875 C 5.453125 -1.144531 5.566406 -1.101562 5.703125 -1.0625 L 6.765625 -0.78125 L 6.765625 0 L 0.65625 0 Z M 0.65625 -0.78125 "/></g></g></g><g fill="#000000" fill-opacity="1"><g transform="translate(457.936236, 52.636179)"><g><path d="M 0.65625 -0.78125 L 1.71875 -1.0625 C 1.976562 -1.132812 2.160156 -1.253906 2.265625 -1.421875 C 2.367188 -1.585938 2.421875 -1.921875 2.421875 -2.421875 L 2.421875 -10.484375 C 2.421875 -10.742188 2.410156 -10.945312 2.390625 -11.09375 C 2.378906 -11.25 2.34375 -11.375 2.28125 -11.46875 C 2.21875 -11.5625 2.132812 -11.632812 2.03125 -11.6875 C 1.925781 -11.738281 1.796875 -11.804688 1.640625 -11.890625 L 0.65625 -12.390625 L 0.65625 -13.0625 L 4.765625 -13.609375 L 5.03125 -13.453125 L 4.890625 -12 L 5 -12 C 5.332031 -12.207031 5.691406 -12.410156 6.078125 -12.609375 C 6.460938 -12.804688 6.875 -12.976562 7.3125 -13.125 C 7.75 -13.28125 8.1875 -13.40625 8.625 -13.5 C 9.070312 -13.59375 9.503906 -13.640625 9.921875 -13.640625 C 11.234375 -13.640625 12.148438 -13.359375 12.671875 -12.796875 C 13.191406 -12.234375 13.453125 -11.359375 13.453125 -10.171875 L 13.453125 -2.421875 C 13.453125 -1.921875 13.507812 -1.585938 13.625 -1.421875 C 13.738281 -1.253906 13.914062 -1.132812 14.15625 -1.0625 L 15.203125 -0.78125 L 15.203125 0 L 9.109375 0 L 9.109375 -0.78125 L 10.171875 -1.0625 C 10.296875 -1.101562 10.398438 -1.144531 10.484375 -1.1875 C 10.578125 -1.226562 10.648438 -1.289062 10.703125 -1.375 C 10.753906 -1.46875 10.789062 -1.59375 10.8125 -1.75 C 10.84375 -1.914062 10.859375 -2.140625 10.859375 -2.421875 L 10.859375 -9.453125 C 10.859375 -10.367188 10.6875 -11.007812 10.34375 -11.375 C 10.007812 -11.738281 9.425781 -11.921875 8.59375 -11.921875 C 8.28125 -11.921875 7.945312 -11.890625 7.59375 -11.828125 C 7.25 -11.765625 6.921875 -11.691406 6.609375 -11.609375 C 6.296875 -11.535156 6 -11.453125 5.71875 -11.359375 C 5.445312 -11.265625 5.21875 -11.179688 5.03125 -11.109375 L 5.03125 -2.421875 C 5.03125 -2.140625 5.035156 -1.914062 5.046875 -1.75 C 5.066406 -1.59375 5.101562 -1.46875 5.15625 -1.375 C 5.207031 -1.289062 5.273438 -1.226562 5.359375 -1.1875 C 5.453125 -1.144531 5.566406 -1.101562 5.703125 -1.0625 L 6.765625 -0.78125 L 6.765625 0 L 0.65625 0 Z M 0.65625 -0.78125 "/></g></g></g><g fill="#000000" fill-opacity="1"><g transform="translate(473.682002, 52.636179)"><g><path d="M 5.46875 5.828125 C 3.695312 5.828125 2.3125 5.539062 1.3125 4.96875 C 0.3125 4.394531 -0.1875 3.640625 -0.1875 2.703125 C -0.1875 2.066406 0.078125 1.476562 0.609375 0.9375 C 1.140625 0.394531 1.875 -0.0351562 2.8125 -0.359375 L 2.8125 -0.46875 C 2.363281 -0.625 1.957031 -0.867188 1.59375 -1.203125 C 1.238281 -1.546875 1.0625 -2.019531 1.0625 -2.625 C 1.0625 -2.988281 1.125 -3.316406 1.25 -3.609375 C 1.382812 -3.910156 1.546875 -4.175781 1.734375 -4.40625 C 1.929688 -4.644531 2.148438 -4.859375 2.390625 -5.046875 C 2.640625 -5.242188 2.867188 -5.421875 3.078125 -5.578125 L 3.078125 -5.671875 C 2.816406 -5.796875 2.550781 -5.96875 2.28125 -6.1875 C 2.007812 -6.40625 1.769531 -6.664062 1.5625 -6.96875 C 1.351562 -7.269531 1.179688 -7.601562 1.046875 -7.96875 C 0.921875 -8.332031 0.859375 -8.710938 0.859375 -9.109375 C 0.859375 -9.867188 1.007812 -10.535156 1.3125 -11.109375 C 1.613281 -11.679688 2.007812 -12.15625 2.5 -12.53125 C 3 -12.90625 3.550781 -13.179688 4.15625 -13.359375 C 4.769531 -13.546875 5.390625 -13.640625 6.015625 -13.640625 C 6.535156 -13.640625 7.007812 -13.597656 7.4375 -13.515625 C 7.875 -13.441406 8.316406 -13.3125 8.765625 -13.125 C 9.222656 -13.5 9.734375 -13.828125 10.296875 -14.109375 C 10.859375 -14.390625 11.4375 -14.53125 12.03125 -14.53125 C 12.425781 -14.53125 12.757812 -14.425781 13.03125 -14.21875 C 13.3125 -14.007812 13.453125 -13.703125 13.453125 -13.296875 C 13.453125 -12.972656 13.359375 -12.679688 13.171875 -12.421875 C 12.984375 -12.160156 12.710938 -12.03125 12.359375 -12.03125 C 12.015625 -12.03125 11.757812 -12.097656 11.59375 -12.234375 C 11.425781 -12.367188 11.289062 -12.5625 11.1875 -12.8125 C 11.101562 -13 10.875 -13.046875 10.5 -12.953125 C 10.125 -12.859375 9.765625 -12.710938 9.421875 -12.515625 L 9.421875 -12.4375 C 9.960938 -12.125 10.390625 -11.710938 10.703125 -11.203125 C 11.023438 -10.691406 11.1875 -10.070312 11.1875 -9.34375 C 11.1875 -8.582031 11.035156 -7.921875 10.734375 -7.359375 C 10.429688 -6.804688 10.03125 -6.347656 9.53125 -5.984375 C 9.039062 -5.617188 8.488281 -5.347656 7.875 -5.171875 C 7.257812 -5.003906 6.640625 -4.921875 6.015625 -4.921875 C 5.578125 -4.921875 5.210938 -4.953125 4.921875 -5.015625 C 4.628906 -5.078125 4.316406 -5.175781 3.984375 -5.3125 C 3.773438 -5.175781 3.570312 -4.976562 3.375 -4.71875 C 3.175781 -4.46875 3.078125 -4.1875 3.078125 -3.875 C 3.078125 -3.550781 3.207031 -3.269531 3.46875 -3.03125 C 3.738281 -2.800781 4.15625 -2.6875 4.71875 -2.6875 L 8.828125 -2.6875 C 9.378906 -2.6875 9.890625 -2.632812 10.359375 -2.53125 C 10.828125 -2.425781 11.222656 -2.242188 11.546875 -1.984375 C 11.878906 -1.734375 12.132812 -1.394531 12.3125 -0.96875 C 12.5 -0.550781 12.59375 -0.0195312 12.59375 0.625 C 12.59375 1.125 12.472656 1.675781 12.234375 2.28125 C 12.003906 2.894531 11.613281 3.460938 11.0625 3.984375 C 10.519531 4.503906 9.789062 4.941406 8.875 5.296875 C 7.957031 5.648438 6.820312 5.828125 5.46875 5.828125 Z M 6.015625 -5.984375 C 6.847656 -5.984375 7.472656 -6.207031 7.890625 -6.65625 C 8.316406 -7.113281 8.53125 -7.90625 8.53125 -9.03125 C 8.53125 -10.3125 8.316406 -11.222656 7.890625 -11.765625 C 7.472656 -12.316406 6.847656 -12.59375 6.015625 -12.59375 C 5.203125 -12.59375 4.582031 -12.347656 4.15625 -11.859375 C 3.726562 -11.378906 3.515625 -10.566406 3.515625 -9.421875 C 3.515625 -8.148438 3.726562 -7.257812 4.15625 -6.75 C 4.582031 -6.238281 5.203125 -5.984375 6.015625 -5.984375 Z M 5.90625 4.734375 C 6.550781 4.734375 7.160156 4.65625 7.734375 4.5 C 8.316406 4.34375 8.828125 4.128906 9.265625 3.859375 C 9.703125 3.597656 10.046875 3.28125 10.296875 2.90625 C 10.546875 2.53125 10.671875 2.125 10.671875 1.6875 C 10.671875 1.101562 10.515625 0.625 10.203125 0.25 C 9.890625 -0.125 9.265625 -0.3125 8.328125 -0.3125 L 4.328125 -0.3125 C 4.117188 -0.257812 3.890625 -0.160156 3.640625 -0.015625 C 3.398438 0.128906 3.175781 0.316406 2.96875 0.546875 C 2.757812 0.773438 2.582031 1.035156 2.4375 1.328125 C 2.300781 1.617188 2.234375 1.941406 2.234375 2.296875 C 2.234375 3.085938 2.53125 3.691406 3.125 4.109375 C 3.726562 4.523438 4.65625 4.734375 5.90625 4.734375 Z M 5.90625 4.734375 "/></g></g></g><g fill="#000000" fill-opacity="1"><g transform="translate(486.903235, 52.636179)"><g><path d="M 1.875 -12.546875 C 1.875 -13.203125 2.03125 -13.660156 2.34375 -13.921875 C 2.65625 -14.179688 3.03125 -14.3125 3.46875 -14.3125 C 3.894531 -14.3125 4.273438 -14.179688 4.609375 -13.921875 C 4.941406 -13.660156 5.109375 -13.203125 5.109375 -12.546875 C 5.109375 -11.921875 4.941406 -11.46875 4.609375 -11.1875 C 4.273438 -10.914062 3.894531 -10.78125 3.46875 -10.78125 C 3.03125 -10.78125 2.65625 -10.914062 2.34375 -11.1875 C 2.03125 -11.46875 1.875 -11.921875 1.875 -12.546875 Z M 1.875 -1.40625 C 1.875 -2.050781 2.03125 -2.503906 2.34375 -2.765625 C 2.65625 -3.023438 3.03125 -3.15625 3.46875 -3.15625 C 3.894531 -3.15625 4.273438 -3.023438 4.609375 -2.765625 C 4.941406 -2.503906 5.109375 -2.050781 5.109375 -1.40625 C 5.109375 -0.78125 4.941406 -0.328125 4.609375 -0.046875 C 4.273438 0.222656 3.894531 0.359375 3.46875 0.359375 C 3.03125 0.359375 2.65625 0.222656 2.34375 -0.046875 C 2.03125 -0.328125 1.875 -0.78125 1.875 -1.40625 Z M 1.875 -1.40625 "/></g></g></g><g fill="#0000cc" fill-opacity="1"><g transform="translate(513.915111, 51.24115)"><g><path d="M 0.03125 -0.8125 L 0.8125 -0.984375 C 0.976562 -1.035156 1.128906 -1.09375 1.265625 -1.15625 C 1.410156 -1.21875 1.546875 -1.328125 1.671875 -1.484375 C 1.804688 -1.640625 1.9375 -1.859375 2.0625 -2.140625 C 2.195312 -2.429688 2.359375 -2.828125 2.546875 -3.328125 L 7.828125 -18.046875 L 9.390625 -18.046875 L 14.9375 -3.046875 C 15.113281 -2.609375 15.265625 -2.265625 15.390625 -2.015625 C 15.523438 -1.765625 15.65625 -1.566406 15.78125 -1.421875 C 15.914062 -1.285156 16.046875 -1.191406 16.171875 -1.140625 C 16.304688 -1.085938 16.453125 -1.035156 16.609375 -0.984375 L 17.34375 -0.8125 L 17.34375 0 L 10.796875 0 L 10.796875 -0.8125 L 11.53125 -0.984375 C 11.875 -1.078125 12.109375 -1.175781 12.234375 -1.28125 C 12.367188 -1.382812 12.4375 -1.539062 12.4375 -1.75 C 12.4375 -1.9375 12.394531 -2.148438 12.3125 -2.390625 C 12.238281 -2.640625 12.144531 -2.9375 12.03125 -3.28125 L 11.015625 -6.0625 L 4.96875 -6.0625 L 4.03125 -3.28125 C 3.914062 -2.9375 3.832031 -2.660156 3.78125 -2.453125 C 3.726562 -2.253906 3.703125 -2.0625 3.703125 -1.875 C 3.703125 -1.59375 3.78125 -1.390625 3.9375 -1.265625 C 4.09375 -1.148438 4.328125 -1.054688 4.640625 -0.984375 L 5.515625 -0.8125 L 5.515625 0 L 0.03125 0 Z M 5.359375 -7.234375 L 10.59375 -7.234375 L 7.984375 -14.578125 L 7.859375 -14.578125 Z M 5.359375 -7.234375 "/></g></g></g><g fill="#0000cc" fill-opacity="1"><g transform="translate(531.274492, 51.24115)"><g><path d="M 1.09375 -8.53125 L 6.5625 -8.53125 L 6.328125 -6.609375 L 0.859375 -6.609375 Z M 1.09375 -8.53125 "/></g></g></g><path stroke-linecap="butt" transform="matrix(0.750559, -0.00279865, 0.00279655, 0.749995, 13.671338, 43.902224)" fill="none" stroke-linejoin="miter" d="M 0.00180936 2.500184 L 415.697442 2.499282 " stroke="#a6a6a6" stroke-width="5" stroke-opacity="1" stroke-miterlimit="4"/><path stroke-linecap="butt" transform="matrix(0.750561, -0.00195902, 0.00195755, 0.749997, 574.54164, 43.902224)" fill="none" stroke-linejoin="miter" d="M 0.000453969 2.500169 L 415.699832 2.497447 " stroke="#a6a6a6" stroke-width="5" stroke-opacity="1" stroke-miterlimit="4"/></svg>