<svg xmlns="http://www.w3.org/2000/svg" xmlns:xlink="http://www.w3.org/1999/xlink" width="1200" zoomAndPan="magnify" viewBox="0 0 900 225" height="300" preserveAspectRatio="xMidYMid meet" version="1.0"><defs><g/><clipPath id="78981236d2"><path d="M 70.648438 92.621094 L 220.902344 92.621094 L 220.902344 147.308594 L 70.648438 147.308594 Z M 70.648438 92.621094 " clip-rule="nonzero"/></clipPath><clipPath id="b22db752a5"><path d="M 222.757812 92.621094 L 373.015625 92.621094 L 373.015625 147.308594 L 222.757812 147.308594 Z M 222.757812 92.621094 " clip-rule="nonzero"/></clipPath><clipPath id="1a8f027f3d"><path d="M 374.871094 92.621094 L 525.128906 92.621094 L 525.128906 147.308594 L 374.871094 147.308594 Z M 374.871094 92.621094 " clip-rule="nonzero"/></clipPath><clipPath id="e02273565a"><path d="M 526.984375 92.621094 L 677.242188 92.621094 L 677.242188 147.308594 L 526.984375 147.308594 Z M 526.984375 92.621094 " clip-rule="nonzero"/></clipPath><clipPath id="2bfdf6da81"><path d="M 679.09375 92.621094 L 829.351562 92.621094 L 829.351562 147.308594 L 679.09375 147.308594 Z M 679.09375 92.621094 " clip-rule="nonzero"/></clipPath><clipPath id="c7c1faa2fd"><path d="M 289.003906 72.542969 L 306.761719 72.542969 L 306.761719 88.078125 L 289.003906 88.078125 Z M 289.003906 72.542969 " clip-rule="nonzero"/></clipPath><clipPath id="05d5d7003d"><path d="M 297.882812 88.078125 L 289.003906 72.542969 L 306.761719 72.542969 L 297.882812 88.078125 " clip-rule="nonzero"/></clipPath><clipPath id="a3bcc8e035"><path d="M 289.007812 151.945312 L 306.765625 151.945312 L 306.765625 167.484375 L 289.007812 167.484375 Z M 289.007812 151.945312 " clip-rule="nonzero"/></clipPath><clipPath id="7b4e2a06c1"><path d="M 297.886719 151.945312 L 306.765625 167.484375 L 289.007812 167.484375 L 297.886719 151.945312 " clip-rule="nonzero"/></clipPath></defs><g clip-path="url(#78981236d2)"><path fill="#5876b8" d="M 70.648438 92.621094 L 220.902344 92.621094 L 220.902344 147.308594 L 70.648438 147.308594 Z M 70.648438 92.621094 " fill-opacity="1" fill-rule="nonzero"/></g><g clip-path="url(#b22db752a5)"><path fill="#008000" d="M 222.757812 92.621094 L 373.015625 92.621094 L 373.015625 147.308594 L 222.757812 147.308594 Z M 222.757812 92.621094 " fill-opacity="1" fill-rule="nonzero"/></g><g clip-path="url(#1a8f027f3d)"><path fill="#ebdc8e" d="M 374.871094 92.621094 L 525.128906 92.621094 L 525.128906 147.308594 L 374.871094 147.308594 Z M 374.871094 92.621094 " fill-opacity="1" fill-rule="nonzero"/></g><g clip-path="url(#e02273565a)"><path fill="#f4cc82" d="M 526.984375 92.621094 L 677.242188 92.621094 L 677.242188 147.308594 L 526.984375 147.308594 Z M 526.984375 92.621094 " fill-opacity="1" fill-rule="nonzero"/></g><g clip-path="url(#2bfdf6da81)"><path fill="#fd9a9a" d="M 679.09375 92.621094 L 829.351562 92.621094 L 829.351562 147.308594 L 679.09375 147.308594 Z M 679.09375 92.621094 " fill-opacity="1" fill-rule="nonzero"/></g><path stroke-linecap="butt" transform="matrix(-0.00000153467, -0.75118, 0.75, -0.00000153226, 881.771147, 194.350315)" fill="none" stroke-linejoin="miter" d="M -0.00166519 1.997845 L 198.701435 1.998252 " stroke="#a6a6a6" stroke-width="4" stroke-opacity="1" stroke-miterlimit="4"/><path stroke-linecap="butt" transform="matrix(0.749737, 0.00000000000000011, -0.00000000000000011, 0.75, 15.224552, 192.854652)" fill="none" stroke-linejoin="miter" d="M -0.0025292 2.00109 L 1159.409022 2.00109 " stroke="#a6a6a6" stroke-width="4" stroke-opacity="1" stroke-miterlimit="4"/><path stroke-linecap="butt" transform="matrix(0.000000000000000046, -0.75118, 0.75, 0.000000000000000046, 15.220298, 194.350315)" fill="none" stroke-linejoin="miter" d="M -0.00166112 1.997936 L 198.701439 1.997936 " stroke="#a6a6a6" stroke-width="4" stroke-opacity="1" stroke-miterlimit="4"/><g fill="#30519b" fill-opacity="1"><g transform="translate(137.123507, 128.529035)"><g><path d="M 0.03125 -0.8125 L 0.8125 -0.984375 C 0.976562 -1.035156 1.128906 -1.09375 1.265625 -1.15625 C 1.410156 -1.21875 1.546875 -1.328125 1.671875 -1.484375 C 1.804688 -1.640625 1.9375 -1.859375 2.0625 -2.140625 C 2.195312 -2.429688 2.359375 -2.828125 2.546875 -3.328125 L 7.8125 -18 L 9.375 -18 L 14.90625 -3.03125 C 15.082031 -2.601562 15.234375 -2.265625 15.359375 -2.015625 C 15.492188 -1.765625 15.625 -1.566406 15.75 -1.421875 C 15.875 -1.285156 16 -1.191406 16.125 -1.140625 C 16.257812 -1.085938 16.40625 -1.035156 16.5625 -0.984375 L 17.296875 -0.8125 L 17.296875 0 L 10.78125 0 L 10.78125 -0.8125 L 11.5 -0.984375 C 11.851562 -1.066406 12.09375 -1.160156 12.21875 -1.265625 C 12.34375 -1.367188 12.40625 -1.523438 12.40625 -1.734375 C 12.40625 -1.929688 12.363281 -2.148438 12.28125 -2.390625 C 12.207031 -2.628906 12.113281 -2.921875 12 -3.265625 L 10.984375 -6.046875 L 4.953125 -6.046875 L 4.03125 -3.265625 C 3.90625 -2.921875 3.816406 -2.648438 3.765625 -2.453125 C 3.710938 -2.253906 3.6875 -2.0625 3.6875 -1.875 C 3.6875 -1.59375 3.765625 -1.390625 3.921875 -1.265625 C 4.078125 -1.148438 4.3125 -1.054688 4.625 -0.984375 L 5.5 -0.8125 L 5.5 0 L 0.03125 0 Z M 5.34375 -7.21875 L 10.5625 -7.21875 L 7.96875 -14.546875 L 7.84375 -14.546875 Z M 5.34375 -7.21875 "/></g></g></g><g fill="#ffffff" fill-opacity="1"><g transform="translate(289.786399, 128.529035)"><g><path d="M 0.8125 -0.8125 L 1.96875 -1.03125 C 2.125 -1.050781 2.253906 -1.085938 2.359375 -1.140625 C 2.460938 -1.191406 2.550781 -1.269531 2.625 -1.375 C 2.695312 -1.476562 2.742188 -1.625 2.765625 -1.8125 C 2.785156 -2.007812 2.796875 -2.269531 2.796875 -2.59375 L 2.796875 -15.421875 C 2.796875 -15.753906 2.785156 -16.015625 2.765625 -16.203125 C 2.742188 -16.390625 2.695312 -16.535156 2.625 -16.640625 C 2.550781 -16.742188 2.460938 -16.816406 2.359375 -16.859375 C 2.253906 -16.910156 2.125 -16.953125 1.96875 -16.984375 L 0.8125 -17.21875 L 0.8125 -18 L 7.953125 -18 C 8.921875 -18 9.796875 -17.921875 10.578125 -17.765625 C 11.367188 -17.609375 12.039062 -17.359375 12.59375 -17.015625 C 13.144531 -16.679688 13.570312 -16.242188 13.875 -15.703125 C 14.175781 -15.171875 14.328125 -14.523438 14.328125 -13.765625 C 14.328125 -12.535156 13.945312 -11.585938 13.1875 -10.921875 C 12.425781 -10.253906 11.335938 -9.800781 9.921875 -9.5625 L 9.921875 -9.453125 C 11.703125 -9.316406 13.039062 -8.890625 13.9375 -8.171875 C 14.84375 -7.453125 15.296875 -6.414062 15.296875 -5.0625 C 15.296875 -4.226562 15.132812 -3.5 14.8125 -2.875 C 14.488281 -2.257812 14.03125 -1.734375 13.4375 -1.296875 C 12.851562 -0.867188 12.148438 -0.546875 11.328125 -0.328125 C 10.515625 -0.109375 9.601562 0 8.59375 0 L 0.8125 0 Z M 7.875 -9.921875 C 9.007812 -9.921875 9.894531 -10.207031 10.53125 -10.78125 C 11.164062 -11.363281 11.484375 -12.1875 11.484375 -13.25 C 11.484375 -13.957031 11.40625 -14.546875 11.25 -15.015625 C 11.101562 -15.484375 10.875 -15.847656 10.5625 -16.109375 C 10.257812 -16.378906 9.867188 -16.570312 9.390625 -16.6875 C 8.910156 -16.800781 8.351562 -16.859375 7.71875 -16.859375 C 7.3125 -16.859375 6.921875 -16.84375 6.546875 -16.8125 C 6.179688 -16.789062 5.878906 -16.753906 5.640625 -16.703125 L 5.640625 -9.921875 Z M 8.34375 -1.140625 C 9.550781 -1.140625 10.507812 -1.410156 11.21875 -1.953125 C 11.925781 -2.503906 12.28125 -3.421875 12.28125 -4.703125 C 12.28125 -6.117188 11.96875 -7.144531 11.34375 -7.78125 C 10.71875 -8.425781 9.679688 -8.75 8.234375 -8.75 L 5.640625 -8.75 L 5.640625 -3.171875 C 5.640625 -2.722656 5.664062 -2.363281 5.71875 -2.09375 C 5.769531 -1.820312 5.890625 -1.613281 6.078125 -1.46875 C 6.265625 -1.332031 6.535156 -1.242188 6.890625 -1.203125 C 7.242188 -1.160156 7.726562 -1.140625 8.34375 -1.140625 Z M 8.34375 -1.140625 "/></g></g></g><g fill="#a69850" fill-opacity="1"><g transform="translate(441.826118, 126.921283)"><g><path d="M 9.484375 0.3125 C 8.253906 0.3125 7.125 0.140625 6.09375 -0.203125 C 5.0625 -0.554688 4.164062 -1.097656 3.40625 -1.828125 C 2.65625 -2.566406 2.066406 -3.515625 1.640625 -4.671875 C 1.222656 -5.835938 1.015625 -7.234375 1.015625 -8.859375 C 1.015625 -10.585938 1.253906 -12.050781 1.734375 -13.25 C 2.222656 -14.457031 2.878906 -15.429688 3.703125 -16.171875 C 4.523438 -16.921875 5.484375 -17.460938 6.578125 -17.796875 C 7.679688 -18.140625 8.847656 -18.3125 10.078125 -18.3125 C 11.078125 -18.3125 12 -18.25 12.84375 -18.125 C 13.695312 -18 14.410156 -17.851562 14.984375 -17.6875 L 15.21875 -12.546875 L 14.3125 -12.546875 C 14.0625 -13.203125 13.789062 -13.851562 13.5 -14.5 C 13.207031 -15.15625 12.914062 -15.707031 12.625 -16.15625 C 12.476562 -16.363281 12.332031 -16.523438 12.1875 -16.640625 C 12.039062 -16.765625 11.863281 -16.859375 11.65625 -16.921875 C 11.445312 -16.992188 11.191406 -17.039062 10.890625 -17.0625 C 10.585938 -17.09375 10.210938 -17.109375 9.765625 -17.109375 C 8.828125 -17.109375 8 -16.984375 7.28125 -16.734375 C 6.5625 -16.484375 5.960938 -16.054688 5.484375 -15.453125 C 5.015625 -14.847656 4.65625 -14.046875 4.40625 -13.046875 C 4.15625 -12.054688 4.03125 -10.820312 4.03125 -9.34375 C 4.03125 -7.75 4.140625 -6.414062 4.359375 -5.34375 C 4.585938 -4.269531 4.925781 -3.398438 5.375 -2.734375 C 5.820312 -2.066406 6.382812 -1.59375 7.0625 -1.3125 C 7.738281 -1.03125 8.519531 -0.890625 9.40625 -0.890625 C 9.988281 -0.890625 10.472656 -0.921875 10.859375 -0.984375 C 11.253906 -1.054688 11.582031 -1.15625 11.84375 -1.28125 C 12.101562 -1.414062 12.3125 -1.570312 12.46875 -1.75 C 12.632812 -1.9375 12.796875 -2.140625 12.953125 -2.359375 C 13.128906 -2.640625 13.285156 -2.894531 13.421875 -3.125 C 13.566406 -3.363281 13.691406 -3.597656 13.796875 -3.828125 C 13.910156 -4.066406 14.019531 -4.316406 14.125 -4.578125 C 14.226562 -4.847656 14.34375 -5.15625 14.46875 -5.5 L 15.296875 -5.5 L 15.03125 -0.828125 C 14.425781 -0.535156 13.628906 -0.269531 12.640625 -0.03125 C 11.660156 0.195312 10.609375 0.3125 9.484375 0.3125 Z M 9.484375 0.3125 "/></g></g></g><g fill="#bb934b" fill-opacity="1"><g transform="translate(592.967308, 128.529035)"><g><path d="M 0.8125 -0.8125 L 1.96875 -1.03125 C 2.125 -1.050781 2.253906 -1.085938 2.359375 -1.140625 C 2.460938 -1.191406 2.550781 -1.269531 2.625 -1.375 C 2.695312 -1.476562 2.742188 -1.625 2.765625 -1.8125 C 2.785156 -2.007812 2.796875 -2.269531 2.796875 -2.59375 L 2.796875 -15.421875 C 2.796875 -15.753906 2.785156 -16.015625 2.765625 -16.203125 C 2.742188 -16.390625 2.695312 -16.535156 2.625 -16.640625 C 2.550781 -16.742188 2.460938 -16.816406 2.359375 -16.859375 C 2.253906 -16.910156 2.125 -16.953125 1.96875 -16.984375 L 0.8125 -17.21875 L 0.8125 -18 L 8.515625 -18 C 9.765625 -18 10.925781 -17.847656 12 -17.546875 C 13.070312 -17.242188 14.003906 -16.75 14.796875 -16.0625 C 15.597656 -15.375 16.226562 -14.46875 16.6875 -13.34375 C 17.144531 -12.21875 17.375 -10.828125 17.375 -9.171875 C 17.375 -7.640625 17.148438 -6.300781 16.703125 -5.15625 C 16.265625 -4.019531 15.644531 -3.066406 14.84375 -2.296875 C 14.050781 -1.523438 13.097656 -0.945312 11.984375 -0.5625 C 10.878906 -0.1875 9.671875 0 8.359375 0 L 0.8125 0 Z M 8.1875 -1.09375 C 9.394531 -1.09375 10.398438 -1.273438 11.203125 -1.640625 C 12.003906 -2.015625 12.644531 -2.535156 13.125 -3.203125 C 13.601562 -3.867188 13.9375 -4.664062 14.125 -5.59375 C 14.3125 -6.519531 14.40625 -7.546875 14.40625 -8.671875 C 14.40625 -10.109375 14.289062 -11.34375 14.0625 -12.375 C 13.84375 -13.414062 13.484375 -14.269531 12.984375 -14.9375 C 12.484375 -15.601562 11.832031 -16.097656 11.03125 -16.421875 C 10.238281 -16.742188 9.269531 -16.90625 8.125 -16.90625 C 7.488281 -16.90625 6.972656 -16.882812 6.578125 -16.84375 C 6.191406 -16.800781 5.878906 -16.742188 5.640625 -16.671875 L 5.640625 -3.609375 C 5.640625 -3.085938 5.660156 -2.660156 5.703125 -2.328125 C 5.742188 -2.003906 5.847656 -1.75 6.015625 -1.5625 C 6.179688 -1.382812 6.429688 -1.257812 6.765625 -1.1875 C 7.097656 -1.125 7.570312 -1.09375 8.1875 -1.09375 Z M 8.1875 -1.09375 "/></g></g></g><g fill="#b65959" fill-opacity="1"><g transform="translate(746.601195, 128.529035)"><g><path d="M 0.8125 -0.8125 L 1.96875 -1.03125 C 2.125 -1.050781 2.253906 -1.085938 2.359375 -1.140625 C 2.460938 -1.191406 2.550781 -1.269531 2.625 -1.375 C 2.695312 -1.476562 2.742188 -1.625 2.765625 -1.8125 C 2.785156 -2.007812 2.796875 -2.269531 2.796875 -2.59375 L 2.796875 -15.421875 C 2.796875 -15.753906 2.785156 -16.015625 2.765625 -16.203125 C 2.742188 -16.390625 2.695312 -16.535156 2.625 -16.640625 C 2.550781 -16.742188 2.460938 -16.816406 2.359375 -16.859375 C 2.253906 -16.910156 2.125 -16.953125 1.96875 -16.984375 L 0.8125 -17.21875 L 0.8125 -18 L 14.046875 -18 L 14.3125 -13.140625 L 13.34375 -13.140625 C 13.050781 -13.921875 12.804688 -14.515625 12.609375 -14.921875 C 12.421875 -15.328125 12.234375 -15.648438 12.046875 -15.890625 C 11.859375 -16.148438 11.675781 -16.34375 11.5 -16.46875 C 11.332031 -16.601562 11.117188 -16.695312 10.859375 -16.75 C 10.609375 -16.800781 10.296875 -16.832031 9.921875 -16.84375 C 9.554688 -16.851562 9.085938 -16.859375 8.515625 -16.859375 C 7.785156 -16.859375 7.195312 -16.835938 6.75 -16.796875 C 6.300781 -16.765625 5.929688 -16.722656 5.640625 -16.671875 L 5.640625 -9.640625 L 6.203125 -9.640625 C 6.804688 -9.640625 7.300781 -9.648438 7.6875 -9.671875 C 8.082031 -9.703125 8.398438 -9.742188 8.640625 -9.796875 C 8.890625 -9.859375 9.078125 -9.9375 9.203125 -10.03125 C 9.335938 -10.132812 9.445312 -10.253906 9.53125 -10.390625 C 9.707031 -10.660156 9.847656 -10.9375 9.953125 -11.21875 C 10.066406 -11.507812 10.175781 -11.875 10.28125 -12.3125 L 11.171875 -12.3125 L 11.171875 -5.609375 L 10.28125 -5.609375 C 10.164062 -6.054688 10.050781 -6.4375 9.9375 -6.75 C 9.820312 -7.0625 9.671875 -7.398438 9.484375 -7.765625 C 9.390625 -7.921875 9.289062 -8.039062 9.1875 -8.125 C 9.082031 -8.21875 8.914062 -8.285156 8.6875 -8.328125 C 8.46875 -8.378906 8.160156 -8.410156 7.765625 -8.421875 C 7.367188 -8.429688 6.847656 -8.4375 6.203125 -8.4375 L 5.640625 -8.4375 L 5.640625 -2.59375 C 5.640625 -2.269531 5.644531 -2.015625 5.65625 -1.828125 C 5.675781 -1.648438 5.71875 -1.507812 5.78125 -1.40625 C 5.84375 -1.300781 5.925781 -1.222656 6.03125 -1.171875 C 6.132812 -1.128906 6.28125 -1.09375 6.46875 -1.0625 L 8 -0.8125 L 8 0 L 0.8125 0 Z M 0.8125 -0.8125 "/></g></g></g><g clip-path="url(#c7c1faa2fd)"><g clip-path="url(#05d5d7003d)"><path fill="#a6a6a6" d="M 306.761719 88.078125 L 289.003906 88.078125 L 289.003906 72.542969 L 306.761719 72.542969 Z M 306.761719 88.078125 " fill-opacity="1" fill-rule="nonzero"/></g></g><g clip-path="url(#a3bcc8e035)"><g clip-path="url(#7b4e2a06c1)"><path fill="#a6a6a6" d="M 289.007812 151.945312 L 306.765625 151.945312 L 306.765625 167.484375 L 289.007812 167.484375 Z M 289.007812 151.945312 " fill-opacity="1" fill-rule="nonzero"/></g></g><g fill="#000000" fill-opacity="1"><g transform="translate(355.934145, 52.982477)"><g><path d="M 0.8125 -0.8125 L 1.96875 -1.03125 C 2.125 -1.050781 2.253906 -1.085938 2.359375 -1.140625 C 2.460938 -1.191406 2.550781 -1.269531 2.625 -1.375 C 2.695312 -1.476562 2.742188 -1.625 2.765625 -1.8125 C 2.785156 -2.007812 2.796875 -2.269531 2.796875 -2.59375 L 2.796875 -15.421875 C 2.796875 -15.753906 2.785156 -16.015625 2.765625 -16.203125 C 2.742188 -16.390625 2.695312 -16.535156 2.625 -16.640625 C 2.550781 -16.742188 2.460938 -16.816406 2.359375 -16.859375 C 2.253906 -16.910156 2.125 -16.953125 1.96875 -16.984375 L 0.8125 -17.21875 L 0.8125 -18 L 8.359375 -18 C 10.453125 -18 11.988281 -17.617188 12.96875 -16.859375 C 13.945312 -16.097656 14.4375 -14.953125 14.4375 -13.421875 C 14.4375 -12.453125 14.082031 -11.5625 13.375 -10.75 C 12.675781 -9.9375 11.65625 -9.332031 10.3125 -8.9375 L 10.3125 -8.859375 C 10.65625 -8.253906 11.023438 -7.625 11.421875 -6.96875 C 11.828125 -6.320312 12.234375 -5.6875 12.640625 -5.0625 C 13.046875 -4.4375 13.453125 -3.832031 13.859375 -3.25 C 14.265625 -2.675781 14.648438 -2.15625 15.015625 -1.6875 C 15.148438 -1.5 15.304688 -1.351562 15.484375 -1.25 C 15.671875 -1.15625 15.960938 -1.054688 16.359375 -0.953125 L 16.9375 -0.8125 L 16.9375 0 L 12.984375 0 C 11.992188 -1.25 11.066406 -2.566406 10.203125 -3.953125 C 9.335938 -5.335938 8.550781 -6.726562 7.84375 -8.125 L 5.578125 -8.125 L 5.578125 -2.59375 C 5.578125 -2.269531 5.585938 -2.007812 5.609375 -1.8125 C 5.640625 -1.625 5.6875 -1.476562 5.75 -1.375 C 5.8125 -1.269531 5.898438 -1.195312 6.015625 -1.15625 C 6.128906 -1.113281 6.28125 -1.070312 6.46875 -1.03125 L 7.71875 -0.8125 L 7.71875 0 L 0.8125 0 Z M 7.140625 -9.328125 C 8.703125 -9.328125 9.816406 -9.628906 10.484375 -10.234375 C 11.160156 -10.835938 11.5 -11.816406 11.5 -13.171875 C 11.5 -13.960938 11.429688 -14.597656 11.296875 -15.078125 C 11.160156 -15.566406 10.945312 -15.941406 10.65625 -16.203125 C 10.375 -16.460938 10.007812 -16.632812 9.5625 -16.71875 C 9.125 -16.8125 8.613281 -16.859375 8.03125 -16.859375 C 7.457031 -16.859375 6.96875 -16.835938 6.5625 -16.796875 C 6.15625 -16.765625 5.828125 -16.722656 5.578125 -16.671875 L 5.578125 -9.421875 C 5.722656 -9.410156 5.890625 -9.394531 6.078125 -9.375 C 6.210938 -9.351562 6.375 -9.335938 6.5625 -9.328125 C 6.757812 -9.328125 6.953125 -9.328125 7.140625 -9.328125 Z M 7.140625 -9.328125 "/></g></g></g><g fill="#000000" fill-opacity="1"><g transform="translate(372.857384, 52.982477)"><g><path d="M 3.609375 -15.9375 C 3.109375 -15.9375 2.6875 -16.109375 2.34375 -16.453125 C 2.007812 -16.804688 1.84375 -17.195312 1.84375 -17.625 C 1.84375 -18.09375 2.007812 -18.492188 2.34375 -18.828125 C 2.6875 -19.160156 3.109375 -19.328125 3.609375 -19.328125 C 4.097656 -19.328125 4.507812 -19.160156 4.84375 -18.828125 C 5.175781 -18.492188 5.34375 -18.09375 5.34375 -17.625 C 5.34375 -17.195312 5.175781 -16.804688 4.84375 -16.453125 C 4.507812 -16.109375 4.097656 -15.9375 3.609375 -15.9375 Z M 0.65625 -0.78125 L 1.71875 -1.0625 C 1.976562 -1.132812 2.160156 -1.25 2.265625 -1.40625 C 2.367188 -1.570312 2.421875 -1.910156 2.421875 -2.421875 L 2.421875 -10.46875 C 2.421875 -10.726562 2.410156 -10.929688 2.390625 -11.078125 C 2.367188 -11.222656 2.328125 -11.34375 2.265625 -11.4375 C 2.210938 -11.53125 2.132812 -11.601562 2.03125 -11.65625 C 1.925781 -11.707031 1.796875 -11.78125 1.640625 -11.875 L 0.65625 -12.359375 L 0.65625 -13.03125 L 4.9375 -13.578125 L 5.1875 -13.421875 C 5.15625 -13.210938 5.125 -12.960938 5.09375 -12.671875 C 5.039062 -12.171875 5.015625 -11.453125 5.015625 -10.515625 L 5.015625 -2.421875 C 5.015625 -2.140625 5.019531 -1.914062 5.03125 -1.75 C 5.050781 -1.582031 5.085938 -1.457031 5.140625 -1.375 C 5.191406 -1.289062 5.257812 -1.222656 5.34375 -1.171875 C 5.4375 -1.128906 5.550781 -1.09375 5.6875 -1.0625 L 6.75 -0.78125 L 6.75 0 L 0.65625 0 Z M 0.65625 -0.78125 "/></g></g></g><g fill="#000000" fill-opacity="1"><g transform="translate(380.099081, 52.982477)"><g><path d="M 4.9375 0.3125 C 4.1875 0.3125 3.46875 0.265625 2.78125 0.171875 C 2.101562 0.078125 1.503906 -0.0664062 0.984375 -0.265625 L 0.859375 -4.125 L 1.6875 -4.125 C 1.914062 -3.625 2.101562 -3.203125 2.25 -2.859375 C 2.394531 -2.523438 2.625 -2.171875 2.9375 -1.796875 C 3.175781 -1.492188 3.457031 -1.253906 3.78125 -1.078125 C 4.101562 -0.898438 4.570312 -0.8125 5.1875 -0.8125 C 5.988281 -0.8125 6.640625 -0.992188 7.140625 -1.359375 C 7.640625 -1.734375 7.890625 -2.257812 7.890625 -2.9375 C 7.890625 -3.28125 7.828125 -3.582031 7.703125 -3.84375 C 7.585938 -4.101562 7.40625 -4.335938 7.15625 -4.546875 C 6.90625 -4.753906 6.585938 -4.953125 6.203125 -5.140625 C 5.828125 -5.328125 5.367188 -5.523438 4.828125 -5.734375 C 4.253906 -5.960938 3.734375 -6.203125 3.265625 -6.453125 C 2.804688 -6.703125 2.40625 -6.988281 2.0625 -7.3125 C 1.726562 -7.632812 1.460938 -7.992188 1.265625 -8.390625 C 1.078125 -8.785156 0.984375 -9.234375 0.984375 -9.734375 C 0.984375 -10.335938 1.109375 -10.878906 1.359375 -11.359375 C 1.609375 -11.835938 1.953125 -12.242188 2.390625 -12.578125 C 2.835938 -12.921875 3.359375 -13.179688 3.953125 -13.359375 C 4.554688 -13.546875 5.195312 -13.640625 5.875 -13.640625 C 6.59375 -13.640625 7.222656 -13.601562 7.765625 -13.53125 C 8.316406 -13.457031 8.816406 -13.335938 9.265625 -13.171875 L 9.375 -9.6875 L 8.59375 -9.6875 C 8.375 -10.132812 8.160156 -10.519531 7.953125 -10.84375 C 7.742188 -11.175781 7.515625 -11.507812 7.265625 -11.84375 C 7.078125 -12.082031 6.863281 -12.257812 6.625 -12.375 C 6.382812 -12.488281 6.03125 -12.546875 5.5625 -12.546875 C 4.695312 -12.546875 4.066406 -12.363281 3.671875 -12 C 3.285156 -11.632812 3.09375 -11.125 3.09375 -10.46875 C 3.09375 -9.96875 3.328125 -9.523438 3.796875 -9.140625 C 4.265625 -8.753906 5.039062 -8.359375 6.125 -7.953125 C 6.726562 -7.703125 7.28125 -7.453125 7.78125 -7.203125 C 8.289062 -6.953125 8.722656 -6.671875 9.078125 -6.359375 C 9.429688 -6.046875 9.703125 -5.695312 9.890625 -5.3125 C 10.085938 -4.9375 10.1875 -4.5 10.1875 -4 C 10.1875 -3.394531 10.0625 -2.828125 9.8125 -2.296875 C 9.570312 -1.765625 9.226562 -1.304688 8.78125 -0.921875 C 8.332031 -0.535156 7.78125 -0.234375 7.125 -0.015625 C 6.476562 0.203125 5.75 0.3125 4.9375 0.3125 Z M 4.9375 0.3125 "/></g></g></g><g fill="#000000" fill-opacity="1"><g transform="translate(391.130327, 52.982477)"><g><path d="M 0.65625 -0.78125 L 1.71875 -1.0625 C 1.976562 -1.132812 2.160156 -1.25 2.265625 -1.40625 C 2.367188 -1.570312 2.421875 -1.910156 2.421875 -2.421875 L 2.421875 -16.828125 C 2.421875 -17.085938 2.40625 -17.289062 2.375 -17.4375 C 2.351562 -17.582031 2.3125 -17.703125 2.25 -17.796875 C 2.1875 -17.890625 2.109375 -17.960938 2.015625 -18.015625 C 1.921875 -18.066406 1.796875 -18.128906 1.640625 -18.203125 L 0.515625 -18.71875 L 0.515625 -19.453125 L 4.9375 -19.859375 L 5.1875 -19.65625 C 5.15625 -19.394531 5.125 -19.109375 5.09375 -18.796875 C 5.039062 -18.242188 5.015625 -17.519531 5.015625 -16.625 L 5.015625 -2.421875 C 5.015625 -2.140625 5.019531 -1.914062 5.03125 -1.75 C 5.050781 -1.582031 5.085938 -1.457031 5.140625 -1.375 C 5.191406 -1.289062 5.257812 -1.222656 5.34375 -1.171875 C 5.4375 -1.128906 5.550781 -1.09375 5.6875 -1.0625 L 6.75 -0.78125 L 6.75 0 L 0.65625 0 Z M 10.59375 0 C 10.09375 -0.539062 9.617188 -1.066406 9.171875 -1.578125 C 8.734375 -2.097656 8.304688 -2.625 7.890625 -3.15625 C 7.472656 -3.6875 7.066406 -4.226562 6.671875 -4.78125 C 6.273438 -5.332031 5.867188 -5.921875 5.453125 -6.546875 L 5.453125 -6.9375 L 8.125 -9.84375 C 8.664062 -10.445312 9.039062 -10.882812 9.25 -11.15625 C 9.457031 -11.425781 9.5625 -11.640625 9.5625 -11.796875 C 9.5625 -12.046875 9.351562 -12.234375 8.9375 -12.359375 L 8.546875 -12.484375 L 8.546875 -13.21875 L 13.40625 -13.21875 L 13.40625 -12.46875 L 12.59375 -12.203125 C 12.226562 -12.085938 11.875 -11.921875 11.53125 -11.703125 C 11.1875 -11.484375 10.753906 -11.113281 10.234375 -10.59375 L 7.578125 -7.734375 C 8.335938 -6.609375 9.117188 -5.523438 9.921875 -4.484375 C 10.734375 -3.453125 11.585938 -2.457031 12.484375 -1.5 C 12.609375 -1.363281 12.722656 -1.265625 12.828125 -1.203125 C 12.929688 -1.140625 13.050781 -1.09375 13.1875 -1.0625 L 14.078125 -0.78125 L 14.078125 0 Z M 10.59375 0 "/></g></g></g><g fill="#000000" fill-opacity="1"><g transform="translate(405.198423, 52.982477)"><g/></g></g><g fill="#000000" fill-opacity="1"><g transform="translate(411.713349, 52.982477)"><g><path d="M 0.8125 -0.8125 L 1.96875 -1.03125 C 2.125 -1.050781 2.253906 -1.085938 2.359375 -1.140625 C 2.460938 -1.191406 2.550781 -1.269531 2.625 -1.375 C 2.695312 -1.476562 2.742188 -1.625 2.765625 -1.8125 C 2.785156 -2.007812 2.796875 -2.269531 2.796875 -2.59375 L 2.796875 -15.421875 C 2.796875 -15.753906 2.785156 -16.015625 2.765625 -16.203125 C 2.742188 -16.390625 2.695312 -16.535156 2.625 -16.640625 C 2.550781 -16.742188 2.460938 -16.816406 2.359375 -16.859375 C 2.253906 -16.910156 2.125 -16.953125 1.96875 -16.984375 L 0.8125 -17.21875 L 0.8125 -18 L 8.359375 -18 C 10.453125 -18 11.988281 -17.617188 12.96875 -16.859375 C 13.945312 -16.097656 14.4375 -14.953125 14.4375 -13.421875 C 14.4375 -12.453125 14.082031 -11.5625 13.375 -10.75 C 12.675781 -9.9375 11.65625 -9.332031 10.3125 -8.9375 L 10.3125 -8.859375 C 10.65625 -8.253906 11.023438 -7.625 11.421875 -6.96875 C 11.828125 -6.320312 12.234375 -5.6875 12.640625 -5.0625 C 13.046875 -4.4375 13.453125 -3.832031 13.859375 -3.25 C 14.265625 -2.675781 14.648438 -2.15625 15.015625 -1.6875 C 15.148438 -1.5 15.304688 -1.351562 15.484375 -1.25 C 15.671875 -1.15625 15.960938 -1.054688 16.359375 -0.953125 L 16.9375 -0.8125 L 16.9375 0 L 12.984375 0 C 11.992188 -1.25 11.066406 -2.566406 10.203125 -3.953125 C 9.335938 -5.335938 8.550781 -6.726562 7.84375 -8.125 L 5.578125 -8.125 L 5.578125 -2.59375 C 5.578125 -2.269531 5.585938 -2.007812 5.609375 -1.8125 C 5.640625 -1.625 5.6875 -1.476562 5.75 -1.375 C 5.8125 -1.269531 5.898438 -1.195312 6.015625 -1.15625 C 6.128906 -1.113281 6.28125 -1.070312 6.46875 -1.03125 L 7.71875 -0.8125 L 7.71875 0 L 0.8125 0 Z M 7.140625 -9.328125 C 8.703125 -9.328125 9.816406 -9.628906 10.484375 -10.234375 C 11.160156 -10.835938 11.5 -11.816406 11.5 -13.171875 C 11.5 -13.960938 11.429688 -14.597656 11.296875 -15.078125 C 11.160156 -15.566406 10.945312 -15.941406 10.65625 -16.203125 C 10.375 -16.460938 10.007812 -16.632812 9.5625 -16.71875 C 9.125 -16.8125 8.613281 -16.859375 8.03125 -16.859375 C 7.457031 -16.859375 6.96875 -16.835938 6.5625 -16.796875 C 6.15625 -16.765625 5.828125 -16.722656 5.578125 -16.671875 L 5.578125 -9.421875 C 5.722656 -9.410156 5.890625 -9.394531 6.078125 -9.375 C 6.210938 -9.351562 6.375 -9.335938 6.5625 -9.328125 C 6.757812 -9.328125 6.953125 -9.328125 7.140625 -9.328125 Z M 7.140625 -9.328125 "/></g></g></g><g fill="#000000" fill-opacity="1"><g transform="translate(428.636588, 52.982477)"><g><path d="M 4.640625 0.34375 C 3.429688 0.34375 2.472656 0.0507812 1.765625 -0.53125 C 1.054688 -1.125 0.703125 -1.984375 0.703125 -3.109375 C 0.703125 -4.179688 1.078125 -5.015625 1.828125 -5.609375 C 2.578125 -6.203125 3.71875 -6.671875 5.25 -7.015625 L 8.28125 -7.6875 L 8.28125 -10.109375 C 8.28125 -10.535156 8.253906 -10.910156 8.203125 -11.234375 C 8.148438 -11.554688 8.039062 -11.816406 7.875 -12.015625 C 7.71875 -12.222656 7.472656 -12.375 7.140625 -12.46875 C 6.804688 -12.570312 6.363281 -12.625 5.8125 -12.625 C 5.238281 -12.625 4.867188 -12.546875 4.703125 -12.390625 C 4.546875 -12.242188 4.441406 -11.972656 4.390625 -11.578125 C 4.316406 -11.078125 4.1875 -10.660156 4 -10.328125 C 3.8125 -10.003906 3.421875 -9.84375 2.828125 -9.84375 C 2.304688 -9.84375 1.945312 -9.972656 1.75 -10.234375 C 1.550781 -10.492188 1.453125 -10.796875 1.453125 -11.140625 C 1.453125 -11.578125 1.601562 -11.945312 1.90625 -12.25 C 2.207031 -12.5625 2.597656 -12.820312 3.078125 -13.03125 C 3.566406 -13.238281 4.097656 -13.390625 4.671875 -13.484375 C 5.242188 -13.585938 5.804688 -13.640625 6.359375 -13.640625 C 7.929688 -13.640625 9.078125 -13.359375 9.796875 -12.796875 C 10.515625 -12.234375 10.875 -11.382812 10.875 -10.25 L 10.875 -2.59375 C 10.875 -2.25 10.925781 -1.972656 11.03125 -1.765625 C 11.132812 -1.554688 11.316406 -1.382812 11.578125 -1.25 C 11.722656 -1.15625 11.894531 -1.09375 12.09375 -1.0625 C 12.300781 -1.039062 12.554688 -1.023438 12.859375 -1.015625 L 12.859375 -0.28125 C 12.648438 -0.144531 12.328125 -0.015625 11.890625 0.109375 C 11.460938 0.242188 11.019531 0.3125 10.5625 0.3125 C 9.90625 0.3125 9.398438 0.171875 9.046875 -0.109375 C 8.691406 -0.398438 8.472656 -0.757812 8.390625 -1.1875 L 8.265625 -1.1875 C 7.953125 -0.757812 7.460938 -0.394531 6.796875 -0.09375 C 6.140625 0.195312 5.421875 0.34375 4.640625 0.34375 Z M 5.765625 -1.140625 C 6.390625 -1.140625 6.914062 -1.257812 7.34375 -1.5 C 7.78125 -1.75 8.09375 -2.035156 8.28125 -2.359375 L 8.28125 -6.359375 L 6.28125 -6.15625 C 5.34375 -6.070312 4.617188 -5.820312 4.109375 -5.40625 C 3.597656 -4.988281 3.34375 -4.296875 3.34375 -3.328125 C 3.34375 -2.566406 3.554688 -2.007812 3.984375 -1.65625 C 4.410156 -1.3125 5.003906 -1.140625 5.765625 -1.140625 Z M 5.765625 -1.140625 "/></g></g></g><g fill="#000000" fill-opacity="1"><g transform="translate(441.874089, 52.982477)"><g><path d="M 5.09375 0.3125 C 4.675781 0.3125 4.285156 0.265625 3.921875 0.171875 C 3.554688 0.078125 3.238281 -0.0820312 2.96875 -0.3125 C 2.707031 -0.539062 2.492188 -0.820312 2.328125 -1.15625 C 2.160156 -1.488281 2.078125 -1.910156 2.078125 -2.421875 L 2.078125 -11.84375 L 0.265625 -11.84375 L 0.265625 -12.59375 C 1.160156 -12.832031 1.863281 -13.265625 2.375 -13.890625 C 2.882812 -14.515625 3.3125 -15.351562 3.65625 -16.40625 L 4.671875 -16.40625 L 4.671875 -13.21875 L 8.40625 -13.21875 L 8.078125 -11.84375 L 4.671875 -11.84375 L 4.671875 -2.796875 C 4.671875 -1.722656 5.257812 -1.1875 6.4375 -1.1875 C 6.820312 -1.1875 7.195312 -1.222656 7.5625 -1.296875 C 7.925781 -1.378906 8.234375 -1.46875 8.484375 -1.5625 L 8.484375 -0.734375 C 8.242188 -0.503906 7.835938 -0.269531 7.265625 -0.03125 C 6.703125 0.195312 5.976562 0.3125 5.09375 0.3125 Z M 5.09375 0.3125 "/></g></g></g><g fill="#000000" fill-opacity="1"><g transform="translate(450.673138, 52.982477)"><g><path d="M 3.609375 -15.9375 C 3.109375 -15.9375 2.6875 -16.109375 2.34375 -16.453125 C 2.007812 -16.804688 1.84375 -17.195312 1.84375 -17.625 C 1.84375 -18.09375 2.007812 -18.492188 2.34375 -18.828125 C 2.6875 -19.160156 3.109375 -19.328125 3.609375 -19.328125 C 4.097656 -19.328125 4.507812 -19.160156 4.84375 -18.828125 C 5.175781 -18.492188 5.34375 -18.09375 5.34375 -17.625 C 5.34375 -17.195312 5.175781 -16.804688 4.84375 -16.453125 C 4.507812 -16.109375 4.097656 -15.9375 3.609375 -15.9375 Z M 0.65625 -0.78125 L 1.71875 -1.0625 C 1.976562 -1.132812 2.160156 -1.25 2.265625 -1.40625 C 2.367188 -1.570312 2.421875 -1.910156 2.421875 -2.421875 L 2.421875 -10.46875 C 2.421875 -10.726562 2.410156 -10.929688 2.390625 -11.078125 C 2.367188 -11.222656 2.328125 -11.34375 2.265625 -11.4375 C 2.210938 -11.53125 2.132812 -11.601562 2.03125 -11.65625 C 1.925781 -11.707031 1.796875 -11.78125 1.640625 -11.875 L 0.65625 -12.359375 L 0.65625 -13.03125 L 4.9375 -13.578125 L 5.1875 -13.421875 C 5.15625 -13.210938 5.125 -12.960938 5.09375 -12.671875 C 5.039062 -12.171875 5.015625 -11.453125 5.015625 -10.515625 L 5.015625 -2.421875 C 5.015625 -2.140625 5.019531 -1.914062 5.03125 -1.75 C 5.050781 -1.582031 5.085938 -1.457031 5.140625 -1.375 C 5.191406 -1.289062 5.257812 -1.222656 5.34375 -1.171875 C 5.4375 -1.128906 5.550781 -1.09375 5.6875 -1.0625 L 6.75 -0.78125 L 6.75 0 L 0.65625 0 Z M 0.65625 -0.78125 "/></g></g></g><g fill="#000000" fill-opacity="1"><g transform="translate(457.914835, 52.982477)"><g><path d="M 0.65625 -0.78125 L 1.71875 -1.0625 C 1.976562 -1.132812 2.160156 -1.25 2.265625 -1.40625 C 2.367188 -1.570312 2.421875 -1.910156 2.421875 -2.421875 L 2.421875 -10.46875 C 2.421875 -10.726562 2.410156 -10.929688 2.390625 -11.078125 C 2.367188 -11.222656 2.328125 -11.34375 2.265625 -11.4375 C 2.210938 -11.53125 2.132812 -11.601562 2.03125 -11.65625 C 1.925781 -11.707031 1.796875 -11.78125 1.640625 -11.875 L 0.65625 -12.359375 L 0.65625 -13.03125 L 4.75 -13.578125 L 5.015625 -13.421875 L 4.875 -11.96875 L 4.984375 -11.96875 C 5.316406 -12.175781 5.675781 -12.378906 6.0625 -12.578125 C 6.445312 -12.773438 6.859375 -12.945312 7.296875 -13.09375 C 7.734375 -13.25 8.171875 -13.375 8.609375 -13.46875 C 9.046875 -13.5625 9.472656 -13.609375 9.890625 -13.609375 C 11.210938 -13.609375 12.128906 -13.328125 12.640625 -12.765625 C 13.160156 -12.203125 13.421875 -11.332031 13.421875 -10.15625 L 13.421875 -2.421875 C 13.421875 -1.910156 13.476562 -1.570312 13.59375 -1.40625 C 13.707031 -1.25 13.882812 -1.132812 14.125 -1.0625 L 15.171875 -0.78125 L 15.171875 0 L 9.09375 0 L 9.09375 -0.78125 L 10.15625 -1.0625 C 10.269531 -1.09375 10.367188 -1.128906 10.453125 -1.171875 C 10.546875 -1.222656 10.617188 -1.289062 10.671875 -1.375 C 10.722656 -1.457031 10.757812 -1.582031 10.78125 -1.75 C 10.8125 -1.914062 10.828125 -2.140625 10.828125 -2.421875 L 10.828125 -9.421875 C 10.828125 -10.335938 10.65625 -10.976562 10.3125 -11.34375 C 9.976562 -11.707031 9.394531 -11.890625 8.5625 -11.890625 C 8.257812 -11.890625 7.929688 -11.859375 7.578125 -11.796875 C 7.234375 -11.742188 6.90625 -11.675781 6.59375 -11.59375 C 6.28125 -11.519531 5.984375 -11.429688 5.703125 -11.328125 C 5.429688 -11.234375 5.203125 -11.15625 5.015625 -11.09375 L 5.015625 -2.421875 C 5.015625 -2.140625 5.019531 -1.914062 5.03125 -1.75 C 5.050781 -1.582031 5.085938 -1.457031 5.140625 -1.375 C 5.191406 -1.289062 5.257812 -1.222656 5.34375 -1.171875 C 5.4375 -1.128906 5.550781 -1.09375 5.6875 -1.0625 L 6.75 -0.78125 L 6.75 0 L 0.65625 0 Z M 0.65625 -0.78125 "/></g></g></g><g fill="#000000" fill-opacity="1"><g transform="translate(473.618151, 52.982477)"><g><path d="M 5.453125 5.8125 C 3.679688 5.8125 2.296875 5.523438 1.296875 4.953125 C 0.304688 4.390625 -0.1875 3.640625 -0.1875 2.703125 C -0.1875 2.054688 0.078125 1.460938 0.609375 0.921875 C 1.140625 0.390625 1.867188 -0.0351562 2.796875 -0.359375 L 2.796875 -0.46875 C 2.347656 -0.625 1.945312 -0.867188 1.59375 -1.203125 C 1.238281 -1.546875 1.0625 -2.019531 1.0625 -2.625 C 1.0625 -2.988281 1.125 -3.316406 1.25 -3.609375 C 1.382812 -3.898438 1.546875 -4.160156 1.734375 -4.390625 C 1.929688 -4.628906 2.148438 -4.84375 2.390625 -5.03125 C 2.628906 -5.226562 2.851562 -5.40625 3.0625 -5.5625 L 3.0625 -5.65625 C 2.800781 -5.78125 2.535156 -5.953125 2.265625 -6.171875 C 2.003906 -6.390625 1.769531 -6.648438 1.5625 -6.953125 C 1.351562 -7.253906 1.179688 -7.582031 1.046875 -7.9375 C 0.921875 -8.300781 0.859375 -8.6875 0.859375 -9.09375 C 0.859375 -9.851562 1.007812 -10.519531 1.3125 -11.09375 C 1.613281 -11.664062 2.007812 -12.132812 2.5 -12.5 C 3 -12.875 3.550781 -13.148438 4.15625 -13.328125 C 4.757812 -13.515625 5.375 -13.609375 6 -13.609375 C 6.519531 -13.609375 6.992188 -13.566406 7.421875 -13.484375 C 7.859375 -13.410156 8.300781 -13.28125 8.75 -13.09375 C 9.195312 -13.46875 9.703125 -13.789062 10.265625 -14.0625 C 10.828125 -14.34375 11.40625 -14.484375 12 -14.484375 C 12.394531 -14.484375 12.726562 -14.378906 13 -14.171875 C 13.28125 -13.972656 13.421875 -13.671875 13.421875 -13.265625 C 13.421875 -12.941406 13.328125 -12.648438 13.140625 -12.390625 C 12.953125 -12.128906 12.679688 -12 12.328125 -12 C 11.984375 -12 11.726562 -12.066406 11.5625 -12.203125 C 11.40625 -12.335938 11.273438 -12.53125 11.171875 -12.78125 C 11.078125 -12.96875 10.84375 -13.015625 10.46875 -12.921875 C 10.101562 -12.828125 9.75 -12.679688 9.40625 -12.484375 L 9.40625 -12.40625 C 9.9375 -12.101562 10.363281 -11.691406 10.6875 -11.171875 C 11.007812 -10.660156 11.171875 -10.046875 11.171875 -9.328125 C 11.171875 -8.566406 11.015625 -7.90625 10.703125 -7.34375 C 10.398438 -6.789062 10.003906 -6.332031 9.515625 -5.96875 C 9.023438 -5.601562 8.472656 -5.332031 7.859375 -5.15625 C 7.242188 -4.988281 6.625 -4.90625 6 -4.90625 C 5.5625 -4.90625 5.195312 -4.9375 4.90625 -5 C 4.613281 -5.0625 4.300781 -5.160156 3.96875 -5.296875 C 3.757812 -5.160156 3.554688 -4.96875 3.359375 -4.71875 C 3.160156 -4.46875 3.0625 -4.1875 3.0625 -3.875 C 3.0625 -3.539062 3.195312 -3.253906 3.46875 -3.015625 C 3.738281 -2.785156 4.148438 -2.671875 4.703125 -2.671875 L 8.796875 -2.671875 C 9.359375 -2.671875 9.867188 -2.617188 10.328125 -2.515625 C 10.796875 -2.410156 11.195312 -2.234375 11.53125 -1.984375 C 11.863281 -1.734375 12.117188 -1.394531 12.296875 -0.96875 C 12.472656 -0.550781 12.5625 -0.0195312 12.5625 0.625 C 12.5625 1.125 12.445312 1.675781 12.21875 2.28125 C 11.988281 2.882812 11.597656 3.445312 11.046875 3.96875 C 10.503906 4.488281 9.773438 4.925781 8.859375 5.28125 C 7.941406 5.632812 6.804688 5.8125 5.453125 5.8125 Z M 6 -5.96875 C 6.832031 -5.96875 7.457031 -6.191406 7.875 -6.640625 C 8.300781 -7.097656 8.515625 -7.890625 8.515625 -9.015625 C 8.515625 -10.296875 8.300781 -11.207031 7.875 -11.75 C 7.457031 -12.289062 6.832031 -12.5625 6 -12.5625 C 5.1875 -12.5625 4.566406 -12.316406 4.140625 -11.828125 C 3.710938 -11.347656 3.5 -10.539062 3.5 -9.40625 C 3.5 -8.132812 3.710938 -7.242188 4.140625 -6.734375 C 4.566406 -6.222656 5.1875 -5.96875 6 -5.96875 Z M 5.890625 4.71875 C 6.535156 4.71875 7.144531 4.640625 7.71875 4.484375 C 8.300781 4.335938 8.804688 4.128906 9.234375 3.859375 C 9.671875 3.585938 10.015625 3.265625 10.265625 2.890625 C 10.515625 2.523438 10.640625 2.125 10.640625 1.6875 C 10.640625 1.101562 10.484375 0.625 10.171875 0.25 C 9.867188 -0.125 9.25 -0.3125 8.3125 -0.3125 L 4.3125 -0.3125 C 4.101562 -0.257812 3.875 -0.160156 3.625 -0.015625 C 3.382812 0.128906 3.160156 0.316406 2.953125 0.546875 C 2.753906 0.773438 2.582031 1.035156 2.4375 1.328125 C 2.300781 1.617188 2.234375 1.9375 2.234375 2.28125 C 2.234375 3.082031 2.53125 3.6875 3.125 4.09375 C 3.726562 4.507812 4.648438 4.71875 5.890625 4.71875 Z M 5.890625 4.71875 "/></g></g></g><g fill="#000000" fill-opacity="1"><g transform="translate(486.803741, 52.982477)"><g><path d="M 1.875 -12.515625 C 1.875 -13.171875 2.023438 -13.628906 2.328125 -13.890625 C 2.640625 -14.148438 3.015625 -14.28125 3.453125 -14.28125 C 3.890625 -14.28125 4.269531 -14.148438 4.59375 -13.890625 C 4.925781 -13.628906 5.09375 -13.171875 5.09375 -12.515625 C 5.09375 -11.890625 4.925781 -11.4375 4.59375 -11.15625 C 4.269531 -10.882812 3.890625 -10.75 3.453125 -10.75 C 3.015625 -10.75 2.640625 -10.882812 2.328125 -11.15625 C 2.023438 -11.4375 1.875 -11.890625 1.875 -12.515625 Z M 1.875 -1.40625 C 1.875 -2.039062 2.023438 -2.488281 2.328125 -2.75 C 2.640625 -3.007812 3.015625 -3.140625 3.453125 -3.140625 C 3.890625 -3.140625 4.269531 -3.007812 4.59375 -2.75 C 4.925781 -2.488281 5.09375 -2.039062 5.09375 -1.40625 C 5.09375 -0.78125 4.925781 -0.328125 4.59375 -0.046875 C 4.269531 0.222656 3.890625 0.359375 3.453125 0.359375 C 3.015625 0.359375 2.640625 0.222656 2.328125 -0.046875 C 2.023438 -0.328125 1.875 -0.78125 1.875 -1.40625 Z M 1.875 -1.40625 "/></g></g></g><g fill="#008000" fill-opacity="1"><g transform="translate(510.554554, 51.591168)"><g><path d="M 0.8125 -0.8125 L 1.96875 -1.03125 C 2.125 -1.050781 2.253906 -1.085938 2.359375 -1.140625 C 2.460938 -1.191406 2.550781 -1.269531 2.625 -1.375 C 2.695312 -1.476562 2.742188 -1.625 2.765625 -1.8125 C 2.785156 -2.007812 2.796875 -2.269531 2.796875 -2.59375 L 2.796875 -15.421875 C 2.796875 -15.753906 2.785156 -16.015625 2.765625 -16.203125 C 2.742188 -16.390625 2.695312 -16.535156 2.625 -16.640625 C 2.550781 -16.742188 2.460938 -16.816406 2.359375 -16.859375 C 2.253906 -16.910156 2.125 -16.953125 1.96875 -16.984375 L 0.8125 -17.21875 L 0.8125 -18 L 7.953125 -18 C 8.921875 -18 9.796875 -17.921875 10.578125 -17.765625 C 11.367188 -17.609375 12.039062 -17.359375 12.59375 -17.015625 C 13.144531 -16.679688 13.570312 -16.242188 13.875 -15.703125 C 14.175781 -15.171875 14.328125 -14.523438 14.328125 -13.765625 C 14.328125 -12.535156 13.945312 -11.585938 13.1875 -10.921875 C 12.425781 -10.253906 11.335938 -9.800781 9.921875 -9.5625 L 9.921875 -9.453125 C 11.703125 -9.316406 13.039062 -8.890625 13.9375 -8.171875 C 14.84375 -7.453125 15.296875 -6.414062 15.296875 -5.0625 C 15.296875 -4.226562 15.132812 -3.5 14.8125 -2.875 C 14.488281 -2.257812 14.03125 -1.734375 13.4375 -1.296875 C 12.851562 -0.867188 12.148438 -0.546875 11.328125 -0.328125 C 10.515625 -0.109375 9.601562 0 8.59375 0 L 0.8125 0 Z M 7.875 -9.921875 C 9.007812 -9.921875 9.894531 -10.207031 10.53125 -10.78125 C 11.164062 -11.363281 11.484375 -12.1875 11.484375 -13.25 C 11.484375 -13.957031 11.40625 -14.546875 11.25 -15.015625 C 11.101562 -15.484375 10.875 -15.847656 10.5625 -16.109375 C 10.257812 -16.378906 9.867188 -16.570312 9.390625 -16.6875 C 8.910156 -16.800781 8.351562 -16.859375 7.71875 -16.859375 C 7.3125 -16.859375 6.921875 -16.84375 6.546875 -16.8125 C 6.179688 -16.789062 5.878906 -16.753906 5.640625 -16.703125 L 5.640625 -9.921875 Z M 8.34375 -1.140625 C 9.550781 -1.140625 10.507812 -1.410156 11.21875 -1.953125 C 11.925781 -2.503906 12.28125 -3.421875 12.28125 -4.703125 C 12.28125 -6.117188 11.96875 -7.144531 11.34375 -7.78125 C 10.71875 -8.425781 9.679688 -8.75 8.234375 -8.75 L 5.640625 -8.75 L 5.640625 -3.171875 C 5.640625 -2.722656 5.664062 -2.363281 5.71875 -2.09375 C 5.769531 -1.820312 5.890625 -1.613281 6.078125 -1.46875 C 6.265625 -1.332031 6.535156 -1.242188 6.890625 -1.203125 C 7.242188 -1.160156 7.726562 -1.140625 8.34375 -1.140625 Z M 8.34375 -1.140625 "/></g></g></g><g fill="#008000" fill-opacity="1"><g transform="translate(526.751023, 51.591168)"><g><path d="M 8.34375 -10.078125 L 13.5 -10.078125 L 13.5 -8.234375 L 8.34375 -8.234375 L 8.34375 -2.875 L 6.46875 -2.875 L 6.46875 -8.234375 L 1.296875 -8.234375 L 1.296875 -10.078125 L 6.46875 -10.078125 L 6.46875 -15.453125 L 8.34375 -15.453125 Z M 8.34375 -10.078125 "/></g></g></g><path stroke-linecap="butt" transform="matrix(0.749858, -0.000839809, 0.000839968, 0.749999, 15.222872, 43.830536)" fill="none" stroke-linejoin="miter" d="M -0.00252998 2.001992 L 414.081073 2.002119 " stroke="#a6a6a6" stroke-width="4" stroke-opacity="1" stroke-miterlimit="4"/><path stroke-linecap="butt" transform="matrix(0.749853, -0.00279935, 0.00279988, 0.749995, 574.208424, 44.989871)" fill="none" stroke-linejoin="miter" d="M 0.00110128 1.997899 L 414.087314 2.001797 " stroke="#a6a6a6" stroke-width="4" stroke-opacity="1" stroke-miterlimit="4"/></svg>