<svg xmlns="http://www.w3.org/2000/svg" xmlns:xlink="http://www.w3.org/1999/xlink" width="1200" zoomAndPan="magnify" viewBox="0 0 900 225" height="300" preserveAspectRatio="xMidYMid meet" version="1.0"><defs><g/><clipPath id="0189746c63"><path d="M 70.90625 92.449219 L 221.0625 92.449219 L 221.0625 147.097656 L 70.90625 147.097656 Z M 70.90625 92.449219 " clip-rule="nonzero"/></clipPath><clipPath id="3319ae159e"><path d="M 222.914062 92.449219 L 373.070312 92.449219 L 373.070312 147.097656 L 222.914062 147.097656 Z M 222.914062 92.449219 " clip-rule="nonzero"/></clipPath><clipPath id="6fe9b238c9"><path d="M 374.921875 92.449219 L 525.078125 92.449219 L 525.078125 147.097656 L 374.921875 147.097656 Z M 374.921875 92.449219 " clip-rule="nonzero"/></clipPath><clipPath id="bde3a0e295"><path d="M 526.929688 92.449219 L 677.085938 92.449219 L 677.085938 147.097656 L 526.929688 147.097656 Z M 526.929688 92.449219 " clip-rule="nonzero"/></clipPath><clipPath id="540f5ed64a"><path d="M 678.9375 92.449219 L 829.09375 92.449219 L 829.09375 147.097656 L 678.9375 147.097656 Z M 678.9375 92.449219 " clip-rule="nonzero"/></clipPath><clipPath id="eabc61cd5c"><path d="M 289.117188 72.382812 L 306.859375 72.382812 L 306.859375 87.910156 L 289.117188 87.910156 Z M 289.117188 72.382812 " clip-rule="nonzero"/></clipPath><clipPath id="20f30816d5"><path d="M 297.988281 87.910156 L 289.117188 72.382812 L 306.859375 72.382812 L 297.988281 87.910156 " clip-rule="nonzero"/></clipPath><clipPath id="961a36d15f"><path d="M 289.121094 151.730469 L 306.863281 151.730469 L 306.863281 167.257812 L 289.121094 167.257812 Z M 289.121094 151.730469 " clip-rule="nonzero"/></clipPath><clipPath id="e771aa5991"><path d="M 297.992188 151.730469 L 306.863281 167.257812 L 289.121094 167.257812 L 297.992188 151.730469 " clip-rule="nonzero"/></clipPath></defs><g clip-path="url(#0189746c63)"><path fill="#5876b8" d="M 70.90625 92.449219 L 221.0625 92.449219 L 221.0625 147.097656 L 70.90625 147.097656 Z M 70.90625 92.449219 " fill-opacity="1" fill-rule="nonzero"/></g><g clip-path="url(#3319ae159e)"><path fill="#008000" d="M 222.914062 92.449219 L 373.070312 92.449219 L 373.070312 147.097656 L 222.914062 147.097656 Z M 222.914062 92.449219 " fill-opacity="1" fill-rule="nonzero"/></g><g clip-path="url(#6fe9b238c9)"><path fill="#ebdc8e" d="M 374.921875 92.449219 L 525.078125 92.449219 L 525.078125 147.097656 L 374.921875 147.097656 Z M 374.921875 92.449219 " fill-opacity="1" fill-rule="nonzero"/></g><g clip-path="url(#bde3a0e295)"><path fill="#f4cc82" d="M 526.929688 92.449219 L 677.085938 92.449219 L 677.085938 147.097656 L 526.929688 147.097656 Z M 526.929688 92.449219 " fill-opacity="1" fill-rule="nonzero"/></g><g clip-path="url(#540f5ed64a)"><path fill="#fd9a9a" d="M 678.9375 92.449219 L 829.09375 92.449219 L 829.09375 147.097656 L 678.9375 147.097656 Z M 678.9375 92.449219 " fill-opacity="1" fill-rule="nonzero"/></g><path stroke-linecap="butt" transform="matrix(-0.00000153564, -0.751652, 0.75, -0.00000153226, 881.103371, 194.110447)" fill="none" stroke-linejoin="miter" d="M 0.00142072 2.497588 L 198.563924 2.497995 " stroke="#a6a6a6" stroke-width="5" stroke-opacity="1" stroke-miterlimit="4"/><path stroke-linecap="butt" transform="matrix(0.750253, 0, 0, 0.75, 15.144487, 192.235504)" fill="none" stroke-linejoin="miter" d="M 0.0000589148 2.498494 L 1159.609402 2.498494 " stroke="#a6a6a6" stroke-width="5" stroke-opacity="1" stroke-miterlimit="4"/><path stroke-linecap="butt" transform="matrix(0.000000000000000046, -0.751652, 0.75, 0.000000000000000046, 15.14654, 194.110447)" fill="none" stroke-linejoin="miter" d="M 0.00142581 2.502529 L 198.563929 2.502529 " stroke="#a6a6a6" stroke-width="5" stroke-opacity="1" stroke-miterlimit="4"/><g fill="#30519b" fill-opacity="1"><g transform="translate(137.338004, 128.329972)"><g><path d="M 0.03125 -0.796875 L 0.796875 -0.984375 C 0.972656 -1.035156 1.128906 -1.09375 1.265625 -1.15625 C 1.410156 -1.21875 1.546875 -1.328125 1.671875 -1.484375 C 1.804688 -1.640625 1.9375 -1.859375 2.0625 -2.140625 C 2.1875 -2.421875 2.347656 -2.8125 2.546875 -3.3125 L 7.8125 -17.96875 L 9.359375 -17.96875 L 14.890625 -3.03125 C 15.054688 -2.601562 15.203125 -2.265625 15.328125 -2.015625 C 15.460938 -1.765625 15.59375 -1.566406 15.71875 -1.421875 C 15.851562 -1.285156 15.984375 -1.191406 16.109375 -1.140625 C 16.242188 -1.085938 16.390625 -1.035156 16.546875 -0.984375 L 17.28125 -0.796875 L 17.28125 0 L 10.765625 0 L 10.765625 -0.796875 L 11.484375 -0.984375 C 11.835938 -1.066406 12.078125 -1.160156 12.203125 -1.265625 C 12.328125 -1.367188 12.390625 -1.523438 12.390625 -1.734375 C 12.390625 -1.921875 12.351562 -2.132812 12.28125 -2.375 C 12.207031 -2.625 12.109375 -2.921875 11.984375 -3.265625 L 10.96875 -6.046875 L 4.953125 -6.046875 L 4.015625 -3.265625 C 3.898438 -2.921875 3.816406 -2.648438 3.765625 -2.453125 C 3.710938 -2.253906 3.6875 -2.0625 3.6875 -1.875 C 3.6875 -1.59375 3.765625 -1.390625 3.921875 -1.265625 C 4.078125 -1.148438 4.304688 -1.054688 4.609375 -0.984375 L 5.5 -0.796875 L 5.5 0 L 0.03125 0 Z M 5.34375 -7.203125 L 10.5625 -7.203125 L 7.96875 -14.53125 L 7.828125 -14.53125 Z M 5.34375 -7.203125 "/></g></g></g><g fill="#ffffff" fill-opacity="1"><g transform="translate(289.896236, 128.329972)"><g><path d="M 0.796875 -0.796875 L 1.96875 -1.03125 C 2.125 -1.050781 2.253906 -1.085938 2.359375 -1.140625 C 2.460938 -1.191406 2.546875 -1.269531 2.609375 -1.375 C 2.679688 -1.476562 2.726562 -1.625 2.75 -1.8125 C 2.78125 -2 2.796875 -2.257812 2.796875 -2.59375 L 2.796875 -15.40625 C 2.796875 -15.738281 2.78125 -16 2.75 -16.1875 C 2.726562 -16.375 2.679688 -16.519531 2.609375 -16.625 C 2.546875 -16.726562 2.460938 -16.800781 2.359375 -16.84375 C 2.253906 -16.882812 2.125 -16.925781 1.96875 -16.96875 L 0.796875 -17.203125 L 0.796875 -17.96875 L 7.9375 -17.96875 C 8.90625 -17.96875 9.78125 -17.890625 10.5625 -17.734375 C 11.351562 -17.585938 12.023438 -17.34375 12.578125 -17 C 13.128906 -16.664062 13.554688 -16.226562 13.859375 -15.6875 C 14.160156 -15.15625 14.3125 -14.507812 14.3125 -13.75 C 14.3125 -12.519531 13.929688 -11.570312 13.171875 -10.90625 C 12.410156 -10.238281 11.320312 -9.785156 9.90625 -9.546875 L 9.90625 -9.4375 C 11.6875 -9.300781 13.023438 -8.875 13.921875 -8.15625 C 14.828125 -7.4375 15.28125 -6.40625 15.28125 -5.0625 C 15.28125 -4.226562 15.117188 -3.5 14.796875 -2.875 C 14.472656 -2.257812 14.015625 -1.734375 13.421875 -1.296875 C 12.835938 -0.867188 12.132812 -0.546875 11.3125 -0.328125 C 10.5 -0.109375 9.585938 0 8.578125 0 L 0.796875 0 Z M 7.859375 -9.90625 C 9.003906 -9.90625 9.890625 -10.191406 10.515625 -10.765625 C 11.148438 -11.347656 11.46875 -12.171875 11.46875 -13.234375 C 11.46875 -13.941406 11.394531 -14.523438 11.25 -14.984375 C 11.101562 -15.453125 10.875 -15.820312 10.5625 -16.09375 C 10.25 -16.363281 9.851562 -16.550781 9.375 -16.65625 C 8.894531 -16.769531 8.335938 -16.828125 7.703125 -16.828125 C 7.304688 -16.828125 6.921875 -16.8125 6.546875 -16.78125 C 6.171875 -16.757812 5.863281 -16.722656 5.625 -16.671875 L 5.625 -9.90625 Z M 8.328125 -1.140625 C 9.535156 -1.140625 10.492188 -1.410156 11.203125 -1.953125 C 11.910156 -2.503906 12.265625 -3.414062 12.265625 -4.6875 C 12.265625 -6.113281 11.953125 -7.144531 11.328125 -7.78125 C 10.710938 -8.414062 9.675781 -8.734375 8.21875 -8.734375 L 5.625 -8.734375 L 5.625 -3.171875 C 5.625 -2.710938 5.648438 -2.347656 5.703125 -2.078125 C 5.753906 -1.816406 5.875 -1.613281 6.0625 -1.46875 C 6.257812 -1.332031 6.535156 -1.242188 6.890625 -1.203125 C 7.242188 -1.160156 7.722656 -1.140625 8.328125 -1.140625 Z M 8.328125 -1.140625 "/></g></g></g><g fill="#a69850" fill-opacity="1"><g transform="translate(441.831722, 126.723376)"><g><path d="M 9.46875 0.3125 C 8.238281 0.3125 7.109375 0.140625 6.078125 -0.203125 C 5.054688 -0.546875 4.164062 -1.085938 3.40625 -1.828125 C 2.65625 -2.566406 2.066406 -3.515625 1.640625 -4.671875 C 1.222656 -5.828125 1.015625 -7.21875 1.015625 -8.84375 C 1.015625 -10.570312 1.253906 -12.035156 1.734375 -13.234375 C 2.222656 -14.441406 2.875 -15.414062 3.6875 -16.15625 C 4.507812 -16.90625 5.46875 -17.445312 6.5625 -17.78125 C 7.664062 -18.113281 8.832031 -18.28125 10.0625 -18.28125 C 11.0625 -18.28125 11.984375 -18.21875 12.828125 -18.09375 C 13.679688 -17.976562 14.394531 -17.832031 14.96875 -17.65625 L 15.203125 -12.53125 L 14.296875 -12.53125 C 14.046875 -13.1875 13.773438 -13.835938 13.484375 -14.484375 C 13.191406 -15.128906 12.898438 -15.679688 12.609375 -16.140625 C 12.460938 -16.335938 12.316406 -16.5 12.171875 -16.625 C 12.023438 -16.75 11.847656 -16.84375 11.640625 -16.90625 C 11.429688 -16.976562 11.175781 -17.023438 10.875 -17.046875 C 10.570312 -17.078125 10.195312 -17.09375 9.75 -17.09375 C 8.820312 -17.09375 8 -16.96875 7.28125 -16.71875 C 6.5625 -16.46875 5.960938 -16.039062 5.484375 -15.4375 C 5.003906 -14.832031 4.640625 -14.03125 4.390625 -13.03125 C 4.140625 -12.039062 4.015625 -10.8125 4.015625 -9.34375 C 4.015625 -7.75 4.125 -6.414062 4.34375 -5.34375 C 4.570312 -4.269531 4.910156 -3.398438 5.359375 -2.734375 C 5.816406 -2.066406 6.378906 -1.585938 7.046875 -1.296875 C 7.722656 -1.015625 8.503906 -0.875 9.390625 -0.875 C 9.972656 -0.875 10.457031 -0.910156 10.84375 -0.984375 C 11.238281 -1.054688 11.566406 -1.15625 11.828125 -1.28125 C 12.085938 -1.414062 12.296875 -1.570312 12.453125 -1.75 C 12.617188 -1.925781 12.78125 -2.128906 12.9375 -2.359375 C 13.113281 -2.640625 13.269531 -2.894531 13.40625 -3.125 C 13.550781 -3.351562 13.675781 -3.582031 13.78125 -3.8125 C 13.894531 -4.050781 14.003906 -4.304688 14.109375 -4.578125 C 14.210938 -4.847656 14.328125 -5.15625 14.453125 -5.5 L 15.28125 -5.5 L 15.015625 -0.828125 C 14.410156 -0.535156 13.613281 -0.269531 12.625 -0.03125 C 11.644531 0.195312 10.59375 0.3125 9.46875 0.3125 Z M 9.46875 0.3125 "/></g></g></g><g fill="#bb934b" fill-opacity="1"><g transform="translate(592.869275, 128.329972)"><g><path d="M 0.796875 -0.796875 L 1.96875 -1.03125 C 2.125 -1.050781 2.253906 -1.085938 2.359375 -1.140625 C 2.460938 -1.191406 2.546875 -1.269531 2.609375 -1.375 C 2.679688 -1.476562 2.726562 -1.625 2.75 -1.8125 C 2.78125 -2 2.796875 -2.257812 2.796875 -2.59375 L 2.796875 -15.40625 C 2.796875 -15.738281 2.78125 -16 2.75 -16.1875 C 2.726562 -16.375 2.679688 -16.519531 2.609375 -16.625 C 2.546875 -16.726562 2.460938 -16.800781 2.359375 -16.84375 C 2.253906 -16.882812 2.125 -16.925781 1.96875 -16.96875 L 0.796875 -17.203125 L 0.796875 -17.96875 L 8.5 -17.96875 C 9.75 -17.96875 10.910156 -17.816406 11.984375 -17.515625 C 13.054688 -17.210938 13.988281 -16.71875 14.78125 -16.03125 C 15.582031 -15.351562 16.210938 -14.453125 16.671875 -13.328125 C 17.128906 -12.203125 17.359375 -10.8125 17.359375 -9.15625 C 17.359375 -7.632812 17.132812 -6.300781 16.6875 -5.15625 C 16.25 -4.019531 15.628906 -3.066406 14.828125 -2.296875 C 14.035156 -1.523438 13.085938 -0.945312 11.984375 -0.5625 C 10.878906 -0.1875 9.671875 0 8.359375 0 L 0.796875 0 Z M 8.171875 -1.09375 C 9.378906 -1.09375 10.382812 -1.273438 11.1875 -1.640625 C 11.988281 -2.015625 12.628906 -2.535156 13.109375 -3.203125 C 13.585938 -3.867188 13.921875 -4.664062 14.109375 -5.59375 C 14.296875 -6.519531 14.390625 -7.539062 14.390625 -8.65625 C 14.390625 -10.09375 14.273438 -11.328125 14.046875 -12.359375 C 13.828125 -13.398438 13.46875 -14.253906 12.96875 -14.921875 C 12.46875 -15.585938 11.816406 -16.082031 11.015625 -16.40625 C 10.222656 -16.726562 9.257812 -16.890625 8.125 -16.890625 C 7.476562 -16.890625 6.957031 -16.863281 6.5625 -16.8125 C 6.175781 -16.769531 5.863281 -16.71875 5.625 -16.65625 L 5.625 -3.609375 C 5.625 -3.085938 5.644531 -2.660156 5.6875 -2.328125 C 5.738281 -2.003906 5.84375 -1.75 6 -1.5625 C 6.164062 -1.382812 6.414062 -1.257812 6.75 -1.1875 C 7.09375 -1.125 7.566406 -1.09375 8.171875 -1.09375 Z M 8.171875 -1.09375 "/></g></g></g><g fill="#b65959" fill-opacity="1"><g transform="translate(746.397886, 128.329972)"><g><path d="M 0.796875 -0.796875 L 1.96875 -1.03125 C 2.125 -1.050781 2.253906 -1.085938 2.359375 -1.140625 C 2.460938 -1.191406 2.546875 -1.269531 2.609375 -1.375 C 2.679688 -1.476562 2.726562 -1.625 2.75 -1.8125 C 2.78125 -2 2.796875 -2.257812 2.796875 -2.59375 L 2.796875 -15.40625 C 2.796875 -15.738281 2.78125 -16 2.75 -16.1875 C 2.726562 -16.375 2.679688 -16.519531 2.609375 -16.625 C 2.546875 -16.726562 2.460938 -16.800781 2.359375 -16.84375 C 2.253906 -16.882812 2.125 -16.925781 1.96875 -16.96875 L 0.796875 -17.203125 L 0.796875 -17.96875 L 14.03125 -17.96875 L 14.296875 -13.125 L 13.328125 -13.125 C 13.035156 -13.90625 12.796875 -14.5 12.609375 -14.90625 C 12.421875 -15.3125 12.226562 -15.632812 12.03125 -15.875 C 11.84375 -16.132812 11.660156 -16.328125 11.484375 -16.453125 C 11.316406 -16.585938 11.109375 -16.679688 10.859375 -16.734375 C 10.609375 -16.785156 10.296875 -16.8125 9.921875 -16.8125 C 9.546875 -16.820312 9.070312 -16.828125 8.5 -16.828125 C 7.78125 -16.828125 7.191406 -16.8125 6.734375 -16.78125 C 6.285156 -16.75 5.914062 -16.707031 5.625 -16.65625 L 5.625 -9.625 L 6.203125 -9.625 C 6.804688 -9.625 7.300781 -9.632812 7.6875 -9.65625 C 8.082031 -9.6875 8.398438 -9.726562 8.640625 -9.78125 C 8.878906 -9.84375 9.0625 -9.921875 9.1875 -10.015625 C 9.320312 -10.117188 9.429688 -10.238281 9.515625 -10.375 C 9.691406 -10.65625 9.832031 -10.9375 9.9375 -11.21875 C 10.050781 -11.5 10.160156 -11.859375 10.265625 -12.296875 L 11.15625 -12.296875 L 11.15625 -5.609375 L 10.265625 -5.609375 C 10.148438 -6.054688 10.035156 -6.429688 9.921875 -6.734375 C 9.804688 -7.046875 9.65625 -7.382812 9.46875 -7.75 C 9.382812 -7.90625 9.289062 -8.023438 9.1875 -8.109375 C 9.082031 -8.203125 8.914062 -8.273438 8.6875 -8.328125 C 8.46875 -8.378906 8.15625 -8.410156 7.75 -8.421875 C 7.351562 -8.429688 6.835938 -8.4375 6.203125 -8.4375 L 5.625 -8.4375 L 5.625 -2.59375 C 5.625 -2.257812 5.632812 -2.003906 5.65625 -1.828125 C 5.675781 -1.648438 5.710938 -1.507812 5.765625 -1.40625 C 5.828125 -1.300781 5.910156 -1.222656 6.015625 -1.171875 C 6.117188 -1.128906 6.265625 -1.09375 6.453125 -1.0625 L 7.984375 -0.796875 L 7.984375 0 L 0.796875 0 Z M 0.796875 -0.796875 "/></g></g></g><g clip-path="url(#eabc61cd5c)"><g clip-path="url(#20f30816d5)"><path fill="#a6a6a6" d="M 306.859375 87.910156 L 289.117188 87.910156 L 289.117188 72.382812 L 306.859375 72.382812 Z M 306.859375 87.910156 " fill-opacity="1" fill-rule="nonzero"/></g></g><g clip-path="url(#961a36d15f)"><g clip-path="url(#e771aa5991)"><path fill="#a6a6a6" d="M 289.121094 151.730469 L 306.863281 151.730469 L 306.863281 167.257812 L 289.121094 167.257812 Z M 289.121094 151.730469 " fill-opacity="1" fill-rule="nonzero"/></g></g><g fill="#000000" fill-opacity="1"><g transform="translate(355.998608, 52.835269)"><g><path d="M 0.796875 -0.796875 L 1.96875 -1.03125 C 2.125 -1.050781 2.253906 -1.085938 2.359375 -1.140625 C 2.460938 -1.191406 2.546875 -1.269531 2.609375 -1.375 C 2.679688 -1.476562 2.726562 -1.625 2.75 -1.8125 C 2.78125 -2 2.796875 -2.257812 2.796875 -2.59375 L 2.796875 -15.40625 C 2.796875 -15.738281 2.78125 -16 2.75 -16.1875 C 2.726562 -16.375 2.679688 -16.519531 2.609375 -16.625 C 2.546875 -16.726562 2.460938 -16.800781 2.359375 -16.84375 C 2.253906 -16.882812 2.125 -16.925781 1.96875 -16.96875 L 0.796875 -17.203125 L 0.796875 -17.96875 L 8.359375 -17.96875 C 10.441406 -17.96875 11.972656 -17.585938 12.953125 -16.828125 C 13.929688 -16.066406 14.421875 -14.925781 14.421875 -13.40625 C 14.421875 -12.4375 14.070312 -11.546875 13.375 -10.734375 C 12.675781 -9.921875 11.648438 -9.316406 10.296875 -8.921875 L 10.296875 -8.84375 C 10.640625 -8.238281 11.007812 -7.609375 11.40625 -6.953125 C 11.8125 -6.304688 12.21875 -5.671875 12.625 -5.046875 C 13.03125 -4.429688 13.4375 -3.832031 13.84375 -3.25 C 14.25 -2.675781 14.628906 -2.15625 14.984375 -1.6875 C 15.128906 -1.5 15.289062 -1.351562 15.46875 -1.25 C 15.65625 -1.15625 15.945312 -1.054688 16.34375 -0.953125 L 16.90625 -0.796875 L 16.90625 0 L 12.96875 0 C 11.976562 -1.25 11.050781 -2.5625 10.1875 -3.9375 C 9.320312 -5.320312 8.535156 -6.71875 7.828125 -8.125 L 5.578125 -8.125 L 5.578125 -2.59375 C 5.578125 -2.257812 5.585938 -2 5.609375 -1.8125 C 5.640625 -1.625 5.6875 -1.476562 5.75 -1.375 C 5.8125 -1.269531 5.894531 -1.195312 6 -1.15625 C 6.113281 -1.113281 6.265625 -1.070312 6.453125 -1.03125 L 7.703125 -0.796875 L 7.703125 0 L 0.796875 0 Z M 7.140625 -9.3125 C 8.691406 -9.3125 9.800781 -9.613281 10.46875 -10.21875 C 11.144531 -10.820312 11.484375 -11.800781 11.484375 -13.15625 C 11.484375 -13.945312 11.414062 -14.582031 11.28125 -15.0625 C 11.144531 -15.550781 10.929688 -15.925781 10.640625 -16.1875 C 10.359375 -16.445312 9.992188 -16.617188 9.546875 -16.703125 C 9.109375 -16.785156 8.597656 -16.828125 8.015625 -16.828125 C 7.441406 -16.828125 6.953125 -16.8125 6.546875 -16.78125 C 6.140625 -16.75 5.816406 -16.707031 5.578125 -16.65625 L 5.578125 -9.421875 C 5.710938 -9.398438 5.875 -9.378906 6.0625 -9.359375 C 6.207031 -9.347656 6.375 -9.335938 6.5625 -9.328125 C 6.75 -9.316406 6.941406 -9.3125 7.140625 -9.3125 Z M 7.140625 -9.3125 "/></g></g></g><g fill="#000000" fill-opacity="1"><g transform="translate(372.910247, 52.835269)"><g><path d="M 3.609375 -15.921875 C 3.109375 -15.921875 2.6875 -16.09375 2.34375 -16.4375 C 2.007812 -16.789062 1.84375 -17.179688 1.84375 -17.609375 C 1.84375 -18.078125 2.007812 -18.472656 2.34375 -18.796875 C 2.6875 -19.128906 3.109375 -19.296875 3.609375 -19.296875 C 4.085938 -19.296875 4.492188 -19.128906 4.828125 -18.796875 C 5.171875 -18.472656 5.34375 -18.078125 5.34375 -17.609375 C 5.34375 -17.179688 5.171875 -16.789062 4.828125 -16.4375 C 4.492188 -16.09375 4.085938 -15.921875 3.609375 -15.921875 Z M 0.65625 -0.78125 L 1.71875 -1.0625 C 1.96875 -1.132812 2.144531 -1.25 2.25 -1.40625 C 2.351562 -1.570312 2.40625 -1.90625 2.40625 -2.40625 L 2.40625 -10.453125 C 2.40625 -10.710938 2.394531 -10.914062 2.375 -11.0625 C 2.363281 -11.207031 2.328125 -11.328125 2.265625 -11.421875 C 2.203125 -11.515625 2.117188 -11.585938 2.015625 -11.640625 C 1.921875 -11.691406 1.796875 -11.765625 1.640625 -11.859375 L 0.65625 -12.34375 L 0.65625 -13.015625 L 4.921875 -13.5625 L 5.1875 -13.40625 C 5.15625 -13.195312 5.117188 -12.945312 5.078125 -12.65625 C 5.023438 -12.15625 5 -11.4375 5 -10.5 L 5 -2.40625 C 5 -2.132812 5.007812 -1.914062 5.03125 -1.75 C 5.050781 -1.582031 5.085938 -1.457031 5.140625 -1.375 C 5.191406 -1.289062 5.257812 -1.222656 5.34375 -1.171875 C 5.425781 -1.128906 5.539062 -1.09375 5.6875 -1.0625 L 6.75 -0.78125 L 6.75 0 L 0.65625 0 Z M 0.65625 -0.78125 "/></g></g></g><g fill="#000000" fill-opacity="1"><g transform="translate(380.146979, 52.835269)"><g><path d="M 4.921875 0.3125 C 4.179688 0.3125 3.46875 0.265625 2.78125 0.171875 C 2.101562 0.078125 1.503906 -0.0664062 0.984375 -0.265625 L 0.859375 -4.125 L 1.6875 -4.125 C 1.90625 -3.625 2.085938 -3.203125 2.234375 -2.859375 C 2.390625 -2.523438 2.625 -2.171875 2.9375 -1.796875 C 3.175781 -1.492188 3.453125 -1.25 3.765625 -1.0625 C 4.085938 -0.882812 4.5625 -0.796875 5.1875 -0.796875 C 5.976562 -0.796875 6.625 -0.984375 7.125 -1.359375 C 7.632812 -1.734375 7.890625 -2.257812 7.890625 -2.9375 C 7.890625 -3.28125 7.828125 -3.582031 7.703125 -3.84375 C 7.578125 -4.101562 7.390625 -4.332031 7.140625 -4.53125 C 6.890625 -4.738281 6.570312 -4.9375 6.1875 -5.125 C 5.8125 -5.320312 5.359375 -5.523438 4.828125 -5.734375 C 4.253906 -5.953125 3.734375 -6.1875 3.265625 -6.4375 C 2.796875 -6.695312 2.394531 -6.984375 2.0625 -7.296875 C 1.726562 -7.617188 1.460938 -7.976562 1.265625 -8.375 C 1.078125 -8.769531 0.984375 -9.222656 0.984375 -9.734375 C 0.984375 -10.335938 1.109375 -10.875 1.359375 -11.34375 C 1.609375 -11.820312 1.953125 -12.226562 2.390625 -12.5625 C 2.835938 -12.90625 3.359375 -13.164062 3.953125 -13.34375 C 4.546875 -13.53125 5.179688 -13.625 5.859375 -13.625 C 6.585938 -13.625 7.222656 -13.585938 7.765625 -13.515625 C 8.304688 -13.441406 8.804688 -13.320312 9.265625 -13.15625 L 9.359375 -9.671875 L 8.578125 -9.671875 C 8.359375 -10.117188 8.144531 -10.503906 7.9375 -10.828125 C 7.726562 -11.160156 7.503906 -11.492188 7.265625 -11.828125 C 7.078125 -12.066406 6.859375 -12.242188 6.609375 -12.359375 C 6.367188 -12.472656 6.015625 -12.53125 5.546875 -12.53125 C 4.679688 -12.53125 4.054688 -12.347656 3.671875 -11.984375 C 3.285156 -11.617188 3.09375 -11.109375 3.09375 -10.453125 C 3.09375 -9.953125 3.320312 -9.507812 3.78125 -9.125 C 4.25 -8.75 5.03125 -8.351562 6.125 -7.9375 C 6.726562 -7.695312 7.28125 -7.453125 7.78125 -7.203125 C 8.28125 -6.953125 8.707031 -6.671875 9.0625 -6.359375 C 9.414062 -6.046875 9.6875 -5.695312 9.875 -5.3125 C 10.070312 -4.9375 10.171875 -4.5 10.171875 -4 C 10.171875 -3.394531 10.046875 -2.828125 9.796875 -2.296875 C 9.554688 -1.765625 9.210938 -1.304688 8.765625 -0.921875 C 8.316406 -0.535156 7.765625 -0.234375 7.109375 -0.015625 C 6.460938 0.203125 5.734375 0.3125 4.921875 0.3125 Z M 4.921875 0.3125 "/></g></g></g><g fill="#000000" fill-opacity="1"><g transform="translate(391.170663, 52.835269)"><g><path d="M 0.65625 -0.78125 L 1.71875 -1.0625 C 1.96875 -1.132812 2.144531 -1.25 2.25 -1.40625 C 2.351562 -1.570312 2.40625 -1.90625 2.40625 -2.40625 L 2.40625 -16.8125 C 2.40625 -17.070312 2.390625 -17.273438 2.359375 -17.421875 C 2.335938 -17.566406 2.296875 -17.6875 2.234375 -17.78125 C 2.179688 -17.875 2.109375 -17.945312 2.015625 -18 C 1.921875 -18.050781 1.796875 -18.113281 1.640625 -18.1875 L 0.515625 -18.703125 L 0.515625 -19.421875 L 4.921875 -19.84375 L 5.1875 -19.640625 C 5.15625 -19.378906 5.117188 -19.09375 5.078125 -18.78125 C 5.023438 -18.226562 5 -17.5 5 -16.59375 L 5 -2.40625 C 5 -2.132812 5.007812 -1.914062 5.03125 -1.75 C 5.050781 -1.582031 5.085938 -1.457031 5.140625 -1.375 C 5.191406 -1.289062 5.257812 -1.222656 5.34375 -1.171875 C 5.425781 -1.128906 5.539062 -1.09375 5.6875 -1.0625 L 6.75 -0.78125 L 6.75 0 L 0.65625 0 Z M 10.578125 0 C 10.078125 -0.53125 9.601562 -1.054688 9.15625 -1.578125 C 8.71875 -2.097656 8.289062 -2.617188 7.875 -3.140625 C 7.46875 -3.671875 7.0625 -4.210938 6.65625 -4.765625 C 6.257812 -5.328125 5.859375 -5.914062 5.453125 -6.53125 L 5.453125 -6.921875 L 8.125 -9.828125 C 8.65625 -10.429688 9.023438 -10.867188 9.234375 -11.140625 C 9.441406 -11.410156 9.546875 -11.625 9.546875 -11.78125 C 9.546875 -12.039062 9.335938 -12.226562 8.921875 -12.34375 L 8.53125 -12.46875 L 8.53125 -13.203125 L 13.390625 -13.203125 L 13.390625 -12.453125 L 12.578125 -12.1875 C 12.210938 -12.070312 11.859375 -11.90625 11.515625 -11.6875 C 11.171875 -11.46875 10.738281 -11.097656 10.21875 -10.578125 L 7.578125 -7.734375 C 8.335938 -6.609375 9.117188 -5.523438 9.921875 -4.484375 C 10.722656 -3.453125 11.570312 -2.457031 12.46875 -1.5 C 12.59375 -1.363281 12.707031 -1.265625 12.8125 -1.203125 C 12.914062 -1.140625 13.035156 -1.09375 13.171875 -1.0625 L 14.0625 -0.78125 L 14.0625 0 Z M 10.578125 0 "/></g></g></g><g fill="#000000" fill-opacity="1"><g transform="translate(405.229115, 52.835269)"><g/></g></g><g fill="#000000" fill-opacity="1"><g transform="translate(411.739575, 52.835269)"><g><path d="M 0.796875 -0.796875 L 1.96875 -1.03125 C 2.125 -1.050781 2.253906 -1.085938 2.359375 -1.140625 C 2.460938 -1.191406 2.546875 -1.269531 2.609375 -1.375 C 2.679688 -1.476562 2.726562 -1.625 2.75 -1.8125 C 2.78125 -2 2.796875 -2.257812 2.796875 -2.59375 L 2.796875 -15.40625 C 2.796875 -15.738281 2.78125 -16 2.75 -16.1875 C 2.726562 -16.375 2.679688 -16.519531 2.609375 -16.625 C 2.546875 -16.726562 2.460938 -16.800781 2.359375 -16.84375 C 2.253906 -16.882812 2.125 -16.925781 1.96875 -16.96875 L 0.796875 -17.203125 L 0.796875 -17.96875 L 8.359375 -17.96875 C 10.441406 -17.96875 11.972656 -17.585938 12.953125 -16.828125 C 13.929688 -16.066406 14.421875 -14.925781 14.421875 -13.40625 C 14.421875 -12.4375 14.070312 -11.546875 13.375 -10.734375 C 12.675781 -9.921875 11.648438 -9.316406 10.296875 -8.921875 L 10.296875 -8.84375 C 10.640625 -8.238281 11.007812 -7.609375 11.40625 -6.953125 C 11.8125 -6.304688 12.21875 -5.671875 12.625 -5.046875 C 13.03125 -4.429688 13.4375 -3.832031 13.84375 -3.25 C 14.25 -2.675781 14.628906 -2.15625 14.984375 -1.6875 C 15.128906 -1.5 15.289062 -1.351562 15.46875 -1.25 C 15.65625 -1.15625 15.945312 -1.054688 16.34375 -0.953125 L 16.90625 -0.796875 L 16.90625 0 L 12.96875 0 C 11.976562 -1.25 11.050781 -2.5625 10.1875 -3.9375 C 9.320312 -5.320312 8.535156 -6.71875 7.828125 -8.125 L 5.578125 -8.125 L 5.578125 -2.59375 C 5.578125 -2.257812 5.585938 -2 5.609375 -1.8125 C 5.640625 -1.625 5.6875 -1.476562 5.75 -1.375 C 5.8125 -1.269531 5.894531 -1.195312 6 -1.15625 C 6.113281 -1.113281 6.265625 -1.070312 6.453125 -1.03125 L 7.703125 -0.796875 L 7.703125 0 L 0.796875 0 Z M 7.140625 -9.3125 C 8.691406 -9.3125 9.800781 -9.613281 10.46875 -10.21875 C 11.144531 -10.820312 11.484375 -11.800781 11.484375 -13.15625 C 11.484375 -13.945312 11.414062 -14.582031 11.28125 -15.0625 C 11.144531 -15.550781 10.929688 -15.925781 10.640625 -16.1875 C 10.359375 -16.445312 9.992188 -16.617188 9.546875 -16.703125 C 9.109375 -16.785156 8.597656 -16.828125 8.015625 -16.828125 C 7.441406 -16.828125 6.953125 -16.8125 6.546875 -16.78125 C 6.140625 -16.75 5.816406 -16.707031 5.578125 -16.65625 L 5.578125 -9.421875 C 5.710938 -9.398438 5.875 -9.378906 6.0625 -9.359375 C 6.207031 -9.347656 6.375 -9.335938 6.5625 -9.328125 C 6.75 -9.316406 6.941406 -9.3125 7.140625 -9.3125 Z M 7.140625 -9.3125 "/></g></g></g><g fill="#000000" fill-opacity="1"><g transform="translate(428.651213, 52.835269)"><g><path d="M 4.640625 0.34375 C 3.429688 0.34375 2.472656 0.0507812 1.765625 -0.53125 C 1.054688 -1.125 0.703125 -1.984375 0.703125 -3.109375 C 0.703125 -4.179688 1.078125 -5.007812 1.828125 -5.59375 C 2.578125 -6.1875 3.710938 -6.65625 5.234375 -7 L 8.28125 -7.671875 L 8.28125 -10.09375 C 8.28125 -10.519531 8.253906 -10.894531 8.203125 -11.21875 C 8.148438 -11.539062 8.039062 -11.804688 7.875 -12.015625 C 7.707031 -12.222656 7.457031 -12.375 7.125 -12.46875 C 6.800781 -12.5625 6.363281 -12.609375 5.8125 -12.609375 C 5.238281 -12.609375 4.867188 -12.535156 4.703125 -12.390625 C 4.546875 -12.242188 4.441406 -11.96875 4.390625 -11.5625 C 4.316406 -11.0625 4.179688 -10.644531 3.984375 -10.3125 C 3.796875 -9.988281 3.410156 -9.828125 2.828125 -9.828125 C 2.304688 -9.828125 1.945312 -9.957031 1.75 -10.21875 C 1.550781 -10.476562 1.453125 -10.78125 1.453125 -11.125 C 1.453125 -11.5625 1.601562 -11.929688 1.90625 -12.234375 C 2.207031 -12.546875 2.597656 -12.804688 3.078125 -13.015625 C 3.566406 -13.222656 4.097656 -13.375 4.671875 -13.46875 C 5.242188 -13.570312 5.804688 -13.625 6.359375 -13.625 C 7.929688 -13.625 9.078125 -13.34375 9.796875 -12.78125 C 10.515625 -12.21875 10.875 -11.375 10.875 -10.25 L 10.875 -2.59375 C 10.875 -2.25 10.921875 -1.972656 11.015625 -1.765625 C 11.117188 -1.554688 11.300781 -1.382812 11.5625 -1.25 C 11.707031 -1.15625 11.878906 -1.09375 12.078125 -1.0625 C 12.285156 -1.039062 12.539062 -1.023438 12.84375 -1.015625 L 12.84375 -0.28125 C 12.632812 -0.144531 12.3125 -0.015625 11.875 0.109375 C 11.445312 0.242188 11.007812 0.3125 10.5625 0.3125 C 9.90625 0.3125 9.394531 0.171875 9.03125 -0.109375 C 8.675781 -0.398438 8.457031 -0.757812 8.375 -1.1875 L 8.25 -1.1875 C 7.9375 -0.757812 7.453125 -0.394531 6.796875 -0.09375 C 6.140625 0.195312 5.421875 0.34375 4.640625 0.34375 Z M 5.765625 -1.140625 C 6.378906 -1.140625 6.898438 -1.257812 7.328125 -1.5 C 7.765625 -1.75 8.082031 -2.035156 8.28125 -2.359375 L 8.28125 -6.359375 L 6.28125 -6.140625 C 5.34375 -6.054688 4.617188 -5.804688 4.109375 -5.390625 C 3.597656 -4.972656 3.34375 -4.28125 3.34375 -3.3125 C 3.34375 -2.550781 3.550781 -2 3.96875 -1.65625 C 4.394531 -1.3125 4.992188 -1.140625 5.765625 -1.140625 Z M 5.765625 -1.140625 "/></g></g></g><g fill="#000000" fill-opacity="1"><g transform="translate(441.879639, 52.835269)"><g><path d="M 5.078125 0.3125 C 4.671875 0.3125 4.285156 0.265625 3.921875 0.171875 C 3.554688 0.078125 3.238281 -0.0820312 2.96875 -0.3125 C 2.695312 -0.539062 2.476562 -0.820312 2.3125 -1.15625 C 2.15625 -1.488281 2.078125 -1.90625 2.078125 -2.40625 L 2.078125 -11.828125 L 0.265625 -11.828125 L 0.265625 -12.578125 C 1.160156 -12.816406 1.863281 -13.25 2.375 -13.875 C 2.882812 -14.5 3.3125 -15.335938 3.65625 -16.390625 L 4.671875 -16.390625 L 4.671875 -13.203125 L 8.40625 -13.203125 L 8.0625 -11.828125 L 4.671875 -11.828125 L 4.671875 -2.796875 C 4.671875 -1.722656 5.257812 -1.1875 6.4375 -1.1875 C 6.8125 -1.1875 7.179688 -1.222656 7.546875 -1.296875 C 7.910156 -1.378906 8.222656 -1.46875 8.484375 -1.5625 L 8.484375 -0.71875 C 8.242188 -0.5 7.835938 -0.269531 7.265625 -0.03125 C 6.691406 0.195312 5.960938 0.3125 5.078125 0.3125 Z M 5.078125 0.3125 "/></g></g></g><g fill="#000000" fill-opacity="1"><g transform="translate(450.672656, 52.835269)"><g><path d="M 3.609375 -15.921875 C 3.109375 -15.921875 2.6875 -16.09375 2.34375 -16.4375 C 2.007812 -16.789062 1.84375 -17.179688 1.84375 -17.609375 C 1.84375 -18.078125 2.007812 -18.472656 2.34375 -18.796875 C 2.6875 -19.128906 3.109375 -19.296875 3.609375 -19.296875 C 4.085938 -19.296875 4.492188 -19.128906 4.828125 -18.796875 C 5.171875 -18.472656 5.34375 -18.078125 5.34375 -17.609375 C 5.34375 -17.179688 5.171875 -16.789062 4.828125 -16.4375 C 4.492188 -16.09375 4.085938 -15.921875 3.609375 -15.921875 Z M 0.65625 -0.78125 L 1.71875 -1.0625 C 1.96875 -1.132812 2.144531 -1.25 2.25 -1.40625 C 2.351562 -1.570312 2.40625 -1.90625 2.40625 -2.40625 L 2.40625 -10.453125 C 2.40625 -10.710938 2.394531 -10.914062 2.375 -11.0625 C 2.363281 -11.207031 2.328125 -11.328125 2.265625 -11.421875 C 2.203125 -11.515625 2.117188 -11.585938 2.015625 -11.640625 C 1.921875 -11.691406 1.796875 -11.765625 1.640625 -11.859375 L 0.65625 -12.34375 L 0.65625 -13.015625 L 4.921875 -13.5625 L 5.1875 -13.40625 C 5.15625 -13.195312 5.117188 -12.945312 5.078125 -12.65625 C 5.023438 -12.15625 5 -11.4375 5 -10.5 L 5 -2.40625 C 5 -2.132812 5.007812 -1.914062 5.03125 -1.75 C 5.050781 -1.582031 5.085938 -1.457031 5.140625 -1.375 C 5.191406 -1.289062 5.257812 -1.222656 5.34375 -1.171875 C 5.425781 -1.128906 5.539062 -1.09375 5.6875 -1.0625 L 6.75 -0.78125 L 6.75 0 L 0.65625 0 Z M 0.65625 -0.78125 "/></g></g></g><g fill="#000000" fill-opacity="1"><g transform="translate(457.909388, 52.835269)"><g><path d="M 0.65625 -0.78125 L 1.71875 -1.0625 C 1.96875 -1.132812 2.144531 -1.25 2.25 -1.40625 C 2.351562 -1.570312 2.40625 -1.90625 2.40625 -2.40625 L 2.40625 -10.453125 C 2.40625 -10.710938 2.394531 -10.914062 2.375 -11.0625 C 2.363281 -11.207031 2.328125 -11.328125 2.265625 -11.421875 C 2.203125 -11.515625 2.117188 -11.585938 2.015625 -11.640625 C 1.921875 -11.691406 1.796875 -11.765625 1.640625 -11.859375 L 0.65625 -12.34375 L 0.65625 -13.015625 L 4.75 -13.5625 L 5 -13.40625 L 4.875 -11.953125 L 4.984375 -11.953125 C 5.304688 -12.160156 5.660156 -12.363281 6.046875 -12.5625 C 6.441406 -12.757812 6.851562 -12.929688 7.28125 -13.078125 C 7.71875 -13.234375 8.15625 -13.359375 8.59375 -13.453125 C 9.039062 -13.546875 9.46875 -13.59375 9.875 -13.59375 C 11.195312 -13.59375 12.113281 -13.3125 12.625 -12.75 C 13.144531 -12.1875 13.40625 -11.316406 13.40625 -10.140625 L 13.40625 -2.40625 C 13.40625 -1.90625 13.460938 -1.570312 13.578125 -1.40625 C 13.691406 -1.25 13.867188 -1.132812 14.109375 -1.0625 L 15.140625 -0.78125 L 15.140625 0 L 9.078125 0 L 9.078125 -0.78125 L 10.140625 -1.0625 C 10.265625 -1.09375 10.367188 -1.128906 10.453125 -1.171875 C 10.535156 -1.222656 10.601562 -1.289062 10.65625 -1.375 C 10.707031 -1.457031 10.742188 -1.582031 10.765625 -1.75 C 10.796875 -1.914062 10.8125 -2.132812 10.8125 -2.40625 L 10.8125 -9.421875 C 10.8125 -10.335938 10.640625 -10.972656 10.296875 -11.328125 C 9.960938 -11.691406 9.382812 -11.875 8.5625 -11.875 C 8.25 -11.875 7.921875 -11.84375 7.578125 -11.78125 C 7.234375 -11.726562 6.90625 -11.660156 6.59375 -11.578125 C 6.28125 -11.503906 5.984375 -11.414062 5.703125 -11.3125 C 5.429688 -11.21875 5.195312 -11.140625 5 -11.078125 L 5 -2.40625 C 5 -2.132812 5.007812 -1.914062 5.03125 -1.75 C 5.050781 -1.582031 5.085938 -1.457031 5.140625 -1.375 C 5.191406 -1.289062 5.257812 -1.222656 5.34375 -1.171875 C 5.425781 -1.128906 5.539062 -1.09375 5.6875 -1.0625 L 6.75 -0.78125 L 6.75 0 L 0.65625 0 Z M 0.65625 -0.78125 "/></g></g></g><g fill="#000000" fill-opacity="1"><g transform="translate(473.60194, 52.835269)"><g><path d="M 5.453125 5.8125 C 3.679688 5.8125 2.296875 5.523438 1.296875 4.953125 C 0.304688 4.378906 -0.1875 3.628906 -0.1875 2.703125 C -0.1875 2.054688 0.078125 1.460938 0.609375 0.921875 C 1.140625 0.390625 1.867188 -0.0351562 2.796875 -0.359375 L 2.796875 -0.46875 C 2.347656 -0.625 1.945312 -0.867188 1.59375 -1.203125 C 1.238281 -1.546875 1.0625 -2.019531 1.0625 -2.625 C 1.0625 -2.988281 1.125 -3.316406 1.25 -3.609375 C 1.382812 -3.898438 1.546875 -4.160156 1.734375 -4.390625 C 1.921875 -4.628906 2.132812 -4.84375 2.375 -5.03125 C 2.625 -5.21875 2.851562 -5.390625 3.0625 -5.546875 L 3.0625 -5.65625 C 2.800781 -5.78125 2.535156 -5.945312 2.265625 -6.15625 C 2.003906 -6.375 1.769531 -6.632812 1.5625 -6.9375 C 1.351562 -7.238281 1.179688 -7.570312 1.046875 -7.9375 C 0.921875 -8.300781 0.859375 -8.679688 0.859375 -9.078125 C 0.859375 -9.835938 1.007812 -10.503906 1.3125 -11.078125 C 1.613281 -11.648438 2.007812 -12.117188 2.5 -12.484375 C 3 -12.859375 3.550781 -13.132812 4.15625 -13.3125 C 4.757812 -13.5 5.367188 -13.59375 5.984375 -13.59375 C 6.503906 -13.59375 6.976562 -13.550781 7.40625 -13.46875 C 7.84375 -13.394531 8.285156 -13.265625 8.734375 -13.078125 C 9.191406 -13.453125 9.695312 -13.773438 10.25 -14.046875 C 10.8125 -14.328125 11.390625 -14.46875 11.984375 -14.46875 C 12.378906 -14.46875 12.710938 -14.363281 12.984375 -14.15625 C 13.265625 -13.945312 13.40625 -13.644531 13.40625 -13.25 C 13.40625 -12.925781 13.3125 -12.632812 13.125 -12.375 C 12.9375 -12.113281 12.671875 -11.984375 12.328125 -11.984375 C 11.972656 -11.984375 11.710938 -12.050781 11.546875 -12.1875 C 11.390625 -12.320312 11.257812 -12.515625 11.15625 -12.765625 C 11.070312 -12.953125 10.84375 -13 10.46875 -12.90625 C 10.09375 -12.8125 9.734375 -12.664062 9.390625 -12.46875 L 9.390625 -12.390625 C 9.921875 -12.085938 10.347656 -11.679688 10.671875 -11.171875 C 10.992188 -10.660156 11.15625 -10.039062 11.15625 -9.3125 C 11.15625 -8.550781 11.003906 -7.894531 10.703125 -7.34375 C 10.398438 -6.789062 10 -6.332031 9.5 -5.96875 C 9.007812 -5.601562 8.457031 -5.332031 7.84375 -5.15625 C 7.226562 -4.988281 6.609375 -4.90625 5.984375 -4.90625 C 5.554688 -4.90625 5.195312 -4.929688 4.90625 -4.984375 C 4.613281 -5.046875 4.300781 -5.148438 3.96875 -5.296875 C 3.757812 -5.148438 3.554688 -4.953125 3.359375 -4.703125 C 3.160156 -4.453125 3.0625 -4.171875 3.0625 -3.859375 C 3.0625 -3.535156 3.191406 -3.253906 3.453125 -3.015625 C 3.722656 -2.785156 4.132812 -2.671875 4.6875 -2.671875 L 8.796875 -2.671875 C 9.347656 -2.671875 9.859375 -2.617188 10.328125 -2.515625 C 10.796875 -2.410156 11.191406 -2.234375 11.515625 -1.984375 C 11.847656 -1.734375 12.101562 -1.394531 12.28125 -0.96875 C 12.457031 -0.550781 12.546875 -0.0195312 12.546875 0.625 C 12.546875 1.125 12.429688 1.675781 12.203125 2.28125 C 11.972656 2.882812 11.582031 3.445312 11.03125 3.96875 C 10.488281 4.488281 9.757812 4.925781 8.84375 5.28125 C 7.925781 5.632812 6.796875 5.8125 5.453125 5.8125 Z M 5.984375 -5.96875 C 6.816406 -5.96875 7.441406 -6.191406 7.859375 -6.640625 C 8.285156 -7.085938 8.5 -7.875 8.5 -9 C 8.5 -10.28125 8.285156 -11.191406 7.859375 -11.734375 C 7.441406 -12.273438 6.816406 -12.546875 5.984375 -12.546875 C 5.171875 -12.546875 4.550781 -12.300781 4.125 -11.8125 C 3.707031 -11.332031 3.5 -10.523438 3.5 -9.390625 C 3.5 -8.128906 3.707031 -7.242188 4.125 -6.734375 C 4.550781 -6.222656 5.171875 -5.96875 5.984375 -5.96875 Z M 5.890625 4.71875 C 6.523438 4.71875 7.128906 4.640625 7.703125 4.484375 C 8.285156 4.328125 8.789062 4.113281 9.21875 3.84375 C 9.65625 3.582031 10 3.265625 10.25 2.890625 C 10.507812 2.515625 10.640625 2.113281 10.640625 1.6875 C 10.640625 1.09375 10.484375 0.609375 10.171875 0.234375 C 9.859375 -0.128906 9.234375 -0.3125 8.296875 -0.3125 L 4.3125 -0.3125 C 4.101562 -0.257812 3.875 -0.160156 3.625 -0.015625 C 3.382812 0.128906 3.160156 0.3125 2.953125 0.53125 C 2.742188 0.757812 2.570312 1.019531 2.4375 1.3125 C 2.300781 1.613281 2.234375 1.9375 2.234375 2.28125 C 2.234375 3.070312 2.53125 3.675781 3.125 4.09375 C 3.71875 4.507812 4.640625 4.71875 5.890625 4.71875 Z M 5.890625 4.71875 "/></g></g></g><g fill="#000000" fill-opacity="1"><g transform="translate(486.77849, 52.835269)"><g><path d="M 1.875 -12.5 C 1.875 -13.15625 2.023438 -13.613281 2.328125 -13.875 C 2.640625 -14.132812 3.015625 -14.265625 3.453125 -14.265625 C 3.878906 -14.265625 4.253906 -14.132812 4.578125 -13.875 C 4.910156 -13.613281 5.078125 -13.15625 5.078125 -12.5 C 5.078125 -11.875 4.910156 -11.421875 4.578125 -11.140625 C 4.253906 -10.867188 3.878906 -10.734375 3.453125 -10.734375 C 3.015625 -10.734375 2.640625 -10.867188 2.328125 -11.140625 C 2.023438 -11.421875 1.875 -11.875 1.875 -12.5 Z M 1.875 -1.40625 C 1.875 -2.039062 2.023438 -2.488281 2.328125 -2.75 C 2.640625 -3.007812 3.015625 -3.140625 3.453125 -3.140625 C 3.878906 -3.140625 4.253906 -3.007812 4.578125 -2.75 C 4.910156 -2.488281 5.078125 -2.039062 5.078125 -1.40625 C 5.078125 -0.78125 4.910156 -0.328125 4.578125 -0.046875 C 4.253906 0.222656 3.878906 0.359375 3.453125 0.359375 C 3.015625 0.359375 2.640625 0.222656 2.328125 -0.046875 C 2.023438 -0.328125 1.875 -0.78125 1.875 -1.40625 Z M 1.875 -1.40625 "/></g></g></g><g fill="#008000" fill-opacity="1"><g transform="translate(514.249466, 51.444959)"><g><path d="M 0.796875 -0.796875 L 1.96875 -1.03125 C 2.125 -1.050781 2.253906 -1.085938 2.359375 -1.140625 C 2.460938 -1.191406 2.546875 -1.269531 2.609375 -1.375 C 2.679688 -1.476562 2.726562 -1.625 2.75 -1.8125 C 2.78125 -2 2.796875 -2.257812 2.796875 -2.59375 L 2.796875 -15.40625 C 2.796875 -15.738281 2.78125 -16 2.75 -16.1875 C 2.726562 -16.375 2.679688 -16.519531 2.609375 -16.625 C 2.546875 -16.726562 2.460938 -16.800781 2.359375 -16.84375 C 2.253906 -16.882812 2.125 -16.925781 1.96875 -16.96875 L 0.796875 -17.203125 L 0.796875 -17.96875 L 7.9375 -17.96875 C 8.90625 -17.96875 9.78125 -17.890625 10.5625 -17.734375 C 11.351562 -17.585938 12.023438 -17.34375 12.578125 -17 C 13.128906 -16.664062 13.554688 -16.226562 13.859375 -15.6875 C 14.160156 -15.15625 14.3125 -14.507812 14.3125 -13.75 C 14.3125 -12.519531 13.929688 -11.570312 13.171875 -10.90625 C 12.410156 -10.238281 11.320312 -9.785156 9.90625 -9.546875 L 9.90625 -9.4375 C 11.6875 -9.300781 13.023438 -8.875 13.921875 -8.15625 C 14.828125 -7.4375 15.28125 -6.40625 15.28125 -5.0625 C 15.28125 -4.226562 15.117188 -3.5 14.796875 -2.875 C 14.472656 -2.257812 14.015625 -1.734375 13.421875 -1.296875 C 12.835938 -0.867188 12.132812 -0.546875 11.3125 -0.328125 C 10.5 -0.109375 9.585938 0 8.578125 0 L 0.796875 0 Z M 7.859375 -9.90625 C 9.003906 -9.90625 9.890625 -10.191406 10.515625 -10.765625 C 11.148438 -11.347656 11.46875 -12.171875 11.46875 -13.234375 C 11.46875 -13.941406 11.394531 -14.523438 11.25 -14.984375 C 11.101562 -15.453125 10.875 -15.820312 10.5625 -16.09375 C 10.25 -16.363281 9.851562 -16.550781 9.375 -16.65625 C 8.894531 -16.769531 8.335938 -16.828125 7.703125 -16.828125 C 7.304688 -16.828125 6.921875 -16.8125 6.546875 -16.78125 C 6.171875 -16.757812 5.863281 -16.722656 5.625 -16.671875 L 5.625 -9.90625 Z M 8.328125 -1.140625 C 9.535156 -1.140625 10.492188 -1.410156 11.203125 -1.953125 C 11.910156 -2.503906 12.265625 -3.414062 12.265625 -4.6875 C 12.265625 -6.113281 11.953125 -7.144531 11.328125 -7.78125 C 10.710938 -8.414062 9.675781 -8.734375 8.21875 -8.734375 L 5.625 -8.734375 L 5.625 -3.171875 C 5.625 -2.710938 5.648438 -2.347656 5.703125 -2.078125 C 5.753906 -1.816406 5.875 -1.613281 6.0625 -1.46875 C 6.257812 -1.332031 6.535156 -1.242188 6.890625 -1.203125 C 7.242188 -1.160156 7.722656 -1.140625 8.328125 -1.140625 Z M 8.328125 -1.140625 "/></g></g></g><g fill="#008000" fill-opacity="1"><g transform="translate(530.434832, 51.444959)"><g><path d="M 1.09375 -8.5 L 6.53125 -8.5 L 6.296875 -6.59375 L 0.859375 -6.59375 Z M 1.09375 -8.5 "/></g></g></g><path stroke-linecap="butt" transform="matrix(0.749462, -0.00083835, 0.000838951, 0.75, 15.144487, 43.313538)" fill="none" stroke-linejoin="miter" d="M 0.00247408 2.498621 L 414.299606 2.49818 " stroke="#a6a6a6" stroke-width="5" stroke-opacity="1" stroke-miterlimit="4"/><path stroke-linecap="butt" transform="matrix(0.749457, -0.00279449, 0.00279649, 0.749995, 574.121928, 44.472133)" fill="none" stroke-linejoin="miter" d="M -0.0000200951 2.500715 L 414.29979 2.497515 " stroke="#a6a6a6" stroke-width="5" stroke-opacity="1" stroke-miterlimit="4"/></svg>