<svg xmlns="http://www.w3.org/2000/svg" xmlns:xlink="http://www.w3.org/1999/xlink" width="1200" zoomAndPan="magnify" viewBox="0 0 900 225" height="300" preserveAspectRatio="xMidYMid meet" version="1.0"><defs><g/><clipPath id="e1b080bcab"><path d="M 70.09375 92.59375 L 220.570312 92.59375 L 220.570312 147.359375 L 70.09375 147.359375 Z M 70.09375 92.59375 " clip-rule="nonzero"/></clipPath><clipPath id="92ff123629"><path d="M 222.429688 92.59375 L 372.902344 92.59375 L 372.902344 147.359375 L 222.429688 147.359375 Z M 222.429688 92.59375 " clip-rule="nonzero"/></clipPath><clipPath id="b553a92d36"><path d="M 374.761719 92.59375 L 525.238281 92.59375 L 525.238281 147.359375 L 374.761719 147.359375 Z M 374.761719 92.59375 " clip-rule="nonzero"/></clipPath><clipPath id="5f53680e44"><path d="M 527.09375 92.59375 L 677.570312 92.59375 L 677.570312 147.359375 L 527.09375 147.359375 Z M 527.09375 92.59375 " clip-rule="nonzero"/></clipPath><clipPath id="fca2516323"><path d="M 679.429688 92.59375 L 829.90625 92.59375 L 829.90625 147.359375 L 679.429688 147.359375 Z M 679.429688 92.59375 " clip-rule="nonzero"/></clipPath><clipPath id="7ce5fd30f8"><path d="M 441.105469 72.3125 L 458.886719 72.3125 L 458.886719 87.875 L 441.105469 87.875 Z M 441.105469 72.3125 " clip-rule="nonzero"/></clipPath><clipPath id="5a0013ceac"><path d="M 449.996094 87.875 L 441.105469 72.3125 L 458.886719 72.3125 L 449.996094 87.875 " clip-rule="nonzero"/></clipPath><clipPath id="7731d892d9"><path d="M 441.109375 151.832031 L 458.890625 151.832031 L 458.890625 167.394531 L 441.109375 167.394531 Z M 441.109375 151.832031 " clip-rule="nonzero"/></clipPath><clipPath id="bcea77c396"><path d="M 450 151.832031 L 458.890625 167.394531 L 441.109375 167.394531 L 450 151.832031 " clip-rule="nonzero"/></clipPath></defs><g clip-path="url(#e1b080bcab)"><path fill="#5876b8" d="M 70.09375 92.59375 L 220.570312 92.59375 L 220.570312 147.359375 L 70.09375 147.359375 Z M 70.09375 92.59375 " fill-opacity="1" fill-rule="nonzero"/></g><g clip-path="url(#92ff123629)"><path fill="#578257" d="M 222.429688 92.59375 L 372.902344 92.59375 L 372.902344 147.359375 L 222.429688 147.359375 Z M 222.429688 92.59375 " fill-opacity="1" fill-rule="nonzero"/></g><g clip-path="url(#b553a92d36)"><path fill="#ffd700" d="M 374.761719 92.59375 L 525.238281 92.59375 L 525.238281 147.359375 L 374.761719 147.359375 Z M 374.761719 92.59375 " fill-opacity="1" fill-rule="nonzero"/></g><g clip-path="url(#5f53680e44)"><path fill="#f4cc82" d="M 527.09375 92.59375 L 677.570312 92.59375 L 677.570312 147.359375 L 527.09375 147.359375 Z M 527.09375 92.59375 " fill-opacity="1" fill-rule="nonzero"/></g><g clip-path="url(#fca2516323)"><path fill="#fd9a9a" d="M 679.429688 92.59375 L 829.90625 92.59375 L 829.90625 147.359375 L 679.429688 147.359375 Z M 679.429688 92.59375 " fill-opacity="1" fill-rule="nonzero"/></g><path stroke-linecap="butt" transform="matrix(-0.00000153238, -0.750059, 0.75, -0.00000153226, 882.404267, 194.473492)" fill="none" stroke-linejoin="miter" d="M 0.00111056 1.997435 L 198.98548 1.997842 " stroke="#a6a6a6" stroke-width="4" stroke-opacity="1" stroke-miterlimit="4"/><path stroke-linecap="butt" transform="matrix(0.749949, 0.000000000000000073, -0.000000000000000073, 0.75, 14.594467, 192.974781)" fill="none" stroke-linejoin="miter" d="M -0.00095552 2.002375 L 1161.082437 2.002375 " stroke="#a6a6a6" stroke-width="4" stroke-opacity="1" stroke-miterlimit="4"/><path stroke-linecap="butt" transform="matrix(0.000000000000000046, -0.750059, 0.75, 0.000000000000000046, 14.593185, 194.473492)" fill="none" stroke-linejoin="miter" d="M 0.00111464 2.000754 L 198.985484 2.000754 " stroke="#a6a6a6" stroke-width="4" stroke-opacity="1" stroke-miterlimit="4"/><g fill="#30519b" fill-opacity="1"><g transform="translate(136.668511, 128.553398)"><g><path d="M 0.03125 -0.8125 L 0.8125 -0.984375 C 0.976562 -1.035156 1.128906 -1.09375 1.265625 -1.15625 C 1.410156 -1.21875 1.546875 -1.328125 1.671875 -1.484375 C 1.804688 -1.640625 1.9375 -1.859375 2.0625 -2.140625 C 2.195312 -2.429688 2.359375 -2.828125 2.546875 -3.328125 L 7.828125 -18.015625 L 9.390625 -18.015625 L 14.921875 -3.046875 C 15.097656 -2.609375 15.25 -2.265625 15.375 -2.015625 C 15.507812 -1.765625 15.640625 -1.566406 15.765625 -1.421875 C 15.898438 -1.285156 16.03125 -1.191406 16.15625 -1.140625 C 16.289062 -1.085938 16.4375 -1.035156 16.59375 -0.984375 L 17.3125 -0.8125 L 17.3125 0 L 10.796875 0 L 10.796875 -0.8125 L 11.515625 -0.984375 C 11.859375 -1.078125 12.09375 -1.175781 12.21875 -1.28125 C 12.351562 -1.382812 12.421875 -1.535156 12.421875 -1.734375 C 12.421875 -1.929688 12.378906 -2.148438 12.296875 -2.390625 C 12.222656 -2.628906 12.128906 -2.925781 12.015625 -3.28125 L 11 -6.0625 L 4.96875 -6.0625 L 4.03125 -3.28125 C 3.90625 -2.925781 3.816406 -2.648438 3.765625 -2.453125 C 3.710938 -2.253906 3.6875 -2.0625 3.6875 -1.875 C 3.6875 -1.59375 3.765625 -1.390625 3.921875 -1.265625 C 4.078125 -1.148438 4.3125 -1.054688 4.625 -0.984375 L 5.515625 -0.8125 L 5.515625 0 L 0.03125 0 Z M 5.359375 -7.234375 L 10.578125 -7.234375 L 7.984375 -14.5625 L 7.859375 -14.5625 Z M 5.359375 -7.234375 "/></g></g></g><g fill="#326032" fill-opacity="1"><g transform="translate(289.553417, 128.553398)"><g><path d="M 0.8125 -0.8125 L 1.96875 -1.046875 C 2.125 -1.054688 2.253906 -1.085938 2.359375 -1.140625 C 2.460938 -1.191406 2.550781 -1.269531 2.625 -1.375 C 2.695312 -1.476562 2.742188 -1.625 2.765625 -1.8125 C 2.796875 -2.007812 2.8125 -2.269531 2.8125 -2.59375 L 2.8125 -15.4375 C 2.8125 -15.769531 2.796875 -16.03125 2.765625 -16.21875 C 2.742188 -16.414062 2.695312 -16.566406 2.625 -16.671875 C 2.550781 -16.773438 2.460938 -16.847656 2.359375 -16.890625 C 2.253906 -16.929688 2.125 -16.96875 1.96875 -17 L 0.8125 -17.234375 L 0.8125 -18.015625 L 7.953125 -18.015625 C 8.921875 -18.015625 9.800781 -17.9375 10.59375 -17.78125 C 11.382812 -17.625 12.054688 -17.375 12.609375 -17.03125 C 13.160156 -16.695312 13.585938 -16.257812 13.890625 -15.71875 C 14.203125 -15.1875 14.359375 -14.539062 14.359375 -13.78125 C 14.359375 -12.550781 13.972656 -11.601562 13.203125 -10.9375 C 12.441406 -10.269531 11.351562 -9.8125 9.9375 -9.5625 L 9.9375 -9.46875 C 11.71875 -9.320312 13.054688 -8.890625 13.953125 -8.171875 C 14.859375 -7.453125 15.3125 -6.414062 15.3125 -5.0625 C 15.3125 -4.238281 15.148438 -3.515625 14.828125 -2.890625 C 14.515625 -2.265625 14.0625 -1.734375 13.46875 -1.296875 C 12.875 -0.867188 12.164062 -0.546875 11.34375 -0.328125 C 10.519531 -0.109375 9.609375 0 8.609375 0 L 0.8125 0 Z M 7.875 -9.9375 C 9.019531 -9.9375 9.90625 -10.222656 10.53125 -10.796875 C 11.164062 -11.378906 11.484375 -12.203125 11.484375 -13.265625 C 11.484375 -13.972656 11.410156 -14.5625 11.265625 -15.03125 C 11.117188 -15.5 10.890625 -15.863281 10.578125 -16.125 C 10.265625 -16.394531 9.867188 -16.585938 9.390625 -16.703125 C 8.921875 -16.816406 8.363281 -16.875 7.71875 -16.875 C 7.320312 -16.875 6.9375 -16.859375 6.5625 -16.828125 C 6.1875 -16.804688 5.878906 -16.769531 5.640625 -16.71875 L 5.640625 -9.9375 Z M 8.34375 -1.140625 C 9.5625 -1.140625 10.523438 -1.410156 11.234375 -1.953125 C 11.941406 -2.503906 12.296875 -3.421875 12.296875 -4.703125 C 12.296875 -6.128906 11.984375 -7.160156 11.359375 -7.796875 C 10.734375 -8.441406 9.691406 -8.765625 8.234375 -8.765625 L 5.640625 -8.765625 L 5.640625 -3.171875 C 5.640625 -2.722656 5.664062 -2.363281 5.71875 -2.09375 C 5.769531 -1.820312 5.890625 -1.617188 6.078125 -1.484375 C 6.273438 -1.347656 6.550781 -1.253906 6.90625 -1.203125 C 7.257812 -1.160156 7.738281 -1.140625 8.34375 -1.140625 Z M 8.34375 -1.140625 "/></g></g></g><g fill="#ffffff" fill-opacity="1"><g transform="translate(441.814236, 126.943358)"><g><path d="M 9.484375 0.3125 C 8.253906 0.3125 7.125 0.140625 6.09375 -0.203125 C 5.0625 -0.554688 4.164062 -1.097656 3.40625 -1.828125 C 2.65625 -2.566406 2.066406 -3.515625 1.640625 -4.671875 C 1.222656 -5.835938 1.015625 -7.234375 1.015625 -8.859375 C 1.015625 -10.597656 1.253906 -12.066406 1.734375 -13.265625 C 2.222656 -14.472656 2.878906 -15.445312 3.703125 -16.1875 C 4.523438 -16.9375 5.484375 -17.476562 6.578125 -17.8125 C 7.679688 -18.15625 8.851562 -18.328125 10.09375 -18.328125 C 11.09375 -18.328125 12.015625 -18.265625 12.859375 -18.140625 C 13.710938 -18.023438 14.425781 -17.878906 15 -17.703125 L 15.234375 -12.5625 L 14.328125 -12.5625 C 14.085938 -13.21875 13.816406 -13.867188 13.515625 -14.515625 C 13.222656 -15.171875 12.929688 -15.722656 12.640625 -16.171875 C 12.492188 -16.378906 12.347656 -16.539062 12.203125 -16.65625 C 12.054688 -16.78125 11.878906 -16.878906 11.671875 -16.953125 C 11.460938 -17.023438 11.207031 -17.070312 10.90625 -17.09375 C 10.601562 -17.125 10.226562 -17.140625 9.78125 -17.140625 C 8.84375 -17.140625 8.015625 -17.007812 7.296875 -16.75 C 6.578125 -16.5 5.976562 -16.070312 5.5 -15.46875 C 5.019531 -14.863281 4.65625 -14.0625 4.40625 -13.0625 C 4.15625 -12.0625 4.03125 -10.828125 4.03125 -9.359375 C 4.03125 -7.765625 4.140625 -6.429688 4.359375 -5.359375 C 4.585938 -4.285156 4.925781 -3.410156 5.375 -2.734375 C 5.832031 -2.066406 6.398438 -1.59375 7.078125 -1.3125 C 7.753906 -1.03125 8.53125 -0.890625 9.40625 -0.890625 C 10 -0.890625 10.488281 -0.921875 10.875 -0.984375 C 11.269531 -1.054688 11.597656 -1.15625 11.859375 -1.28125 C 12.117188 -1.414062 12.328125 -1.570312 12.484375 -1.75 C 12.648438 -1.9375 12.8125 -2.140625 12.96875 -2.359375 C 13.144531 -2.640625 13.300781 -2.894531 13.4375 -3.125 C 13.582031 -3.363281 13.707031 -3.597656 13.8125 -3.828125 C 13.925781 -4.066406 14.035156 -4.316406 14.140625 -4.578125 C 14.242188 -4.847656 14.359375 -5.160156 14.484375 -5.515625 L 15.3125 -5.515625 L 15.046875 -0.828125 C 14.441406 -0.535156 13.644531 -0.269531 12.65625 -0.03125 C 11.675781 0.195312 10.617188 0.3125 9.484375 0.3125 Z M 9.484375 0.3125 "/></g></g></g><g fill="#bb934b" fill-opacity="1"><g transform="translate(593.175246, 128.553398)"><g><path d="M 0.8125 -0.8125 L 1.96875 -1.046875 C 2.125 -1.054688 2.253906 -1.085938 2.359375 -1.140625 C 2.460938 -1.191406 2.550781 -1.269531 2.625 -1.375 C 2.695312 -1.476562 2.742188 -1.625 2.765625 -1.8125 C 2.796875 -2.007812 2.8125 -2.269531 2.8125 -2.59375 L 2.8125 -15.4375 C 2.8125 -15.769531 2.796875 -16.03125 2.765625 -16.21875 C 2.742188 -16.414062 2.695312 -16.566406 2.625 -16.671875 C 2.550781 -16.773438 2.460938 -16.847656 2.359375 -16.890625 C 2.253906 -16.929688 2.125 -16.96875 1.96875 -17 L 0.8125 -17.234375 L 0.8125 -18.015625 L 8.53125 -18.015625 C 9.78125 -18.015625 10.941406 -17.863281 12.015625 -17.5625 C 13.085938 -17.257812 14.019531 -16.765625 14.8125 -16.078125 C 15.613281 -15.390625 16.242188 -14.484375 16.703125 -13.359375 C 17.160156 -12.234375 17.390625 -10.835938 17.390625 -9.171875 C 17.390625 -7.648438 17.164062 -6.316406 16.71875 -5.171875 C 16.28125 -4.023438 15.660156 -3.066406 14.859375 -2.296875 C 14.066406 -1.523438 13.113281 -0.945312 12 -0.5625 C 10.894531 -0.1875 9.6875 0 8.375 0 L 0.8125 0 Z M 8.1875 -1.09375 C 9.40625 -1.09375 10.414062 -1.273438 11.21875 -1.640625 C 12.019531 -2.015625 12.660156 -2.535156 13.140625 -3.203125 C 13.617188 -3.878906 13.953125 -4.679688 14.140625 -5.609375 C 14.335938 -6.535156 14.4375 -7.5625 14.4375 -8.6875 C 14.4375 -10.125 14.320312 -11.363281 14.09375 -12.40625 C 13.863281 -13.445312 13.5 -14.300781 13 -14.96875 C 12.5 -15.632812 11.847656 -16.125 11.046875 -16.4375 C 10.253906 -16.757812 9.285156 -16.921875 8.140625 -16.921875 C 7.492188 -16.921875 6.972656 -16.898438 6.578125 -16.859375 C 6.191406 -16.816406 5.878906 -16.757812 5.640625 -16.6875 L 5.640625 -3.609375 C 5.640625 -3.085938 5.660156 -2.660156 5.703125 -2.328125 C 5.742188 -2.003906 5.847656 -1.75 6.015625 -1.5625 C 6.179688 -1.382812 6.429688 -1.257812 6.765625 -1.1875 C 7.109375 -1.125 7.582031 -1.09375 8.1875 -1.09375 Z M 8.1875 -1.09375 "/></g></g></g><g fill="#b65959" fill-opacity="1"><g transform="translate(747.03253, 128.553398)"><g><path d="M 0.8125 -0.8125 L 1.96875 -1.046875 C 2.125 -1.054688 2.253906 -1.085938 2.359375 -1.140625 C 2.460938 -1.191406 2.550781 -1.269531 2.625 -1.375 C 2.695312 -1.476562 2.742188 -1.625 2.765625 -1.8125 C 2.796875 -2.007812 2.8125 -2.269531 2.8125 -2.59375 L 2.8125 -15.4375 C 2.8125 -15.769531 2.796875 -16.03125 2.765625 -16.21875 C 2.742188 -16.414062 2.695312 -16.566406 2.625 -16.671875 C 2.550781 -16.773438 2.460938 -16.847656 2.359375 -16.890625 C 2.253906 -16.929688 2.125 -16.96875 1.96875 -17 L 0.8125 -17.234375 L 0.8125 -18.015625 L 14.0625 -18.015625 L 14.328125 -13.15625 L 13.359375 -13.15625 C 13.066406 -13.9375 12.820312 -14.53125 12.625 -14.9375 C 12.4375 -15.34375 12.25 -15.664062 12.0625 -15.90625 C 11.875 -16.164062 11.691406 -16.359375 11.515625 -16.484375 C 11.347656 -16.617188 11.132812 -16.710938 10.875 -16.765625 C 10.625 -16.816406 10.3125 -16.847656 9.9375 -16.859375 C 9.570312 -16.867188 9.101562 -16.875 8.53125 -16.875 C 7.800781 -16.875 7.207031 -16.851562 6.75 -16.8125 C 6.300781 -16.78125 5.929688 -16.738281 5.640625 -16.6875 L 5.640625 -9.640625 L 6.21875 -9.640625 C 6.820312 -9.640625 7.316406 -9.648438 7.703125 -9.671875 C 8.097656 -9.703125 8.414062 -9.75 8.65625 -9.8125 C 8.894531 -9.875 9.078125 -9.953125 9.203125 -10.046875 C 9.335938 -10.140625 9.453125 -10.257812 9.546875 -10.40625 C 9.710938 -10.675781 9.851562 -10.953125 9.96875 -11.234375 C 10.082031 -11.523438 10.191406 -11.890625 10.296875 -12.328125 L 11.1875 -12.328125 L 11.1875 -5.609375 L 10.296875 -5.609375 C 10.171875 -6.066406 10.050781 -6.453125 9.9375 -6.765625 C 9.832031 -7.078125 9.679688 -7.414062 9.484375 -7.78125 C 9.398438 -7.9375 9.304688 -8.054688 9.203125 -8.140625 C 9.097656 -8.222656 8.929688 -8.289062 8.703125 -8.34375 C 8.484375 -8.394531 8.171875 -8.425781 7.765625 -8.4375 C 7.367188 -8.445312 6.851562 -8.453125 6.21875 -8.453125 L 5.640625 -8.453125 L 5.640625 -2.59375 C 5.640625 -2.269531 5.644531 -2.015625 5.65625 -1.828125 C 5.675781 -1.648438 5.71875 -1.507812 5.78125 -1.40625 C 5.84375 -1.300781 5.925781 -1.226562 6.03125 -1.1875 C 6.132812 -1.144531 6.28125 -1.101562 6.46875 -1.0625 L 8.015625 -0.8125 L 8.015625 0 L 0.8125 0 Z M 0.8125 -0.8125 "/></g></g></g><g clip-path="url(#7ce5fd30f8)"><g clip-path="url(#5a0013ceac)"><path fill="#a6a6a6" d="M 458.886719 87.875 L 441.105469 87.875 L 441.105469 72.3125 L 458.886719 72.3125 Z M 458.886719 87.875 " fill-opacity="1" fill-rule="nonzero"/></g></g><g clip-path="url(#7731d892d9)"><g clip-path="url(#bcea77c396)"><path fill="#a6a6a6" d="M 441.109375 151.832031 L 458.890625 151.832031 L 458.890625 167.394531 L 441.109375 167.394531 Z M 441.109375 151.832031 " fill-opacity="1" fill-rule="nonzero"/></g></g><g fill="#000000" fill-opacity="1"><g transform="translate(355.797342, 52.897034)"><g><path d="M 0.8125 -0.8125 L 1.96875 -1.046875 C 2.125 -1.054688 2.253906 -1.085938 2.359375 -1.140625 C 2.460938 -1.191406 2.550781 -1.269531 2.625 -1.375 C 2.695312 -1.476562 2.742188 -1.625 2.765625 -1.8125 C 2.796875 -2.007812 2.8125 -2.269531 2.8125 -2.59375 L 2.8125 -15.4375 C 2.8125 -15.769531 2.796875 -16.03125 2.765625 -16.21875 C 2.742188 -16.414062 2.695312 -16.566406 2.625 -16.671875 C 2.550781 -16.773438 2.460938 -16.847656 2.359375 -16.890625 C 2.253906 -16.929688 2.125 -16.96875 1.96875 -17 L 0.8125 -17.234375 L 0.8125 -18.015625 L 8.375 -18.015625 C 10.46875 -18.015625 12.003906 -17.632812 12.984375 -16.875 C 13.960938 -16.113281 14.453125 -14.96875 14.453125 -13.4375 C 14.453125 -12.46875 14.097656 -11.578125 13.390625 -10.765625 C 12.691406 -9.953125 11.671875 -9.34375 10.328125 -8.9375 L 10.328125 -8.859375 C 10.671875 -8.253906 11.039062 -7.625 11.4375 -6.96875 C 11.832031 -6.320312 12.234375 -5.6875 12.640625 -5.0625 C 13.054688 -4.445312 13.46875 -3.847656 13.875 -3.265625 C 14.28125 -2.679688 14.664062 -2.15625 15.03125 -1.6875 C 15.164062 -1.5 15.320312 -1.359375 15.5 -1.265625 C 15.6875 -1.171875 15.976562 -1.070312 16.375 -0.96875 L 16.953125 -0.8125 L 16.953125 0 L 13 0 C 12.007812 -1.25 11.082031 -2.566406 10.21875 -3.953125 C 9.351562 -5.335938 8.566406 -6.734375 7.859375 -8.140625 L 5.59375 -8.140625 L 5.59375 -2.59375 C 5.59375 -2.269531 5.601562 -2.007812 5.625 -1.8125 C 5.65625 -1.625 5.695312 -1.476562 5.75 -1.375 C 5.8125 -1.269531 5.898438 -1.195312 6.015625 -1.15625 C 6.128906 -1.113281 6.28125 -1.078125 6.46875 -1.046875 L 7.71875 -0.8125 L 7.71875 0 L 0.8125 0 Z M 7.15625 -9.328125 C 8.707031 -9.328125 9.820312 -9.628906 10.5 -10.234375 C 11.175781 -10.847656 11.515625 -11.832031 11.515625 -13.1875 C 11.515625 -13.976562 11.445312 -14.613281 11.3125 -15.09375 C 11.175781 -15.582031 10.960938 -15.957031 10.671875 -16.21875 C 10.390625 -16.476562 10.023438 -16.648438 9.578125 -16.734375 C 9.140625 -16.828125 8.625 -16.875 8.03125 -16.875 C 7.457031 -16.875 6.96875 -16.851562 6.5625 -16.8125 C 6.15625 -16.78125 5.832031 -16.738281 5.59375 -16.6875 L 5.59375 -9.4375 C 5.726562 -9.414062 5.890625 -9.398438 6.078125 -9.390625 C 6.222656 -9.367188 6.390625 -9.351562 6.578125 -9.34375 C 6.765625 -9.332031 6.957031 -9.328125 7.15625 -9.328125 Z M 7.15625 -9.328125 "/></g></g></g><g fill="#000000" fill-opacity="1"><g transform="translate(372.745191, 52.897034)"><g><path d="M 3.609375 -15.96875 C 3.109375 -15.96875 2.6875 -16.140625 2.34375 -16.484375 C 2.007812 -16.828125 1.84375 -17.21875 1.84375 -17.65625 C 1.84375 -18.125 2.007812 -18.519531 2.34375 -18.84375 C 2.6875 -19.175781 3.109375 -19.34375 3.609375 -19.34375 C 4.097656 -19.34375 4.507812 -19.175781 4.84375 -18.84375 C 5.1875 -18.519531 5.359375 -18.125 5.359375 -17.65625 C 5.359375 -17.21875 5.1875 -16.828125 4.84375 -16.484375 C 4.507812 -16.140625 4.097656 -15.96875 3.609375 -15.96875 Z M 0.65625 -0.78125 L 1.71875 -1.0625 C 1.976562 -1.132812 2.160156 -1.25 2.265625 -1.40625 C 2.367188 -1.570312 2.421875 -1.910156 2.421875 -2.421875 L 2.421875 -10.484375 C 2.421875 -10.742188 2.410156 -10.945312 2.390625 -11.09375 C 2.367188 -11.238281 2.328125 -11.359375 2.265625 -11.453125 C 2.210938 -11.546875 2.132812 -11.617188 2.03125 -11.671875 C 1.925781 -11.722656 1.796875 -11.789062 1.640625 -11.875 L 0.65625 -12.375 L 0.65625 -13.046875 L 4.9375 -13.59375 L 5.203125 -13.4375 C 5.160156 -13.226562 5.125 -12.976562 5.09375 -12.6875 C 5.039062 -12.1875 5.015625 -11.46875 5.015625 -10.53125 L 5.015625 -2.421875 C 5.015625 -2.140625 5.019531 -1.914062 5.03125 -1.75 C 5.050781 -1.59375 5.085938 -1.46875 5.140625 -1.375 C 5.191406 -1.289062 5.257812 -1.226562 5.34375 -1.1875 C 5.4375 -1.144531 5.550781 -1.101562 5.6875 -1.0625 L 6.765625 -0.78125 L 6.765625 0 L 0.65625 0 Z M 0.65625 -0.78125 "/></g></g></g><g fill="#000000" fill-opacity="1"><g transform="translate(379.997419, 52.897034)"><g><path d="M 4.9375 0.3125 C 4.195312 0.3125 3.484375 0.265625 2.796875 0.171875 C 2.109375 0.078125 1.503906 -0.0664062 0.984375 -0.265625 L 0.859375 -4.140625 L 1.6875 -4.140625 C 1.914062 -3.628906 2.101562 -3.203125 2.25 -2.859375 C 2.394531 -2.523438 2.625 -2.171875 2.9375 -1.796875 C 3.175781 -1.503906 3.457031 -1.265625 3.78125 -1.078125 C 4.101562 -0.898438 4.578125 -0.8125 5.203125 -0.8125 C 5.992188 -0.8125 6.640625 -0.992188 7.140625 -1.359375 C 7.648438 -1.734375 7.90625 -2.257812 7.90625 -2.9375 C 7.90625 -3.28125 7.84375 -3.582031 7.71875 -3.84375 C 7.601562 -4.101562 7.414062 -4.335938 7.15625 -4.546875 C 6.90625 -4.753906 6.585938 -4.953125 6.203125 -5.140625 C 5.828125 -5.335938 5.375 -5.539062 4.84375 -5.75 C 4.269531 -5.96875 3.75 -6.203125 3.28125 -6.453125 C 2.8125 -6.710938 2.40625 -7 2.0625 -7.3125 C 1.726562 -7.632812 1.460938 -7.992188 1.265625 -8.390625 C 1.078125 -8.796875 0.984375 -9.25 0.984375 -9.75 C 0.984375 -10.351562 1.109375 -10.894531 1.359375 -11.375 C 1.609375 -11.851562 1.953125 -12.257812 2.390625 -12.59375 C 2.835938 -12.9375 3.359375 -13.195312 3.953125 -13.375 C 4.554688 -13.5625 5.195312 -13.65625 5.875 -13.65625 C 6.601562 -13.65625 7.238281 -13.617188 7.78125 -13.546875 C 8.332031 -13.472656 8.832031 -13.351562 9.28125 -13.1875 L 9.390625 -9.703125 L 8.609375 -9.703125 C 8.378906 -10.148438 8.160156 -10.535156 7.953125 -10.859375 C 7.742188 -11.191406 7.519531 -11.523438 7.28125 -11.859375 C 7.09375 -12.097656 6.875 -12.273438 6.625 -12.390625 C 6.382812 -12.503906 6.03125 -12.5625 5.5625 -12.5625 C 4.695312 -12.5625 4.066406 -12.378906 3.671875 -12.015625 C 3.285156 -11.648438 3.09375 -11.140625 3.09375 -10.484375 C 3.09375 -9.972656 3.328125 -9.523438 3.796875 -9.140625 C 4.265625 -8.765625 5.046875 -8.367188 6.140625 -7.953125 C 6.742188 -7.710938 7.296875 -7.46875 7.796875 -7.21875 C 8.296875 -6.96875 8.722656 -6.6875 9.078125 -6.375 C 9.441406 -6.0625 9.71875 -5.710938 9.90625 -5.328125 C 10.09375 -4.953125 10.1875 -4.507812 10.1875 -4 C 10.1875 -3.394531 10.066406 -2.828125 9.828125 -2.296875 C 9.585938 -1.773438 9.238281 -1.316406 8.78125 -0.921875 C 8.332031 -0.535156 7.78125 -0.234375 7.125 -0.015625 C 6.476562 0.203125 5.75 0.3125 4.9375 0.3125 Z M 4.9375 0.3125 "/></g></g></g><g fill="#000000" fill-opacity="1"><g transform="translate(391.044706, 52.897034)"><g><path d="M 0.65625 -0.78125 L 1.71875 -1.0625 C 1.976562 -1.132812 2.160156 -1.25 2.265625 -1.40625 C 2.367188 -1.570312 2.421875 -1.910156 2.421875 -2.421875 L 2.421875 -16.84375 C 2.421875 -17.101562 2.40625 -17.304688 2.375 -17.453125 C 2.351562 -17.609375 2.3125 -17.734375 2.25 -17.828125 C 2.1875 -17.921875 2.109375 -17.992188 2.015625 -18.046875 C 1.921875 -18.097656 1.796875 -18.15625 1.640625 -18.21875 L 0.515625 -18.75 L 0.515625 -19.46875 L 4.9375 -19.890625 L 5.203125 -19.6875 C 5.160156 -19.425781 5.125 -19.140625 5.09375 -18.828125 C 5.039062 -18.265625 5.015625 -17.535156 5.015625 -16.640625 L 5.015625 -2.421875 C 5.015625 -2.140625 5.019531 -1.914062 5.03125 -1.75 C 5.050781 -1.59375 5.085938 -1.46875 5.140625 -1.375 C 5.191406 -1.289062 5.257812 -1.226562 5.34375 -1.1875 C 5.4375 -1.144531 5.550781 -1.101562 5.6875 -1.0625 L 6.765625 -0.78125 L 6.765625 0 L 0.65625 0 Z M 10.609375 0 C 10.109375 -0.539062 9.632812 -1.066406 9.1875 -1.578125 C 8.75 -2.097656 8.320312 -2.625 7.90625 -3.15625 C 7.488281 -3.6875 7.078125 -4.226562 6.671875 -4.78125 C 6.273438 -5.332031 5.867188 -5.921875 5.453125 -6.546875 L 5.453125 -6.9375 L 8.140625 -9.859375 C 8.671875 -10.460938 9.039062 -10.894531 9.25 -11.15625 C 9.457031 -11.425781 9.5625 -11.640625 9.5625 -11.796875 C 9.5625 -12.054688 9.351562 -12.25 8.9375 -12.375 L 8.546875 -12.5 L 8.546875 -13.234375 L 13.421875 -13.234375 L 13.421875 -12.484375 L 12.609375 -12.21875 C 12.242188 -12.09375 11.890625 -11.921875 11.546875 -11.703125 C 11.203125 -11.492188 10.769531 -11.128906 10.25 -10.609375 L 7.59375 -7.75 C 8.351562 -6.625 9.132812 -5.539062 9.9375 -4.5 C 10.75 -3.457031 11.601562 -2.460938 12.5 -1.515625 C 12.625 -1.367188 12.738281 -1.265625 12.84375 -1.203125 C 12.945312 -1.148438 13.066406 -1.101562 13.203125 -1.0625 L 14.09375 -0.78125 L 14.09375 0 Z M 10.609375 0 "/></g></g></g><g fill="#000000" fill-opacity="1"><g transform="translate(405.13326, 52.897034)"><g/></g></g><g fill="#000000" fill-opacity="1"><g transform="translate(411.65766, 52.897034)"><g><path d="M 0.8125 -0.8125 L 1.96875 -1.046875 C 2.125 -1.054688 2.253906 -1.085938 2.359375 -1.140625 C 2.460938 -1.191406 2.550781 -1.269531 2.625 -1.375 C 2.695312 -1.476562 2.742188 -1.625 2.765625 -1.8125 C 2.796875 -2.007812 2.8125 -2.269531 2.8125 -2.59375 L 2.8125 -15.4375 C 2.8125 -15.769531 2.796875 -16.03125 2.765625 -16.21875 C 2.742188 -16.414062 2.695312 -16.566406 2.625 -16.671875 C 2.550781 -16.773438 2.460938 -16.847656 2.359375 -16.890625 C 2.253906 -16.929688 2.125 -16.96875 1.96875 -17 L 0.8125 -17.234375 L 0.8125 -18.015625 L 8.375 -18.015625 C 10.46875 -18.015625 12.003906 -17.632812 12.984375 -16.875 C 13.960938 -16.113281 14.453125 -14.96875 14.453125 -13.4375 C 14.453125 -12.46875 14.097656 -11.578125 13.390625 -10.765625 C 12.691406 -9.953125 11.671875 -9.34375 10.328125 -8.9375 L 10.328125 -8.859375 C 10.671875 -8.253906 11.039062 -7.625 11.4375 -6.96875 C 11.832031 -6.320312 12.234375 -5.6875 12.640625 -5.0625 C 13.054688 -4.445312 13.46875 -3.847656 13.875 -3.265625 C 14.28125 -2.679688 14.664062 -2.15625 15.03125 -1.6875 C 15.164062 -1.5 15.320312 -1.359375 15.5 -1.265625 C 15.6875 -1.171875 15.976562 -1.070312 16.375 -0.96875 L 16.953125 -0.8125 L 16.953125 0 L 13 0 C 12.007812 -1.25 11.082031 -2.566406 10.21875 -3.953125 C 9.351562 -5.335938 8.566406 -6.734375 7.859375 -8.140625 L 5.59375 -8.140625 L 5.59375 -2.59375 C 5.59375 -2.269531 5.601562 -2.007812 5.625 -1.8125 C 5.65625 -1.625 5.695312 -1.476562 5.75 -1.375 C 5.8125 -1.269531 5.898438 -1.195312 6.015625 -1.15625 C 6.128906 -1.113281 6.28125 -1.078125 6.46875 -1.046875 L 7.71875 -0.8125 L 7.71875 0 L 0.8125 0 Z M 7.15625 -9.328125 C 8.707031 -9.328125 9.820312 -9.628906 10.5 -10.234375 C 11.175781 -10.847656 11.515625 -11.832031 11.515625 -13.1875 C 11.515625 -13.976562 11.445312 -14.613281 11.3125 -15.09375 C 11.175781 -15.582031 10.960938 -15.957031 10.671875 -16.21875 C 10.390625 -16.476562 10.023438 -16.648438 9.578125 -16.734375 C 9.140625 -16.828125 8.625 -16.875 8.03125 -16.875 C 7.457031 -16.875 6.96875 -16.851562 6.5625 -16.8125 C 6.15625 -16.78125 5.832031 -16.738281 5.59375 -16.6875 L 5.59375 -9.4375 C 5.726562 -9.414062 5.890625 -9.398438 6.078125 -9.390625 C 6.222656 -9.367188 6.390625 -9.351562 6.578125 -9.34375 C 6.765625 -9.332031 6.957031 -9.328125 7.15625 -9.328125 Z M 7.15625 -9.328125 "/></g></g></g><g fill="#000000" fill-opacity="1"><g transform="translate(428.60551, 52.897034)"><g><path d="M 4.65625 0.34375 C 3.4375 0.34375 2.472656 0.046875 1.765625 -0.546875 C 1.054688 -1.140625 0.703125 -2 0.703125 -3.125 C 0.703125 -4.195312 1.078125 -5.023438 1.828125 -5.609375 C 2.585938 -6.203125 3.726562 -6.671875 5.25 -7.015625 L 8.296875 -7.703125 L 8.296875 -10.109375 C 8.296875 -10.546875 8.269531 -10.921875 8.21875 -11.234375 C 8.164062 -11.554688 8.054688 -11.820312 7.890625 -12.03125 C 7.722656 -12.238281 7.472656 -12.390625 7.140625 -12.484375 C 6.816406 -12.585938 6.378906 -12.640625 5.828125 -12.640625 C 5.253906 -12.640625 4.882812 -12.5625 4.71875 -12.40625 C 4.550781 -12.257812 4.441406 -11.988281 4.390625 -11.59375 C 4.328125 -11.09375 4.195312 -10.675781 4 -10.34375 C 3.8125 -10.019531 3.421875 -9.859375 2.828125 -9.859375 C 2.304688 -9.859375 1.945312 -9.988281 1.75 -10.25 C 1.550781 -10.507812 1.453125 -10.8125 1.453125 -11.15625 C 1.453125 -11.582031 1.601562 -11.953125 1.90625 -12.265625 C 2.207031 -12.578125 2.601562 -12.835938 3.09375 -13.046875 C 3.582031 -13.253906 4.109375 -13.40625 4.671875 -13.5 C 5.242188 -13.601562 5.8125 -13.65625 6.375 -13.65625 C 7.945312 -13.65625 9.09375 -13.367188 9.8125 -12.796875 C 10.53125 -12.234375 10.890625 -11.390625 10.890625 -10.265625 L 10.890625 -2.59375 C 10.890625 -2.25 10.941406 -1.972656 11.046875 -1.765625 C 11.148438 -1.554688 11.332031 -1.382812 11.59375 -1.25 C 11.726562 -1.164062 11.898438 -1.109375 12.109375 -1.078125 C 12.316406 -1.054688 12.570312 -1.035156 12.875 -1.015625 L 12.875 -0.28125 C 12.664062 -0.144531 12.34375 -0.015625 11.90625 0.109375 C 11.476562 0.242188 11.035156 0.3125 10.578125 0.3125 C 9.921875 0.3125 9.414062 0.171875 9.0625 -0.109375 C 8.707031 -0.398438 8.484375 -0.765625 8.390625 -1.203125 L 8.265625 -1.203125 C 7.953125 -0.765625 7.46875 -0.394531 6.8125 -0.09375 C 6.15625 0.195312 5.4375 0.34375 4.65625 0.34375 Z M 5.765625 -1.140625 C 6.390625 -1.140625 6.921875 -1.257812 7.359375 -1.5 C 7.796875 -1.75 8.109375 -2.035156 8.296875 -2.359375 L 8.296875 -6.375 L 6.296875 -6.15625 C 5.359375 -6.070312 4.632812 -5.820312 4.125 -5.40625 C 3.613281 -4.988281 3.359375 -4.296875 3.359375 -3.328125 C 3.359375 -2.566406 3.566406 -2.007812 3.984375 -1.65625 C 4.410156 -1.3125 5.003906 -1.140625 5.765625 -1.140625 Z M 5.765625 -1.140625 "/></g></g></g><g fill="#000000" fill-opacity="1"><g transform="translate(441.862261, 52.897034)"><g><path d="M 5.09375 0.3125 C 4.675781 0.3125 4.285156 0.265625 3.921875 0.171875 C 3.554688 0.078125 3.238281 -0.0820312 2.96875 -0.3125 C 2.707031 -0.539062 2.492188 -0.820312 2.328125 -1.15625 C 2.160156 -1.488281 2.078125 -1.910156 2.078125 -2.421875 L 2.078125 -11.859375 L 0.265625 -11.859375 L 0.265625 -12.609375 C 1.160156 -12.847656 1.863281 -13.28125 2.375 -13.90625 C 2.882812 -14.53125 3.316406 -15.375 3.671875 -16.4375 L 4.6875 -16.4375 L 4.6875 -13.234375 L 8.421875 -13.234375 L 8.09375 -11.859375 L 4.6875 -11.859375 L 4.6875 -2.8125 C 4.6875 -1.738281 5.273438 -1.203125 6.453125 -1.203125 C 6.828125 -1.203125 7.195312 -1.238281 7.5625 -1.3125 C 7.925781 -1.394531 8.238281 -1.476562 8.5 -1.5625 L 8.5 -0.734375 C 8.257812 -0.503906 7.851562 -0.269531 7.28125 -0.03125 C 6.707031 0.195312 5.976562 0.3125 5.09375 0.3125 Z M 5.09375 0.3125 "/></g></g></g><g fill="#000000" fill-opacity="1"><g transform="translate(450.674105, 52.897034)"><g><path d="M 3.609375 -15.96875 C 3.109375 -15.96875 2.6875 -16.140625 2.34375 -16.484375 C 2.007812 -16.828125 1.84375 -17.21875 1.84375 -17.65625 C 1.84375 -18.125 2.007812 -18.519531 2.34375 -18.84375 C 2.6875 -19.175781 3.109375 -19.34375 3.609375 -19.34375 C 4.097656 -19.34375 4.507812 -19.175781 4.84375 -18.84375 C 5.1875 -18.519531 5.359375 -18.125 5.359375 -17.65625 C 5.359375 -17.21875 5.1875 -16.828125 4.84375 -16.484375 C 4.507812 -16.140625 4.097656 -15.96875 3.609375 -15.96875 Z M 0.65625 -0.78125 L 1.71875 -1.0625 C 1.976562 -1.132812 2.160156 -1.25 2.265625 -1.40625 C 2.367188 -1.570312 2.421875 -1.910156 2.421875 -2.421875 L 2.421875 -10.484375 C 2.421875 -10.742188 2.410156 -10.945312 2.390625 -11.09375 C 2.367188 -11.238281 2.328125 -11.359375 2.265625 -11.453125 C 2.210938 -11.546875 2.132812 -11.617188 2.03125 -11.671875 C 1.925781 -11.722656 1.796875 -11.789062 1.640625 -11.875 L 0.65625 -12.375 L 0.65625 -13.046875 L 4.9375 -13.59375 L 5.203125 -13.4375 C 5.160156 -13.226562 5.125 -12.976562 5.09375 -12.6875 C 5.039062 -12.1875 5.015625 -11.46875 5.015625 -10.53125 L 5.015625 -2.421875 C 5.015625 -2.140625 5.019531 -1.914062 5.03125 -1.75 C 5.050781 -1.59375 5.085938 -1.46875 5.140625 -1.375 C 5.191406 -1.289062 5.257812 -1.226562 5.34375 -1.1875 C 5.4375 -1.144531 5.550781 -1.101562 5.6875 -1.0625 L 6.765625 -0.78125 L 6.765625 0 L 0.65625 0 Z M 0.65625 -0.78125 "/></g></g></g><g fill="#000000" fill-opacity="1"><g transform="translate(457.926333, 52.897034)"><g><path d="M 0.65625 -0.78125 L 1.71875 -1.0625 C 1.976562 -1.132812 2.160156 -1.25 2.265625 -1.40625 C 2.367188 -1.570312 2.421875 -1.910156 2.421875 -2.421875 L 2.421875 -10.484375 C 2.421875 -10.742188 2.410156 -10.945312 2.390625 -11.09375 C 2.367188 -11.238281 2.328125 -11.359375 2.265625 -11.453125 C 2.210938 -11.546875 2.132812 -11.617188 2.03125 -11.671875 C 1.925781 -11.722656 1.796875 -11.789062 1.640625 -11.875 L 0.65625 -12.375 L 0.65625 -13.046875 L 4.765625 -13.59375 L 5.015625 -13.4375 L 4.890625 -11.984375 L 4.984375 -11.984375 C 5.316406 -12.191406 5.675781 -12.394531 6.0625 -12.59375 C 6.457031 -12.789062 6.867188 -12.960938 7.296875 -13.109375 C 7.734375 -13.265625 8.171875 -13.390625 8.609375 -13.484375 C 9.054688 -13.578125 9.488281 -13.625 9.90625 -13.625 C 11.21875 -13.625 12.132812 -13.34375 12.65625 -12.78125 C 13.175781 -12.21875 13.4375 -11.347656 13.4375 -10.171875 L 13.4375 -2.421875 C 13.4375 -1.910156 13.492188 -1.570312 13.609375 -1.40625 C 13.722656 -1.25 13.898438 -1.132812 14.140625 -1.0625 L 15.1875 -0.78125 L 15.1875 0 L 9.09375 0 L 9.09375 -0.78125 L 10.171875 -1.0625 C 10.285156 -1.101562 10.382812 -1.144531 10.46875 -1.1875 C 10.5625 -1.226562 10.632812 -1.289062 10.6875 -1.375 C 10.738281 -1.46875 10.773438 -1.59375 10.796875 -1.75 C 10.828125 -1.914062 10.84375 -2.140625 10.84375 -2.421875 L 10.84375 -9.4375 C 10.84375 -10.351562 10.671875 -10.992188 10.328125 -11.359375 C 9.992188 -11.722656 9.410156 -11.90625 8.578125 -11.90625 C 8.265625 -11.90625 7.9375 -11.875 7.59375 -11.8125 C 7.25 -11.75 6.921875 -11.675781 6.609375 -11.59375 C 6.296875 -11.519531 6 -11.4375 5.71875 -11.34375 C 5.4375 -11.25 5.203125 -11.171875 5.015625 -11.109375 L 5.015625 -2.421875 C 5.015625 -2.140625 5.019531 -1.914062 5.03125 -1.75 C 5.050781 -1.59375 5.085938 -1.46875 5.140625 -1.375 C 5.191406 -1.289062 5.257812 -1.226562 5.34375 -1.1875 C 5.4375 -1.144531 5.550781 -1.101562 5.6875 -1.0625 L 6.765625 -0.78125 L 6.765625 0 L 0.65625 0 Z M 0.65625 -0.78125 "/></g></g></g><g fill="#000000" fill-opacity="1"><g transform="translate(473.652485, 52.897034)"><g><path d="M 5.453125 5.828125 C 3.691406 5.828125 2.3125 5.539062 1.3125 4.96875 C 0.3125 4.394531 -0.1875 3.640625 -0.1875 2.703125 C -0.1875 2.054688 0.078125 1.460938 0.609375 0.921875 C 1.140625 0.390625 1.875 -0.0351562 2.8125 -0.359375 L 2.8125 -0.46875 C 2.351562 -0.625 1.945312 -0.867188 1.59375 -1.203125 C 1.238281 -1.546875 1.0625 -2.019531 1.0625 -2.625 C 1.0625 -2.988281 1.125 -3.316406 1.25 -3.609375 C 1.382812 -3.910156 1.546875 -4.175781 1.734375 -4.40625 C 1.929688 -4.644531 2.148438 -4.859375 2.390625 -5.046875 C 2.628906 -5.234375 2.851562 -5.40625 3.0625 -5.5625 L 3.0625 -5.671875 C 2.800781 -5.785156 2.535156 -5.953125 2.265625 -6.171875 C 2.003906 -6.390625 1.769531 -6.648438 1.5625 -6.953125 C 1.351562 -7.253906 1.179688 -7.585938 1.046875 -7.953125 C 0.921875 -8.316406 0.859375 -8.695312 0.859375 -9.09375 C 0.859375 -9.863281 1.007812 -10.53125 1.3125 -11.09375 C 1.613281 -11.664062 2.007812 -12.140625 2.5 -12.515625 C 3 -12.890625 3.550781 -13.164062 4.15625 -13.34375 C 4.757812 -13.53125 5.375 -13.625 6 -13.625 C 6.519531 -13.625 7 -13.582031 7.4375 -13.5 C 7.875 -13.425781 8.316406 -13.296875 8.765625 -13.109375 C 9.210938 -13.484375 9.71875 -13.8125 10.28125 -14.09375 C 10.84375 -14.375 11.421875 -14.515625 12.015625 -14.515625 C 12.410156 -14.515625 12.742188 -14.410156 13.015625 -14.203125 C 13.296875 -13.992188 13.4375 -13.6875 13.4375 -13.28125 C 13.4375 -12.957031 13.34375 -12.664062 13.15625 -12.40625 C 12.96875 -12.144531 12.695312 -12.015625 12.34375 -12.015625 C 12 -12.015625 11.742188 -12.082031 11.578125 -12.21875 C 11.421875 -12.351562 11.289062 -12.546875 11.1875 -12.796875 C 11.09375 -12.984375 10.859375 -13.03125 10.484375 -12.9375 C 10.117188 -12.84375 9.757812 -12.695312 9.40625 -12.5 L 9.40625 -12.421875 C 9.945312 -12.109375 10.378906 -11.695312 10.703125 -11.1875 C 11.023438 -10.675781 11.1875 -10.054688 11.1875 -9.328125 C 11.1875 -8.566406 11.03125 -7.910156 10.71875 -7.359375 C 10.414062 -6.804688 10.015625 -6.347656 9.515625 -5.984375 C 9.023438 -5.617188 8.472656 -5.347656 7.859375 -5.171875 C 7.242188 -4.992188 6.625 -4.90625 6 -4.90625 C 5.570312 -4.90625 5.207031 -4.9375 4.90625 -5 C 4.613281 -5.0625 4.304688 -5.160156 3.984375 -5.296875 C 3.773438 -5.160156 3.566406 -4.96875 3.359375 -4.71875 C 3.160156 -4.46875 3.0625 -4.1875 3.0625 -3.875 C 3.0625 -3.539062 3.195312 -3.253906 3.46875 -3.015625 C 3.738281 -2.785156 4.148438 -2.671875 4.703125 -2.671875 L 8.8125 -2.671875 C 9.363281 -2.671875 9.875 -2.617188 10.34375 -2.515625 C 10.8125 -2.410156 11.207031 -2.234375 11.53125 -1.984375 C 11.863281 -1.734375 12.117188 -1.394531 12.296875 -0.96875 C 12.484375 -0.550781 12.578125 -0.0195312 12.578125 0.625 C 12.578125 1.125 12.457031 1.675781 12.21875 2.28125 C 11.988281 2.894531 11.601562 3.460938 11.0625 3.984375 C 10.519531 4.503906 9.785156 4.941406 8.859375 5.296875 C 7.941406 5.648438 6.804688 5.828125 5.453125 5.828125 Z M 6 -5.984375 C 6.832031 -5.984375 7.460938 -6.207031 7.890625 -6.65625 C 8.316406 -7.101562 8.53125 -7.890625 8.53125 -9.015625 C 8.53125 -10.304688 8.316406 -11.222656 7.890625 -11.765625 C 7.460938 -12.304688 6.832031 -12.578125 6 -12.578125 C 5.1875 -12.578125 4.566406 -12.332031 4.140625 -11.84375 C 3.722656 -11.363281 3.515625 -10.550781 3.515625 -9.40625 C 3.515625 -8.144531 3.722656 -7.257812 4.140625 -6.75 C 4.566406 -6.238281 5.1875 -5.984375 6 -5.984375 Z M 5.90625 4.734375 C 6.539062 4.734375 7.148438 4.65625 7.734375 4.5 C 8.316406 4.34375 8.820312 4.128906 9.25 3.859375 C 9.6875 3.585938 10.03125 3.265625 10.28125 2.890625 C 10.53125 2.523438 10.65625 2.125 10.65625 1.6875 C 10.65625 1.101562 10.5 0.625 10.1875 0.25 C 9.875 -0.125 9.25 -0.3125 8.3125 -0.3125 L 4.3125 -0.3125 C 4.101562 -0.257812 3.878906 -0.160156 3.640625 -0.015625 C 3.398438 0.128906 3.175781 0.316406 2.96875 0.546875 C 2.757812 0.773438 2.582031 1.035156 2.4375 1.328125 C 2.300781 1.617188 2.234375 1.9375 2.234375 2.28125 C 2.234375 3.082031 2.53125 3.691406 3.125 4.109375 C 3.726562 4.523438 4.65625 4.734375 5.90625 4.734375 Z M 5.90625 4.734375 "/></g></g></g><g fill="#000000" fill-opacity="1"><g transform="translate(486.857249, 52.897034)"><g><path d="M 1.875 -12.53125 C 1.875 -13.1875 2.03125 -13.644531 2.34375 -13.90625 C 2.65625 -14.164062 3.023438 -14.296875 3.453125 -14.296875 C 3.890625 -14.296875 4.269531 -14.164062 4.59375 -13.90625 C 4.925781 -13.644531 5.09375 -13.1875 5.09375 -12.53125 C 5.09375 -11.90625 4.925781 -11.453125 4.59375 -11.171875 C 4.269531 -10.898438 3.890625 -10.765625 3.453125 -10.765625 C 3.023438 -10.765625 2.65625 -10.898438 2.34375 -11.171875 C 2.03125 -11.453125 1.875 -11.90625 1.875 -12.53125 Z M 1.875 -1.40625 C 1.875 -2.039062 2.03125 -2.488281 2.34375 -2.75 C 2.65625 -3.007812 3.023438 -3.140625 3.453125 -3.140625 C 3.890625 -3.140625 4.269531 -3.007812 4.59375 -2.75 C 4.925781 -2.488281 5.09375 -2.039062 5.09375 -1.40625 C 5.09375 -0.78125 4.925781 -0.328125 4.59375 -0.046875 C 4.269531 0.222656 3.890625 0.359375 3.453125 0.359375 C 3.023438 0.359375 2.65625 0.222656 2.34375 -0.046875 C 2.03125 -0.328125 1.875 -0.78125 1.875 -1.40625 Z M 1.875 -1.40625 "/></g></g></g><g fill="#ffd700" fill-opacity="1"><g transform="translate(510.569951, 51.503762)"><g><path d="M 9.484375 0.3125 C 8.253906 0.3125 7.125 0.140625 6.09375 -0.203125 C 5.0625 -0.554688 4.164062 -1.097656 3.40625 -1.828125 C 2.65625 -2.566406 2.066406 -3.515625 1.640625 -4.671875 C 1.222656 -5.835938 1.015625 -7.234375 1.015625 -8.859375 C 1.015625 -10.597656 1.253906 -12.066406 1.734375 -13.265625 C 2.222656 -14.472656 2.878906 -15.445312 3.703125 -16.1875 C 4.523438 -16.9375 5.484375 -17.476562 6.578125 -17.8125 C 7.679688 -18.15625 8.851562 -18.328125 10.09375 -18.328125 C 11.09375 -18.328125 12.015625 -18.265625 12.859375 -18.140625 C 13.710938 -18.023438 14.425781 -17.878906 15 -17.703125 L 15.234375 -12.5625 L 14.328125 -12.5625 C 14.085938 -13.21875 13.816406 -13.867188 13.515625 -14.515625 C 13.222656 -15.171875 12.929688 -15.722656 12.640625 -16.171875 C 12.492188 -16.378906 12.347656 -16.539062 12.203125 -16.65625 C 12.054688 -16.78125 11.878906 -16.878906 11.671875 -16.953125 C 11.460938 -17.023438 11.207031 -17.070312 10.90625 -17.09375 C 10.601562 -17.125 10.226562 -17.140625 9.78125 -17.140625 C 8.84375 -17.140625 8.015625 -17.007812 7.296875 -16.75 C 6.578125 -16.5 5.976562 -16.070312 5.5 -15.46875 C 5.019531 -14.863281 4.65625 -14.0625 4.40625 -13.0625 C 4.15625 -12.0625 4.03125 -10.828125 4.03125 -9.359375 C 4.03125 -7.765625 4.140625 -6.429688 4.359375 -5.359375 C 4.585938 -4.285156 4.925781 -3.410156 5.375 -2.734375 C 5.832031 -2.066406 6.398438 -1.59375 7.078125 -1.3125 C 7.753906 -1.03125 8.53125 -0.890625 9.40625 -0.890625 C 10 -0.890625 10.488281 -0.921875 10.875 -0.984375 C 11.269531 -1.054688 11.597656 -1.15625 11.859375 -1.28125 C 12.117188 -1.414062 12.328125 -1.570312 12.484375 -1.75 C 12.648438 -1.9375 12.8125 -2.140625 12.96875 -2.359375 C 13.144531 -2.640625 13.300781 -2.894531 13.4375 -3.125 C 13.582031 -3.363281 13.707031 -3.597656 13.8125 -3.828125 C 13.925781 -4.066406 14.035156 -4.316406 14.140625 -4.578125 C 14.242188 -4.847656 14.359375 -5.160156 14.484375 -5.515625 L 15.3125 -5.515625 L 15.046875 -0.828125 C 14.441406 -0.535156 13.644531 -0.269531 12.65625 -0.03125 C 11.675781 0.195312 10.617188 0.3125 9.484375 0.3125 Z M 9.484375 0.3125 "/></g></g></g><g fill="#ffd700" fill-opacity="1"><g transform="translate(526.945935, 51.503762)"><g><path d="M 8.34375 -10.09375 L 13.515625 -10.09375 L 13.515625 -8.234375 L 8.34375 -8.234375 L 8.34375 -2.890625 L 6.46875 -2.890625 L 6.46875 -8.234375 L 1.296875 -8.234375 L 1.296875 -10.09375 L 6.46875 -10.09375 L 6.46875 -15.46875 L 8.34375 -15.46875 Z M 8.34375 -10.09375 "/></g></g></g><path stroke-linecap="butt" transform="matrix(0.75059, -0.0022417, 0.00223993, 0.749997, 14.589986, 44.314446)" fill="none" stroke-linejoin="miter" d="M -0.000946038 1.997412 L 414.683166 2.002499 " stroke="#a6a6a6" stroke-width="4" stroke-opacity="1" stroke-miterlimit="4"/><path stroke-linecap="butt" transform="matrix(0.750588, -0.00280211, 0.0027999, 0.749995, 574.389048, 44.894994)" fill="none" stroke-linejoin="miter" d="M -0.000153113 1.999397 L 414.685039 2.001849 " stroke="#a6a6a6" stroke-width="4" stroke-opacity="1" stroke-miterlimit="4"/></svg>