<svg xmlns="http://www.w3.org/2000/svg" xmlns:xlink="http://www.w3.org/1999/xlink" width="1200" zoomAndPan="magnify" viewBox="0 0 900 225" height="300" preserveAspectRatio="xMidYMid meet" version="1.0"><defs><g/><clipPath id="ec6b7f470c"><path d="M 70.8125 92.441406 L 221.003906 92.441406 L 221.003906 147.105469 L 70.8125 147.105469 Z M 70.8125 92.441406 " clip-rule="nonzero"/></clipPath><clipPath id="980a570552"><path d="M 222.859375 92.441406 L 373.050781 92.441406 L 373.050781 147.105469 L 222.859375 147.105469 Z M 222.859375 92.441406 " clip-rule="nonzero"/></clipPath><clipPath id="6a8d24d918"><path d="M 374.902344 92.441406 L 525.09375 92.441406 L 525.09375 147.105469 L 374.902344 147.105469 Z M 374.902344 92.441406 " clip-rule="nonzero"/></clipPath><clipPath id="04b1785ce5"><path d="M 526.949219 92.441406 L 677.140625 92.441406 L 677.140625 147.105469 L 526.949219 147.105469 Z M 526.949219 92.441406 " clip-rule="nonzero"/></clipPath><clipPath id="52698b467e"><path d="M 678.996094 92.441406 L 829.1875 92.441406 L 829.1875 147.105469 L 678.996094 147.105469 Z M 678.996094 92.441406 " clip-rule="nonzero"/></clipPath><clipPath id="f70a09b38b"><path d="M 441.121094 72.199219 L 458.871094 72.199219 L 458.871094 87.730469 L 441.121094 87.730469 Z M 441.121094 72.199219 " clip-rule="nonzero"/></clipPath><clipPath id="29223bc459"><path d="M 449.996094 87.730469 L 441.121094 72.199219 L 458.871094 72.199219 L 449.996094 87.730469 " clip-rule="nonzero"/></clipPath><clipPath id="6c06637063"><path d="M 441.125 151.570312 L 458.875 151.570312 L 458.875 167.101562 L 441.125 167.101562 Z M 441.125 151.570312 " clip-rule="nonzero"/></clipPath><clipPath id="713d40181d"><path d="M 450 151.570312 L 458.875 167.101562 L 441.125 167.101562 L 450 151.570312 " clip-rule="nonzero"/></clipPath></defs><g clip-path="url(#ec6b7f470c)"><path fill="#5876b8" d="M 70.8125 92.441406 L 221.003906 92.441406 L 221.003906 147.105469 L 70.8125 147.105469 Z M 70.8125 92.441406 " fill-opacity="1" fill-rule="nonzero"/></g><g clip-path="url(#980a570552)"><path fill="#578257" d="M 222.859375 92.441406 L 373.050781 92.441406 L 373.050781 147.105469 L 222.859375 147.105469 Z M 222.859375 92.441406 " fill-opacity="1" fill-rule="nonzero"/></g><g clip-path="url(#6a8d24d918)"><path fill="#ffd700" d="M 374.902344 92.441406 L 525.09375 92.441406 L 525.09375 147.105469 L 374.902344 147.105469 Z M 374.902344 92.441406 " fill-opacity="1" fill-rule="nonzero"/></g><g clip-path="url(#04b1785ce5)"><path fill="#f4cc82" d="M 526.949219 92.441406 L 677.140625 92.441406 L 677.140625 147.105469 L 526.949219 147.105469 Z M 526.949219 92.441406 " fill-opacity="1" fill-rule="nonzero"/></g><g clip-path="url(#52698b467e)"><path fill="#fd9a9a" d="M 678.996094 92.441406 L 829.1875 92.441406 L 829.1875 147.105469 L 678.996094 147.105469 Z M 678.996094 92.441406 " fill-opacity="1" fill-rule="nonzero"/></g><path stroke-linecap="butt" transform="matrix(-0.00000153528, -0.751475, 0.75, -0.00000153226, 881.210531, 194.13006)" fill="none" stroke-linejoin="miter" d="M 0.00152956 2.500542 L 198.610903 2.500948 " stroke="#a6a6a6" stroke-width="5" stroke-opacity="1" stroke-miterlimit="4"/><path stroke-linecap="butt" transform="matrix(0.750071, 0.000000000000000037, -0.000000000000000037, 0.75, 15.036328, 192.256173)" fill="none" stroke-linejoin="miter" d="M -0.00156274 2.502186 L 1159.904727 2.502186 " stroke="#a6a6a6" stroke-width="5" stroke-opacity="1" stroke-miterlimit="4"/><path stroke-linecap="butt" transform="matrix(0.000000000000000046, -0.751475, 0.75, 0.000000000000000046, 15.037358, 194.13006)" fill="none" stroke-linejoin="miter" d="M 0.00153466 2.502272 L 198.610909 2.502272 " stroke="#a6a6a6" stroke-width="5" stroke-opacity="1" stroke-miterlimit="4"/><g fill="#30519b" fill-opacity="1"><g transform="translate(137.259907, 128.334196)"><g><path d="M 0.03125 -0.796875 L 0.796875 -0.984375 C 0.972656 -1.035156 1.128906 -1.09375 1.265625 -1.15625 C 1.410156 -1.21875 1.546875 -1.328125 1.671875 -1.484375 C 1.804688 -1.640625 1.9375 -1.859375 2.0625 -2.140625 C 2.195312 -2.421875 2.359375 -2.816406 2.546875 -3.328125 L 7.8125 -17.984375 L 9.375 -17.984375 L 14.890625 -3.03125 C 15.066406 -2.601562 15.21875 -2.265625 15.34375 -2.015625 C 15.476562 -1.765625 15.609375 -1.566406 15.734375 -1.421875 C 15.867188 -1.285156 16 -1.191406 16.125 -1.140625 C 16.257812 -1.085938 16.40625 -1.035156 16.5625 -0.984375 L 17.28125 -0.796875 L 17.28125 0 L 10.765625 0 L 10.765625 -0.796875 L 11.5 -0.984375 C 11.84375 -1.066406 12.078125 -1.160156 12.203125 -1.265625 C 12.335938 -1.367188 12.40625 -1.523438 12.40625 -1.734375 C 12.40625 -1.929688 12.363281 -2.148438 12.28125 -2.390625 C 12.207031 -2.628906 12.109375 -2.921875 11.984375 -3.265625 L 10.984375 -6.046875 L 4.953125 -6.046875 L 4.015625 -3.265625 C 3.898438 -2.921875 3.816406 -2.648438 3.765625 -2.453125 C 3.710938 -2.253906 3.6875 -2.0625 3.6875 -1.875 C 3.6875 -1.59375 3.765625 -1.390625 3.921875 -1.265625 C 4.078125 -1.148438 4.3125 -1.054688 4.625 -0.984375 L 5.5 -0.796875 L 5.5 0 L 0.03125 0 Z M 5.34375 -7.21875 L 10.5625 -7.21875 L 7.96875 -14.53125 L 7.84375 -14.53125 Z M 5.34375 -7.21875 "/></g></g></g><g fill="#326032" fill-opacity="1"><g transform="translate(289.856252, 128.334196)"><g><path d="M 0.796875 -0.796875 L 1.96875 -1.03125 C 2.125 -1.050781 2.253906 -1.085938 2.359375 -1.140625 C 2.460938 -1.191406 2.546875 -1.269531 2.609375 -1.375 C 2.679688 -1.476562 2.726562 -1.625 2.75 -1.8125 C 2.78125 -2.007812 2.796875 -2.269531 2.796875 -2.59375 L 2.796875 -15.421875 C 2.796875 -15.742188 2.78125 -16 2.75 -16.1875 C 2.726562 -16.382812 2.679688 -16.535156 2.609375 -16.640625 C 2.546875 -16.742188 2.460938 -16.816406 2.359375 -16.859375 C 2.253906 -16.898438 2.125 -16.9375 1.96875 -16.96875 L 0.796875 -17.203125 L 0.796875 -17.984375 L 7.9375 -17.984375 C 8.90625 -17.984375 9.78125 -17.90625 10.5625 -17.75 C 11.351562 -17.59375 12.023438 -17.34375 12.578125 -17 C 13.140625 -16.664062 13.570312 -16.226562 13.875 -15.6875 C 14.175781 -15.15625 14.328125 -14.507812 14.328125 -13.75 C 14.328125 -12.519531 13.945312 -11.570312 13.1875 -10.90625 C 12.425781 -10.25 11.335938 -9.796875 9.921875 -9.546875 L 9.921875 -9.453125 C 11.703125 -9.304688 13.039062 -8.875 13.9375 -8.15625 C 14.832031 -7.4375 15.28125 -6.40625 15.28125 -5.0625 C 15.28125 -4.226562 15.117188 -3.5 14.796875 -2.875 C 14.484375 -2.257812 14.03125 -1.734375 13.4375 -1.296875 C 12.851562 -0.867188 12.148438 -0.546875 11.328125 -0.328125 C 10.503906 -0.109375 9.59375 0 8.59375 0 L 0.796875 0 Z M 7.859375 -9.921875 C 9.003906 -9.921875 9.890625 -10.207031 10.515625 -10.78125 C 11.148438 -11.363281 11.46875 -12.179688 11.46875 -13.234375 C 11.46875 -13.941406 11.394531 -14.53125 11.25 -15 C 11.101562 -15.46875 10.875 -15.832031 10.5625 -16.09375 C 10.25 -16.363281 9.851562 -16.554688 9.375 -16.671875 C 8.90625 -16.785156 8.347656 -16.84375 7.703125 -16.84375 C 7.304688 -16.84375 6.921875 -16.828125 6.546875 -16.796875 C 6.179688 -16.773438 5.875 -16.738281 5.625 -16.6875 L 5.625 -9.921875 Z M 8.328125 -1.140625 C 9.535156 -1.140625 10.492188 -1.410156 11.203125 -1.953125 C 11.921875 -2.503906 12.28125 -3.421875 12.28125 -4.703125 C 12.28125 -6.117188 11.96875 -7.144531 11.34375 -7.78125 C 10.71875 -8.425781 9.679688 -8.75 8.234375 -8.75 L 5.625 -8.75 L 5.625 -3.171875 C 5.625 -2.710938 5.648438 -2.347656 5.703125 -2.078125 C 5.753906 -1.816406 5.875 -1.613281 6.0625 -1.46875 C 6.257812 -1.332031 6.535156 -1.242188 6.890625 -1.203125 C 7.242188 -1.160156 7.722656 -1.140625 8.328125 -1.140625 Z M 8.328125 -1.140625 "/></g></g></g><g fill="#ffffff" fill-opacity="1"><g transform="translate(441.829691, 126.727144)"><g><path d="M 9.46875 0.3125 C 8.238281 0.3125 7.109375 0.140625 6.078125 -0.203125 C 5.054688 -0.554688 4.164062 -1.097656 3.40625 -1.828125 C 2.65625 -2.566406 2.066406 -3.515625 1.640625 -4.671875 C 1.222656 -5.828125 1.015625 -7.21875 1.015625 -8.84375 C 1.015625 -10.570312 1.253906 -12.035156 1.734375 -13.234375 C 2.222656 -14.441406 2.878906 -15.414062 3.703125 -16.15625 C 4.523438 -16.90625 5.484375 -17.445312 6.578125 -17.78125 C 7.679688 -18.125 8.84375 -18.296875 10.0625 -18.296875 C 11.070312 -18.296875 12 -18.234375 12.84375 -18.109375 C 13.695312 -17.992188 14.40625 -17.847656 14.96875 -17.671875 L 15.203125 -12.53125 L 14.296875 -12.53125 C 14.054688 -13.1875 13.785156 -13.835938 13.484375 -14.484375 C 13.191406 -15.140625 12.898438 -15.691406 12.609375 -16.140625 C 12.472656 -16.347656 12.332031 -16.507812 12.1875 -16.625 C 12.039062 -16.75 11.863281 -16.847656 11.65625 -16.921875 C 11.445312 -16.992188 11.191406 -17.039062 10.890625 -17.0625 C 10.585938 -17.09375 10.210938 -17.109375 9.765625 -17.109375 C 8.828125 -17.109375 8 -16.976562 7.28125 -16.71875 C 6.5625 -16.46875 5.960938 -16.039062 5.484375 -15.4375 C 5.015625 -14.832031 4.648438 -14.03125 4.390625 -13.03125 C 4.140625 -12.039062 4.015625 -10.8125 4.015625 -9.34375 C 4.015625 -7.75 4.128906 -6.414062 4.359375 -5.34375 C 4.585938 -4.269531 4.925781 -3.398438 5.375 -2.734375 C 5.820312 -2.066406 6.382812 -1.585938 7.0625 -1.296875 C 7.738281 -1.015625 8.515625 -0.875 9.390625 -0.875 C 9.984375 -0.875 10.472656 -0.910156 10.859375 -0.984375 C 11.242188 -1.054688 11.566406 -1.15625 11.828125 -1.28125 C 12.085938 -1.414062 12.300781 -1.570312 12.46875 -1.75 C 12.632812 -1.9375 12.796875 -2.140625 12.953125 -2.359375 C 13.117188 -2.640625 13.269531 -2.894531 13.40625 -3.125 C 13.550781 -3.363281 13.679688 -3.597656 13.796875 -3.828125 C 13.910156 -4.054688 14.019531 -4.304688 14.125 -4.578125 C 14.226562 -4.847656 14.335938 -5.15625 14.453125 -5.5 L 15.28125 -5.5 L 15.03125 -0.828125 C 14.425781 -0.535156 13.628906 -0.269531 12.640625 -0.03125 C 11.648438 0.195312 10.59375 0.3125 9.46875 0.3125 Z M 9.46875 0.3125 "/></g></g></g><g fill="#bb934b" fill-opacity="1"><g transform="translate(592.904973, 128.334196)"><g><path d="M 0.796875 -0.796875 L 1.96875 -1.03125 C 2.125 -1.050781 2.253906 -1.085938 2.359375 -1.140625 C 2.460938 -1.191406 2.546875 -1.269531 2.609375 -1.375 C 2.679688 -1.476562 2.726562 -1.625 2.75 -1.8125 C 2.78125 -2.007812 2.796875 -2.269531 2.796875 -2.59375 L 2.796875 -15.421875 C 2.796875 -15.742188 2.78125 -16 2.75 -16.1875 C 2.726562 -16.382812 2.679688 -16.535156 2.609375 -16.640625 C 2.546875 -16.742188 2.460938 -16.816406 2.359375 -16.859375 C 2.253906 -16.898438 2.125 -16.9375 1.96875 -16.96875 L 0.796875 -17.203125 L 0.796875 -17.984375 L 8.515625 -17.984375 C 9.753906 -17.984375 10.910156 -17.832031 11.984375 -17.53125 C 13.054688 -17.226562 13.988281 -16.734375 14.78125 -16.046875 C 15.582031 -15.367188 16.210938 -14.46875 16.671875 -13.34375 C 17.128906 -12.21875 17.359375 -10.820312 17.359375 -9.15625 C 17.359375 -7.632812 17.132812 -6.300781 16.6875 -5.15625 C 16.25 -4.019531 15.632812 -3.066406 14.84375 -2.296875 C 14.050781 -1.523438 13.097656 -0.945312 11.984375 -0.5625 C 10.878906 -0.1875 9.671875 0 8.359375 0 L 0.796875 0 Z M 8.171875 -1.09375 C 9.378906 -1.09375 10.382812 -1.273438 11.1875 -1.640625 C 12 -2.015625 12.640625 -2.535156 13.109375 -3.203125 C 13.585938 -3.867188 13.921875 -4.664062 14.109375 -5.59375 C 14.304688 -6.519531 14.40625 -7.546875 14.40625 -8.671875 C 14.40625 -10.109375 14.289062 -11.34375 14.0625 -12.375 C 13.84375 -13.414062 13.476562 -14.269531 12.96875 -14.9375 C 12.46875 -15.601562 11.820312 -16.09375 11.03125 -16.40625 C 10.238281 -16.726562 9.269531 -16.890625 8.125 -16.890625 C 7.476562 -16.890625 6.960938 -16.867188 6.578125 -16.828125 C 6.191406 -16.785156 5.875 -16.726562 5.625 -16.65625 L 5.625 -3.609375 C 5.625 -3.085938 5.644531 -2.660156 5.6875 -2.328125 C 5.738281 -2.003906 5.84375 -1.75 6 -1.5625 C 6.164062 -1.382812 6.414062 -1.257812 6.75 -1.1875 C 7.09375 -1.125 7.566406 -1.09375 8.171875 -1.09375 Z M 8.171875 -1.09375 "/></g></g></g><g fill="#b65959" fill-opacity="1"><g transform="translate(746.471933, 128.334196)"><g><path d="M 0.796875 -0.796875 L 1.96875 -1.03125 C 2.125 -1.050781 2.253906 -1.085938 2.359375 -1.140625 C 2.460938 -1.191406 2.546875 -1.269531 2.609375 -1.375 C 2.679688 -1.476562 2.726562 -1.625 2.75 -1.8125 C 2.78125 -2.007812 2.796875 -2.269531 2.796875 -2.59375 L 2.796875 -15.421875 C 2.796875 -15.742188 2.78125 -16 2.75 -16.1875 C 2.726562 -16.382812 2.679688 -16.535156 2.609375 -16.640625 C 2.546875 -16.742188 2.460938 -16.816406 2.359375 -16.859375 C 2.253906 -16.898438 2.125 -16.9375 1.96875 -16.96875 L 0.796875 -17.203125 L 0.796875 -17.984375 L 14.046875 -17.984375 L 14.296875 -13.125 L 13.34375 -13.125 C 13.050781 -13.90625 12.804688 -14.5 12.609375 -14.90625 C 12.421875 -15.3125 12.234375 -15.640625 12.046875 -15.890625 C 11.847656 -16.140625 11.660156 -16.328125 11.484375 -16.453125 C 11.316406 -16.585938 11.109375 -16.679688 10.859375 -16.734375 C 10.609375 -16.785156 10.296875 -16.816406 9.921875 -16.828125 C 9.554688 -16.835938 9.085938 -16.84375 8.515625 -16.84375 C 7.785156 -16.84375 7.195312 -16.820312 6.75 -16.78125 C 6.300781 -16.75 5.925781 -16.707031 5.625 -16.65625 L 5.625 -9.625 L 6.203125 -9.625 C 6.804688 -9.625 7.300781 -9.632812 7.6875 -9.65625 C 8.082031 -9.6875 8.398438 -9.734375 8.640625 -9.796875 C 8.878906 -9.859375 9.0625 -9.9375 9.1875 -10.03125 C 9.320312 -10.125 9.4375 -10.238281 9.53125 -10.375 C 9.695312 -10.65625 9.835938 -10.9375 9.953125 -11.21875 C 10.066406 -11.507812 10.175781 -11.867188 10.28125 -12.296875 L 11.15625 -12.296875 L 11.15625 -5.609375 L 10.28125 -5.609375 C 10.15625 -6.054688 10.035156 -6.4375 9.921875 -6.75 C 9.816406 -7.0625 9.664062 -7.398438 9.46875 -7.765625 C 9.382812 -7.921875 9.289062 -8.039062 9.1875 -8.125 C 9.082031 -8.207031 8.914062 -8.273438 8.6875 -8.328125 C 8.46875 -8.378906 8.15625 -8.410156 7.75 -8.421875 C 7.351562 -8.429688 6.835938 -8.4375 6.203125 -8.4375 L 5.625 -8.4375 L 5.625 -2.59375 C 5.625 -2.269531 5.632812 -2.015625 5.65625 -1.828125 C 5.675781 -1.648438 5.710938 -1.507812 5.765625 -1.40625 C 5.828125 -1.300781 5.910156 -1.222656 6.015625 -1.171875 C 6.117188 -1.128906 6.269531 -1.09375 6.46875 -1.0625 L 8 -0.796875 L 8 0 L 0.796875 0 Z M 0.796875 -0.796875 "/></g></g></g><g clip-path="url(#f70a09b38b)"><g clip-path="url(#29223bc459)"><path fill="#a6a6a6" d="M 458.871094 87.730469 L 441.121094 87.730469 L 441.121094 72.199219 L 458.871094 72.199219 Z M 458.871094 87.730469 " fill-opacity="1" fill-rule="nonzero"/></g></g><g clip-path="url(#6c06637063)"><g clip-path="url(#713d40181d)"><path fill="#a6a6a6" d="M 441.125 151.570312 L 458.875 151.570312 L 458.875 167.101562 L 441.125 167.101562 Z M 441.125 151.570312 " fill-opacity="1" fill-rule="nonzero"/></g></g><g fill="#000000" fill-opacity="1"><g transform="translate(355.975149, 52.820566)"><g><path d="M 0.796875 -0.796875 L 1.96875 -1.03125 C 2.125 -1.050781 2.253906 -1.085938 2.359375 -1.140625 C 2.460938 -1.191406 2.546875 -1.269531 2.609375 -1.375 C 2.679688 -1.476562 2.726562 -1.625 2.75 -1.8125 C 2.78125 -2.007812 2.796875 -2.269531 2.796875 -2.59375 L 2.796875 -15.421875 C 2.796875 -15.742188 2.78125 -16 2.75 -16.1875 C 2.726562 -16.382812 2.679688 -16.535156 2.609375 -16.640625 C 2.546875 -16.742188 2.460938 -16.816406 2.359375 -16.859375 C 2.253906 -16.898438 2.125 -16.9375 1.96875 -16.96875 L 0.796875 -17.203125 L 0.796875 -17.984375 L 8.359375 -17.984375 C 10.453125 -17.984375 11.988281 -17.601562 12.96875 -16.84375 C 13.945312 -16.082031 14.4375 -14.941406 14.4375 -13.421875 C 14.4375 -12.453125 14.082031 -11.5625 13.375 -10.75 C 12.675781 -9.9375 11.648438 -9.328125 10.296875 -8.921875 L 10.296875 -8.84375 C 10.648438 -8.238281 11.023438 -7.613281 11.421875 -6.96875 C 11.816406 -6.320312 12.21875 -5.6875 12.625 -5.0625 C 13.03125 -4.4375 13.4375 -3.832031 13.84375 -3.25 C 14.25 -2.675781 14.632812 -2.15625 15 -1.6875 C 15.132812 -1.5 15.289062 -1.351562 15.46875 -1.25 C 15.65625 -1.15625 15.945312 -1.054688 16.34375 -0.953125 L 16.921875 -0.796875 L 16.921875 0 L 12.96875 0 C 11.988281 -1.25 11.066406 -2.5625 10.203125 -3.9375 C 9.335938 -5.320312 8.550781 -6.71875 7.84375 -8.125 L 5.578125 -8.125 L 5.578125 -2.59375 C 5.578125 -2.269531 5.585938 -2.007812 5.609375 -1.8125 C 5.640625 -1.625 5.6875 -1.476562 5.75 -1.375 C 5.8125 -1.269531 5.894531 -1.195312 6 -1.15625 C 6.113281 -1.113281 6.269531 -1.070312 6.46875 -1.03125 L 7.703125 -0.796875 L 7.703125 0 L 0.796875 0 Z M 7.140625 -9.3125 C 8.691406 -9.3125 9.804688 -9.613281 10.484375 -10.21875 C 11.160156 -10.832031 11.5 -11.8125 11.5 -13.15625 C 11.5 -13.957031 11.425781 -14.597656 11.28125 -15.078125 C 11.144531 -15.566406 10.929688 -15.9375 10.640625 -16.1875 C 10.359375 -16.445312 10 -16.617188 9.5625 -16.703125 C 9.125 -16.796875 8.609375 -16.84375 8.015625 -16.84375 C 7.441406 -16.84375 6.953125 -16.820312 6.546875 -16.78125 C 6.140625 -16.75 5.816406 -16.707031 5.578125 -16.65625 L 5.578125 -9.421875 C 5.710938 -9.398438 5.878906 -9.382812 6.078125 -9.375 C 6.210938 -9.351562 6.375 -9.335938 6.5625 -9.328125 C 6.757812 -9.316406 6.953125 -9.3125 7.140625 -9.3125 Z M 7.140625 -9.3125 "/></g></g></g><g fill="#000000" fill-opacity="1"><g transform="translate(372.891012, 52.820566)"><g><path d="M 3.609375 -15.9375 C 3.109375 -15.9375 2.6875 -16.109375 2.34375 -16.453125 C 2.007812 -16.796875 1.84375 -17.1875 1.84375 -17.625 C 1.84375 -18.09375 2.007812 -18.488281 2.34375 -18.8125 C 2.6875 -19.144531 3.109375 -19.3125 3.609375 -19.3125 C 4.085938 -19.3125 4.492188 -19.144531 4.828125 -18.8125 C 5.171875 -18.488281 5.34375 -18.09375 5.34375 -17.625 C 5.34375 -17.1875 5.171875 -16.796875 4.828125 -16.453125 C 4.492188 -16.109375 4.085938 -15.9375 3.609375 -15.9375 Z M 0.65625 -0.78125 L 1.71875 -1.0625 C 1.976562 -1.132812 2.15625 -1.25 2.25 -1.40625 C 2.351562 -1.570312 2.40625 -1.90625 2.40625 -2.40625 L 2.40625 -10.453125 C 2.40625 -10.710938 2.394531 -10.914062 2.375 -11.0625 C 2.363281 -11.21875 2.328125 -11.34375 2.265625 -11.4375 C 2.210938 -11.53125 2.132812 -11.601562 2.03125 -11.65625 C 1.925781 -11.707031 1.796875 -11.773438 1.640625 -11.859375 L 0.65625 -12.359375 L 0.65625 -13.03125 L 4.9375 -13.578125 L 5.1875 -13.421875 C 5.15625 -13.210938 5.125 -12.960938 5.09375 -12.671875 C 5.039062 -12.160156 5.015625 -11.441406 5.015625 -10.515625 L 5.015625 -2.40625 C 5.015625 -2.132812 5.019531 -1.914062 5.03125 -1.75 C 5.050781 -1.582031 5.085938 -1.457031 5.140625 -1.375 C 5.191406 -1.289062 5.257812 -1.222656 5.34375 -1.171875 C 5.425781 -1.128906 5.539062 -1.09375 5.6875 -1.0625 L 6.75 -0.78125 L 6.75 0 L 0.65625 0 Z M 0.65625 -0.78125 "/></g></g></g><g fill="#000000" fill-opacity="1"><g transform="translate(380.129552, 52.820566)"><g><path d="M 4.9375 0.3125 C 4.1875 0.3125 3.46875 0.265625 2.78125 0.171875 C 2.101562 0.078125 1.503906 -0.0664062 0.984375 -0.265625 L 0.859375 -4.125 L 1.6875 -4.125 C 1.914062 -3.625 2.101562 -3.203125 2.25 -2.859375 C 2.394531 -2.523438 2.625 -2.171875 2.9375 -1.796875 C 3.175781 -1.492188 3.453125 -1.25 3.765625 -1.0625 C 4.085938 -0.882812 4.5625 -0.796875 5.1875 -0.796875 C 5.988281 -0.796875 6.640625 -0.984375 7.140625 -1.359375 C 7.640625 -1.734375 7.890625 -2.257812 7.890625 -2.9375 C 7.890625 -3.28125 7.828125 -3.582031 7.703125 -3.84375 C 7.585938 -4.101562 7.40625 -4.335938 7.15625 -4.546875 C 6.90625 -4.753906 6.585938 -4.953125 6.203125 -5.140625 C 5.816406 -5.328125 5.359375 -5.523438 4.828125 -5.734375 C 4.253906 -5.960938 3.734375 -6.203125 3.265625 -6.453125 C 2.796875 -6.703125 2.394531 -6.984375 2.0625 -7.296875 C 1.726562 -7.617188 1.460938 -7.976562 1.265625 -8.375 C 1.078125 -8.78125 0.984375 -9.234375 0.984375 -9.734375 C 0.984375 -10.335938 1.109375 -10.875 1.359375 -11.34375 C 1.609375 -11.820312 1.953125 -12.226562 2.390625 -12.5625 C 2.835938 -12.90625 3.359375 -13.164062 3.953125 -13.34375 C 4.554688 -13.53125 5.191406 -13.625 5.859375 -13.625 C 6.585938 -13.625 7.222656 -13.585938 7.765625 -13.515625 C 8.316406 -13.453125 8.816406 -13.332031 9.265625 -13.15625 L 9.375 -9.6875 L 8.59375 -9.6875 C 8.363281 -10.132812 8.144531 -10.519531 7.9375 -10.84375 C 7.726562 -11.175781 7.503906 -11.503906 7.265625 -11.828125 C 7.078125 -12.078125 6.859375 -12.253906 6.609375 -12.359375 C 6.367188 -12.472656 6.015625 -12.53125 5.546875 -12.53125 C 4.679688 -12.53125 4.054688 -12.347656 3.671875 -11.984375 C 3.285156 -11.617188 3.09375 -11.109375 3.09375 -10.453125 C 3.09375 -9.953125 3.320312 -9.507812 3.78125 -9.125 C 4.25 -8.75 5.03125 -8.351562 6.125 -7.9375 C 6.726562 -7.695312 7.28125 -7.453125 7.78125 -7.203125 C 8.28125 -6.953125 8.707031 -6.671875 9.0625 -6.359375 C 9.425781 -6.046875 9.703125 -5.695312 9.890625 -5.3125 C 10.078125 -4.9375 10.171875 -4.5 10.171875 -4 C 10.171875 -3.394531 10.050781 -2.828125 9.8125 -2.296875 C 9.570312 -1.765625 9.222656 -1.304688 8.765625 -0.921875 C 8.316406 -0.535156 7.769531 -0.234375 7.125 -0.015625 C 6.476562 0.203125 5.75 0.3125 4.9375 0.3125 Z M 4.9375 0.3125 "/></g></g></g><g fill="#000000" fill-opacity="1"><g transform="translate(391.15599, 52.820566)"><g><path d="M 0.65625 -0.78125 L 1.71875 -1.0625 C 1.976562 -1.132812 2.15625 -1.25 2.25 -1.40625 C 2.351562 -1.570312 2.40625 -1.90625 2.40625 -2.40625 L 2.40625 -16.8125 C 2.40625 -17.070312 2.390625 -17.273438 2.359375 -17.421875 C 2.335938 -17.566406 2.296875 -17.6875 2.234375 -17.78125 C 2.179688 -17.882812 2.109375 -17.960938 2.015625 -18.015625 C 1.921875 -18.066406 1.796875 -18.125 1.640625 -18.1875 L 0.515625 -18.71875 L 0.515625 -19.4375 L 4.9375 -19.859375 L 5.1875 -19.640625 C 5.15625 -19.378906 5.125 -19.097656 5.09375 -18.796875 C 5.039062 -18.234375 5.015625 -17.503906 5.015625 -16.609375 L 5.015625 -2.40625 C 5.015625 -2.132812 5.019531 -1.914062 5.03125 -1.75 C 5.050781 -1.582031 5.085938 -1.457031 5.140625 -1.375 C 5.191406 -1.289062 5.257812 -1.222656 5.34375 -1.171875 C 5.425781 -1.128906 5.539062 -1.09375 5.6875 -1.0625 L 6.75 -0.78125 L 6.75 0 L 0.65625 0 Z M 10.59375 0 C 10.09375 -0.53125 9.617188 -1.054688 9.171875 -1.578125 C 8.734375 -2.097656 8.304688 -2.617188 7.890625 -3.140625 C 7.472656 -3.671875 7.066406 -4.210938 6.671875 -4.765625 C 6.273438 -5.328125 5.867188 -5.921875 5.453125 -6.546875 L 5.453125 -6.921875 L 8.125 -9.84375 C 8.65625 -10.445312 9.023438 -10.878906 9.234375 -11.140625 C 9.441406 -11.410156 9.546875 -11.625 9.546875 -11.78125 C 9.546875 -12.039062 9.335938 -12.234375 8.921875 -12.359375 L 8.53125 -12.484375 L 8.53125 -13.203125 L 13.390625 -13.203125 L 13.390625 -12.453125 L 12.59375 -12.203125 C 12.226562 -12.078125 11.867188 -11.90625 11.515625 -11.6875 C 11.171875 -11.476562 10.738281 -11.113281 10.21875 -10.59375 L 7.578125 -7.734375 C 8.335938 -6.609375 9.117188 -5.523438 9.921875 -4.484375 C 10.734375 -3.453125 11.585938 -2.457031 12.484375 -1.5 C 12.609375 -1.363281 12.71875 -1.265625 12.8125 -1.203125 C 12.914062 -1.140625 13.039062 -1.09375 13.1875 -1.0625 L 14.0625 -0.78125 L 14.0625 0 Z M 10.59375 0 "/></g></g></g><g fill="#000000" fill-opacity="1"><g transform="translate(405.217955, 52.820566)"><g/></g></g><g fill="#000000" fill-opacity="1"><g transform="translate(411.730041, 52.820566)"><g><path d="M 0.796875 -0.796875 L 1.96875 -1.03125 C 2.125 -1.050781 2.253906 -1.085938 2.359375 -1.140625 C 2.460938 -1.191406 2.546875 -1.269531 2.609375 -1.375 C 2.679688 -1.476562 2.726562 -1.625 2.75 -1.8125 C 2.78125 -2.007812 2.796875 -2.269531 2.796875 -2.59375 L 2.796875 -15.421875 C 2.796875 -15.742188 2.78125 -16 2.75 -16.1875 C 2.726562 -16.382812 2.679688 -16.535156 2.609375 -16.640625 C 2.546875 -16.742188 2.460938 -16.816406 2.359375 -16.859375 C 2.253906 -16.898438 2.125 -16.9375 1.96875 -16.96875 L 0.796875 -17.203125 L 0.796875 -17.984375 L 8.359375 -17.984375 C 10.453125 -17.984375 11.988281 -17.601562 12.96875 -16.84375 C 13.945312 -16.082031 14.4375 -14.941406 14.4375 -13.421875 C 14.4375 -12.453125 14.082031 -11.5625 13.375 -10.75 C 12.675781 -9.9375 11.648438 -9.328125 10.296875 -8.921875 L 10.296875 -8.84375 C 10.648438 -8.238281 11.023438 -7.613281 11.421875 -6.96875 C 11.816406 -6.320312 12.21875 -5.6875 12.625 -5.0625 C 13.03125 -4.4375 13.4375 -3.832031 13.84375 -3.25 C 14.25 -2.675781 14.632812 -2.15625 15 -1.6875 C 15.132812 -1.5 15.289062 -1.351562 15.46875 -1.25 C 15.65625 -1.15625 15.945312 -1.054688 16.34375 -0.953125 L 16.921875 -0.796875 L 16.921875 0 L 12.96875 0 C 11.988281 -1.25 11.066406 -2.5625 10.203125 -3.9375 C 9.335938 -5.320312 8.550781 -6.71875 7.84375 -8.125 L 5.578125 -8.125 L 5.578125 -2.59375 C 5.578125 -2.269531 5.585938 -2.007812 5.609375 -1.8125 C 5.640625 -1.625 5.6875 -1.476562 5.75 -1.375 C 5.8125 -1.269531 5.894531 -1.195312 6 -1.15625 C 6.113281 -1.113281 6.269531 -1.070312 6.46875 -1.03125 L 7.703125 -0.796875 L 7.703125 0 L 0.796875 0 Z M 7.140625 -9.3125 C 8.691406 -9.3125 9.804688 -9.613281 10.484375 -10.21875 C 11.160156 -10.832031 11.5 -11.8125 11.5 -13.15625 C 11.5 -13.957031 11.425781 -14.597656 11.28125 -15.078125 C 11.144531 -15.566406 10.929688 -15.9375 10.640625 -16.1875 C 10.359375 -16.445312 10 -16.617188 9.5625 -16.703125 C 9.125 -16.796875 8.609375 -16.84375 8.015625 -16.84375 C 7.441406 -16.84375 6.953125 -16.820312 6.546875 -16.78125 C 6.140625 -16.75 5.816406 -16.707031 5.578125 -16.65625 L 5.578125 -9.421875 C 5.710938 -9.398438 5.878906 -9.382812 6.078125 -9.375 C 6.210938 -9.351562 6.375 -9.335938 6.5625 -9.328125 C 6.757812 -9.316406 6.953125 -9.3125 7.140625 -9.3125 Z M 7.140625 -9.3125 "/></g></g></g><g fill="#000000" fill-opacity="1"><g transform="translate(428.645905, 52.820566)"><g><path d="M 4.640625 0.34375 C 3.429688 0.34375 2.472656 0.0507812 1.765625 -0.53125 C 1.054688 -1.125 0.703125 -1.984375 0.703125 -3.109375 C 0.703125 -4.179688 1.078125 -5.007812 1.828125 -5.59375 C 2.578125 -6.1875 3.71875 -6.65625 5.25 -7 L 8.28125 -7.6875 L 8.28125 -10.09375 C 8.28125 -10.53125 8.253906 -10.90625 8.203125 -11.21875 C 8.148438 -11.539062 8.039062 -11.804688 7.875 -12.015625 C 7.707031 -12.222656 7.457031 -12.375 7.125 -12.46875 C 6.800781 -12.5625 6.363281 -12.609375 5.8125 -12.609375 C 5.238281 -12.609375 4.867188 -12.535156 4.703125 -12.390625 C 4.546875 -12.242188 4.441406 -11.972656 4.390625 -11.578125 C 4.316406 -11.078125 4.1875 -10.660156 4 -10.328125 C 3.8125 -10.003906 3.421875 -9.84375 2.828125 -9.84375 C 2.304688 -9.84375 1.945312 -9.96875 1.75 -10.21875 C 1.550781 -10.476562 1.453125 -10.785156 1.453125 -11.140625 C 1.453125 -11.566406 1.601562 -11.9375 1.90625 -12.25 C 2.207031 -12.5625 2.597656 -12.820312 3.078125 -13.03125 C 3.566406 -13.238281 4.097656 -13.390625 4.671875 -13.484375 C 5.242188 -13.578125 5.804688 -13.625 6.359375 -13.625 C 7.929688 -13.625 9.078125 -13.34375 9.796875 -12.78125 C 10.515625 -12.21875 10.875 -11.375 10.875 -10.25 L 10.875 -2.59375 C 10.875 -2.25 10.925781 -1.972656 11.03125 -1.765625 C 11.132812 -1.554688 11.316406 -1.382812 11.578125 -1.25 C 11.710938 -1.15625 11.882812 -1.09375 12.09375 -1.0625 C 12.300781 -1.039062 12.550781 -1.023438 12.84375 -1.015625 L 12.84375 -0.28125 C 12.632812 -0.144531 12.3125 -0.015625 11.875 0.109375 C 11.445312 0.242188 11.007812 0.3125 10.5625 0.3125 C 9.90625 0.3125 9.398438 0.171875 9.046875 -0.109375 C 8.691406 -0.398438 8.472656 -0.757812 8.390625 -1.1875 L 8.25 -1.1875 C 7.9375 -0.757812 7.453125 -0.394531 6.796875 -0.09375 C 6.140625 0.195312 5.421875 0.34375 4.640625 0.34375 Z M 5.765625 -1.140625 C 6.390625 -1.140625 6.914062 -1.257812 7.34375 -1.5 C 7.78125 -1.75 8.09375 -2.035156 8.28125 -2.359375 L 8.28125 -6.359375 L 6.28125 -6.15625 C 5.34375 -6.0625 4.617188 -5.804688 4.109375 -5.390625 C 3.597656 -4.984375 3.34375 -4.296875 3.34375 -3.328125 C 3.34375 -2.566406 3.554688 -2.007812 3.984375 -1.65625 C 4.410156 -1.3125 5.003906 -1.140625 5.765625 -1.140625 Z M 5.765625 -1.140625 "/></g></g></g><g fill="#000000" fill-opacity="1"><g transform="translate(441.877636, 52.820566)"><g><path d="M 5.09375 0.3125 C 4.675781 0.3125 4.285156 0.265625 3.921875 0.171875 C 3.554688 0.078125 3.238281 -0.0820312 2.96875 -0.3125 C 2.695312 -0.539062 2.476562 -0.820312 2.3125 -1.15625 C 2.15625 -1.488281 2.078125 -1.90625 2.078125 -2.40625 L 2.078125 -11.828125 L 0.265625 -11.828125 L 0.265625 -12.59375 C 1.160156 -12.832031 1.863281 -13.257812 2.375 -13.875 C 2.882812 -14.5 3.3125 -15.34375 3.65625 -16.40625 L 4.671875 -16.40625 L 4.671875 -13.203125 L 8.40625 -13.203125 L 8.078125 -11.828125 L 4.671875 -11.828125 L 4.671875 -2.796875 C 4.671875 -1.722656 5.257812 -1.1875 6.4375 -1.1875 C 6.8125 -1.1875 7.179688 -1.222656 7.546875 -1.296875 C 7.910156 -1.378906 8.222656 -1.46875 8.484375 -1.5625 L 8.484375 -0.734375 C 8.242188 -0.503906 7.835938 -0.269531 7.265625 -0.03125 C 6.691406 0.195312 5.96875 0.3125 5.09375 0.3125 Z M 5.09375 0.3125 "/></g></g></g><g fill="#000000" fill-opacity="1"><g transform="translate(450.67285, 52.820566)"><g><path d="M 3.609375 -15.9375 C 3.109375 -15.9375 2.6875 -16.109375 2.34375 -16.453125 C 2.007812 -16.796875 1.84375 -17.1875 1.84375 -17.625 C 1.84375 -18.09375 2.007812 -18.488281 2.34375 -18.8125 C 2.6875 -19.144531 3.109375 -19.3125 3.609375 -19.3125 C 4.085938 -19.3125 4.492188 -19.144531 4.828125 -18.8125 C 5.171875 -18.488281 5.34375 -18.09375 5.34375 -17.625 C 5.34375 -17.1875 5.171875 -16.796875 4.828125 -16.453125 C 4.492188 -16.109375 4.085938 -15.9375 3.609375 -15.9375 Z M 0.65625 -0.78125 L 1.71875 -1.0625 C 1.976562 -1.132812 2.15625 -1.25 2.25 -1.40625 C 2.351562 -1.570312 2.40625 -1.90625 2.40625 -2.40625 L 2.40625 -10.453125 C 2.40625 -10.710938 2.394531 -10.914062 2.375 -11.0625 C 2.363281 -11.21875 2.328125 -11.34375 2.265625 -11.4375 C 2.210938 -11.53125 2.132812 -11.601562 2.03125 -11.65625 C 1.925781 -11.707031 1.796875 -11.773438 1.640625 -11.859375 L 0.65625 -12.359375 L 0.65625 -13.03125 L 4.9375 -13.578125 L 5.1875 -13.421875 C 5.15625 -13.210938 5.125 -12.960938 5.09375 -12.671875 C 5.039062 -12.160156 5.015625 -11.441406 5.015625 -10.515625 L 5.015625 -2.40625 C 5.015625 -2.132812 5.019531 -1.914062 5.03125 -1.75 C 5.050781 -1.582031 5.085938 -1.457031 5.140625 -1.375 C 5.191406 -1.289062 5.257812 -1.222656 5.34375 -1.171875 C 5.425781 -1.128906 5.539062 -1.09375 5.6875 -1.0625 L 6.75 -0.78125 L 6.75 0 L 0.65625 0 Z M 0.65625 -0.78125 "/></g></g></g><g fill="#000000" fill-opacity="1"><g transform="translate(457.91139, 52.820566)"><g><path d="M 0.65625 -0.78125 L 1.71875 -1.0625 C 1.976562 -1.132812 2.15625 -1.25 2.25 -1.40625 C 2.351562 -1.570312 2.40625 -1.90625 2.40625 -2.40625 L 2.40625 -10.453125 C 2.40625 -10.710938 2.394531 -10.914062 2.375 -11.0625 C 2.363281 -11.21875 2.328125 -11.34375 2.265625 -11.4375 C 2.210938 -11.53125 2.132812 -11.601562 2.03125 -11.65625 C 1.925781 -11.707031 1.796875 -11.773438 1.640625 -11.859375 L 0.65625 -12.359375 L 0.65625 -13.03125 L 4.75 -13.578125 L 5.015625 -13.421875 L 4.875 -11.96875 L 4.984375 -11.96875 C 5.304688 -12.175781 5.660156 -12.378906 6.046875 -12.578125 C 6.441406 -12.773438 6.851562 -12.945312 7.28125 -13.09375 C 7.71875 -13.238281 8.15625 -13.359375 8.59375 -13.453125 C 9.039062 -13.546875 9.472656 -13.59375 9.890625 -13.59375 C 11.203125 -13.59375 12.117188 -13.3125 12.640625 -12.75 C 13.160156 -12.1875 13.421875 -11.316406 13.421875 -10.140625 L 13.421875 -2.40625 C 13.421875 -1.90625 13.472656 -1.570312 13.578125 -1.40625 C 13.691406 -1.25 13.875 -1.132812 14.125 -1.0625 L 15.15625 -0.78125 L 15.15625 0 L 9.078125 0 L 9.078125 -0.78125 L 10.140625 -1.0625 C 10.265625 -1.09375 10.367188 -1.128906 10.453125 -1.171875 C 10.546875 -1.222656 10.617188 -1.289062 10.671875 -1.375 C 10.722656 -1.457031 10.757812 -1.582031 10.78125 -1.75 C 10.8125 -1.914062 10.828125 -2.132812 10.828125 -2.40625 L 10.828125 -9.421875 C 10.828125 -10.335938 10.65625 -10.976562 10.3125 -11.34375 C 9.976562 -11.707031 9.394531 -11.890625 8.5625 -11.890625 C 8.25 -11.890625 7.921875 -11.859375 7.578125 -11.796875 C 7.234375 -11.734375 6.90625 -11.660156 6.59375 -11.578125 C 6.28125 -11.503906 5.984375 -11.421875 5.703125 -11.328125 C 5.429688 -11.234375 5.203125 -11.148438 5.015625 -11.078125 L 5.015625 -2.40625 C 5.015625 -2.132812 5.019531 -1.914062 5.03125 -1.75 C 5.050781 -1.582031 5.085938 -1.457031 5.140625 -1.375 C 5.191406 -1.289062 5.257812 -1.222656 5.34375 -1.171875 C 5.425781 -1.128906 5.539062 -1.09375 5.6875 -1.0625 L 6.75 -0.78125 L 6.75 0 L 0.65625 0 Z M 0.65625 -0.78125 "/></g></g></g><g fill="#000000" fill-opacity="1"><g transform="translate(473.607862, 52.820566)"><g><path d="M 5.453125 5.8125 C 3.679688 5.8125 2.296875 5.523438 1.296875 4.953125 C 0.304688 4.378906 -0.1875 3.628906 -0.1875 2.703125 C -0.1875 2.054688 0.078125 1.460938 0.609375 0.921875 C 1.140625 0.390625 1.867188 -0.0351562 2.796875 -0.359375 L 2.796875 -0.46875 C 2.347656 -0.625 1.945312 -0.867188 1.59375 -1.203125 C 1.238281 -1.546875 1.0625 -2.019531 1.0625 -2.625 C 1.0625 -2.988281 1.125 -3.316406 1.25 -3.609375 C 1.382812 -3.898438 1.546875 -4.160156 1.734375 -4.390625 C 1.929688 -4.628906 2.148438 -4.84375 2.390625 -5.03125 C 2.628906 -5.226562 2.851562 -5.398438 3.0625 -5.546875 L 3.0625 -5.65625 C 2.800781 -5.78125 2.535156 -5.945312 2.265625 -6.15625 C 2.003906 -6.375 1.769531 -6.632812 1.5625 -6.9375 C 1.351562 -7.238281 1.179688 -7.570312 1.046875 -7.9375 C 0.921875 -8.300781 0.859375 -8.679688 0.859375 -9.078125 C 0.859375 -9.835938 1.007812 -10.503906 1.3125 -11.078125 C 1.613281 -11.648438 2.007812 -12.117188 2.5 -12.484375 C 3 -12.859375 3.550781 -13.132812 4.15625 -13.3125 C 4.757812 -13.5 5.375 -13.59375 6 -13.59375 C 6.519531 -13.59375 6.992188 -13.550781 7.421875 -13.46875 C 7.859375 -13.394531 8.300781 -13.265625 8.75 -13.078125 C 9.195312 -13.460938 9.703125 -13.789062 10.265625 -14.0625 C 10.828125 -14.34375 11.398438 -14.484375 11.984375 -14.484375 C 12.390625 -14.484375 12.726562 -14.378906 13 -14.171875 C 13.28125 -13.960938 13.421875 -13.660156 13.421875 -13.265625 C 13.421875 -12.929688 13.320312 -12.632812 13.125 -12.375 C 12.9375 -12.113281 12.671875 -11.984375 12.328125 -11.984375 C 11.984375 -11.984375 11.726562 -12.050781 11.5625 -12.1875 C 11.394531 -12.332031 11.257812 -12.523438 11.15625 -12.765625 C 11.070312 -12.953125 10.84375 -13 10.46875 -12.90625 C 10.101562 -12.8125 9.742188 -12.671875 9.390625 -12.484375 L 9.390625 -12.40625 C 9.929688 -12.09375 10.359375 -11.679688 10.671875 -11.171875 C 10.992188 -10.660156 11.15625 -10.039062 11.15625 -9.3125 C 11.15625 -8.550781 11.003906 -7.894531 10.703125 -7.34375 C 10.398438 -6.789062 10 -6.332031 9.5 -5.96875 C 9.007812 -5.601562 8.457031 -5.332031 7.84375 -5.15625 C 7.226562 -4.988281 6.613281 -4.90625 6 -4.90625 C 5.5625 -4.90625 5.195312 -4.9375 4.90625 -5 C 4.613281 -5.0625 4.300781 -5.160156 3.96875 -5.296875 C 3.757812 -5.160156 3.554688 -4.960938 3.359375 -4.703125 C 3.160156 -4.453125 3.0625 -4.171875 3.0625 -3.859375 C 3.0625 -3.535156 3.191406 -3.253906 3.453125 -3.015625 C 3.722656 -2.785156 4.140625 -2.671875 4.703125 -2.671875 L 8.796875 -2.671875 C 9.347656 -2.671875 9.859375 -2.617188 10.328125 -2.515625 C 10.796875 -2.410156 11.191406 -2.234375 11.515625 -1.984375 C 11.847656 -1.734375 12.101562 -1.394531 12.28125 -0.96875 C 12.46875 -0.550781 12.5625 -0.0195312 12.5625 0.625 C 12.5625 1.125 12.441406 1.675781 12.203125 2.28125 C 11.972656 2.882812 11.582031 3.445312 11.03125 3.96875 C 10.488281 4.488281 9.757812 4.925781 8.84375 5.28125 C 7.925781 5.632812 6.796875 5.8125 5.453125 5.8125 Z M 6 -5.96875 C 6.820312 -5.96875 7.445312 -6.191406 7.875 -6.640625 C 8.300781 -7.085938 8.515625 -7.875 8.515625 -9 C 8.515625 -10.28125 8.300781 -11.191406 7.875 -11.734375 C 7.445312 -12.285156 6.820312 -12.5625 6 -12.5625 C 5.1875 -12.5625 4.566406 -12.316406 4.140625 -11.828125 C 3.710938 -11.347656 3.5 -10.535156 3.5 -9.390625 C 3.5 -8.128906 3.710938 -7.242188 4.140625 -6.734375 C 4.566406 -6.222656 5.1875 -5.96875 6 -5.96875 Z M 5.890625 4.71875 C 6.535156 4.71875 7.144531 4.640625 7.71875 4.484375 C 8.300781 4.328125 8.804688 4.113281 9.234375 3.84375 C 9.671875 3.582031 10.015625 3.265625 10.265625 2.890625 C 10.515625 2.515625 10.640625 2.113281 10.640625 1.6875 C 10.640625 1.09375 10.484375 0.609375 10.171875 0.234375 C 9.859375 -0.128906 9.238281 -0.3125 8.3125 -0.3125 L 4.3125 -0.3125 C 4.101562 -0.257812 3.875 -0.160156 3.625 -0.015625 C 3.382812 0.128906 3.160156 0.3125 2.953125 0.53125 C 2.742188 0.757812 2.570312 1.019531 2.4375 1.3125 C 2.300781 1.613281 2.234375 1.9375 2.234375 2.28125 C 2.234375 3.082031 2.53125 3.6875 3.125 4.09375 C 3.71875 4.507812 4.640625 4.71875 5.890625 4.71875 Z M 5.890625 4.71875 "/></g></g></g><g fill="#000000" fill-opacity="1"><g transform="translate(486.787705, 52.820566)"><g><path d="M 1.875 -12.515625 C 1.875 -13.171875 2.023438 -13.628906 2.328125 -13.890625 C 2.640625 -14.148438 3.015625 -14.28125 3.453125 -14.28125 C 3.878906 -14.28125 4.257812 -14.148438 4.59375 -13.890625 C 4.925781 -13.628906 5.09375 -13.171875 5.09375 -12.515625 C 5.09375 -11.890625 4.925781 -11.4375 4.59375 -11.15625 C 4.257812 -10.882812 3.878906 -10.75 3.453125 -10.75 C 3.015625 -10.75 2.640625 -10.882812 2.328125 -11.15625 C 2.023438 -11.4375 1.875 -11.890625 1.875 -12.515625 Z M 1.875 -1.40625 C 1.875 -2.039062 2.023438 -2.488281 2.328125 -2.75 C 2.640625 -3.007812 3.015625 -3.140625 3.453125 -3.140625 C 3.878906 -3.140625 4.257812 -3.007812 4.59375 -2.75 C 4.925781 -2.488281 5.09375 -2.039062 5.09375 -1.40625 C 5.09375 -0.78125 4.925781 -0.328125 4.59375 -0.046875 C 4.257812 0.222656 3.878906 0.359375 3.453125 0.359375 C 3.015625 0.359375 2.640625 0.222656 2.328125 -0.046875 C 2.023438 -0.328125 1.875 -0.78125 1.875 -1.40625 Z M 1.875 -1.40625 "/></g></g></g><g fill="#ffd700" fill-opacity="1"><g transform="translate(514.193132, 51.42996)"><g><path d="M 9.46875 0.3125 C 8.238281 0.3125 7.109375 0.140625 6.078125 -0.203125 C 5.054688 -0.554688 4.164062 -1.097656 3.40625 -1.828125 C 2.65625 -2.566406 2.066406 -3.515625 1.640625 -4.671875 C 1.222656 -5.828125 1.015625 -7.21875 1.015625 -8.84375 C 1.015625 -10.570312 1.253906 -12.035156 1.734375 -13.234375 C 2.222656 -14.441406 2.878906 -15.414062 3.703125 -16.15625 C 4.523438 -16.90625 5.484375 -17.445312 6.578125 -17.78125 C 7.679688 -18.125 8.84375 -18.296875 10.0625 -18.296875 C 11.070312 -18.296875 12 -18.234375 12.84375 -18.109375 C 13.695312 -17.992188 14.40625 -17.847656 14.96875 -17.671875 L 15.203125 -12.53125 L 14.296875 -12.53125 C 14.054688 -13.1875 13.785156 -13.835938 13.484375 -14.484375 C 13.191406 -15.140625 12.898438 -15.691406 12.609375 -16.140625 C 12.472656 -16.347656 12.332031 -16.507812 12.1875 -16.625 C 12.039062 -16.75 11.863281 -16.847656 11.65625 -16.921875 C 11.445312 -16.992188 11.191406 -17.039062 10.890625 -17.0625 C 10.585938 -17.09375 10.210938 -17.109375 9.765625 -17.109375 C 8.828125 -17.109375 8 -16.976562 7.28125 -16.71875 C 6.5625 -16.46875 5.960938 -16.039062 5.484375 -15.4375 C 5.015625 -14.832031 4.648438 -14.03125 4.390625 -13.03125 C 4.140625 -12.039062 4.015625 -10.8125 4.015625 -9.34375 C 4.015625 -7.75 4.128906 -6.414062 4.359375 -5.34375 C 4.585938 -4.269531 4.925781 -3.398438 5.375 -2.734375 C 5.820312 -2.066406 6.382812 -1.585938 7.0625 -1.296875 C 7.738281 -1.015625 8.515625 -0.875 9.390625 -0.875 C 9.984375 -0.875 10.472656 -0.910156 10.859375 -0.984375 C 11.242188 -1.054688 11.566406 -1.15625 11.828125 -1.28125 C 12.085938 -1.414062 12.300781 -1.570312 12.46875 -1.75 C 12.632812 -1.9375 12.796875 -2.140625 12.953125 -2.359375 C 13.117188 -2.640625 13.269531 -2.894531 13.40625 -3.125 C 13.550781 -3.363281 13.679688 -3.597656 13.796875 -3.828125 C 13.910156 -4.054688 14.019531 -4.304688 14.125 -4.578125 C 14.226562 -4.847656 14.335938 -5.15625 14.453125 -5.5 L 15.28125 -5.5 L 15.03125 -0.828125 C 14.425781 -0.535156 13.628906 -0.269531 12.640625 -0.03125 C 11.648438 0.195312 10.59375 0.3125 9.46875 0.3125 Z M 9.46875 0.3125 "/></g></g></g><g fill="#ffd700" fill-opacity="1"><g transform="translate(530.53821, 51.42996)"><g><path d="M 1.09375 -8.515625 L 6.546875 -8.515625 L 6.3125 -6.59375 L 0.859375 -6.59375 Z M 1.09375 -8.515625 "/></g></g></g><path stroke-linecap="butt" transform="matrix(0.749293, -0.000838162, 0.000838953, 0.75, 15.03633, 43.296923)" fill="none" stroke-linejoin="miter" d="M 0.000847248 2.499939 L 414.402158 2.499511 " stroke="#a6a6a6" stroke-width="5" stroke-opacity="1" stroke-miterlimit="4"/><path stroke-linecap="butt" transform="matrix(0.749291, 0.00172644, -0.00172807, 0.749998, 574.164168, 44.455849)" fill="none" stroke-linejoin="miter" d="M 0.000415154 2.501582 L 414.402573 2.500789 " stroke="#a6a6a6" stroke-width="5" stroke-opacity="1" stroke-miterlimit="4"/></svg>