<svg xmlns="http://www.w3.org/2000/svg" xmlns:xlink="http://www.w3.org/1999/xlink" width="1200" zoomAndPan="magnify" viewBox="0 0 900 225" height="300" preserveAspectRatio="xMidYMid meet" version="1.0"><defs><g/><clipPath id="30269e5234"><path d="M 69.847656 92.394531 L 220.421875 92.394531 L 220.421875 147.195312 L 69.847656 147.195312 Z M 69.847656 92.394531 " clip-rule="nonzero"/></clipPath><clipPath id="66cac79834"><path d="M 222.28125 92.394531 L 372.855469 92.394531 L 372.855469 147.195312 L 222.28125 147.195312 Z M 222.28125 92.394531 " clip-rule="nonzero"/></clipPath><clipPath id="2a6381b0d8"><path d="M 374.714844 92.394531 L 525.285156 92.394531 L 525.285156 147.195312 L 374.714844 147.195312 Z M 374.714844 92.394531 " clip-rule="nonzero"/></clipPath><clipPath id="39b7d6cfc5"><path d="M 527.144531 92.394531 L 677.71875 92.394531 L 677.71875 147.195312 L 527.144531 147.195312 Z M 527.144531 92.394531 " clip-rule="nonzero"/></clipPath><clipPath id="0757aff49d"><path d="M 679.578125 92.394531 L 830.152344 92.394531 L 830.152344 147.195312 L 679.578125 147.195312 Z M 679.578125 92.394531 " clip-rule="nonzero"/></clipPath><clipPath id="fa3e6e567c"><path d="M 441.097656 72.101562 L 458.894531 72.101562 L 458.894531 87.671875 L 441.097656 87.671875 Z M 441.097656 72.101562 " clip-rule="nonzero"/></clipPath><clipPath id="2a518388eb"><path d="M 449.996094 87.671875 L 441.097656 72.101562 L 458.894531 72.101562 L 449.996094 87.671875 " clip-rule="nonzero"/></clipPath><clipPath id="94148bcc01"><path d="M 441.101562 151.671875 L 458.898438 151.671875 L 458.898438 167.242188 L 441.101562 167.242188 Z M 441.101562 151.671875 " clip-rule="nonzero"/></clipPath><clipPath id="3dbe6b8c37"><path d="M 450 151.671875 L 458.898438 167.242188 L 441.101562 167.242188 L 450 151.671875 " clip-rule="nonzero"/></clipPath></defs><g clip-path="url(#30269e5234)"><path fill="#5876b8" d="M 69.847656 92.394531 L 220.421875 92.394531 L 220.421875 147.195312 L 69.847656 147.195312 Z M 69.847656 92.394531 " fill-opacity="1" fill-rule="nonzero"/></g><g clip-path="url(#66cac79834)"><path fill="#578257" d="M 222.28125 92.394531 L 372.855469 92.394531 L 372.855469 147.195312 L 222.28125 147.195312 Z M 222.28125 92.394531 " fill-opacity="1" fill-rule="nonzero"/></g><g clip-path="url(#2a6381b0d8)"><path fill="#ffd700" d="M 374.714844 92.394531 L 525.285156 92.394531 L 525.285156 147.195312 L 374.714844 147.195312 Z M 374.714844 92.394531 " fill-opacity="1" fill-rule="nonzero"/></g><g clip-path="url(#39b7d6cfc5)"><path fill="#f4cc82" d="M 527.144531 92.394531 L 677.71875 92.394531 L 677.71875 147.195312 L 527.144531 147.195312 Z M 527.144531 92.394531 " fill-opacity="1" fill-rule="nonzero"/></g><g clip-path="url(#0757aff49d)"><path fill="#fd9a9a" d="M 679.578125 92.394531 L 830.152344 92.394531 L 830.152344 147.195312 L 679.578125 147.195312 Z M 679.578125 92.394531 " fill-opacity="1" fill-rule="nonzero"/></g><path stroke-linecap="butt" transform="matrix(-0.00000153142, -0.749588, 0.75, -0.00000153226, 882.309035, 194.338156)" fill="none" stroke-linejoin="miter" d="M -0.00225628 2.499411 L 199.117548 2.499818 " stroke="#a6a6a6" stroke-width="5" stroke-opacity="1" stroke-miterlimit="4"/><path stroke-linecap="butt" transform="matrix(0.750111, 0, 0, 0.75, 13.936065, 192.465969)" fill="none" stroke-linejoin="miter" d="M 0.00191302 2.4985 L 1162.840427 2.4985 " stroke="#a6a6a6" stroke-width="5" stroke-opacity="1" stroke-miterlimit="4"/><path stroke-linecap="butt" transform="matrix(0.000000000000000046, -0.749588, 0.75, 0.000000000000000046, 13.935378, 194.338099)" fill="none" stroke-linejoin="miter" d="M -0.00232801 2.497621 L 199.117476 2.497621 " stroke="#a6a6a6" stroke-width="5" stroke-opacity="1" stroke-miterlimit="4"/><g fill="#30519b" fill-opacity="1"><g transform="translate(136.465384, 128.376783)"><g><path d="M 0.03125 -0.8125 L 0.8125 -0.984375 C 0.976562 -1.035156 1.128906 -1.09375 1.265625 -1.15625 C 1.410156 -1.21875 1.546875 -1.328125 1.671875 -1.484375 C 1.804688 -1.640625 1.9375 -1.859375 2.0625 -2.140625 C 2.195312 -2.429688 2.359375 -2.828125 2.546875 -3.328125 L 7.828125 -18.03125 L 9.390625 -18.03125 L 14.9375 -3.046875 C 15.101562 -2.609375 15.25 -2.265625 15.375 -2.015625 C 15.507812 -1.765625 15.640625 -1.566406 15.765625 -1.421875 C 15.898438 -1.285156 16.03125 -1.191406 16.15625 -1.140625 C 16.289062 -1.085938 16.4375 -1.035156 16.59375 -0.984375 L 17.328125 -0.8125 L 17.328125 0 L 10.796875 0 L 10.796875 -0.8125 L 11.53125 -0.984375 C 11.875 -1.078125 12.109375 -1.175781 12.234375 -1.28125 C 12.367188 -1.382812 12.4375 -1.539062 12.4375 -1.75 C 12.4375 -1.9375 12.394531 -2.148438 12.3125 -2.390625 C 12.238281 -2.628906 12.140625 -2.925781 12.015625 -3.28125 L 11 -6.0625 L 4.96875 -6.0625 L 4.03125 -3.28125 C 3.90625 -2.925781 3.816406 -2.648438 3.765625 -2.453125 C 3.710938 -2.253906 3.6875 -2.0625 3.6875 -1.875 C 3.6875 -1.59375 3.765625 -1.390625 3.921875 -1.265625 C 4.078125 -1.148438 4.3125 -1.054688 4.625 -0.984375 L 5.515625 -0.8125 L 5.515625 0 L 0.03125 0 Z M 5.359375 -7.234375 L 10.59375 -7.234375 L 7.984375 -14.5625 L 7.859375 -14.5625 Z M 5.359375 -7.234375 "/></g></g></g><g fill="#326032" fill-opacity="1"><g transform="translate(289.449399, 128.376783)"><g><path d="M 0.8125 -0.8125 L 1.984375 -1.046875 C 2.140625 -1.054688 2.269531 -1.085938 2.375 -1.140625 C 2.476562 -1.191406 2.5625 -1.269531 2.625 -1.375 C 2.695312 -1.476562 2.742188 -1.625 2.765625 -1.8125 C 2.796875 -2.007812 2.8125 -2.269531 2.8125 -2.59375 L 2.8125 -15.453125 C 2.8125 -15.785156 2.796875 -16.046875 2.765625 -16.234375 C 2.742188 -16.421875 2.695312 -16.566406 2.625 -16.671875 C 2.5625 -16.773438 2.476562 -16.847656 2.375 -16.890625 C 2.269531 -16.941406 2.140625 -16.984375 1.984375 -17.015625 L 0.8125 -17.25 L 0.8125 -18.03125 L 7.953125 -18.03125 C 8.929688 -18.03125 9.8125 -17.953125 10.59375 -17.796875 C 11.382812 -17.640625 12.054688 -17.390625 12.609375 -17.046875 C 13.171875 -16.710938 13.601562 -16.273438 13.90625 -15.734375 C 14.207031 -15.203125 14.359375 -14.550781 14.359375 -13.78125 C 14.359375 -12.550781 13.976562 -11.601562 13.21875 -10.9375 C 12.457031 -10.269531 11.363281 -9.816406 9.9375 -9.578125 L 9.9375 -9.46875 C 11.726562 -9.332031 13.070312 -8.90625 13.96875 -8.1875 C 14.875 -7.46875 15.328125 -6.429688 15.328125 -5.078125 C 15.328125 -4.242188 15.164062 -3.515625 14.84375 -2.890625 C 14.519531 -2.265625 14.0625 -1.734375 13.46875 -1.296875 C 12.882812 -0.867188 12.179688 -0.546875 11.359375 -0.328125 C 10.535156 -0.109375 9.617188 0 8.609375 0 L 0.8125 0 Z M 7.875 -9.9375 C 9.019531 -9.9375 9.910156 -10.226562 10.546875 -10.8125 C 11.179688 -11.394531 11.5 -12.210938 11.5 -13.265625 C 11.5 -13.972656 11.425781 -14.5625 11.28125 -15.03125 C 11.132812 -15.5 10.90625 -15.867188 10.59375 -16.140625 C 10.28125 -16.410156 9.882812 -16.601562 9.40625 -16.71875 C 8.925781 -16.832031 8.367188 -16.890625 7.734375 -16.890625 C 7.328125 -16.890625 6.9375 -16.875 6.5625 -16.84375 C 6.195312 -16.820312 5.890625 -16.785156 5.640625 -16.734375 L 5.640625 -9.9375 Z M 8.34375 -1.140625 C 9.5625 -1.140625 10.523438 -1.410156 11.234375 -1.953125 C 11.953125 -2.503906 12.3125 -3.421875 12.3125 -4.703125 C 12.3125 -6.128906 12 -7.160156 11.375 -7.796875 C 10.75 -8.441406 9.707031 -8.765625 8.25 -8.765625 L 5.640625 -8.765625 L 5.640625 -3.171875 C 5.640625 -2.722656 5.664062 -2.363281 5.71875 -2.09375 C 5.769531 -1.820312 5.890625 -1.617188 6.078125 -1.484375 C 6.273438 -1.347656 6.550781 -1.253906 6.90625 -1.203125 C 7.257812 -1.160156 7.738281 -1.140625 8.34375 -1.140625 Z M 8.34375 -1.140625 "/></g></g></g><g fill="#ffffff" fill-opacity="1"><g transform="translate(441.808934, 126.765689)"><g><path d="M 9.5 0.3125 C 8.269531 0.3125 7.132812 0.140625 6.09375 -0.203125 C 5.0625 -0.554688 4.171875 -1.097656 3.421875 -1.828125 C 2.671875 -2.566406 2.082031 -3.515625 1.65625 -4.671875 C 1.226562 -5.835938 1.015625 -7.238281 1.015625 -8.875 C 1.015625 -10.601562 1.253906 -12.070312 1.734375 -13.28125 C 2.222656 -14.488281 2.878906 -15.460938 3.703125 -16.203125 C 4.523438 -16.953125 5.488281 -17.492188 6.59375 -17.828125 C 7.695312 -18.171875 8.863281 -18.34375 10.09375 -18.34375 C 11.101562 -18.34375 12.03125 -18.28125 12.875 -18.15625 C 13.726562 -18.039062 14.441406 -17.894531 15.015625 -17.71875 L 15.25 -12.5625 L 14.328125 -12.5625 C 14.085938 -13.21875 13.816406 -13.867188 13.515625 -14.515625 C 13.222656 -15.171875 12.929688 -15.726562 12.640625 -16.1875 C 12.503906 -16.394531 12.363281 -16.554688 12.21875 -16.671875 C 12.070312 -16.796875 11.894531 -16.890625 11.6875 -16.953125 C 11.476562 -17.023438 11.21875 -17.070312 10.90625 -17.09375 C 10.601562 -17.125 10.226562 -17.140625 9.78125 -17.140625 C 8.84375 -17.140625 8.015625 -17.015625 7.296875 -16.765625 C 6.578125 -16.515625 5.976562 -16.082031 5.5 -15.46875 C 5.019531 -14.863281 4.65625 -14.0625 4.40625 -13.0625 C 4.15625 -12.070312 4.03125 -10.835938 4.03125 -9.359375 C 4.03125 -7.765625 4.140625 -6.429688 4.359375 -5.359375 C 4.585938 -4.285156 4.925781 -3.414062 5.375 -2.75 C 5.832031 -2.082031 6.398438 -1.601562 7.078125 -1.3125 C 7.753906 -1.03125 8.535156 -0.890625 9.421875 -0.890625 C 10.003906 -0.890625 10.488281 -0.921875 10.875 -0.984375 C 11.269531 -1.054688 11.597656 -1.15625 11.859375 -1.28125 C 12.117188 -1.414062 12.332031 -1.570312 12.5 -1.75 C 12.664062 -1.9375 12.828125 -2.144531 12.984375 -2.375 C 13.148438 -2.644531 13.300781 -2.894531 13.4375 -3.125 C 13.582031 -3.363281 13.710938 -3.597656 13.828125 -3.828125 C 13.941406 -4.066406 14.050781 -4.320312 14.15625 -4.59375 C 14.257812 -4.863281 14.367188 -5.171875 14.484375 -5.515625 L 15.328125 -5.515625 L 15.0625 -0.828125 C 14.457031 -0.535156 13.660156 -0.269531 12.671875 -0.03125 C 11.679688 0.195312 10.625 0.3125 9.5 0.3125 Z M 9.5 0.3125 "/></g></g></g><g fill="#bb934b" fill-opacity="1"><g transform="translate(593.268059, 128.376783)"><g><path d="M 0.8125 -0.8125 L 1.984375 -1.046875 C 2.140625 -1.054688 2.269531 -1.085938 2.375 -1.140625 C 2.476562 -1.191406 2.5625 -1.269531 2.625 -1.375 C 2.695312 -1.476562 2.742188 -1.625 2.765625 -1.8125 C 2.796875 -2.007812 2.8125 -2.269531 2.8125 -2.59375 L 2.8125 -15.453125 C 2.8125 -15.785156 2.796875 -16.046875 2.765625 -16.234375 C 2.742188 -16.421875 2.695312 -16.566406 2.625 -16.671875 C 2.5625 -16.773438 2.476562 -16.847656 2.375 -16.890625 C 2.269531 -16.941406 2.140625 -16.984375 1.984375 -17.015625 L 0.8125 -17.25 L 0.8125 -18.03125 L 8.53125 -18.03125 C 9.78125 -18.03125 10.941406 -17.878906 12.015625 -17.578125 C 13.085938 -17.273438 14.023438 -16.78125 14.828125 -16.09375 C 15.628906 -15.40625 16.257812 -14.5 16.71875 -13.375 C 17.175781 -12.25 17.40625 -10.851562 17.40625 -9.1875 C 17.40625 -7.65625 17.179688 -6.316406 16.734375 -5.171875 C 16.296875 -4.023438 15.675781 -3.066406 14.875 -2.296875 C 14.082031 -1.523438 13.128906 -0.945312 12.015625 -0.5625 C 10.910156 -0.1875 9.695312 0 8.375 0 L 0.8125 0 Z M 8.1875 -1.09375 C 9.40625 -1.09375 10.414062 -1.28125 11.21875 -1.65625 C 12.03125 -2.03125 12.671875 -2.550781 13.140625 -3.21875 C 13.617188 -3.882812 13.953125 -4.679688 14.140625 -5.609375 C 14.335938 -6.535156 14.4375 -7.5625 14.4375 -8.6875 C 14.4375 -10.125 14.320312 -11.363281 14.09375 -12.40625 C 13.875 -13.445312 13.507812 -14.300781 13 -14.96875 C 12.5 -15.632812 11.847656 -16.128906 11.046875 -16.453125 C 10.253906 -16.773438 9.285156 -16.9375 8.140625 -16.9375 C 7.503906 -16.9375 6.988281 -16.914062 6.59375 -16.875 C 6.207031 -16.832031 5.890625 -16.773438 5.640625 -16.703125 L 5.640625 -3.609375 C 5.640625 -3.085938 5.660156 -2.660156 5.703125 -2.328125 C 5.753906 -2.003906 5.859375 -1.75 6.015625 -1.5625 C 6.179688 -1.382812 6.429688 -1.257812 6.765625 -1.1875 C 7.109375 -1.125 7.582031 -1.09375 8.1875 -1.09375 Z M 8.1875 -1.09375 "/></g></g></g><g fill="#b65959" fill-opacity="1"><g transform="translate(747.225067, 128.376783)"><g><path d="M 0.8125 -0.8125 L 1.984375 -1.046875 C 2.140625 -1.054688 2.269531 -1.085938 2.375 -1.140625 C 2.476562 -1.191406 2.5625 -1.269531 2.625 -1.375 C 2.695312 -1.476562 2.742188 -1.625 2.765625 -1.8125 C 2.796875 -2.007812 2.8125 -2.269531 2.8125 -2.59375 L 2.8125 -15.453125 C 2.8125 -15.785156 2.796875 -16.046875 2.765625 -16.234375 C 2.742188 -16.421875 2.695312 -16.566406 2.625 -16.671875 C 2.5625 -16.773438 2.476562 -16.847656 2.375 -16.890625 C 2.269531 -16.941406 2.140625 -16.984375 1.984375 -17.015625 L 0.8125 -17.25 L 0.8125 -18.03125 L 14.078125 -18.03125 L 14.328125 -13.15625 L 13.375 -13.15625 C 13.082031 -13.9375 12.835938 -14.53125 12.640625 -14.9375 C 12.453125 -15.351562 12.265625 -15.679688 12.078125 -15.921875 C 11.878906 -16.179688 11.691406 -16.375 11.515625 -16.5 C 11.347656 -16.632812 11.140625 -16.726562 10.890625 -16.78125 C 10.640625 -16.832031 10.328125 -16.863281 9.953125 -16.875 C 9.578125 -16.882812 9.101562 -16.890625 8.53125 -16.890625 C 7.800781 -16.890625 7.210938 -16.867188 6.765625 -16.828125 C 6.316406 -16.796875 5.941406 -16.753906 5.640625 -16.703125 L 5.640625 -9.65625 L 6.21875 -9.65625 C 6.820312 -9.65625 7.316406 -9.664062 7.703125 -9.6875 C 8.097656 -9.71875 8.414062 -9.757812 8.65625 -9.8125 C 8.90625 -9.875 9.09375 -9.953125 9.21875 -10.046875 C 9.351562 -10.148438 9.460938 -10.269531 9.546875 -10.40625 C 9.722656 -10.6875 9.863281 -10.96875 9.96875 -11.25 C 10.082031 -11.539062 10.191406 -11.898438 10.296875 -12.328125 L 11.1875 -12.328125 L 11.1875 -5.625 L 10.296875 -5.625 C 10.179688 -6.070312 10.066406 -6.453125 9.953125 -6.765625 C 9.835938 -7.078125 9.6875 -7.414062 9.5 -7.78125 C 9.40625 -7.9375 9.304688 -8.054688 9.203125 -8.140625 C 9.097656 -8.222656 8.929688 -8.289062 8.703125 -8.34375 C 8.484375 -8.394531 8.175781 -8.425781 7.78125 -8.4375 C 7.382812 -8.445312 6.863281 -8.453125 6.21875 -8.453125 L 5.640625 -8.453125 L 5.640625 -2.59375 C 5.640625 -2.269531 5.648438 -2.015625 5.671875 -1.828125 C 5.691406 -1.648438 5.726562 -1.507812 5.78125 -1.40625 C 5.84375 -1.300781 5.925781 -1.226562 6.03125 -1.1875 C 6.132812 -1.144531 6.285156 -1.101562 6.484375 -1.0625 L 8.015625 -0.8125 L 8.015625 0 L 0.8125 0 Z M 0.8125 -0.8125 "/></g></g></g><g clip-path="url(#fa3e6e567c)"><g clip-path="url(#2a518388eb)"><path fill="#a6a6a6" d="M 458.894531 87.671875 L 441.097656 87.671875 L 441.097656 72.101562 L 458.894531 72.101562 Z M 458.894531 87.671875 " fill-opacity="1" fill-rule="nonzero"/></g></g><g clip-path="url(#94148bcc01)"><g clip-path="url(#3dbe6b8c37)"><path fill="#a6a6a6" d="M 441.101562 151.671875 L 458.898438 151.671875 L 458.898438 167.242188 L 441.101562 167.242188 Z M 441.101562 151.671875 " fill-opacity="1" fill-rule="nonzero"/></g></g><g fill="#000000" fill-opacity="1"><g transform="translate(355.736247, 52.671376)"><g><path d="M 0.8125 -0.8125 L 1.984375 -1.046875 C 2.140625 -1.054688 2.269531 -1.085938 2.375 -1.140625 C 2.476562 -1.191406 2.5625 -1.269531 2.625 -1.375 C 2.695312 -1.476562 2.742188 -1.625 2.765625 -1.8125 C 2.796875 -2.007812 2.8125 -2.269531 2.8125 -2.59375 L 2.8125 -15.453125 C 2.8125 -15.785156 2.796875 -16.046875 2.765625 -16.234375 C 2.742188 -16.421875 2.695312 -16.566406 2.625 -16.671875 C 2.5625 -16.773438 2.476562 -16.847656 2.375 -16.890625 C 2.269531 -16.941406 2.140625 -16.984375 1.984375 -17.015625 L 0.8125 -17.25 L 0.8125 -18.03125 L 8.375 -18.03125 C 10.476562 -18.03125 12.019531 -17.644531 13 -16.875 C 13.976562 -16.113281 14.46875 -14.972656 14.46875 -13.453125 C 14.46875 -12.484375 14.113281 -11.585938 13.40625 -10.765625 C 12.707031 -9.953125 11.679688 -9.347656 10.328125 -8.953125 L 10.328125 -8.875 C 10.671875 -8.257812 11.039062 -7.628906 11.4375 -6.984375 C 11.84375 -6.335938 12.25 -5.703125 12.65625 -5.078125 C 13.0625 -4.453125 13.46875 -3.847656 13.875 -3.265625 C 14.28125 -2.679688 14.664062 -2.15625 15.03125 -1.6875 C 15.175781 -1.5 15.335938 -1.359375 15.515625 -1.265625 C 15.703125 -1.171875 15.992188 -1.070312 16.390625 -0.96875 L 16.96875 -0.8125 L 16.96875 0 L 13 0 C 12.019531 -1.25 11.09375 -2.566406 10.21875 -3.953125 C 9.351562 -5.335938 8.566406 -6.734375 7.859375 -8.140625 L 5.59375 -8.140625 L 5.59375 -2.59375 C 5.59375 -2.269531 5.601562 -2.007812 5.625 -1.8125 C 5.65625 -1.625 5.703125 -1.476562 5.765625 -1.375 C 5.828125 -1.269531 5.910156 -1.195312 6.015625 -1.15625 C 6.128906 -1.113281 6.285156 -1.078125 6.484375 -1.046875 L 7.734375 -0.8125 L 7.734375 0 L 0.8125 0 Z M 7.15625 -9.34375 C 8.71875 -9.34375 9.835938 -9.644531 10.515625 -10.25 C 11.191406 -10.851562 11.53125 -11.832031 11.53125 -13.1875 C 11.53125 -13.988281 11.457031 -14.628906 11.3125 -15.109375 C 11.175781 -15.597656 10.960938 -15.972656 10.671875 -16.234375 C 10.390625 -16.492188 10.023438 -16.664062 9.578125 -16.75 C 9.140625 -16.84375 8.625 -16.890625 8.03125 -16.890625 C 7.46875 -16.890625 6.976562 -16.867188 6.5625 -16.828125 C 6.15625 -16.796875 5.832031 -16.753906 5.59375 -16.703125 L 5.59375 -9.4375 C 5.726562 -9.425781 5.894531 -9.410156 6.09375 -9.390625 C 6.226562 -9.367188 6.390625 -9.351562 6.578125 -9.34375 C 6.773438 -9.34375 6.96875 -9.34375 7.15625 -9.34375 Z M 7.15625 -9.34375 "/></g></g></g><g fill="#000000" fill-opacity="1"><g transform="translate(372.695085, 52.671376)"><g><path d="M 3.609375 -15.96875 C 3.109375 -15.96875 2.6875 -16.140625 2.34375 -16.484375 C 2.007812 -16.835938 1.84375 -17.234375 1.84375 -17.671875 C 1.84375 -18.128906 2.007812 -18.523438 2.34375 -18.859375 C 2.6875 -19.191406 3.109375 -19.359375 3.609375 -19.359375 C 4.097656 -19.359375 4.507812 -19.191406 4.84375 -18.859375 C 5.1875 -18.523438 5.359375 -18.128906 5.359375 -17.671875 C 5.359375 -17.234375 5.1875 -16.835938 4.84375 -16.484375 C 4.507812 -16.140625 4.097656 -15.96875 3.609375 -15.96875 Z M 0.65625 -0.78125 L 1.71875 -1.0625 C 1.976562 -1.132812 2.160156 -1.253906 2.265625 -1.421875 C 2.367188 -1.585938 2.421875 -1.921875 2.421875 -2.421875 L 2.421875 -10.484375 C 2.421875 -10.742188 2.410156 -10.945312 2.390625 -11.09375 C 2.378906 -11.238281 2.34375 -11.359375 2.28125 -11.453125 C 2.21875 -11.554688 2.132812 -11.632812 2.03125 -11.6875 C 1.925781 -11.738281 1.796875 -11.804688 1.640625 -11.890625 L 0.65625 -12.390625 L 0.65625 -13.0625 L 4.9375 -13.609375 L 5.203125 -13.453125 C 5.171875 -13.242188 5.132812 -12.992188 5.09375 -12.703125 C 5.039062 -12.191406 5.015625 -11.46875 5.015625 -10.53125 L 5.015625 -2.421875 C 5.015625 -2.140625 5.023438 -1.914062 5.046875 -1.75 C 5.066406 -1.59375 5.101562 -1.46875 5.15625 -1.375 C 5.207031 -1.289062 5.273438 -1.226562 5.359375 -1.1875 C 5.441406 -1.144531 5.554688 -1.101562 5.703125 -1.0625 L 6.765625 -0.78125 L 6.765625 0 L 0.65625 0 Z M 0.65625 -0.78125 "/></g></g></g><g fill="#000000" fill-opacity="1"><g transform="translate(379.952015, 52.671376)"><g><path d="M 4.9375 0.3125 C 4.195312 0.3125 3.484375 0.265625 2.796875 0.171875 C 2.109375 0.078125 1.503906 -0.0664062 0.984375 -0.265625 L 0.859375 -4.140625 L 1.6875 -4.140625 C 1.914062 -3.628906 2.101562 -3.207031 2.25 -2.875 C 2.394531 -2.539062 2.625 -2.179688 2.9375 -1.796875 C 3.175781 -1.503906 3.457031 -1.265625 3.78125 -1.078125 C 4.101562 -0.898438 4.578125 -0.8125 5.203125 -0.8125 C 6.003906 -0.8125 6.65625 -0.992188 7.15625 -1.359375 C 7.65625 -1.734375 7.90625 -2.257812 7.90625 -2.9375 C 7.90625 -3.28125 7.84375 -3.582031 7.71875 -3.84375 C 7.601562 -4.101562 7.421875 -4.335938 7.171875 -4.546875 C 6.921875 -4.753906 6.601562 -4.953125 6.21875 -5.140625 C 5.832031 -5.335938 5.375 -5.539062 4.84375 -5.75 C 4.269531 -5.976562 3.75 -6.21875 3.28125 -6.46875 C 2.8125 -6.71875 2.40625 -7 2.0625 -7.3125 C 1.726562 -7.632812 1.460938 -7.992188 1.265625 -8.390625 C 1.078125 -8.796875 0.984375 -9.25 0.984375 -9.75 C 0.984375 -10.363281 1.109375 -10.90625 1.359375 -11.375 C 1.617188 -11.851562 1.96875 -12.257812 2.40625 -12.59375 C 2.84375 -12.9375 3.359375 -13.195312 3.953125 -13.375 C 4.554688 -13.5625 5.195312 -13.65625 5.875 -13.65625 C 6.601562 -13.65625 7.238281 -13.617188 7.78125 -13.546875 C 8.332031 -13.484375 8.832031 -13.363281 9.28125 -13.1875 L 9.390625 -9.703125 L 8.609375 -9.703125 C 8.378906 -10.148438 8.160156 -10.539062 7.953125 -10.875 C 7.753906 -11.207031 7.53125 -11.535156 7.28125 -11.859375 C 7.09375 -12.109375 6.875 -12.285156 6.625 -12.390625 C 6.382812 -12.503906 6.03125 -12.5625 5.5625 -12.5625 C 4.695312 -12.5625 4.066406 -12.378906 3.671875 -12.015625 C 3.285156 -11.648438 3.09375 -11.140625 3.09375 -10.484375 C 3.09375 -9.984375 3.328125 -9.539062 3.796875 -9.15625 C 4.265625 -8.769531 5.046875 -8.367188 6.140625 -7.953125 C 6.742188 -7.710938 7.296875 -7.46875 7.796875 -7.21875 C 8.304688 -6.96875 8.738281 -6.6875 9.09375 -6.375 C 9.445312 -6.0625 9.71875 -5.710938 9.90625 -5.328125 C 10.101562 -4.953125 10.203125 -4.507812 10.203125 -4 C 10.203125 -3.394531 10.078125 -2.828125 9.828125 -2.296875 C 9.585938 -1.773438 9.238281 -1.316406 8.78125 -0.921875 C 8.332031 -0.535156 7.785156 -0.234375 7.140625 -0.015625 C 6.492188 0.203125 5.757812 0.3125 4.9375 0.3125 Z M 4.9375 0.3125 "/></g></g></g><g fill="#000000" fill-opacity="1"><g transform="translate(391.006465, 52.671376)"><g><path d="M 0.65625 -0.78125 L 1.71875 -1.0625 C 1.976562 -1.132812 2.160156 -1.253906 2.265625 -1.421875 C 2.367188 -1.585938 2.421875 -1.921875 2.421875 -2.421875 L 2.421875 -16.859375 C 2.421875 -17.117188 2.40625 -17.320312 2.375 -17.46875 C 2.351562 -17.613281 2.3125 -17.734375 2.25 -17.828125 C 2.1875 -17.929688 2.109375 -18.007812 2.015625 -18.0625 C 1.921875 -18.113281 1.796875 -18.171875 1.640625 -18.234375 L 0.515625 -18.75 L 0.515625 -19.484375 L 4.9375 -19.90625 L 5.203125 -19.6875 C 5.171875 -19.425781 5.132812 -19.140625 5.09375 -18.828125 C 5.039062 -18.273438 5.015625 -17.550781 5.015625 -16.65625 L 5.015625 -2.421875 C 5.015625 -2.140625 5.023438 -1.914062 5.046875 -1.75 C 5.066406 -1.59375 5.101562 -1.46875 5.15625 -1.375 C 5.207031 -1.289062 5.273438 -1.226562 5.359375 -1.1875 C 5.441406 -1.144531 5.554688 -1.101562 5.703125 -1.0625 L 6.765625 -0.78125 L 6.765625 0 L 0.65625 0 Z M 10.609375 0 C 10.109375 -0.539062 9.632812 -1.070312 9.1875 -1.59375 C 8.75 -2.113281 8.320312 -2.632812 7.90625 -3.15625 C 7.488281 -3.6875 7.082031 -4.226562 6.6875 -4.78125 C 6.289062 -5.34375 5.882812 -5.9375 5.46875 -6.5625 L 5.46875 -6.953125 L 8.140625 -9.859375 C 8.679688 -10.460938 9.054688 -10.898438 9.265625 -11.171875 C 9.472656 -11.441406 9.578125 -11.65625 9.578125 -11.8125 C 9.578125 -12.070312 9.367188 -12.265625 8.953125 -12.390625 L 8.5625 -12.515625 L 8.5625 -13.234375 L 13.421875 -13.234375 L 13.421875 -12.484375 L 12.625 -12.234375 C 12.257812 -12.109375 11.898438 -11.9375 11.546875 -11.71875 C 11.203125 -11.5 10.769531 -11.128906 10.25 -10.609375 L 7.59375 -7.75 C 8.351562 -6.625 9.132812 -5.539062 9.9375 -4.5 C 10.75 -3.457031 11.609375 -2.460938 12.515625 -1.515625 C 12.640625 -1.367188 12.75 -1.265625 12.84375 -1.203125 C 12.945312 -1.148438 13.070312 -1.101562 13.21875 -1.0625 L 14.09375 -0.78125 L 14.09375 0 Z M 10.609375 0 "/></g></g></g><g fill="#000000" fill-opacity="1"><g transform="translate(405.104154, 52.671376)"><g/></g></g><g fill="#000000" fill-opacity="1"><g transform="translate(411.632784, 52.671376)"><g><path d="M 0.8125 -0.8125 L 1.984375 -1.046875 C 2.140625 -1.054688 2.269531 -1.085938 2.375 -1.140625 C 2.476562 -1.191406 2.5625 -1.269531 2.625 -1.375 C 2.695312 -1.476562 2.742188 -1.625 2.765625 -1.8125 C 2.796875 -2.007812 2.8125 -2.269531 2.8125 -2.59375 L 2.8125 -15.453125 C 2.8125 -15.785156 2.796875 -16.046875 2.765625 -16.234375 C 2.742188 -16.421875 2.695312 -16.566406 2.625 -16.671875 C 2.5625 -16.773438 2.476562 -16.847656 2.375 -16.890625 C 2.269531 -16.941406 2.140625 -16.984375 1.984375 -17.015625 L 0.8125 -17.25 L 0.8125 -18.03125 L 8.375 -18.03125 C 10.476562 -18.03125 12.019531 -17.644531 13 -16.875 C 13.976562 -16.113281 14.46875 -14.972656 14.46875 -13.453125 C 14.46875 -12.484375 14.113281 -11.585938 13.40625 -10.765625 C 12.707031 -9.953125 11.679688 -9.347656 10.328125 -8.953125 L 10.328125 -8.875 C 10.671875 -8.257812 11.039062 -7.628906 11.4375 -6.984375 C 11.84375 -6.335938 12.25 -5.703125 12.65625 -5.078125 C 13.0625 -4.453125 13.46875 -3.847656 13.875 -3.265625 C 14.28125 -2.679688 14.664062 -2.15625 15.03125 -1.6875 C 15.175781 -1.5 15.335938 -1.359375 15.515625 -1.265625 C 15.703125 -1.171875 15.992188 -1.070312 16.390625 -0.96875 L 16.96875 -0.8125 L 16.96875 0 L 13 0 C 12.019531 -1.25 11.09375 -2.566406 10.21875 -3.953125 C 9.351562 -5.335938 8.566406 -6.734375 7.859375 -8.140625 L 5.59375 -8.140625 L 5.59375 -2.59375 C 5.59375 -2.269531 5.601562 -2.007812 5.625 -1.8125 C 5.65625 -1.625 5.703125 -1.476562 5.765625 -1.375 C 5.828125 -1.269531 5.910156 -1.195312 6.015625 -1.15625 C 6.128906 -1.113281 6.285156 -1.078125 6.484375 -1.046875 L 7.734375 -0.8125 L 7.734375 0 L 0.8125 0 Z M 7.15625 -9.34375 C 8.71875 -9.34375 9.835938 -9.644531 10.515625 -10.25 C 11.191406 -10.851562 11.53125 -11.832031 11.53125 -13.1875 C 11.53125 -13.988281 11.457031 -14.628906 11.3125 -15.109375 C 11.175781 -15.597656 10.960938 -15.972656 10.671875 -16.234375 C 10.390625 -16.492188 10.023438 -16.664062 9.578125 -16.75 C 9.140625 -16.84375 8.625 -16.890625 8.03125 -16.890625 C 7.46875 -16.890625 6.976562 -16.867188 6.5625 -16.828125 C 6.15625 -16.796875 5.832031 -16.753906 5.59375 -16.703125 L 5.59375 -9.4375 C 5.726562 -9.425781 5.894531 -9.410156 6.09375 -9.390625 C 6.226562 -9.367188 6.390625 -9.351562 6.578125 -9.34375 C 6.773438 -9.34375 6.96875 -9.34375 7.15625 -9.34375 Z M 7.15625 -9.34375 "/></g></g></g><g fill="#000000" fill-opacity="1"><g transform="translate(428.591622, 52.671376)"><g><path d="M 4.65625 0.34375 C 3.4375 0.34375 2.472656 0.046875 1.765625 -0.546875 C 1.054688 -1.140625 0.703125 -2 0.703125 -3.125 C 0.703125 -4.195312 1.078125 -5.023438 1.828125 -5.609375 C 2.585938 -6.203125 3.726562 -6.675781 5.25 -7.03125 L 8.296875 -7.703125 L 8.296875 -10.125 C 8.296875 -10.550781 8.269531 -10.925781 8.21875 -11.25 C 8.164062 -11.570312 8.054688 -11.835938 7.890625 -12.046875 C 7.734375 -12.253906 7.488281 -12.40625 7.15625 -12.5 C 6.820312 -12.59375 6.378906 -12.640625 5.828125 -12.640625 C 5.253906 -12.640625 4.882812 -12.566406 4.71875 -12.421875 C 4.550781 -12.273438 4.441406 -12.003906 4.390625 -11.609375 C 4.328125 -11.097656 4.195312 -10.675781 4 -10.34375 C 3.8125 -10.019531 3.421875 -9.859375 2.828125 -9.859375 C 2.316406 -9.859375 1.957031 -9.988281 1.75 -10.25 C 1.550781 -10.507812 1.453125 -10.8125 1.453125 -11.15625 C 1.453125 -11.59375 1.601562 -11.96875 1.90625 -12.28125 C 2.21875 -12.59375 2.613281 -12.851562 3.09375 -13.0625 C 3.582031 -13.269531 4.113281 -13.421875 4.6875 -13.515625 C 5.257812 -13.609375 5.820312 -13.65625 6.375 -13.65625 C 7.945312 -13.65625 9.09375 -13.375 9.8125 -12.8125 C 10.539062 -12.25 10.90625 -11.40625 10.90625 -10.28125 L 10.90625 -2.59375 C 10.90625 -2.25 10.957031 -1.972656 11.0625 -1.765625 C 11.164062 -1.554688 11.347656 -1.382812 11.609375 -1.25 C 11.742188 -1.164062 11.914062 -1.109375 12.125 -1.078125 C 12.332031 -1.054688 12.582031 -1.035156 12.875 -1.015625 L 12.875 -0.28125 C 12.664062 -0.144531 12.34375 -0.015625 11.90625 0.109375 C 11.476562 0.242188 11.039062 0.3125 10.59375 0.3125 C 9.925781 0.3125 9.414062 0.171875 9.0625 -0.109375 C 8.707031 -0.398438 8.488281 -0.765625 8.40625 -1.203125 L 8.265625 -1.203125 C 7.953125 -0.765625 7.46875 -0.394531 6.8125 -0.09375 C 6.15625 0.195312 5.4375 0.34375 4.65625 0.34375 Z M 5.78125 -1.140625 C 6.40625 -1.140625 6.929688 -1.257812 7.359375 -1.5 C 7.796875 -1.75 8.109375 -2.039062 8.296875 -2.375 L 8.296875 -6.375 L 6.296875 -6.171875 C 5.359375 -6.078125 4.632812 -5.820312 4.125 -5.40625 C 3.613281 -4.988281 3.359375 -4.296875 3.359375 -3.328125 C 3.359375 -2.566406 3.566406 -2.007812 3.984375 -1.65625 C 4.410156 -1.3125 5.007812 -1.140625 5.78125 -1.140625 Z M 5.78125 -1.140625 "/></g></g></g><g fill="#000000" fill-opacity="1"><g transform="translate(441.856969, 52.671376)"><g><path d="M 5.09375 0.3125 C 4.675781 0.3125 4.285156 0.265625 3.921875 0.171875 C 3.554688 0.078125 3.238281 -0.0820312 2.96875 -0.3125 C 2.707031 -0.539062 2.492188 -0.820312 2.328125 -1.15625 C 2.160156 -1.5 2.078125 -1.921875 2.078125 -2.421875 L 2.078125 -11.859375 L 0.265625 -11.859375 L 0.265625 -12.625 C 1.160156 -12.863281 1.863281 -13.296875 2.375 -13.921875 C 2.882812 -14.546875 3.316406 -15.382812 3.671875 -16.4375 L 4.6875 -16.4375 L 4.6875 -13.234375 L 8.421875 -13.234375 L 8.09375 -11.859375 L 4.6875 -11.859375 L 4.6875 -2.8125 C 4.6875 -1.738281 5.273438 -1.203125 6.453125 -1.203125 C 6.835938 -1.203125 7.207031 -1.238281 7.5625 -1.3125 C 7.925781 -1.394531 8.238281 -1.476562 8.5 -1.5625 L 8.5 -0.734375 C 8.257812 -0.503906 7.851562 -0.269531 7.28125 -0.03125 C 6.707031 0.195312 5.976562 0.3125 5.09375 0.3125 Z M 5.09375 0.3125 "/></g></g></g><g fill="#000000" fill-opacity="1"><g transform="translate(450.674527, 52.671376)"><g><path d="M 3.609375 -15.96875 C 3.109375 -15.96875 2.6875 -16.140625 2.34375 -16.484375 C 2.007812 -16.835938 1.84375 -17.234375 1.84375 -17.671875 C 1.84375 -18.128906 2.007812 -18.523438 2.34375 -18.859375 C 2.6875 -19.191406 3.109375 -19.359375 3.609375 -19.359375 C 4.097656 -19.359375 4.507812 -19.191406 4.84375 -18.859375 C 5.1875 -18.523438 5.359375 -18.128906 5.359375 -17.671875 C 5.359375 -17.234375 5.1875 -16.835938 4.84375 -16.484375 C 4.507812 -16.140625 4.097656 -15.96875 3.609375 -15.96875 Z M 0.65625 -0.78125 L 1.71875 -1.0625 C 1.976562 -1.132812 2.160156 -1.253906 2.265625 -1.421875 C 2.367188 -1.585938 2.421875 -1.921875 2.421875 -2.421875 L 2.421875 -10.484375 C 2.421875 -10.742188 2.410156 -10.945312 2.390625 -11.09375 C 2.378906 -11.238281 2.34375 -11.359375 2.28125 -11.453125 C 2.21875 -11.554688 2.132812 -11.632812 2.03125 -11.6875 C 1.925781 -11.738281 1.796875 -11.804688 1.640625 -11.890625 L 0.65625 -12.390625 L 0.65625 -13.0625 L 4.9375 -13.609375 L 5.203125 -13.453125 C 5.171875 -13.242188 5.132812 -12.992188 5.09375 -12.703125 C 5.039062 -12.191406 5.015625 -11.46875 5.015625 -10.53125 L 5.015625 -2.421875 C 5.015625 -2.140625 5.023438 -1.914062 5.046875 -1.75 C 5.066406 -1.59375 5.101562 -1.46875 5.15625 -1.375 C 5.207031 -1.289062 5.273438 -1.226562 5.359375 -1.1875 C 5.441406 -1.144531 5.554688 -1.101562 5.703125 -1.0625 L 6.765625 -0.78125 L 6.765625 0 L 0.65625 0 Z M 0.65625 -0.78125 "/></g></g></g><g fill="#000000" fill-opacity="1"><g transform="translate(457.931457, 52.671376)"><g><path d="M 0.65625 -0.78125 L 1.71875 -1.0625 C 1.976562 -1.132812 2.160156 -1.253906 2.265625 -1.421875 C 2.367188 -1.585938 2.421875 -1.921875 2.421875 -2.421875 L 2.421875 -10.484375 C 2.421875 -10.742188 2.410156 -10.945312 2.390625 -11.09375 C 2.378906 -11.238281 2.34375 -11.359375 2.28125 -11.453125 C 2.21875 -11.554688 2.132812 -11.632812 2.03125 -11.6875 C 1.925781 -11.738281 1.796875 -11.804688 1.640625 -11.890625 L 0.65625 -12.390625 L 0.65625 -13.0625 L 4.765625 -13.609375 L 5.015625 -13.453125 L 4.890625 -12 L 5 -12 C 5.320312 -12.207031 5.675781 -12.410156 6.0625 -12.609375 C 6.457031 -12.804688 6.867188 -12.976562 7.296875 -13.125 C 7.734375 -13.269531 8.171875 -13.390625 8.609375 -13.484375 C 9.054688 -13.578125 9.488281 -13.625 9.90625 -13.625 C 11.226562 -13.625 12.148438 -13.34375 12.671875 -12.78125 C 13.191406 -12.21875 13.453125 -11.347656 13.453125 -10.171875 L 13.453125 -2.421875 C 13.453125 -1.921875 13.503906 -1.585938 13.609375 -1.421875 C 13.722656 -1.253906 13.90625 -1.132812 14.15625 -1.0625 L 15.1875 -0.78125 L 15.1875 0 L 9.109375 0 L 9.109375 -0.78125 L 10.171875 -1.0625 C 10.296875 -1.101562 10.398438 -1.144531 10.484375 -1.1875 C 10.566406 -1.226562 10.632812 -1.289062 10.6875 -1.375 C 10.738281 -1.46875 10.773438 -1.59375 10.796875 -1.75 C 10.828125 -1.914062 10.84375 -2.140625 10.84375 -2.421875 L 10.84375 -9.4375 C 10.84375 -10.363281 10.671875 -11.007812 10.328125 -11.375 C 9.992188 -11.738281 9.410156 -11.921875 8.578125 -11.921875 C 8.265625 -11.921875 7.9375 -11.890625 7.59375 -11.828125 C 7.25 -11.765625 6.921875 -11.691406 6.609375 -11.609375 C 6.296875 -11.535156 6 -11.453125 5.71875 -11.359375 C 5.445312 -11.265625 5.210938 -11.179688 5.015625 -11.109375 L 5.015625 -2.421875 C 5.015625 -2.140625 5.023438 -1.914062 5.046875 -1.75 C 5.066406 -1.59375 5.101562 -1.46875 5.15625 -1.375 C 5.207031 -1.289062 5.273438 -1.226562 5.359375 -1.1875 C 5.441406 -1.144531 5.554688 -1.101562 5.703125 -1.0625 L 6.765625 -0.78125 L 6.765625 0 L 0.65625 0 Z M 0.65625 -0.78125 "/></g></g></g><g fill="#000000" fill-opacity="1"><g transform="translate(473.667806, 52.671376)"><g><path d="M 5.46875 5.828125 C 3.695312 5.828125 2.3125 5.539062 1.3125 4.96875 C 0.3125 4.394531 -0.1875 3.640625 -0.1875 2.703125 C -0.1875 2.066406 0.078125 1.476562 0.609375 0.9375 C 1.140625 0.394531 1.875 -0.0351562 2.8125 -0.359375 L 2.8125 -0.46875 C 2.363281 -0.625 1.957031 -0.867188 1.59375 -1.203125 C 1.238281 -1.546875 1.0625 -2.019531 1.0625 -2.625 C 1.0625 -2.988281 1.125 -3.316406 1.25 -3.609375 C 1.382812 -3.910156 1.546875 -4.175781 1.734375 -4.40625 C 1.929688 -4.644531 2.148438 -4.859375 2.390625 -5.046875 C 2.628906 -5.234375 2.851562 -5.40625 3.0625 -5.5625 L 3.0625 -5.671875 C 2.800781 -5.796875 2.535156 -5.960938 2.265625 -6.171875 C 2.003906 -6.390625 1.769531 -6.648438 1.5625 -6.953125 C 1.351562 -7.265625 1.179688 -7.597656 1.046875 -7.953125 C 0.921875 -8.316406 0.859375 -8.703125 0.859375 -9.109375 C 0.859375 -9.867188 1.007812 -10.535156 1.3125 -11.109375 C 1.613281 -11.679688 2.007812 -12.148438 2.5 -12.515625 C 3 -12.890625 3.550781 -13.164062 4.15625 -13.34375 C 4.769531 -13.53125 5.390625 -13.625 6.015625 -13.625 C 6.535156 -13.625 7.007812 -13.582031 7.4375 -13.5 C 7.875 -13.425781 8.316406 -13.296875 8.765625 -13.109375 C 9.210938 -13.492188 9.71875 -13.820312 10.28125 -14.09375 C 10.851562 -14.375 11.429688 -14.515625 12.015625 -14.515625 C 12.421875 -14.515625 12.757812 -14.410156 13.03125 -14.203125 C 13.3125 -13.992188 13.453125 -13.691406 13.453125 -13.296875 C 13.453125 -12.960938 13.351562 -12.664062 13.15625 -12.40625 C 12.96875 -12.144531 12.703125 -12.015625 12.359375 -12.015625 C 12.015625 -12.015625 11.757812 -12.082031 11.59375 -12.21875 C 11.425781 -12.363281 11.289062 -12.554688 11.1875 -12.796875 C 11.101562 -12.984375 10.875 -13.03125 10.5 -12.9375 C 10.125 -12.84375 9.765625 -12.703125 9.421875 -12.515625 L 9.421875 -12.4375 C 9.953125 -12.125 10.378906 -11.710938 10.703125 -11.203125 C 11.023438 -10.691406 11.1875 -10.070312 11.1875 -9.34375 C 11.1875 -8.570312 11.035156 -7.910156 10.734375 -7.359375 C 10.429688 -6.804688 10.03125 -6.347656 9.53125 -5.984375 C 9.039062 -5.617188 8.488281 -5.347656 7.875 -5.171875 C 7.257812 -5.003906 6.640625 -4.921875 6.015625 -4.921875 C 5.578125 -4.921875 5.207031 -4.945312 4.90625 -5 C 4.613281 -5.0625 4.304688 -5.164062 3.984375 -5.3125 C 3.773438 -5.164062 3.566406 -4.96875 3.359375 -4.71875 C 3.160156 -4.46875 3.0625 -4.1875 3.0625 -3.875 C 3.0625 -3.539062 3.195312 -3.253906 3.46875 -3.015625 C 3.738281 -2.785156 4.148438 -2.671875 4.703125 -2.671875 L 8.8125 -2.671875 C 9.375 -2.671875 9.890625 -2.617188 10.359375 -2.515625 C 10.828125 -2.421875 11.222656 -2.242188 11.546875 -1.984375 C 11.878906 -1.734375 12.132812 -1.394531 12.3125 -0.96875 C 12.5 -0.550781 12.59375 -0.0195312 12.59375 0.625 C 12.59375 1.125 12.472656 1.675781 12.234375 2.28125 C 12.003906 2.894531 11.613281 3.460938 11.0625 3.984375 C 10.519531 4.503906 9.789062 4.941406 8.875 5.296875 C 7.957031 5.648438 6.820312 5.828125 5.46875 5.828125 Z M 6.015625 -5.984375 C 6.847656 -5.984375 7.472656 -6.207031 7.890625 -6.65625 C 8.316406 -7.113281 8.53125 -7.90625 8.53125 -9.03125 C 8.53125 -10.3125 8.316406 -11.222656 7.890625 -11.765625 C 7.472656 -12.316406 6.847656 -12.59375 6.015625 -12.59375 C 5.191406 -12.59375 4.566406 -12.347656 4.140625 -11.859375 C 3.722656 -11.378906 3.515625 -10.566406 3.515625 -9.421875 C 3.515625 -8.148438 3.722656 -7.257812 4.140625 -6.75 C 4.566406 -6.238281 5.191406 -5.984375 6.015625 -5.984375 Z M 5.90625 4.734375 C 6.550781 4.734375 7.160156 4.65625 7.734375 4.5 C 8.316406 4.34375 8.820312 4.128906 9.25 3.859375 C 9.6875 3.585938 10.03125 3.265625 10.28125 2.890625 C 10.539062 2.523438 10.671875 2.125 10.671875 1.6875 C 10.671875 1.101562 10.515625 0.625 10.203125 0.25 C 9.890625 -0.125 9.265625 -0.3125 8.328125 -0.3125 L 4.3125 -0.3125 C 4.101562 -0.257812 3.878906 -0.160156 3.640625 -0.015625 C 3.398438 0.128906 3.175781 0.316406 2.96875 0.546875 C 2.757812 0.773438 2.582031 1.035156 2.4375 1.328125 C 2.300781 1.617188 2.234375 1.941406 2.234375 2.296875 C 2.234375 3.085938 2.53125 3.691406 3.125 4.109375 C 3.726562 4.523438 4.65625 4.734375 5.90625 4.734375 Z M 5.90625 4.734375 "/></g></g></g><g fill="#000000" fill-opacity="1"><g transform="translate(486.881131, 52.671376)"><g><path d="M 1.875 -12.546875 C 1.875 -13.203125 2.03125 -13.660156 2.34375 -13.921875 C 2.65625 -14.179688 3.023438 -14.3125 3.453125 -14.3125 C 3.890625 -14.3125 4.269531 -14.179688 4.59375 -13.921875 C 4.925781 -13.660156 5.09375 -13.203125 5.09375 -12.546875 C 5.09375 -11.921875 4.925781 -11.46875 4.59375 -11.1875 C 4.269531 -10.90625 3.890625 -10.765625 3.453125 -10.765625 C 3.023438 -10.765625 2.65625 -10.90625 2.34375 -11.1875 C 2.03125 -11.46875 1.875 -11.921875 1.875 -12.546875 Z M 1.875 -1.40625 C 1.875 -2.050781 2.03125 -2.5 2.34375 -2.75 C 2.65625 -3.007812 3.023438 -3.140625 3.453125 -3.140625 C 3.890625 -3.140625 4.269531 -3.007812 4.59375 -2.75 C 4.925781 -2.5 5.09375 -2.050781 5.09375 -1.40625 C 5.09375 -0.78125 4.925781 -0.328125 4.59375 -0.046875 C 4.269531 0.222656 3.890625 0.359375 3.453125 0.359375 C 3.023438 0.359375 2.65625 0.222656 2.34375 -0.046875 C 2.03125 -0.328125 1.875 -0.78125 1.875 -1.40625 Z M 1.875 -1.40625 "/></g></g></g><g fill="#ffd700" fill-opacity="1"><g transform="translate(518.04498, 51.277225)"><g><path d="M 9.5 0.3125 C 8.269531 0.3125 7.132812 0.140625 6.09375 -0.203125 C 5.0625 -0.554688 4.171875 -1.097656 3.421875 -1.828125 C 2.671875 -2.566406 2.082031 -3.515625 1.65625 -4.671875 C 1.226562 -5.835938 1.015625 -7.238281 1.015625 -8.875 C 1.015625 -10.601562 1.253906 -12.070312 1.734375 -13.28125 C 2.222656 -14.488281 2.878906 -15.460938 3.703125 -16.203125 C 4.523438 -16.953125 5.488281 -17.492188 6.59375 -17.828125 C 7.695312 -18.171875 8.863281 -18.34375 10.09375 -18.34375 C 11.101562 -18.34375 12.03125 -18.28125 12.875 -18.15625 C 13.726562 -18.039062 14.441406 -17.894531 15.015625 -17.71875 L 15.25 -12.5625 L 14.328125 -12.5625 C 14.085938 -13.21875 13.816406 -13.867188 13.515625 -14.515625 C 13.222656 -15.171875 12.929688 -15.726562 12.640625 -16.1875 C 12.503906 -16.394531 12.363281 -16.554688 12.21875 -16.671875 C 12.070312 -16.796875 11.894531 -16.890625 11.6875 -16.953125 C 11.476562 -17.023438 11.21875 -17.070312 10.90625 -17.09375 C 10.601562 -17.125 10.226562 -17.140625 9.78125 -17.140625 C 8.84375 -17.140625 8.015625 -17.015625 7.296875 -16.765625 C 6.578125 -16.515625 5.976562 -16.082031 5.5 -15.46875 C 5.019531 -14.863281 4.65625 -14.0625 4.40625 -13.0625 C 4.15625 -12.070312 4.03125 -10.835938 4.03125 -9.359375 C 4.03125 -7.765625 4.140625 -6.429688 4.359375 -5.359375 C 4.585938 -4.285156 4.925781 -3.414062 5.375 -2.75 C 5.832031 -2.082031 6.398438 -1.601562 7.078125 -1.3125 C 7.753906 -1.03125 8.535156 -0.890625 9.421875 -0.890625 C 10.003906 -0.890625 10.488281 -0.921875 10.875 -0.984375 C 11.269531 -1.054688 11.597656 -1.15625 11.859375 -1.28125 C 12.117188 -1.414062 12.332031 -1.570312 12.5 -1.75 C 12.664062 -1.9375 12.828125 -2.144531 12.984375 -2.375 C 13.148438 -2.644531 13.300781 -2.894531 13.4375 -3.125 C 13.582031 -3.363281 13.710938 -3.597656 13.828125 -3.828125 C 13.941406 -4.066406 14.050781 -4.320312 14.15625 -4.59375 C 14.257812 -4.863281 14.367188 -5.171875 14.484375 -5.515625 L 15.328125 -5.515625 L 15.0625 -0.828125 C 14.457031 -0.535156 13.660156 -0.269531 12.671875 -0.03125 C 11.679688 0.195312 10.625 0.3125 9.5 0.3125 Z M 9.5 0.3125 "/></g></g></g><path stroke-linecap="butt" transform="matrix(0.74921, -0.000838082, 0.000838965, 0.75, 13.936065, 43.128318)" fill="none" stroke-linejoin="miter" d="M -0.000885055 2.500785 L 415.447304 2.501483 " stroke="#a6a6a6" stroke-width="5" stroke-opacity="1" stroke-miterlimit="4"/><path stroke-linecap="butt" transform="matrix(0.749208, 0.00171482, -0.00171663, 0.749998, 574.479576, 44.290175)" fill="none" stroke-linejoin="miter" d="M 0.00170241 2.49852 L 415.450752 2.501752 " stroke="#a6a6a6" stroke-width="5" stroke-opacity="1" stroke-miterlimit="4"/></svg>