<svg xmlns="http://www.w3.org/2000/svg" xmlns:xlink="http://www.w3.org/1999/xlink" width="1200" zoomAndPan="magnify" viewBox="0 0 900 225" height="300" preserveAspectRatio="xMidYMid meet" version="1.0"><defs><g/><clipPath id="6e0d62c133"><path d="M 70.257812 92.414062 L 220.667969 92.414062 L 220.667969 147.15625 L 70.257812 147.15625 Z M 70.257812 92.414062 " clip-rule="nonzero"/></clipPath><clipPath id="76143c2c49"><path d="M 222.527344 92.414062 L 372.9375 92.414062 L 372.9375 147.15625 L 222.527344 147.15625 Z M 222.527344 92.414062 " clip-rule="nonzero"/></clipPath><clipPath id="e316cfb48a"><path d="M 374.792969 92.414062 L 525.207031 92.414062 L 525.207031 147.15625 L 374.792969 147.15625 Z M 374.792969 92.414062 " clip-rule="nonzero"/></clipPath><clipPath id="f8bf9a233e"><path d="M 527.0625 92.414062 L 677.472656 92.414062 L 677.472656 147.15625 L 527.0625 147.15625 Z M 527.0625 92.414062 " clip-rule="nonzero"/></clipPath><clipPath id="4b8615f289"><path d="M 679.332031 92.414062 L 829.742188 92.414062 L 829.742188 147.15625 L 679.332031 147.15625 Z M 679.332031 92.414062 " clip-rule="nonzero"/></clipPath><clipPath id="94e8f34338"><path d="M 593.375 72.144531 L 611.152344 72.144531 L 611.152344 87.695312 L 593.375 87.695312 Z M 593.375 72.144531 " clip-rule="nonzero"/></clipPath><clipPath id="452a74d162"><path d="M 602.265625 87.695312 L 593.375 72.144531 L 611.152344 72.144531 L 602.265625 87.695312 " clip-rule="nonzero"/></clipPath><clipPath id="01245646b1"><path d="M 593.378906 151.628906 L 611.15625 151.628906 L 611.15625 167.183594 L 593.378906 167.183594 Z M 593.378906 151.628906 " clip-rule="nonzero"/></clipPath><clipPath id="719e051a75"><path d="M 602.269531 151.628906 L 611.15625 167.183594 L 593.378906 167.183594 L 602.269531 151.628906 " clip-rule="nonzero"/></clipPath></defs><g clip-path="url(#6e0d62c133)"><path fill="#5876b8" d="M 70.257812 92.414062 L 220.667969 92.414062 L 220.667969 147.15625 L 70.257812 147.15625 Z M 70.257812 92.414062 " fill-opacity="1" fill-rule="nonzero"/></g><g clip-path="url(#76143c2c49)"><path fill="#578257" d="M 222.527344 92.414062 L 372.9375 92.414062 L 372.9375 147.15625 L 222.527344 147.15625 Z M 222.527344 92.414062 " fill-opacity="1" fill-rule="nonzero"/></g><g clip-path="url(#e316cfb48a)"><path fill="#ebdc8e" d="M 374.792969 92.414062 L 525.207031 92.414062 L 525.207031 147.15625 L 374.792969 147.15625 Z M 374.792969 92.414062 " fill-opacity="1" fill-rule="nonzero"/></g><g clip-path="url(#f8bf9a233e)"><path fill="#ffa500" d="M 527.0625 92.414062 L 677.472656 92.414062 L 677.472656 147.15625 L 527.0625 147.15625 Z M 527.0625 92.414062 " fill-opacity="1" fill-rule="nonzero"/></g><g clip-path="url(#4b8615f289)"><path fill="#fd9a9a" d="M 679.332031 92.414062 L 829.742188 92.414062 L 829.742188 147.15625 L 679.332031 147.15625 Z M 679.332031 92.414062 " fill-opacity="1" fill-rule="nonzero"/></g><path stroke-linecap="butt" transform="matrix(-0.00000153311, -0.750412, 0.75, -0.00000153226, 881.840819, 194.247364)" fill="none" stroke-linejoin="miter" d="M 0.00168804 2.498699 L 198.902733 2.499106 " stroke="#a6a6a6" stroke-width="5" stroke-opacity="1" stroke-miterlimit="4"/><path stroke-linecap="butt" transform="matrix(0.750272, 0.00000000000000011, -0.00000000000000011, 0.75, 14.402469, 192.376965)" fill="none" stroke-linejoin="miter" d="M -0.000167579 2.502588 L 1161.588371 2.502588 " stroke="#a6a6a6" stroke-width="5" stroke-opacity="1" stroke-miterlimit="4"/><path stroke-linecap="butt" transform="matrix(0.000000000000000046, -0.750412, 0.75, 0.000000000000000046, 14.399963, 194.24735)" fill="none" stroke-linejoin="miter" d="M 0.00167395 2.497967 L 198.902719 2.497967 " stroke="#a6a6a6" stroke-width="5" stroke-opacity="1" stroke-miterlimit="4"/><g fill="#30519b" fill-opacity="1"><g transform="translate(136.802175, 128.358701)"><g><path d="M 0.03125 -0.8125 L 0.8125 -0.984375 C 0.976562 -1.035156 1.128906 -1.09375 1.265625 -1.15625 C 1.410156 -1.21875 1.546875 -1.328125 1.671875 -1.484375 C 1.804688 -1.640625 1.9375 -1.859375 2.0625 -2.140625 C 2.195312 -2.429688 2.359375 -2.828125 2.546875 -3.328125 L 7.828125 -18 L 9.375 -18 L 14.921875 -3.046875 C 15.085938 -2.609375 15.234375 -2.265625 15.359375 -2.015625 C 15.492188 -1.765625 15.625 -1.566406 15.75 -1.421875 C 15.882812 -1.285156 16.015625 -1.191406 16.140625 -1.140625 C 16.273438 -1.085938 16.421875 -1.035156 16.578125 -0.984375 L 17.3125 -0.8125 L 17.3125 0 L 10.78125 0 L 10.78125 -0.8125 L 11.515625 -0.984375 C 11.859375 -1.078125 12.09375 -1.171875 12.21875 -1.265625 C 12.351562 -1.367188 12.421875 -1.523438 12.421875 -1.734375 C 12.421875 -1.929688 12.378906 -2.148438 12.296875 -2.390625 C 12.222656 -2.628906 12.125 -2.925781 12 -3.28125 L 10.984375 -6.046875 L 4.96875 -6.046875 L 4.03125 -3.28125 C 3.90625 -2.925781 3.816406 -2.648438 3.765625 -2.453125 C 3.710938 -2.253906 3.6875 -2.0625 3.6875 -1.875 C 3.6875 -1.59375 3.765625 -1.390625 3.921875 -1.265625 C 4.078125 -1.148438 4.3125 -1.054688 4.625 -0.984375 L 5.515625 -0.8125 L 5.515625 0 L 0.03125 0 Z M 5.359375 -7.21875 L 10.578125 -7.21875 L 7.984375 -14.546875 L 7.84375 -14.546875 Z M 5.359375 -7.21875 "/></g></g></g><g fill="#326032" fill-opacity="1"><g transform="translate(289.621858, 128.358701)"><g><path d="M 0.8125 -0.8125 L 1.96875 -1.046875 C 2.125 -1.054688 2.253906 -1.085938 2.359375 -1.140625 C 2.460938 -1.191406 2.550781 -1.269531 2.625 -1.375 C 2.695312 -1.476562 2.742188 -1.625 2.765625 -1.8125 C 2.796875 -2.007812 2.8125 -2.269531 2.8125 -2.59375 L 2.8125 -15.4375 C 2.8125 -15.757812 2.796875 -16.015625 2.765625 -16.203125 C 2.742188 -16.398438 2.695312 -16.550781 2.625 -16.65625 C 2.550781 -16.757812 2.460938 -16.832031 2.359375 -16.875 C 2.253906 -16.914062 2.125 -16.957031 1.96875 -17 L 0.8125 -17.234375 L 0.8125 -18 L 7.953125 -18 C 8.921875 -18 9.796875 -17.921875 10.578125 -17.765625 C 11.367188 -17.617188 12.039062 -17.375 12.59375 -17.03125 C 13.15625 -16.695312 13.585938 -16.257812 13.890625 -15.71875 C 14.191406 -15.1875 14.34375 -14.535156 14.34375 -13.765625 C 14.34375 -12.535156 13.960938 -11.585938 13.203125 -10.921875 C 12.441406 -10.253906 11.347656 -9.800781 9.921875 -9.5625 L 9.921875 -9.453125 C 11.710938 -9.316406 13.054688 -8.890625 13.953125 -8.171875 C 14.859375 -7.453125 15.3125 -6.414062 15.3125 -5.0625 C 15.3125 -4.226562 15.148438 -3.5 14.828125 -2.875 C 14.503906 -2.257812 14.046875 -1.734375 13.453125 -1.296875 C 12.867188 -0.867188 12.164062 -0.546875 11.34375 -0.328125 C 10.519531 -0.109375 9.601562 0 8.59375 0 L 0.8125 0 Z M 7.875 -9.921875 C 9.019531 -9.921875 9.90625 -10.210938 10.53125 -10.796875 C 11.164062 -11.378906 11.484375 -12.195312 11.484375 -13.25 C 11.484375 -13.957031 11.410156 -14.546875 11.265625 -15.015625 C 11.117188 -15.484375 10.890625 -15.851562 10.578125 -16.125 C 10.265625 -16.394531 9.867188 -16.582031 9.390625 -16.6875 C 8.910156 -16.800781 8.351562 -16.859375 7.71875 -16.859375 C 7.320312 -16.859375 6.9375 -16.84375 6.5625 -16.8125 C 6.1875 -16.789062 5.878906 -16.753906 5.640625 -16.703125 L 5.640625 -9.921875 Z M 8.34375 -1.140625 C 9.550781 -1.140625 10.507812 -1.410156 11.21875 -1.953125 C 11.9375 -2.503906 12.296875 -3.421875 12.296875 -4.703125 C 12.296875 -6.117188 11.984375 -7.144531 11.359375 -7.78125 C 10.734375 -8.425781 9.691406 -8.75 8.234375 -8.75 L 5.640625 -8.75 L 5.640625 -3.171875 C 5.640625 -2.722656 5.664062 -2.363281 5.71875 -2.09375 C 5.769531 -1.820312 5.890625 -1.613281 6.078125 -1.46875 C 6.265625 -1.332031 6.535156 -1.242188 6.890625 -1.203125 C 7.253906 -1.160156 7.738281 -1.140625 8.34375 -1.140625 Z M 8.34375 -1.140625 "/></g></g></g><g fill="#a69850" fill-opacity="1"><g transform="translate(441.817713, 126.74935)"><g><path d="M 9.484375 0.3125 C 8.253906 0.3125 7.125 0.140625 6.09375 -0.203125 C 5.0625 -0.554688 4.164062 -1.097656 3.40625 -1.828125 C 2.65625 -2.566406 2.066406 -3.515625 1.640625 -4.671875 C 1.222656 -5.835938 1.015625 -7.234375 1.015625 -8.859375 C 1.015625 -10.585938 1.253906 -12.054688 1.734375 -13.265625 C 2.222656 -14.472656 2.878906 -15.445312 3.703125 -16.1875 C 4.523438 -16.9375 5.484375 -17.476562 6.578125 -17.8125 C 7.679688 -18.144531 8.847656 -18.3125 10.078125 -18.3125 C 11.085938 -18.3125 12.015625 -18.25 12.859375 -18.125 C 13.710938 -18.007812 14.425781 -17.863281 15 -17.6875 L 15.234375 -12.546875 L 14.3125 -12.546875 C 14.070312 -13.203125 13.800781 -13.851562 13.5 -14.5 C 13.207031 -15.15625 12.914062 -15.707031 12.625 -16.15625 C 12.488281 -16.363281 12.347656 -16.53125 12.203125 -16.65625 C 12.054688 -16.78125 11.878906 -16.875 11.671875 -16.9375 C 11.460938 -17.007812 11.207031 -17.054688 10.90625 -17.078125 C 10.601562 -17.109375 10.222656 -17.125 9.765625 -17.125 C 8.828125 -17.125 8 -17 7.28125 -16.75 C 6.5625 -16.5 5.960938 -16.066406 5.484375 -15.453125 C 5.015625 -14.847656 4.65625 -14.046875 4.40625 -13.046875 C 4.15625 -12.054688 4.03125 -10.828125 4.03125 -9.359375 C 4.03125 -7.765625 4.140625 -6.425781 4.359375 -5.34375 C 4.585938 -4.269531 4.925781 -3.398438 5.375 -2.734375 C 5.820312 -2.066406 6.382812 -1.59375 7.0625 -1.3125 C 7.738281 -1.03125 8.519531 -0.890625 9.40625 -0.890625 C 10 -0.890625 10.488281 -0.921875 10.875 -0.984375 C 11.257812 -1.054688 11.582031 -1.15625 11.84375 -1.28125 C 12.101562 -1.414062 12.316406 -1.570312 12.484375 -1.75 C 12.648438 -1.9375 12.8125 -2.140625 12.96875 -2.359375 C 13.132812 -2.640625 13.285156 -2.894531 13.421875 -3.125 C 13.566406 -3.363281 13.695312 -3.597656 13.8125 -3.828125 C 13.925781 -4.066406 14.035156 -4.316406 14.140625 -4.578125 C 14.242188 -4.847656 14.351562 -5.160156 14.46875 -5.515625 L 15.3125 -5.515625 L 15.046875 -0.828125 C 14.441406 -0.535156 13.644531 -0.269531 12.65625 -0.03125 C 11.664062 0.195312 10.609375 0.3125 9.484375 0.3125 Z M 9.484375 0.3125 "/></g></g></g><g fill="#ffffff" fill-opacity="1"><g transform="translate(593.11413, 128.358701)"><g><path d="M 0.8125 -0.8125 L 1.96875 -1.046875 C 2.125 -1.054688 2.253906 -1.085938 2.359375 -1.140625 C 2.460938 -1.191406 2.550781 -1.269531 2.625 -1.375 C 2.695312 -1.476562 2.742188 -1.625 2.765625 -1.8125 C 2.796875 -2.007812 2.8125 -2.269531 2.8125 -2.59375 L 2.8125 -15.4375 C 2.8125 -15.757812 2.796875 -16.015625 2.765625 -16.203125 C 2.742188 -16.398438 2.695312 -16.550781 2.625 -16.65625 C 2.550781 -16.757812 2.460938 -16.832031 2.359375 -16.875 C 2.253906 -16.914062 2.125 -16.957031 1.96875 -17 L 0.8125 -17.234375 L 0.8125 -18 L 8.515625 -18 C 9.765625 -18 10.925781 -17.847656 12 -17.546875 C 13.070312 -17.242188 14.003906 -16.75 14.796875 -16.0625 C 15.597656 -15.382812 16.226562 -14.484375 16.6875 -13.359375 C 17.15625 -12.234375 17.390625 -10.835938 17.390625 -9.171875 C 17.390625 -7.648438 17.164062 -6.316406 16.71875 -5.171875 C 16.28125 -4.023438 15.660156 -3.066406 14.859375 -2.296875 C 14.066406 -1.523438 13.113281 -0.945312 12 -0.5625 C 10.894531 -0.1875 9.679688 0 8.359375 0 L 0.8125 0 Z M 8.1875 -1.09375 C 9.394531 -1.09375 10.398438 -1.273438 11.203125 -1.640625 C 12.015625 -2.015625 12.65625 -2.535156 13.125 -3.203125 C 13.601562 -3.867188 13.9375 -4.664062 14.125 -5.59375 C 14.320312 -6.519531 14.421875 -7.546875 14.421875 -8.671875 C 14.421875 -10.109375 14.304688 -11.347656 14.078125 -12.390625 C 13.859375 -13.429688 13.492188 -14.285156 12.984375 -14.953125 C 12.484375 -15.617188 11.832031 -16.113281 11.03125 -16.4375 C 10.238281 -16.757812 9.273438 -16.921875 8.140625 -16.921875 C 7.492188 -16.921875 6.972656 -16.894531 6.578125 -16.84375 C 6.191406 -16.800781 5.878906 -16.75 5.640625 -16.6875 L 5.640625 -3.609375 C 5.640625 -3.085938 5.660156 -2.660156 5.703125 -2.328125 C 5.742188 -2.003906 5.847656 -1.75 6.015625 -1.5625 C 6.179688 -1.382812 6.429688 -1.257812 6.765625 -1.1875 C 7.109375 -1.125 7.582031 -1.09375 8.1875 -1.09375 Z M 8.1875 -1.09375 "/></g></g></g><g fill="#b65959" fill-opacity="1"><g transform="translate(746.905844, 128.358701)"><g><path d="M 0.8125 -0.8125 L 1.96875 -1.046875 C 2.125 -1.054688 2.253906 -1.085938 2.359375 -1.140625 C 2.460938 -1.191406 2.550781 -1.269531 2.625 -1.375 C 2.695312 -1.476562 2.742188 -1.625 2.765625 -1.8125 C 2.796875 -2.007812 2.8125 -2.269531 2.8125 -2.59375 L 2.8125 -15.4375 C 2.8125 -15.757812 2.796875 -16.015625 2.765625 -16.203125 C 2.742188 -16.398438 2.695312 -16.550781 2.625 -16.65625 C 2.550781 -16.757812 2.460938 -16.832031 2.359375 -16.875 C 2.253906 -16.914062 2.125 -16.957031 1.96875 -17 L 0.8125 -17.234375 L 0.8125 -18 L 14.0625 -18 L 14.3125 -13.140625 L 13.359375 -13.140625 C 13.066406 -13.921875 12.820312 -14.515625 12.625 -14.921875 C 12.4375 -15.328125 12.25 -15.65625 12.0625 -15.90625 C 11.863281 -16.164062 11.675781 -16.359375 11.5 -16.484375 C 11.332031 -16.617188 11.125 -16.710938 10.875 -16.765625 C 10.625 -16.816406 10.3125 -16.84375 9.9375 -16.84375 C 9.5625 -16.851562 9.085938 -16.859375 8.515625 -16.859375 C 7.796875 -16.859375 7.207031 -16.84375 6.75 -16.8125 C 6.300781 -16.78125 5.929688 -16.738281 5.640625 -16.6875 L 5.640625 -9.640625 L 6.203125 -9.640625 C 6.816406 -9.640625 7.316406 -9.648438 7.703125 -9.671875 C 8.085938 -9.703125 8.398438 -9.75 8.640625 -9.8125 C 8.890625 -9.875 9.078125 -9.953125 9.203125 -10.046875 C 9.335938 -10.140625 9.445312 -10.253906 9.53125 -10.390625 C 9.707031 -10.671875 9.851562 -10.953125 9.96875 -11.234375 C 10.082031 -11.523438 10.191406 -11.882812 10.296875 -12.3125 L 11.171875 -12.3125 L 11.171875 -5.609375 L 10.296875 -5.609375 C 10.171875 -6.054688 10.050781 -6.4375 9.9375 -6.75 C 9.820312 -7.0625 9.671875 -7.398438 9.484375 -7.765625 C 9.398438 -7.921875 9.304688 -8.039062 9.203125 -8.125 C 9.097656 -8.21875 8.929688 -8.289062 8.703125 -8.34375 C 8.472656 -8.394531 8.160156 -8.421875 7.765625 -8.421875 C 7.367188 -8.429688 6.847656 -8.4375 6.203125 -8.4375 L 5.640625 -8.4375 L 5.640625 -2.59375 C 5.640625 -2.269531 5.644531 -2.015625 5.65625 -1.828125 C 5.675781 -1.648438 5.71875 -1.507812 5.78125 -1.40625 C 5.84375 -1.300781 5.925781 -1.226562 6.03125 -1.1875 C 6.132812 -1.144531 6.28125 -1.101562 6.46875 -1.0625 L 8 -0.8125 L 8 0 L 0.8125 0 Z M 0.8125 -0.8125 "/></g></g></g><g clip-path="url(#94e8f34338)"><g clip-path="url(#452a74d162)"><path fill="#a6a6a6" d="M 611.152344 87.695312 L 593.375 87.695312 L 593.375 72.144531 L 611.152344 72.144531 Z M 611.152344 87.695312 " fill-opacity="1" fill-rule="nonzero"/></g></g><g clip-path="url(#01245646b1)"><g clip-path="url(#719e051a75)"><path fill="#a6a6a6" d="M 593.378906 151.628906 L 611.15625 151.628906 L 611.15625 167.183594 L 593.378906 167.183594 Z M 593.378906 151.628906 " fill-opacity="1" fill-rule="nonzero"/></g></g><g fill="#000000" fill-opacity="1"><g transform="translate(355.837525, 52.734627)"><g><path d="M 0.8125 -0.8125 L 1.96875 -1.046875 C 2.125 -1.054688 2.253906 -1.085938 2.359375 -1.140625 C 2.460938 -1.191406 2.550781 -1.269531 2.625 -1.375 C 2.695312 -1.476562 2.742188 -1.625 2.765625 -1.8125 C 2.796875 -2.007812 2.8125 -2.269531 2.8125 -2.59375 L 2.8125 -15.4375 C 2.8125 -15.757812 2.796875 -16.015625 2.765625 -16.203125 C 2.742188 -16.398438 2.695312 -16.550781 2.625 -16.65625 C 2.550781 -16.757812 2.460938 -16.832031 2.359375 -16.875 C 2.253906 -16.914062 2.125 -16.957031 1.96875 -17 L 0.8125 -17.234375 L 0.8125 -18 L 8.359375 -18 C 10.460938 -18 12.003906 -17.617188 12.984375 -16.859375 C 13.960938 -16.097656 14.453125 -14.957031 14.453125 -13.4375 C 14.453125 -12.46875 14.097656 -11.570312 13.390625 -10.75 C 12.691406 -9.9375 11.664062 -9.332031 10.3125 -8.9375 L 10.3125 -8.859375 C 10.65625 -8.253906 11.023438 -7.625 11.421875 -6.96875 C 11.828125 -6.320312 12.234375 -5.6875 12.640625 -5.0625 C 13.046875 -4.4375 13.453125 -3.832031 13.859375 -3.25 C 14.265625 -2.675781 14.648438 -2.15625 15.015625 -1.6875 C 15.160156 -1.5 15.320312 -1.359375 15.5 -1.265625 C 15.675781 -1.171875 15.96875 -1.070312 16.375 -0.96875 L 16.9375 -0.8125 L 16.9375 0 L 12.984375 0 C 12.003906 -1.25 11.078125 -2.566406 10.203125 -3.953125 C 9.335938 -5.335938 8.550781 -6.734375 7.84375 -8.140625 L 5.59375 -8.140625 L 5.59375 -2.59375 C 5.59375 -2.269531 5.601562 -2.007812 5.625 -1.8125 C 5.65625 -1.625 5.695312 -1.476562 5.75 -1.375 C 5.8125 -1.269531 5.898438 -1.195312 6.015625 -1.15625 C 6.128906 -1.113281 6.28125 -1.078125 6.46875 -1.046875 L 7.71875 -0.8125 L 7.71875 0 L 0.8125 0 Z M 7.140625 -9.328125 C 8.703125 -9.328125 9.820312 -9.628906 10.5 -10.234375 C 11.175781 -10.835938 11.515625 -11.816406 11.515625 -13.171875 C 11.515625 -13.972656 11.441406 -14.613281 11.296875 -15.09375 C 11.160156 -15.582031 10.945312 -15.957031 10.65625 -16.21875 C 10.375 -16.476562 10.007812 -16.648438 9.5625 -16.734375 C 9.125 -16.816406 8.613281 -16.859375 8.03125 -16.859375 C 7.457031 -16.859375 6.96875 -16.84375 6.5625 -16.8125 C 6.15625 -16.78125 5.832031 -16.738281 5.59375 -16.6875 L 5.59375 -9.4375 C 5.726562 -9.414062 5.890625 -9.394531 6.078125 -9.375 C 6.210938 -9.363281 6.375 -9.351562 6.5625 -9.34375 C 6.757812 -9.332031 6.953125 -9.328125 7.140625 -9.328125 Z M 7.140625 -9.328125 "/></g></g></g><g fill="#000000" fill-opacity="1"><g transform="translate(372.778144, 52.734627)"><g><path d="M 3.609375 -15.953125 C 3.109375 -15.953125 2.6875 -16.125 2.34375 -16.46875 C 2.007812 -16.820312 1.84375 -17.210938 1.84375 -17.640625 C 1.84375 -18.109375 2.007812 -18.503906 2.34375 -18.828125 C 2.6875 -19.160156 3.109375 -19.328125 3.609375 -19.328125 C 4.097656 -19.328125 4.507812 -19.160156 4.84375 -18.828125 C 5.1875 -18.503906 5.359375 -18.109375 5.359375 -17.640625 C 5.359375 -17.210938 5.1875 -16.820312 4.84375 -16.46875 C 4.507812 -16.125 4.097656 -15.953125 3.609375 -15.953125 Z M 0.65625 -0.78125 L 1.71875 -1.0625 C 1.976562 -1.132812 2.160156 -1.25 2.265625 -1.40625 C 2.367188 -1.570312 2.421875 -1.910156 2.421875 -2.421875 L 2.421875 -10.46875 C 2.421875 -10.726562 2.410156 -10.929688 2.390625 -11.078125 C 2.367188 -11.222656 2.328125 -11.34375 2.265625 -11.4375 C 2.210938 -11.539062 2.132812 -11.617188 2.03125 -11.671875 C 1.925781 -11.722656 1.796875 -11.789062 1.640625 -11.875 L 0.65625 -12.375 L 0.65625 -13.046875 L 4.9375 -13.59375 L 5.203125 -13.4375 C 5.160156 -13.226562 5.125 -12.976562 5.09375 -12.6875 C 5.039062 -12.175781 5.015625 -11.457031 5.015625 -10.53125 L 5.015625 -2.421875 C 5.015625 -2.140625 5.019531 -1.914062 5.03125 -1.75 C 5.050781 -1.582031 5.085938 -1.457031 5.140625 -1.375 C 5.191406 -1.289062 5.257812 -1.226562 5.34375 -1.1875 C 5.4375 -1.144531 5.550781 -1.101562 5.6875 -1.0625 L 6.75 -0.78125 L 6.75 0 L 0.65625 0 Z M 0.65625 -0.78125 "/></g></g></g><g fill="#000000" fill-opacity="1"><g transform="translate(380.027278, 52.734627)"><g><path d="M 4.9375 0.3125 C 4.1875 0.3125 3.46875 0.265625 2.78125 0.171875 C 2.101562 0.078125 1.503906 -0.0664062 0.984375 -0.265625 L 0.859375 -4.125 L 1.6875 -4.125 C 1.914062 -3.625 2.101562 -3.203125 2.25 -2.859375 C 2.394531 -2.523438 2.625 -2.171875 2.9375 -1.796875 C 3.175781 -1.492188 3.457031 -1.253906 3.78125 -1.078125 C 4.101562 -0.898438 4.578125 -0.8125 5.203125 -0.8125 C 5.992188 -0.8125 6.640625 -0.992188 7.140625 -1.359375 C 7.648438 -1.734375 7.90625 -2.257812 7.90625 -2.9375 C 7.90625 -3.28125 7.84375 -3.582031 7.71875 -3.84375 C 7.59375 -4.101562 7.40625 -4.335938 7.15625 -4.546875 C 6.90625 -4.753906 6.585938 -4.953125 6.203125 -5.140625 C 5.828125 -5.335938 5.367188 -5.539062 4.828125 -5.75 C 4.253906 -5.96875 3.734375 -6.203125 3.265625 -6.453125 C 2.804688 -6.703125 2.40625 -6.988281 2.0625 -7.3125 C 1.726562 -7.632812 1.460938 -7.992188 1.265625 -8.390625 C 1.078125 -8.785156 0.984375 -9.238281 0.984375 -9.75 C 0.984375 -10.351562 1.109375 -10.890625 1.359375 -11.359375 C 1.609375 -11.835938 1.953125 -12.242188 2.390625 -12.578125 C 2.835938 -12.921875 3.359375 -13.179688 3.953125 -13.359375 C 4.554688 -13.546875 5.195312 -13.640625 5.875 -13.640625 C 6.601562 -13.640625 7.238281 -13.601562 7.78125 -13.53125 C 8.320312 -13.46875 8.820312 -13.347656 9.28125 -13.171875 L 9.375 -9.6875 L 8.59375 -9.6875 C 8.375 -10.144531 8.160156 -10.535156 7.953125 -10.859375 C 7.742188 -11.191406 7.519531 -11.519531 7.28125 -11.84375 C 7.082031 -12.09375 6.863281 -12.269531 6.625 -12.375 C 6.382812 -12.488281 6.03125 -12.546875 5.5625 -12.546875 C 4.695312 -12.546875 4.066406 -12.363281 3.671875 -12 C 3.285156 -11.632812 3.09375 -11.125 3.09375 -10.46875 C 3.09375 -9.96875 3.328125 -9.523438 3.796875 -9.140625 C 4.265625 -8.765625 5.039062 -8.367188 6.125 -7.953125 C 6.738281 -7.710938 7.296875 -7.460938 7.796875 -7.203125 C 8.296875 -6.953125 8.722656 -6.671875 9.078125 -6.359375 C 9.429688 -6.046875 9.703125 -5.695312 9.890625 -5.3125 C 10.085938 -4.9375 10.1875 -4.5 10.1875 -4 C 10.1875 -3.394531 10.0625 -2.828125 9.8125 -2.296875 C 9.570312 -1.765625 9.226562 -1.304688 8.78125 -0.921875 C 8.332031 -0.535156 7.78125 -0.234375 7.125 -0.015625 C 6.476562 0.203125 5.75 0.3125 4.9375 0.3125 Z M 4.9375 0.3125 "/></g></g></g><g fill="#000000" fill-opacity="1"><g transform="translate(391.069853, 52.734627)"><g><path d="M 0.65625 -0.78125 L 1.71875 -1.0625 C 1.976562 -1.132812 2.160156 -1.25 2.265625 -1.40625 C 2.367188 -1.570312 2.421875 -1.910156 2.421875 -2.421875 L 2.421875 -16.84375 C 2.421875 -17.101562 2.40625 -17.304688 2.375 -17.453125 C 2.351562 -17.597656 2.3125 -17.71875 2.25 -17.8125 C 2.1875 -17.90625 2.109375 -17.976562 2.015625 -18.03125 C 1.921875 -18.082031 1.796875 -18.144531 1.640625 -18.21875 L 0.515625 -18.734375 L 0.515625 -19.46875 L 4.9375 -19.875 L 5.203125 -19.671875 C 5.160156 -19.410156 5.125 -19.125 5.09375 -18.8125 C 5.039062 -18.257812 5.015625 -17.53125 5.015625 -16.625 L 5.015625 -2.421875 C 5.015625 -2.140625 5.019531 -1.914062 5.03125 -1.75 C 5.050781 -1.582031 5.085938 -1.457031 5.140625 -1.375 C 5.191406 -1.289062 5.257812 -1.226562 5.34375 -1.1875 C 5.4375 -1.144531 5.550781 -1.101562 5.6875 -1.0625 L 6.75 -0.78125 L 6.75 0 L 0.65625 0 Z M 10.609375 0 C 10.097656 -0.539062 9.617188 -1.066406 9.171875 -1.578125 C 8.734375 -2.097656 8.304688 -2.625 7.890625 -3.15625 C 7.484375 -3.6875 7.078125 -4.226562 6.671875 -4.78125 C 6.273438 -5.332031 5.867188 -5.921875 5.453125 -6.546875 L 5.453125 -6.9375 L 8.140625 -9.84375 C 8.671875 -10.445312 9.039062 -10.882812 9.25 -11.15625 C 9.457031 -11.425781 9.5625 -11.640625 9.5625 -11.796875 C 9.5625 -12.054688 9.351562 -12.25 8.9375 -12.375 L 8.546875 -12.5 L 8.546875 -13.21875 L 13.40625 -13.21875 L 13.40625 -12.46875 L 12.609375 -12.21875 C 12.242188 -12.09375 11.882812 -11.921875 11.53125 -11.703125 C 11.1875 -11.484375 10.753906 -11.117188 10.234375 -10.609375 L 7.59375 -7.75 C 8.351562 -6.613281 9.132812 -5.523438 9.9375 -4.484375 C 10.738281 -3.453125 11.59375 -2.457031 12.5 -1.5 C 12.625 -1.363281 12.734375 -1.265625 12.828125 -1.203125 C 12.929688 -1.148438 13.054688 -1.101562 13.203125 -1.0625 L 14.078125 -0.78125 L 14.078125 0 Z M 10.609375 0 "/></g></g></g><g fill="#000000" fill-opacity="1"><g transform="translate(405.152397, 52.734627)"><g/></g></g><g fill="#000000" fill-opacity="1"><g transform="translate(411.674014, 52.734627)"><g><path d="M 0.8125 -0.8125 L 1.96875 -1.046875 C 2.125 -1.054688 2.253906 -1.085938 2.359375 -1.140625 C 2.460938 -1.191406 2.550781 -1.269531 2.625 -1.375 C 2.695312 -1.476562 2.742188 -1.625 2.765625 -1.8125 C 2.796875 -2.007812 2.8125 -2.269531 2.8125 -2.59375 L 2.8125 -15.4375 C 2.8125 -15.757812 2.796875 -16.015625 2.765625 -16.203125 C 2.742188 -16.398438 2.695312 -16.550781 2.625 -16.65625 C 2.550781 -16.757812 2.460938 -16.832031 2.359375 -16.875 C 2.253906 -16.914062 2.125 -16.957031 1.96875 -17 L 0.8125 -17.234375 L 0.8125 -18 L 8.359375 -18 C 10.460938 -18 12.003906 -17.617188 12.984375 -16.859375 C 13.960938 -16.097656 14.453125 -14.957031 14.453125 -13.4375 C 14.453125 -12.46875 14.097656 -11.570312 13.390625 -10.75 C 12.691406 -9.9375 11.664062 -9.332031 10.3125 -8.9375 L 10.3125 -8.859375 C 10.65625 -8.253906 11.023438 -7.625 11.421875 -6.96875 C 11.828125 -6.320312 12.234375 -5.6875 12.640625 -5.0625 C 13.046875 -4.4375 13.453125 -3.832031 13.859375 -3.25 C 14.265625 -2.675781 14.648438 -2.15625 15.015625 -1.6875 C 15.160156 -1.5 15.320312 -1.359375 15.5 -1.265625 C 15.675781 -1.171875 15.96875 -1.070312 16.375 -0.96875 L 16.9375 -0.8125 L 16.9375 0 L 12.984375 0 C 12.003906 -1.25 11.078125 -2.566406 10.203125 -3.953125 C 9.335938 -5.335938 8.550781 -6.734375 7.84375 -8.140625 L 5.59375 -8.140625 L 5.59375 -2.59375 C 5.59375 -2.269531 5.601562 -2.007812 5.625 -1.8125 C 5.65625 -1.625 5.695312 -1.476562 5.75 -1.375 C 5.8125 -1.269531 5.898438 -1.195312 6.015625 -1.15625 C 6.128906 -1.113281 6.28125 -1.078125 6.46875 -1.046875 L 7.71875 -0.8125 L 7.71875 0 L 0.8125 0 Z M 7.140625 -9.328125 C 8.703125 -9.328125 9.820312 -9.628906 10.5 -10.234375 C 11.175781 -10.835938 11.515625 -11.816406 11.515625 -13.171875 C 11.515625 -13.972656 11.441406 -14.613281 11.296875 -15.09375 C 11.160156 -15.582031 10.945312 -15.957031 10.65625 -16.21875 C 10.375 -16.476562 10.007812 -16.648438 9.5625 -16.734375 C 9.125 -16.816406 8.613281 -16.859375 8.03125 -16.859375 C 7.457031 -16.859375 6.96875 -16.84375 6.5625 -16.8125 C 6.15625 -16.78125 5.832031 -16.738281 5.59375 -16.6875 L 5.59375 -9.4375 C 5.726562 -9.414062 5.890625 -9.394531 6.078125 -9.375 C 6.210938 -9.363281 6.375 -9.351562 6.5625 -9.34375 C 6.757812 -9.332031 6.953125 -9.328125 7.140625 -9.328125 Z M 7.140625 -9.328125 "/></g></g></g><g fill="#000000" fill-opacity="1"><g transform="translate(428.614634, 52.734627)"><g><path d="M 4.65625 0.34375 C 3.4375 0.34375 2.472656 0.0507812 1.765625 -0.53125 C 1.054688 -1.125 0.703125 -1.988281 0.703125 -3.125 C 0.703125 -4.195312 1.078125 -5.023438 1.828125 -5.609375 C 2.585938 -6.203125 3.726562 -6.671875 5.25 -7.015625 L 8.28125 -7.6875 L 8.28125 -10.109375 C 8.28125 -10.535156 8.253906 -10.910156 8.203125 -11.234375 C 8.160156 -11.554688 8.054688 -11.820312 7.890625 -12.03125 C 7.722656 -12.238281 7.472656 -12.390625 7.140625 -12.484375 C 6.816406 -12.578125 6.378906 -12.625 5.828125 -12.625 C 5.253906 -12.625 4.882812 -12.550781 4.71875 -12.40625 C 4.550781 -12.257812 4.441406 -11.988281 4.390625 -11.59375 C 4.316406 -11.082031 4.1875 -10.660156 4 -10.328125 C 3.8125 -10.003906 3.421875 -9.84375 2.828125 -9.84375 C 2.304688 -9.84375 1.945312 -9.972656 1.75 -10.234375 C 1.550781 -10.492188 1.453125 -10.796875 1.453125 -11.140625 C 1.453125 -11.578125 1.601562 -11.953125 1.90625 -12.265625 C 2.207031 -12.578125 2.597656 -12.835938 3.078125 -13.046875 C 3.566406 -13.253906 4.097656 -13.40625 4.671875 -13.5 C 5.242188 -13.59375 5.804688 -13.640625 6.359375 -13.640625 C 7.941406 -13.640625 9.09375 -13.359375 9.8125 -12.796875 C 10.53125 -12.234375 10.890625 -11.390625 10.890625 -10.265625 L 10.890625 -2.59375 C 10.890625 -2.25 10.941406 -1.972656 11.046875 -1.765625 C 11.148438 -1.554688 11.332031 -1.382812 11.59375 -1.25 C 11.726562 -1.164062 11.898438 -1.109375 12.109375 -1.078125 C 12.316406 -1.054688 12.566406 -1.035156 12.859375 -1.015625 L 12.859375 -0.28125 C 12.648438 -0.144531 12.328125 -0.015625 11.890625 0.109375 C 11.460938 0.242188 11.023438 0.3125 10.578125 0.3125 C 9.921875 0.3125 9.410156 0.171875 9.046875 -0.109375 C 8.691406 -0.398438 8.472656 -0.757812 8.390625 -1.1875 L 8.265625 -1.1875 C 7.953125 -0.757812 7.46875 -0.394531 6.8125 -0.09375 C 6.15625 0.195312 5.4375 0.34375 4.65625 0.34375 Z M 5.765625 -1.140625 C 6.390625 -1.140625 6.914062 -1.257812 7.34375 -1.5 C 7.78125 -1.75 8.09375 -2.035156 8.28125 -2.359375 L 8.28125 -6.359375 L 6.28125 -6.15625 C 5.351562 -6.070312 4.632812 -5.820312 4.125 -5.40625 C 3.613281 -4.988281 3.359375 -4.296875 3.359375 -3.328125 C 3.359375 -2.566406 3.566406 -2.007812 3.984375 -1.65625 C 4.410156 -1.3125 5.003906 -1.140625 5.765625 -1.140625 Z M 5.765625 -1.140625 "/></g></g></g><g fill="#000000" fill-opacity="1"><g transform="translate(441.865729, 52.734627)"><g><path d="M 5.09375 0.3125 C 4.675781 0.3125 4.285156 0.265625 3.921875 0.171875 C 3.554688 0.078125 3.238281 -0.0820312 2.96875 -0.3125 C 2.707031 -0.539062 2.492188 -0.820312 2.328125 -1.15625 C 2.160156 -1.488281 2.078125 -1.910156 2.078125 -2.421875 L 2.078125 -11.84375 L 0.265625 -11.84375 L 0.265625 -12.609375 C 1.160156 -12.847656 1.863281 -13.28125 2.375 -13.90625 C 2.882812 -14.53125 3.3125 -15.367188 3.65625 -16.421875 L 4.671875 -16.421875 L 4.671875 -13.21875 L 8.421875 -13.21875 L 8.078125 -11.84375 L 4.671875 -11.84375 L 4.671875 -2.8125 C 4.671875 -1.726562 5.257812 -1.1875 6.4375 -1.1875 C 6.820312 -1.1875 7.195312 -1.222656 7.5625 -1.296875 C 7.925781 -1.378906 8.238281 -1.46875 8.5 -1.5625 L 8.5 -0.734375 C 8.257812 -0.503906 7.851562 -0.269531 7.28125 -0.03125 C 6.707031 0.195312 5.976562 0.3125 5.09375 0.3125 Z M 5.09375 0.3125 "/></g></g></g><g fill="#000000" fill-opacity="1"><g transform="translate(450.673815, 52.734627)"><g><path d="M 3.609375 -15.953125 C 3.109375 -15.953125 2.6875 -16.125 2.34375 -16.46875 C 2.007812 -16.820312 1.84375 -17.210938 1.84375 -17.640625 C 1.84375 -18.109375 2.007812 -18.503906 2.34375 -18.828125 C 2.6875 -19.160156 3.109375 -19.328125 3.609375 -19.328125 C 4.097656 -19.328125 4.507812 -19.160156 4.84375 -18.828125 C 5.1875 -18.503906 5.359375 -18.109375 5.359375 -17.640625 C 5.359375 -17.210938 5.1875 -16.820312 4.84375 -16.46875 C 4.507812 -16.125 4.097656 -15.953125 3.609375 -15.953125 Z M 0.65625 -0.78125 L 1.71875 -1.0625 C 1.976562 -1.132812 2.160156 -1.25 2.265625 -1.40625 C 2.367188 -1.570312 2.421875 -1.910156 2.421875 -2.421875 L 2.421875 -10.46875 C 2.421875 -10.726562 2.410156 -10.929688 2.390625 -11.078125 C 2.367188 -11.222656 2.328125 -11.34375 2.265625 -11.4375 C 2.210938 -11.539062 2.132812 -11.617188 2.03125 -11.671875 C 1.925781 -11.722656 1.796875 -11.789062 1.640625 -11.875 L 0.65625 -12.375 L 0.65625 -13.046875 L 4.9375 -13.59375 L 5.203125 -13.4375 C 5.160156 -13.226562 5.125 -12.976562 5.09375 -12.6875 C 5.039062 -12.175781 5.015625 -11.457031 5.015625 -10.53125 L 5.015625 -2.421875 C 5.015625 -2.140625 5.019531 -1.914062 5.03125 -1.75 C 5.050781 -1.582031 5.085938 -1.457031 5.140625 -1.375 C 5.191406 -1.289062 5.257812 -1.226562 5.34375 -1.1875 C 5.4375 -1.144531 5.550781 -1.101562 5.6875 -1.0625 L 6.75 -0.78125 L 6.75 0 L 0.65625 0 Z M 0.65625 -0.78125 "/></g></g></g><g fill="#000000" fill-opacity="1"><g transform="translate(457.922949, 52.734627)"><g><path d="M 0.65625 -0.78125 L 1.71875 -1.0625 C 1.976562 -1.132812 2.160156 -1.25 2.265625 -1.40625 C 2.367188 -1.570312 2.421875 -1.910156 2.421875 -2.421875 L 2.421875 -10.46875 C 2.421875 -10.726562 2.410156 -10.929688 2.390625 -11.078125 C 2.367188 -11.222656 2.328125 -11.34375 2.265625 -11.4375 C 2.210938 -11.539062 2.132812 -11.617188 2.03125 -11.671875 C 1.925781 -11.722656 1.796875 -11.789062 1.640625 -11.875 L 0.65625 -12.375 L 0.65625 -13.046875 L 4.75 -13.59375 L 5.015625 -13.4375 L 4.890625 -11.984375 L 4.984375 -11.984375 C 5.316406 -12.191406 5.675781 -12.394531 6.0625 -12.59375 C 6.457031 -12.789062 6.867188 -12.960938 7.296875 -13.109375 C 7.734375 -13.253906 8.171875 -13.375 8.609375 -13.46875 C 9.054688 -13.5625 9.488281 -13.609375 9.90625 -13.609375 C 11.21875 -13.609375 12.132812 -13.328125 12.65625 -12.765625 C 13.175781 -12.203125 13.4375 -11.332031 13.4375 -10.15625 L 13.4375 -2.421875 C 13.4375 -1.910156 13.488281 -1.570312 13.59375 -1.40625 C 13.707031 -1.25 13.890625 -1.132812 14.140625 -1.0625 L 15.171875 -0.78125 L 15.171875 0 L 9.09375 0 L 9.09375 -0.78125 L 10.15625 -1.0625 C 10.28125 -1.101562 10.382812 -1.144531 10.46875 -1.1875 C 10.5625 -1.226562 10.628906 -1.289062 10.671875 -1.375 C 10.722656 -1.457031 10.757812 -1.582031 10.78125 -1.75 C 10.8125 -1.914062 10.828125 -2.140625 10.828125 -2.421875 L 10.828125 -9.4375 C 10.828125 -10.351562 10.660156 -10.992188 10.328125 -11.359375 C 9.992188 -11.722656 9.410156 -11.90625 8.578125 -11.90625 C 8.265625 -11.90625 7.929688 -11.875 7.578125 -11.8125 C 7.234375 -11.75 6.90625 -11.675781 6.59375 -11.59375 C 6.28125 -11.519531 5.984375 -11.4375 5.703125 -11.34375 C 5.429688 -11.25 5.203125 -11.164062 5.015625 -11.09375 L 5.015625 -2.421875 C 5.015625 -2.140625 5.019531 -1.914062 5.03125 -1.75 C 5.050781 -1.582031 5.085938 -1.457031 5.140625 -1.375 C 5.191406 -1.289062 5.257812 -1.226562 5.34375 -1.1875 C 5.4375 -1.144531 5.550781 -1.101562 5.6875 -1.0625 L 6.75 -0.78125 L 6.75 0 L 0.65625 0 Z M 0.65625 -0.78125 "/></g></g></g><g fill="#000000" fill-opacity="1"><g transform="translate(473.642393, 52.734627)"><g><path d="M 5.453125 5.828125 C 3.691406 5.828125 2.3125 5.539062 1.3125 4.96875 C 0.3125 4.394531 -0.1875 3.640625 -0.1875 2.703125 C -0.1875 2.054688 0.078125 1.460938 0.609375 0.921875 C 1.140625 0.390625 1.875 -0.0351562 2.8125 -0.359375 L 2.8125 -0.46875 C 2.351562 -0.625 1.945312 -0.867188 1.59375 -1.203125 C 1.238281 -1.546875 1.0625 -2.019531 1.0625 -2.625 C 1.0625 -2.988281 1.125 -3.316406 1.25 -3.609375 C 1.382812 -3.898438 1.546875 -4.160156 1.734375 -4.390625 C 1.929688 -4.628906 2.148438 -4.84375 2.390625 -5.03125 C 2.628906 -5.226562 2.851562 -5.40625 3.0625 -5.5625 L 3.0625 -5.671875 C 2.800781 -5.785156 2.535156 -5.953125 2.265625 -6.171875 C 2.003906 -6.390625 1.769531 -6.648438 1.5625 -6.953125 C 1.351562 -7.253906 1.179688 -7.585938 1.046875 -7.953125 C 0.921875 -8.316406 0.859375 -8.695312 0.859375 -9.09375 C 0.859375 -9.851562 1.007812 -10.519531 1.3125 -11.09375 C 1.613281 -11.664062 2.007812 -12.132812 2.5 -12.5 C 3 -12.875 3.550781 -13.148438 4.15625 -13.328125 C 4.757812 -13.515625 5.375 -13.609375 6 -13.609375 C 6.519531 -13.609375 6.992188 -13.566406 7.421875 -13.484375 C 7.859375 -13.410156 8.300781 -13.28125 8.75 -13.09375 C 9.207031 -13.476562 9.71875 -13.804688 10.28125 -14.078125 C 10.84375 -14.359375 11.414062 -14.5 12 -14.5 C 12.40625 -14.5 12.742188 -14.394531 13.015625 -14.1875 C 13.296875 -13.976562 13.4375 -13.675781 13.4375 -13.28125 C 13.4375 -12.945312 13.335938 -12.648438 13.140625 -12.390625 C 12.953125 -12.128906 12.6875 -12 12.34375 -12 C 12 -12 11.742188 -12.066406 11.578125 -12.203125 C 11.410156 -12.347656 11.273438 -12.539062 11.171875 -12.78125 C 11.085938 -12.96875 10.859375 -13.015625 10.484375 -12.921875 C 10.109375 -12.828125 9.75 -12.6875 9.40625 -12.5 L 9.40625 -12.421875 C 9.945312 -12.109375 10.375 -11.695312 10.6875 -11.1875 C 11.007812 -10.675781 11.171875 -10.054688 11.171875 -9.328125 C 11.171875 -8.566406 11.019531 -7.90625 10.71875 -7.34375 C 10.414062 -6.789062 10.015625 -6.332031 9.515625 -5.96875 C 9.023438 -5.613281 8.472656 -5.347656 7.859375 -5.171875 C 7.242188 -4.992188 6.625 -4.90625 6 -4.90625 C 5.570312 -4.90625 5.207031 -4.9375 4.90625 -5 C 4.613281 -5.0625 4.300781 -5.160156 3.96875 -5.296875 C 3.757812 -5.160156 3.554688 -4.96875 3.359375 -4.71875 C 3.160156 -4.46875 3.0625 -4.1875 3.0625 -3.875 C 3.0625 -3.539062 3.195312 -3.253906 3.46875 -3.015625 C 3.738281 -2.785156 4.148438 -2.671875 4.703125 -2.671875 L 8.8125 -2.671875 C 9.363281 -2.671875 9.875 -2.617188 10.34375 -2.515625 C 10.8125 -2.410156 11.207031 -2.234375 11.53125 -1.984375 C 11.863281 -1.734375 12.117188 -1.394531 12.296875 -0.96875 C 12.484375 -0.550781 12.578125 -0.0195312 12.578125 0.625 C 12.578125 1.125 12.457031 1.675781 12.21875 2.28125 C 11.988281 2.894531 11.597656 3.457031 11.046875 3.96875 C 10.503906 4.488281 9.773438 4.925781 8.859375 5.28125 C 7.941406 5.644531 6.804688 5.828125 5.453125 5.828125 Z M 6 -5.96875 C 6.832031 -5.96875 7.457031 -6.191406 7.875 -6.640625 C 8.300781 -7.097656 8.515625 -7.890625 8.515625 -9.015625 C 8.515625 -10.296875 8.300781 -11.207031 7.875 -11.75 C 7.457031 -12.300781 6.832031 -12.578125 6 -12.578125 C 5.1875 -12.578125 4.566406 -12.332031 4.140625 -11.84375 C 3.722656 -11.363281 3.515625 -10.550781 3.515625 -9.40625 C 3.515625 -8.144531 3.722656 -7.253906 4.140625 -6.734375 C 4.566406 -6.222656 5.1875 -5.96875 6 -5.96875 Z M 5.890625 4.734375 C 6.535156 4.734375 7.144531 4.65625 7.71875 4.5 C 8.300781 4.34375 8.8125 4.128906 9.25 3.859375 C 9.6875 3.585938 10.03125 3.265625 10.28125 2.890625 C 10.53125 2.523438 10.65625 2.125 10.65625 1.6875 C 10.65625 1.101562 10.5 0.625 10.1875 0.25 C 9.875 -0.125 9.25 -0.3125 8.3125 -0.3125 L 4.3125 -0.3125 C 4.101562 -0.257812 3.878906 -0.160156 3.640625 -0.015625 C 3.398438 0.128906 3.175781 0.316406 2.96875 0.546875 C 2.757812 0.773438 2.582031 1.035156 2.4375 1.328125 C 2.300781 1.617188 2.234375 1.9375 2.234375 2.28125 C 2.234375 3.082031 2.53125 3.691406 3.125 4.109375 C 3.726562 4.523438 4.648438 4.734375 5.890625 4.734375 Z M 5.890625 4.734375 "/></g></g></g><g fill="#000000" fill-opacity="1"><g transform="translate(486.841524, 52.734627)"><g><path d="M 1.875 -12.53125 C 1.875 -13.1875 2.03125 -13.644531 2.34375 -13.90625 C 2.65625 -14.164062 3.023438 -14.296875 3.453125 -14.296875 C 3.890625 -14.296875 4.269531 -14.164062 4.59375 -13.90625 C 4.925781 -13.644531 5.09375 -13.1875 5.09375 -12.53125 C 5.09375 -11.90625 4.925781 -11.453125 4.59375 -11.171875 C 4.269531 -10.890625 3.890625 -10.75 3.453125 -10.75 C 3.023438 -10.75 2.65625 -10.890625 2.34375 -11.171875 C 2.03125 -11.453125 1.875 -11.90625 1.875 -12.53125 Z M 1.875 -1.40625 C 1.875 -2.039062 2.03125 -2.488281 2.34375 -2.75 C 2.65625 -3.007812 3.023438 -3.140625 3.453125 -3.140625 C 3.890625 -3.140625 4.269531 -3.007812 4.59375 -2.75 C 4.925781 -2.488281 5.09375 -2.039062 5.09375 -1.40625 C 5.09375 -0.78125 4.925781 -0.328125 4.59375 -0.046875 C 4.269531 0.222656 3.890625 0.359375 3.453125 0.359375 C 3.023438 0.359375 2.65625 0.222656 2.34375 -0.046875 C 2.03125 -0.328125 1.875 -0.78125 1.875 -1.40625 Z M 1.875 -1.40625 "/></g></g></g><g fill="#ffa500" fill-opacity="1"><g transform="translate(516.999942, 51.341932)"><g><path d="M 0.8125 -0.8125 L 1.96875 -1.046875 C 2.125 -1.054688 2.253906 -1.085938 2.359375 -1.140625 C 2.460938 -1.191406 2.550781 -1.269531 2.625 -1.375 C 2.695312 -1.476562 2.742188 -1.625 2.765625 -1.8125 C 2.796875 -2.007812 2.8125 -2.269531 2.8125 -2.59375 L 2.8125 -15.4375 C 2.8125 -15.757812 2.796875 -16.015625 2.765625 -16.203125 C 2.742188 -16.398438 2.695312 -16.550781 2.625 -16.65625 C 2.550781 -16.757812 2.460938 -16.832031 2.359375 -16.875 C 2.253906 -16.914062 2.125 -16.957031 1.96875 -17 L 0.8125 -17.234375 L 0.8125 -18 L 8.515625 -18 C 9.765625 -18 10.925781 -17.847656 12 -17.546875 C 13.070312 -17.242188 14.003906 -16.75 14.796875 -16.0625 C 15.597656 -15.382812 16.226562 -14.484375 16.6875 -13.359375 C 17.15625 -12.234375 17.390625 -10.835938 17.390625 -9.171875 C 17.390625 -7.648438 17.164062 -6.316406 16.71875 -5.171875 C 16.28125 -4.023438 15.660156 -3.066406 14.859375 -2.296875 C 14.066406 -1.523438 13.113281 -0.945312 12 -0.5625 C 10.894531 -0.1875 9.679688 0 8.359375 0 L 0.8125 0 Z M 8.1875 -1.09375 C 9.394531 -1.09375 10.398438 -1.273438 11.203125 -1.640625 C 12.015625 -2.015625 12.65625 -2.535156 13.125 -3.203125 C 13.601562 -3.867188 13.9375 -4.664062 14.125 -5.59375 C 14.320312 -6.519531 14.421875 -7.546875 14.421875 -8.671875 C 14.421875 -10.109375 14.304688 -11.347656 14.078125 -12.390625 C 13.859375 -13.429688 13.492188 -14.285156 12.984375 -14.953125 C 12.484375 -15.617188 11.832031 -16.113281 11.03125 -16.4375 C 10.238281 -16.757812 9.273438 -16.921875 8.140625 -16.921875 C 7.492188 -16.921875 6.972656 -16.894531 6.578125 -16.84375 C 6.191406 -16.800781 5.878906 -16.75 5.640625 -16.6875 L 5.640625 -3.609375 C 5.640625 -3.085938 5.660156 -2.660156 5.703125 -2.328125 C 5.742188 -2.003906 5.847656 -1.75 6.015625 -1.5625 C 6.179688 -1.382812 6.429688 -1.257812 6.765625 -1.1875 C 7.109375 -1.125 7.582031 -1.09375 8.1875 -1.09375 Z M 8.1875 -1.09375 "/></g></g></g><path stroke-linecap="butt" transform="matrix(0.75, -0.00083896, 0.00083896, 0.75, 14.402469, 43.199787)" fill="none" stroke-linejoin="miter" d="M 0.00224501 2.499246 L 415.007722 2.499935 " stroke="#a6a6a6" stroke-width="5" stroke-opacity="1" stroke-miterlimit="4"/><path stroke-linecap="butt" transform="matrix(0.749995, -0.00279652, 0.00279652, 0.749995, 574.334616, 44.36037)" fill="none" stroke-linejoin="miter" d="M -0.0023466 2.498682 L 415.005759 2.499246 " stroke="#a6a6a6" stroke-width="5" stroke-opacity="1" stroke-miterlimit="4"/></svg>