<?xml version="1.0" encoding="UTF-8" standalone="no"?>
<!-- Created with Inkscape (http://www.inkscape.org/) -->

<svg
   width="46.805683mm"
   height="46.28495mm"
   viewBox="0 0 46.805683 46.28495"
   version="1.1"
   id="svg1852"
   sodipodi:docname="Blackswanlogo111.svg"
   inkscape:version="1.1 (c68e22c387, 2021-05-23)"
   xmlns:inkscape="http://www.inkscape.org/namespaces/inkscape"
   xmlns:sodipodi="http://sodipodi.sourceforge.net/DTD/sodipodi-0.dtd"
   xmlns="http://www.w3.org/2000/svg"
   xmlns:svg="http://www.w3.org/2000/svg">
  <sodipodi:namedview
     id="namedview1854"
     pagecolor="#ffffff"
     bordercolor="#cccccc"
     borderopacity="1"
     inkscape:pageshadow="0"
     inkscape:pageopacity="1"
     inkscape:pagecheckerboard="true"
     inkscape:document-units="mm"
     showgrid="false"
     inkscape:zoom="3.7946873"
     inkscape:cx="111.33987"
     inkscape:cy="77.608502"
     inkscape:window-width="1920"
     inkscape:window-height="1001"
     inkscape:window-x="-9"
     inkscape:window-y="1071"
     inkscape:window-maximized="1"
     inkscape:current-layer="layer1" />
  <defs
     id="defs1849" />
  <g
     inkscape:label="Layer 1"
     inkscape:groupmode="layer"
     id="layer1"
     transform="translate(-92.557317,-122.39936)">
    <path
       d="m 130.45781,159.84912 c 0,0 -0.46306,-1.41366 -1.31613,-3.58278 -0.85306,-2.16919 -1.81573,-3.64376 -3.60712,-5.4595 -1.79139,-1.81574 -4.70397,-2.91251 -6.71472,-2.97349 -2.01074,-0.0609 -4.03362,0.25592 -4.03362,0.25592 0,0 1.51105,-0.53618 2.9125,-0.6093 1.40146,-0.0731 3.05875,-0.0975 4.8867,0.59716 1.82795,0.69462 3.11972,1.6695 4.31396,2.8516 1.19431,1.18202 2.16919,2.77848 2.8516,4.50889 0.68248,1.73048 1.04807,3.92402 1.04807,3.92402 z m -0.68095,0.7159 c 0,0 -0.12335,-0.009 -1.19577,-2.79976 -1.07235,-2.7907 -3.00997,-5.37417 -4.42364,-6.60504 -1.41359,-1.23079 -3.44868,-2.13256 -5.43507,-2.53471 -1.9864,-0.40215 -4.58209,0.0487 -4.58209,0.0487 0,0 2.57134,-0.77988 4.81365,-0.53617 2.24224,0.2437 4.28954,1.14554 5.886,2.57134 1.59638,1.4258 3.03439,3.44868 3.60712,4.74045 0.57274,1.29178 1.76851,4.60337 1.76851,4.60337 z m -0.65653,0.5149 c 0,0 -0.46612,-0.45699 -1.3801,-2.44032 -0.91397,-1.98332 -1.99246,-3.89353 -3.09837,-5.14567 -1.10591,-1.25215 -2.10214,-2.57741 -4.45106,-3.47311 -2.34891,-0.89569 -4.95374,-1.05107 -6.74513,-0.68548 0.70376,-0.45698 2.57741,-0.60322 4.42364,-0.45698 1.84623,0.14623 3.4731,0.63064 5.83116,2.38547 2.35805,1.75483 3.83869,4.95374 4.20428,5.77632 0.36559,0.82257 0.84085,2.24837 1.16988,2.86988 0.32904,0.6215 0.50269,0.73118 0.50269,0.73118 z m -0.66105,0.36559 c -0.88963,-0.38994 -1.45023,-1.57203 -2.03517,-2.80283 -0.58494,-1.23087 -1.58417,-2.9857 -3.00997,-4.80144 -1.42581,-1.81574 -3.36343,-3.13186 -5.87386,-3.81435 -2.51036,-0.68241 -4.89891,-0.20714 -4.89891,-0.20714 0,0 2.42511,-0.74339 4.93547,-0.26813 2.51043,0.47527 4.8502,1.99861 6.28814,3.595 1.43801,1.59638 2.41289,3.55843 3.57064,5.73976 1.15768,2.18132 1.41359,2.26665 1.41359,2.26665 0,0 -0.0488,0.13403 -0.38993,0.29248 m -0.22521,0.31367 c -0.1738,0.0502 -0.53822,0.10412 -0.9691,-0.13088 -0.60323,-0.32903 -1.38924,-1.71827 -2.12042,-3.08923 -0.73118,-1.37097 -1.77311,-2.96128 -2.92472,-4.29568 -1.15161,-1.33441 -2.88816,-2.72365 -5.0817,-3.43655 -2.19354,-0.7129 -5.02686,-0.47527 -5.02686,-0.47527 0,0 2.97955,-0.91397 6.47094,0.42043 2.0394,0.77944 3.93009,2.35806 5.09998,4.02149 1.16988,1.66343 1.93762,3.39999 3.18063,5.39245 0.82616,1.32424 1.20798,1.57423 1.37125,1.59324 0.0695,-0.02 0.10939,-0.0395 0.10939,-0.0395 0,0 -0.027,0.0491 -0.10939,0.0395 m -3.05297,-1.08141 c -1.07848,-1.48064 -2.0473,-3.19891 -3.58278,-5.19138 -1.53547,-1.99246 -3.10751,-3.07095 -5.13653,-3.94837 -2.02903,-0.87742 -4.91719,-0.74946 -4.91719,-0.74946 0,0 1.99247,-0.32903 4.2774,0.10968 2.28494,0.43871 4.24085,1.55376 5.64837,3.25375 1.40752,1.69999 2.74192,3.50966 3.76557,5.5204 1.02365,2.01075 1.55376,2.19354 2.55913,2.65053 -1.04193,0.0914 -1.53548,-0.16451 -2.61397,-1.64515 m 0.9871,2.1387 c -0.38387,-0.0914 -0.87742,-0.25592 -2.12042,-1.90107 -1.24301,-1.64515 -1.79139,-2.52257 -3.14408,-4.25912 -1.35268,-1.73655 -2.97955,-3.30859 -4.77094,-4.2774 -1.79139,-0.96881 -4.91719,-1.09677 -4.91719,-1.09677 0,0 3.05268,-0.56667 6.14191,1.18816 2.22191,1.26217 3.8387,3.05268 4.88063,4.643 1.04193,1.59031 2.21181,3.25374 3.10751,4.58815 0.80474,1.19884 1.63835,1.08463 1.79965,1.04903 0.0182,-0.004 0.0283,-0.007 0.0283,-0.007 0,0 -0.0101,0.003 -0.0283,0.007 -0.12554,0.0306 -0.64183,0.14587 -0.97707,0.066 m -2.99784,-1.1699 c -1.29784,-1.57203 -2.12042,-3.0344 -3.29031,-4.42364 -1.16988,-1.38924 -3.08923,-3.36342 -5.28277,-4.33224 -2.19354,-0.96881 -4.186,-0.95053 -4.186,-0.95053 0,0 2.28493,-0.25591 4.36879,0.47527 2.08387,0.73118 3.43655,1.8645 4.88063,3.58278 1.44408,1.71827 2.43117,3.2903 3.5645,4.78922 1.13333,1.49892 1.99246,2.26666 2.99784,2.52257 -0.74946,0 -1.75483,-0.0914 -3.05268,-1.66343 m 2.02486,2.09556 c -0.36852,0.0155 -1.35108,-0.0246 -2.20765,-0.77943 -1.0785,-0.95053 -2.02903,-2.19355 -3.16236,-3.74729 -1.13333,-1.55376 -2.63224,-3.39999 -4.88062,-4.97202 -2.24838,-1.57204 -5.06342,-1.80967 -5.06342,-1.80967 0,0 2.41289,-0.10968 4.20428,0.76773 1.79139,0.87742 3.41827,2.02903 4.93547,3.94837 1.51719,1.91935 2.50429,3.18064 3.96665,5.00859 1.11183,1.38975 1.89558,1.57481 2.20765,1.58373 0.0956,-0.004 0.1504,-0.0117 0.1504,-0.0117 0,0 -0.052,0.0145 -0.1504,0.0117 m -3.88937,-1.05363 c -1.04193,-0.96881 -1.9559,-1.91935 -3.01611,-3.39999 -1.06021,-1.48063 -2.68709,-3.4731 -5.15482,-4.8989 -2.46773,-1.4258 -4.14945,-1.29784 -4.14945,-1.29784 0,0 2.10215,-0.21936 3.61934,0.47526 1.5172,0.69463 3.0344,1.75484 4.4602,3.29031 1.4258,1.53548 2.17526,2.55913 3.82041,4.53332 1.64516,1.97418 2.10215,2.37633 3.39999,2.88816 -1.00537,-0.0731 -1.93763,-0.62151 -2.97956,-1.59032 m -0.51182,0.95053 c -1.16989,-0.87741 -1.95591,-2.01074 -3.10752,-3.30858 -1.1516,-1.29786 -2.57741,-3.0344 -4.53331,-4.69784 -1.95591,-1.66344 -4.55159,-1.99246 -4.55159,-1.99246 0,0 0.6215,-0.32903 2.44945,0.38387 1.82795,0.71289 3.03439,1.55376 4.71611,3.25375 1.68171,1.69999 2.01074,2.41289 3.76557,4.47847 1.75483,2.06559 2.97956,2.63224 4.07633,3.01611 -0.56667,-0.0183 -1.64516,-0.25591 -2.81504,-1.13333 m 1.33564,1.45761 c -0.55782,-0.12196 -1.37776,-0.36018 -2.0851,-0.79954 -1.20645,-0.74946 -2.3215,-1.88279 -3.63762,-3.58278 -1.31613,-1.7 -2.30322,-2.96128 -4.49676,-4.643 -2.19354,-1.68171 -4.14944,-1.84622 -4.14944,-1.84622 0,0 1.48064,-0.1828 3.32687,0.87741 1.84622,1.06021 2.35805,1.4258 4.22256,3.41827 1.86451,1.99246 2.08386,2.72364 4.22256,4.78922 1.18561,1.14503 2.056,1.60421 2.59693,1.78664 0.3936,0.0861 0.65682,0.11443 0.65682,0.11443 0,0 -0.22206,0.0321 -0.65682,-0.11443 m -2.8894,-0.26944 c -1.22473,-0.78602 -2.33977,-1.55376 -3.69246,-3.27203 -1.35268,-1.71827 -2.2301,-2.50429 -4.02149,-4.25912 -1.79139,-1.75483 -4.46019,-2.57741 -4.46019,-2.57741 0,0 1.62687,0.23764 2.77848,0.85914 1.15161,0.6215 2.28494,1.37096 3.4731,2.63225 1.18817,1.26128 3.01612,3.49138 4.95375,5.35589 1.93762,1.86451 3.50966,2.10214 3.50966,2.10214 0,0 -1.31612,-0.0548 -2.54085,-0.84086 m -2.96128,-1.02365 c -1.20644,-1.3344 -2.28493,-2.2301 -4.2774,-4.47848 -1.99246,-2.24837 -3.58278,-3.23547 -4.69783,-3.78385 0,0 0.87742,0.21935 1.44408,0.54838 0.56667,0.32903 1.73655,0.87742 3.47311,2.74193 1.73655,1.86451 2.5774,2.8516 3.72901,4.0946 1.15161,1.24301 2.44945,2.48601 4.3688,3.1258 -1.13333,0.10967 -2.83332,-0.91398 -4.03977,-2.24838 m 1.37096,2.26666 c -0.69462,-0.47526 -2.19354,-1.29785 -3.83869,-2.943 -1.64515,-1.64516 -2.92472,-3.34515 -4.73439,-4.95374 -1.80967,-1.6086 -4.11288,-2.48601 -4.11288,-2.48601 0,0 0.67634,-0.0366 1.93762,0.51182 1.26129,0.54839 3.05268,1.71827 4.44192,3.36343 1.38924,1.64515 2.50429,3.03439 4.67955,4.88062 2.17526,1.84623 3.4731,2.19354 3.4731,2.19354 0,0 -1.1516,-0.0914 -1.84623,-0.56666 m -3.69245,-1.29785 c -1.48064,-1.44408 -3.0344,-3.07095 -5.06342,-5.19137 -2.02903,-2.12042 -4.20428,-3.10752 -4.20428,-3.10752 0,0 0.67634,0 2.02902,0.8043 1.35268,0.8043 2.1387,1.66344 3.10751,2.61397 0.96881,0.95053 2.43117,2.7602 4.16773,4.40536 1.73655,1.64515 3.89353,2.61396 3.89353,2.61396 0,0 -2.44945,-0.69462 -3.93009,-2.1387 m -1.6086,0.0366 c -1.35268,-1.13333 -2.7602,-2.70536 -4.66127,-4.77095 -1.90107,-2.06558 -3.72901,-3.03439 -3.72901,-3.03439 0,0 2.33977,1.09677 3.74729,2.50429 1.40752,1.40752 2.70537,2.96128 4.47848,4.67955 1.77311,1.71827 2.65052,2.2301 4.2774,2.99784 -1.53548,-0.36559 -2.76021,-1.24301 -4.11289,-2.37634 m 9.66276,-25.38648 c -0.44997,-0.5402 -0.8818,-1.09619 -1.28446,-1.67404 -0.1,-0.14492 -0.19669,-0.29218 -0.29401,-0.439 l -0.28004,-0.44785 c -0.18265,-0.29868 -0.37276,-0.59276 -0.56762,-0.88429 -0.38679,-0.5837 -0.80108,-1.1576 -1.11483,-1.79818 -0.1572,-0.31902 -0.2864,-0.65339 -0.38357,-0.99602 -0.0996,-0.34234 -0.16415,-0.693 -0.21175,-1.04434 -0.0909,-0.70267 -0.1227,-1.41323 -0.0703,-2.1221 0.0531,-0.70778 0.1893,-1.41235 0.42759,-2.08444 0.11991,-0.33555 0.26476,-0.6626 0.43483,-0.9765 0.17125,-0.31331 0.36888,-0.61237 0.58963,-0.89349 0.22206,-0.28019 0.47095,-0.53882 0.73798,-0.7763 0.26863,-0.23602 0.55884,-0.44653 0.85913,-0.63664 0.60315,-0.37853 1.25485,-0.67473 1.92973,-0.8943 0.67525,-0.21855 1.37316,-0.3642 2.07838,-0.43578 0.35243,-0.0367 0.70698,-0.0538 1.06145,-0.0525 0.35448,0.003 0.7091,0.0268 1.06051,0.0697 0.70266,0.0857 1.39969,0.24692 2.05746,0.51534 0.65697,0.26702 1.27255,0.6487 1.7805,1.14627 0.12671,0.12437 0.24728,0.25503 0.35864,0.39323 0.11282,0.13687 0.21702,0.28062 0.31339,0.4292 0.0984,0.14748 0.18337,0.30322 0.26724,0.4575 0.0428,0.077 0.0836,0.15493 0.1235,0.23354 0.0401,0.0783 0.0812,0.15618 0.11874,0.2358 0.30681,0.63233 0.57522,1.28958 0.72072,1.97792 -0.0807,-0.3419 -0.20143,-0.67247 -0.33341,-0.99697 -0.13191,-0.32479 -0.28085,-0.64234 -0.4431,-0.9528 -0.0393,-0.0782 -0.0822,-0.15464 -0.12408,-0.23156 -0.0416,-0.077 -0.0841,-0.15355 -0.12861,-0.22893 -0.0879,-0.15172 -0.17461,-0.30293 -0.27449,-0.44544 -0.19522,-0.28823 -0.42372,-0.55284 -0.67554,-0.7915 -0.50319,-0.47951 -1.10898,-0.84386 -1.75556,-1.09641 -0.64731,-0.25386 -1.33301,-0.4028 -2.02463,-0.4776 -1.38347,-0.14529 -2.79845,0.008 -4.11889,0.44097 -0.65945,0.21811 -1.2944,0.51066 -1.87956,0.88188 -0.29204,0.18696 -0.57091,0.3914 -0.82894,0.62026 -0.25701,0.22988 -0.49414,0.48163 -0.70947,0.75099 -0.21401,0.27025 -0.40631,0.55804 -0.57332,0.86031 -0.1659,0.30285 -0.30775,0.61894 -0.42576,0.94417 -0.23427,0.65126 -0.37056,1.33718 -0.42569,2.02917 -0.0546,0.69206 -0.0266,1.39224 0.0594,2.08233 0.0874,0.68921 0.25927,1.36657 0.55855,1.99253 0.29612,0.6275 0.69893,1.20404 1.079,1.7952 0.19127,0.2951 0.37838,0.59357 0.55789,0.89657 l 0.27214,0.44931 0.2848,0.44105 c 0.77644,1.16652 1.66234,2.26095 2.61111,3.29593 -0.49428,-0.49917 -0.96384,-1.02292 -1.41461,-1.56223 m -0.36245,0.0826 c -0.23931,-0.2886 -0.46137,-0.59094 -0.68284,-0.89233 -0.22119,-0.30183 -0.43879,-0.60615 -0.65595,-0.91083 -0.4319,-0.61098 -0.85701,-1.2267 -1.27503,-1.84769 -0.20904,-0.31046 -0.41596,-0.62246 -0.61762,-0.93862 -0.10105,-0.15808 -0.20049,-0.31697 -0.29547,-0.48089 -0.0965,-0.16379 -0.17951,-0.33766 -0.25116,-0.51329 -0.28326,-0.70662 -0.4303,-1.45337 -0.51578,-2.20144 -0.0831,-0.74931 -0.0987,-1.50601 -0.0352,-2.25905 0.0656,-0.75377 0.24341,-1.5044 0.56103,-2.19668 0.31441,-0.69353 0.76116,-1.32278 1.28754,-1.86795 0.26315,-0.27324 0.54809,-0.52374 0.84312,-0.75999 0.29532,-0.23529 0.60951,-0.45201 0.9362,-0.64322 0.65521,-0.38153 1.36175,-0.66851 2.08957,-0.87054 0.72825,-0.20173 1.47786,-0.32047 2.23097,-0.36222 0.37663,-0.0213 0.75436,-0.0214 1.13107,-0.003 0.3767,0.0205 0.75201,0.062 1.12411,0.12159 0.74324,0.12058 1.48086,0.32399 2.15742,0.6664 0.67868,0.33795 1.27547,0.82733 1.76989,1.39392 0.12408,0.14149 0.24312,0.28699 0.35872,0.43483 0.11465,0.14792 0.23047,0.29701 0.3332,0.45546 0.20714,0.31499 0.38087,0.6506 0.52316,0.99813 0.28384,0.69513 0.46188,1.43245 0.5214,2.17811 -0.0379,-0.3721 -0.11311,-0.73937 -0.20904,-1.09984 -0.0959,-0.36054 -0.2168,-0.71436 -0.36611,-1.05546 -0.14864,-0.34131 -0.32778,-0.66903 -0.53836,-0.97437 -0.10427,-0.15318 -0.2214,-0.2973 -0.3389,-0.44236 -0.11802,-0.14412 -0.23895,-0.28553 -0.3645,-0.4224 -0.49669,-0.55168 -1.08448,-1.02088 -1.75125,-1.34172 -0.66456,-0.32523 -1.38894,-0.5149 -2.12151,-0.62377 -1.46697,-0.21423 -2.98036,-0.13146 -4.40646,0.26908 -0.71209,0.20107 -1.40116,0.48484 -2.03736,0.85906 -0.63393,0.37517 -1.21397,0.84649 -1.72755,1.37491 -0.51417,0.52791 -0.9482,1.13421 -1.25485,1.80272 -0.30973,0.66735 -0.48551,1.39253 -0.55278,2.1273 -0.0655,0.73725 -0.0537,1.48319 0.0249,2.22059 0.0387,0.36895 0.0976,0.73542 0.17424,1.09757 0.0769,0.36187 0.17541,0.71948 0.309,1.06219 0.0673,0.17153 0.14353,0.337 0.23463,0.49669 0.0904,0.16093 0.18719,0.32048 0.28546,0.47877 0.19617,0.31704 0.39842,0.63116 0.60286,0.94381 0.40821,0.62589 0.82652,1.24549 1.24688,1.86356 0.21014,0.30907 0.42079,0.61792 0.63503,0.92414 0.21453,0.30614 0.42876,0.6117 0.66106,0.90388 0.23127,0.29299 0.47314,0.57792 0.71977,0.8587 0.24677,0.28062 0.49859,0.55708 0.75772,0.82667 -0.5323,-0.52535 -1.04383,-1.07264 -1.52115,-1.6502 m 10.42034,-11.58408 c -0.091,-0.2426 -0.19201,-0.48141 -0.30776,-0.71268 -0.23046,-0.46298 -0.51036,-0.9011 -0.84283,-1.29411 -0.33012,-0.39426 -0.71209,-0.74551 -1.1421,-1.02417 -0.42876,-0.28128 -0.89803,-0.49888 -1.38493,-0.65813 -0.24333,-0.0806 -0.49186,-0.14514 -0.74317,-0.19581 -0.25108,-0.0516 -0.50466,-0.0912 -0.75984,-0.11801 -0.51051,-0.05 -1.02584,-0.0557 -1.53774,-0.0134 -1.02344,0.0793 -2.037,0.32384 -2.98197,0.72022 -0.94213,0.39747 -1.79958,1.00274 -2.46035,1.78232 -0.33078,0.38855 -0.61192,0.82031 -0.82411,1.28424 -0.10661,0.23164 -0.19537,0.47132 -0.2671,0.71583 -0.0714,0.24377 -0.11962,0.49684 -0.16481,0.75092 -0.17249,1.01561 -0.22169,2.05878 -0.10346,3.08434 0.06,0.51197 0.16481,1.02131 0.37253,1.49584 0.0985,0.23976 0.20313,0.47703 0.31653,0.7102 0.11458,0.23207 0.23201,0.46488 0.3857,0.67444 -0.16247,-0.20327 -0.28999,-0.43176 -0.41458,-0.65975 -0.12181,-0.22988 -0.23354,-0.46503 -0.34,-0.70244 -0.22484,-0.47249 -0.34862,-0.98877 -0.4254,-1.50455 -0.0743,-0.51767 -0.0973,-1.0412 -0.0893,-1.56348 0.0102,-0.52235 0.0527,-1.04442 0.13249,-1.56158 0.0408,-0.25789 0.0848,-0.51687 0.15436,-0.77322 0.0697,-0.25526 0.16093,-0.50422 0.26849,-0.74566 0.21533,-0.48309 0.50195,-0.93291 0.84027,-1.33842 0.67831,-0.81183 1.56443,-1.4375 2.5328,-1.85069 0.48624,-0.20334 0.98651,-0.36472 1.49775,-0.48551 0.51066,-0.12123 1.03075,-0.20414 1.55478,-0.24019 1.04581,-0.0714 2.11479,0.0254 3.11007,0.37451 0.49662,0.17314 0.97357,0.40559 1.40796,0.70281 0.4363,0.2954 0.82119,0.66201 1.14832,1.07125 0.32574,0.41093 0.5946,0.86338 0.81205,1.33718 0.21614,0.47417 0.3865,0.97028 0.48375,1.48101 -0.0577,-0.25328 -0.13863,-0.50042 -0.22842,-0.74332 m -2.30015,-2.54597 c -0.48952,-0.33583 -1.03915,-0.57909 -1.61144,-0.73958 -0.2867,-0.0794 -0.57764,-0.14258 -0.87303,-0.18609 -0.29416,-0.0499 -0.59123,-0.0786 -0.88831,-0.10207 -0.59423,-0.0393 -1.19336,-0.0312 -1.78328,0.0537 -0.59094,0.0777 -1.16967,0.23412 -1.72704,0.44441 -0.55592,0.21467 -1.08712,0.49676 -1.57365,0.84392 -0.4885,0.34395 -0.93481,0.75239 -1.30464,1.22627 0.17219,-0.24627 0.36698,-0.47746 0.58077,-0.6898 0.21285,-0.21336 0.44105,-0.41173 0.68146,-0.59445 0.48309,-0.36252 1.01503,-0.65989 1.57445,-0.89065 1.12273,-0.45991 2.35579,-0.61755 3.56209,-0.53895 0.30154,0.026 0.60278,0.0573 0.9006,0.11012 0.29861,0.0463 0.59547,0.11289 0.88699,0.19602 0.58143,0.16956 1.14722,0.4167 1.63967,0.77608 0.4926,0.35638 0.91061,0.81738 1.20352,1.34851 0.14521,0.26601 0.26059,0.54744 0.34417,0.8375 0.0828,0.28976 0.13804,0.58889 0.14236,0.8897 -0.10215,-1.19972 -0.77418,-2.31697 -1.75469,-2.98461 m 0.87479,1.7182 c -0.10485,-0.20341 -0.22345,-0.39995 -0.36632,-0.57858 -0.0326,-0.0469 -0.0728,-0.088 -0.10888,-0.13227 -0.0367,-0.0439 -0.0737,-0.0874 -0.11479,-0.1273 l -0.11933,-0.12335 -0.12737,-0.11531 c -0.0821,-0.0806 -0.17724,-0.14543 -0.26688,-0.21774 -0.0907,-0.0709 -0.18974,-0.13022 -0.28319,-0.19925 0.0512,0.0268 0.10215,0.0543 0.15282,0.0826 0.0499,0.0293 0.10353,0.0534 0.15069,0.0872 0.0947,0.067 0.19486,0.12752 0.2829,0.20422 0.18594,0.14127 0.34446,0.31543 0.49172,0.49633 0.14455,0.18374 0.26461,0.3865 0.3593,0.59964 0.0478,0.10638 0.0869,0.21635 0.12167,0.32735 0.0297,0.11252 0.0581,0.22571 0.0678,0.34138 -0.0529,-0.22527 -0.13738,-0.44031 -0.24011,-0.6449 m 6.71106,22.17814 c -1.62688,-2.21181 -5.73977,-4.88062 -7.82363,-6.48922 -2.08386,-1.60859 -4.8989,-3.96664 -6.2333,-5.63008 -1.33441,-1.66343 -2.15698,-2.15698 -2.44945,-4.38708 -0.29248,-2.2301 0.63978,-3.98493 1.51719,-4.58815 0.87742,-0.60322 1.29785,-0.21935 1.79139,0.32903 0.49355,0.54839 2.2301,1.68171 3.71074,1.82795 1.48064,0.14624 2.41289,0.0731 3.60106,0.51183 1.18817,0.4387 2.97956,1.62687 2.97956,1.62687 0.5301,0.32902 1.07849,0.34731 0.76774,-0.34731 -0.31076,-0.69462 -1.6086,-2.77848 -1.6086,-2.77848 0,0 0.18279,-1.62688 -1.18817,-3.89353 -1.37096,-2.26666 -4.35052,-2.99784 -6.81825,-3.05268 -2.46773,-0.0548 -6.12363,1.55376 -7.47631,3.91181 -1.35268,2.35806 -1.55376,5.09997 -0.73118,7.2204 0.82258,2.12042 3.43655,5.41073 4.82579,7.07416 1.38924,1.66344 5.41073,5.42901 6.92792,6.81826 1.5172,1.38924 2.97956,2.83332 3.30859,4.66127 0.32903,1.82795 -0.21935,4.2774 -0.65806,5.50212 -0.43871,1.22473 -0.8043,1.38924 -0.8043,1.38924 0,0 -0.29247,-2.70536 -1.86451,-5.59352 -1.57203,-2.88816 -4.13116,-4.84407 -6.96448,-5.7032 -2.83332,-0.85914 -5.83116,-0.5484 -8.79244,0.49354 -2.96127,1.04193 -9.72469,3.25375 -12.1193,3.63762 -2.39461,0.38387 -4.44192,0.74946 -6.19675,0.67634 -1.75483,-0.0731 -1.48064,-0.74945 -2.1387,-0.51182 -0.65806,0.23763 -0.40215,0.91397 0.65806,1.75483 1.06021,0.84086 3.18064,2.08385 5.84944,2.68708 2.66881,0.60323 4.13117,1.04194 5.37417,1.99247 1.24301,0.95053 3.23547,3.19891 4.95374,4.93546 1.71827,1.73655 3.6559,3.67418 6.48922,4.60643 2.83333,0.93226 5.64837,0.82258 8.51825,0.49355 2.86988,-0.32903 6.78169,-1.16989 9.66985,-3.18063 2.88816,-2.01074 4.44191,-4.8258 4.82578,-7.87846 0.38387,-3.05268 -0.27419,-5.90428 -1.90106,-8.1161"
       style="fill:#174e85;fill-opacity:1;fill-rule:nonzero;stroke:none;stroke-width:0.0731178"
       id="path1105"
       inkscape:export-filename="C:\Users\Tippe\Pictures\Blackswan site images\Blackswan-Logo2.png"
       inkscape:export-xdpi="232.22856"
       inkscape:export-ydpi="232.22856" />
  </g>
</svg>
